<svg width="206" height="206" viewBox="0 0 206 206" fill="none" xmlns="http://www.w3.org/2000/svg">
<g opacity="0.15">
<path d="M189.993 142.114C192.65 142.114 194.812 139.957 194.812 137.306V128.953H201.135C203.817 128.953 206 126.77 206 124.088V113.048C206 110.365 203.817 108.183 201.135 108.183H192.44V75.0141C193.291 75.2262 194.164 75.338 195.044 75.338C195.999 75.338 196.961 75.2121 197.91 74.957C200.736 74.1978 203.09 72.3896 204.533 69.875C205.991 67.3563 206.377 64.412 205.621 61.5843C204.864 58.755 203.057 56.3949 200.534 54.9388L108.862 2.01369C107.183 1.0372 105.156 0.520996 102.999 0.520996C100.843 0.520996 98.8154 1.0372 97.1457 2.00886L5.46202 54.94C0.242417 57.9612 -1.55043 64.659 1.46353 69.8714C2.92001 72.3953 5.27775 74.2022 8.10341 74.959C9.92442 75.4467 11.7945 75.4571 13.5705 75.0145V108.182H4.8754C2.19258 108.182 0.0102645 110.365 0.0102645 113.047V124.087C0.0102645 126.77 2.19298 128.952 4.8754 128.952H11.1978V137.305C11.1978 139.957 13.3548 142.113 16.0058 142.113H19.6374V171.547H16.0058C13.3548 171.547 11.1978 173.709 11.1978 176.367V184.708H4.8754C2.19258 184.708 0.0102645 186.891 0.0102645 189.573V200.613C0.0102645 203.296 2.19298 205.479 4.8754 205.479H96.7043C98.3708 205.479 99.7219 204.127 99.7219 202.461C99.7219 200.794 98.3712 199.443 96.7043 199.443H6.04502V190.743H199.965V199.443H110.629C108.963 199.443 107.611 200.794 107.611 202.461C107.611 204.127 108.962 205.479 110.629 205.479H201.135C203.817 205.479 206 203.296 206 200.613V189.573C206 186.891 203.817 184.708 201.135 184.708H194.812V176.367C194.812 173.709 192.65 171.547 189.993 171.547H186.362V142.113H189.993V142.114ZM13.3805 68.6466C12.2516 69.2976 10.9327 69.469 9.6645 69.1295C8.39752 68.7899 7.34097 67.9824 6.69078 66.855C6.68997 66.8538 6.68957 66.853 6.68877 66.8518C5.3385 64.5186 6.1444 61.5179 8.48242 60.1648L100.172 7.23048C100.908 6.80198 101.939 6.55615 102.999 6.55615C104.076 6.55615 105.08 6.79555 105.836 7.23531L197.518 60.1656C198.644 60.8158 199.452 61.8736 199.792 63.1442C200.131 64.4132 199.96 65.7301 199.305 66.8618C198.661 67.984 197.61 68.7891 196.344 69.1295C195.076 69.4702 193.758 69.3 192.631 68.6479L104.508 17.7703C104.041 17.5007 103.52 17.3659 102.999 17.3659C102.478 17.3659 101.957 17.5007 101.491 17.7703L13.3805 68.6466ZM6.04502 114.218H96.7043C98.3708 114.218 99.7219 112.867 99.7219 111.2C99.7219 109.534 98.3712 108.183 96.7043 108.183H19.6052V72.0211L102.999 23.8678L186.405 72.0215V108.183H110.127C108.461 108.183 107.11 109.534 107.11 111.2C107.11 112.867 108.46 114.218 110.127 114.218H199.965V122.918H6.04502V114.218ZM84.2912 136.079V128.953H121.708V136.079H84.2912ZM113.257 142.114V171.548H92.742V142.114H113.257ZM17.233 136.079V128.953H54.6377V136.079H17.233ZM46.1985 142.114V171.548H25.6726V142.114H46.1985ZM54.6377 184.709H17.233V177.583H54.6377V184.709ZM78.2561 176.367V184.709H60.6724V176.367C60.6724 173.709 58.5159 171.548 55.8644 171.548H52.2333V142.114H55.8644C58.5159 142.114 60.6724 139.957 60.6724 137.306V128.953H78.2561V137.306C78.2561 139.957 80.4183 142.114 83.0753 142.114H86.7069V171.548H83.0753C80.4183 171.548 78.2561 173.709 78.2561 176.367ZM121.708 184.709H84.2912V177.583H121.708V184.709ZM145.326 176.367V184.709H127.742V176.367C127.742 173.709 125.58 171.548 122.923 171.548H119.292V142.114H122.923C125.58 142.114 127.742 139.957 127.742 137.306V128.953H145.326V137.306C145.326 139.957 147.488 142.114 150.146 142.114H153.777V171.548H150.146C147.488 171.548 145.326 173.709 145.326 176.367ZM188.777 177.583V184.709H151.361V177.583H188.777ZM159.812 171.548V142.114H180.327V171.548H159.812ZM151.361 136.079V128.953H188.777V136.079H151.361Z" fill="white"/>
<path d="M116.121 47.8806C116.121 40.8903 110.434 35.2031 103.444 35.2031C96.4538 35.2031 90.7671 40.8903 90.7671 47.8806C90.7671 54.8709 96.4538 60.558 103.444 60.558C110.434 60.558 116.121 54.8709 116.121 47.8806ZM96.8022 47.8806C96.8022 44.218 99.782 41.2383 103.444 41.2383C107.106 41.2383 110.086 44.218 110.086 47.8806C110.086 51.5431 107.106 54.5229 103.444 54.5229C99.782 54.5229 96.8022 51.5431 96.8022 47.8806Z" fill="white"/>
<path d="M66.5995 82.5828C67.4276 81.2808 67.9144 79.7411 67.9144 78.087C67.9144 73.45 64.1416 69.6772 59.5046 69.6772H52.6978C51.0308 69.6772 49.6802 71.0283 49.6802 72.6948V83.4853V83.5026V96.1285C49.6802 96.9312 50 97.7009 50.569 98.267C51.1342 98.8303 51.8999 99.1461 52.6978 99.1461H52.711C52.711 99.1461 58.9687 99.1183 60.6935 99.1183C65.8351 99.1183 70.0187 94.9352 70.0187 89.7932C70.0183 86.8911 68.6853 84.2948 66.5995 82.5828ZM59.5046 75.7128C60.8142 75.7128 61.8792 76.7778 61.8792 78.0874C61.8792 79.3971 60.8142 80.4621 59.5046 80.4621C59.0069 80.4621 55.7153 80.4685 55.7153 80.4685V75.7132H59.5046V75.7128ZM60.6935 93.0836C59.7754 93.0836 57.577 93.0916 55.7153 93.0989V86.5081C56.1599 86.5065 60.6935 86.5033 60.6935 86.5033C62.5077 86.5033 63.9835 87.9791 63.9835 89.7936C63.9831 91.6078 62.5073 93.0836 60.6935 93.0836Z" fill="white"/>
<path d="M90.9581 71.959C90.9481 71.9321 90.9372 71.9051 90.9267 71.8781C90.3775 70.5412 89.0896 69.6777 87.6444 69.6777C87.6436 69.6777 87.6428 69.6777 87.6424 69.6777C86.196 69.6785 84.9077 70.544 84.3597 71.8822C84.3504 71.9051 84.3412 71.928 84.3327 71.951L75.5335 95.0548C74.94 96.6122 75.7222 98.3556 77.2796 98.9486C78.8351 99.5421 80.5801 98.7603 81.1735 97.2029L82.6248 93.3923H92.5973L94.032 97.1944C94.4879 98.4027 95.6362 99.1474 96.8557 99.1474C97.2097 99.1474 97.5698 99.0846 97.9207 98.9523C99.4798 98.3636 100.267 96.6227 99.6781 95.0636L90.9581 71.959ZM84.923 87.3575L87.6336 80.2409L90.3192 87.3575H84.923Z" fill="white"/>
<path d="M125.371 69.6777C125.362 69.6777 125.351 69.6777 125.341 69.6777C123.674 69.6938 122.337 71.0578 122.353 72.7243L122.488 86.717L111.651 71.0244C110.901 69.9376 109.532 69.4657 108.27 69.8584C107.009 70.2515 106.15 71.4187 106.15 72.7392V96.1294C106.15 97.7959 107.501 99.147 109.168 99.147C110.835 99.147 112.186 97.7959 112.186 96.1294V82.4192L122.501 97.3562C123.383 98.632 124.859 99.1752 126.258 98.7378C127.685 98.2924 128.607 96.9587 128.607 95.3107L128.388 72.6663C128.372 71.0095 127.024 69.6777 125.371 69.6777Z" fill="white"/>
<path d="M156.09 93.9574L145.55 83.7886L155.195 74.9233C156.422 73.7956 156.502 71.8865 155.374 70.6593C154.247 69.4326 152.337 69.3517 151.11 70.4799L143.407 77.5611V72.4019C143.407 70.7353 142.056 69.3843 140.389 69.3843C138.722 69.3843 137.372 70.7353 137.372 72.4019V96.1289C137.372 97.7954 138.722 99.1465 140.389 99.1465C142.056 99.1465 143.407 97.7954 143.407 96.1289V90.1066L151.9 98.3007C152.485 98.8656 153.24 99.1469 153.994 99.1469C154.785 99.1469 155.574 98.8383 156.166 98.2247C157.324 97.0249 157.29 95.1146 156.09 93.9574Z" fill="white"/>
</g>
</svg>
