<svg width="206" height="206" viewBox="0 0 206 206" fill="none" xmlns="http://www.w3.org/2000/svg">
<g opacity="0.15" clip-path="url(#clip0_984_2687)">
<path d="M102.833 105.141C87.0917 105.141 74.2827 117.948 74.2827 133.691C74.2827 149.435 87.0917 162.242 102.833 162.242C118.577 162.242 131.386 149.435 131.386 133.691C131.386 117.948 118.577 105.141 102.833 105.141ZM102.833 156.215C90.4142 156.215 80.31 146.11 80.31 133.691C80.31 121.272 90.4142 111.168 102.833 111.168C115.254 111.168 125.358 121.272 125.358 133.691C125.358 146.11 115.254 156.215 102.833 156.215Z" fill="white"/>
<path d="M68.04 56.5341C68.04 59.3034 70.2938 61.5571 73.063 61.5571H180.368C183.137 61.5571 185.391 59.3034 185.391 56.5341V45.96C185.391 43.1908 183.138 40.937 180.368 40.937H120.313C118.649 40.937 117.299 42.2871 117.299 43.9514C117.299 45.6158 118.649 46.9643 120.313 46.9643H179.363V55.5298H74.0673V46.9643H106.248C107.913 46.9643 109.263 45.6158 109.263 43.9514C109.263 42.2871 107.913 40.937 106.248 40.937H73.063C70.2938 40.937 68.04 43.1908 68.04 45.96V56.5341Z" fill="white"/>
<path d="M146.093 33.2529C147.757 33.2529 149.106 31.9028 149.106 30.2384C149.106 28.5741 147.757 27.2256 146.093 27.2256H71.0545C69.3901 27.2256 68.04 28.5741 68.04 30.2384C68.04 31.9028 69.3901 33.2529 71.0545 33.2529H146.093Z" fill="white"/>
<path d="M71.0545 74.4257H182.378C184.042 74.4257 185.391 73.0757 185.391 71.4113C185.391 69.7469 184.042 68.3984 182.378 68.3984H71.0545C69.3901 68.3984 68.04 69.7469 68.04 71.4113C68.04 73.0757 69.3901 74.4257 71.0545 74.4257Z" fill="white"/>
<path d="M182.378 33.2529C184.042 33.2529 185.391 31.9028 185.391 30.2384C185.391 28.5741 184.042 27.2256 182.378 27.2256H160.604C158.94 27.2256 157.59 28.5741 157.59 30.2384C157.59 31.9028 158.94 33.2529 160.604 33.2529H182.378Z" fill="white"/>
<path d="M28.2599 61.5005C26.3802 61.5005 24.8667 64.045 24.8667 65.7409C24.8667 69.1341 30.3801 73.0726 37.7102 73.2549V74.9507C37.7102 75.7381 38.6202 76.4658 39.7707 76.4658C40.8017 76.4658 41.8311 75.7381 41.8311 74.9507V73.0726C48.6159 71.9819 53.2822 67.6803 53.2822 60.2275C53.2822 51.9873 47.2235 49.2605 41.8311 47.2614V36.5977C45.8907 36.901 47.2832 38.8404 48.9806 38.8404C51.2218 38.8404 52.1915 36.0523 52.1915 34.6598C52.1915 31.1441 45.7697 29.9936 41.8311 29.8726V28.2978C41.8311 27.5104 40.8017 26.7827 39.7707 26.7827C38.6202 26.7827 37.7118 27.5088 37.7118 28.2978V29.9936C31.6531 30.781 25.9574 34.1129 25.9574 41.8093C25.9574 49.5638 32.1985 51.9276 37.7118 53.9865V66.0442C32.3792 65.4375 30.5608 61.5005 28.2599 61.5005ZM41.3455 55.4402C43.9513 56.5923 45.8907 58.046 45.8907 61.0149C45.8907 63.8627 44.011 65.4375 41.3455 65.9829V55.4402ZM33.3489 41.0203C33.3489 38.7178 35.1657 37.2641 38.1959 36.78V45.9286C35.4078 44.8379 33.3489 43.6858 33.3489 41.0203Z" fill="white"/>
<path d="M190.038 0H15.6301C7.01114 0 0 7.01114 0 15.6301V109.731C0 111.396 1.34848 112.746 3.01443 112.746C4.67881 112.746 6.02729 111.396 6.02729 109.731V15.6301C6.02729 10.3352 10.3352 6.02729 15.6301 6.02729H190.038C195.333 6.02729 199.641 10.3352 199.641 15.6301V138.552C199.641 143.847 195.333 148.155 190.038 148.155H140.105C140.135 147.308 140.218 146.536 140.424 145.904C140.776 144.818 141.747 143.549 142.777 142.203C144.594 139.828 146.653 137.135 146.653 133.691C146.653 130.248 144.594 127.554 142.777 125.179C141.747 123.834 140.776 122.562 140.424 121.478C140.039 120.297 140.074 118.638 140.108 116.879C140.168 113.942 140.235 110.611 138.285 107.932C136.316 105.225 133.111 104.262 130.284 103.41C128.616 102.909 127.04 102.434 126.061 101.722C125.105 101.026 124.181 99.6884 123.202 98.2708C121.514 95.8253 119.6 93.0529 116.376 92.0061C113.272 90.9987 110.154 92.0816 107.404 93.0372C105.716 93.6234 104.122 94.1766 102.833 94.1766C101.546 94.1766 99.9509 93.6234 98.2629 93.0372C95.5125 92.0816 92.3959 90.9987 89.2903 92.0061C86.0669 93.0529 84.1542 95.8253 82.4646 98.2708C81.4855 99.6868 80.5614 101.026 79.6058 101.721C78.6267 102.434 77.0519 102.909 75.3828 103.41C72.5554 104.262 69.3523 105.225 67.3831 107.93C65.4326 110.611 65.4986 113.94 65.5584 116.879C65.5929 118.636 65.6275 120.296 65.244 121.478C64.8904 122.562 63.9191 123.834 62.8913 125.177C61.0744 127.554 59.014 130.248 59.014 133.691C59.014 137.135 61.0729 139.827 62.8913 142.203C63.9191 143.549 64.8904 144.818 65.244 145.904C65.4484 146.536 65.5332 147.306 65.5631 148.155H15.6301C10.3352 148.155 6.02729 143.847 6.02729 138.552V123.815C6.02729 122.15 4.67881 120.802 3.01443 120.802C1.34848 120.802 0 122.15 0 123.815V138.552C0 147.17 7.01114 154.182 15.6301 154.182H65.6181C65.7768 156.023 66.22 157.852 67.3831 159.452C69.3523 162.157 72.5569 163.12 75.3828 163.972C77.0519 164.474 78.6282 164.948 79.6058 165.66C80.5614 166.356 81.4871 167.695 82.4646 169.111C82.9739 169.849 83.5035 170.614 84.0834 171.354V200.532C84.0834 202.335 84.9699 204.019 86.4566 205.039C87.9419 206.059 89.8341 206.283 91.5158 205.635L102.833 201.274L114.152 205.634C114.789 205.879 115.455 206 116.117 206C117.208 206 118.287 205.674 119.211 205.039C120.698 204.019 121.585 202.335 121.585 200.532V171.354C122.165 170.614 122.694 169.849 123.203 169.111C124.181 167.694 125.105 166.356 126.061 165.66C127.04 164.948 128.616 164.474 130.284 163.972C133.111 163.12 136.316 162.157 138.285 159.452C139.448 157.852 139.891 156.023 140.048 154.182H190.038C198.655 154.182 205.668 147.171 205.668 138.552V15.6301C205.668 7.01114 198.655 0 190.038 0V0ZM115.557 199.716L104.799 195.57C104.166 195.327 103.5 195.206 102.833 195.206C102.168 195.206 101.502 195.327 100.869 195.57L90.1107 199.716V175.588C90.7174 175.717 91.3241 175.778 91.9276 175.778C94.1357 175.778 96.2936 175.029 98.2645 174.345C99.9524 173.759 101.546 173.204 102.833 173.204C104.122 173.204 105.716 173.759 107.404 174.345C109.912 175.216 112.727 176.189 115.557 175.588V199.716ZM137.988 138.543C136.698 140.231 135.362 141.977 134.691 144.044C133.994 146.19 134.038 148.444 134.082 150.624C134.125 152.71 134.169 154.864 133.411 155.905C132.637 156.97 130.557 157.596 128.547 158.199C126.469 158.825 124.322 159.473 122.514 160.788C120.728 162.086 119.466 163.916 118.243 165.687C117.041 167.427 115.799 169.226 114.515 169.643C113.337 170.025 111.325 169.327 109.381 168.651C107.295 167.926 105.137 167.178 102.833 167.178C100.529 167.178 98.3713 167.926 96.2858 168.651C94.3416 169.327 92.3315 170.026 91.1527 169.643C89.8687 169.226 88.6255 167.427 87.4248 165.687C86.202 163.917 84.9384 162.086 83.153 160.788C81.3456 159.471 79.1972 158.825 77.1195 158.199C75.1109 157.596 73.0316 156.97 72.2568 155.905C71.4992 154.864 71.5432 152.708 71.5841 150.624C71.6281 148.444 71.6737 146.19 70.9759 144.044C70.3048 141.978 68.9704 140.231 67.6785 138.543C66.3819 136.847 65.0413 135.095 65.0413 133.691C65.0413 132.288 66.3819 130.535 67.6785 128.839C68.9704 127.151 70.3048 125.405 70.9759 123.339C71.6737 121.192 71.6281 118.938 71.5841 116.758C71.5432 114.674 71.4992 112.518 72.2568 111.477C73.0316 110.413 75.1093 109.786 77.1195 109.183C79.1972 108.557 81.3456 107.91 83.153 106.596C84.9384 105.296 86.202 103.465 87.4248 101.697C88.6255 99.9556 89.8687 98.1576 91.1527 97.7395C91.3838 97.6641 91.6478 97.6311 91.937 97.6311C93.1189 97.6311 94.7235 98.189 96.2858 98.7313C98.3713 99.4558 100.529 100.205 102.833 100.205C105.137 100.205 107.295 99.4558 109.381 98.7313C111.325 98.0554 113.337 97.3576 114.515 97.7395C115.798 98.156 117.041 99.9556 118.243 101.695C119.465 103.465 120.728 105.296 122.514 106.596C124.322 107.91 126.469 108.557 128.547 109.183C130.557 109.786 132.637 110.413 133.411 111.477C134.167 112.518 134.125 114.674 134.082 116.758C134.038 118.938 133.994 121.192 134.691 123.339C135.362 125.405 136.698 127.151 137.988 128.839C139.285 130.535 140.625 132.288 140.625 133.691C140.625 135.095 139.285 136.847 137.988 138.543Z" fill="white"/>
<path d="M20.7979 101.56C20.7979 103.225 22.1463 104.573 23.8107 104.573H59.5108C61.1752 104.573 62.5252 103.225 62.5252 101.56C62.5252 99.8959 61.1752 98.5459 59.5108 98.5459H23.8107C22.1463 98.5459 20.7979 99.8959 20.7979 101.56Z" fill="white"/>
<path d="M23.8107 117.299H52.7401C54.4045 117.299 55.753 115.949 55.753 114.286C55.753 112.62 54.4045 111.271 52.7401 111.271H23.8107C22.1463 111.271 20.7979 112.622 20.7979 114.286C20.7979 115.95 22.1463 117.299 23.8107 117.299Z" fill="white"/>
<path d="M23.8107 130.024H47.9183C49.5827 130.024 50.9327 128.674 50.9327 127.012C50.9327 125.346 49.5827 123.997 47.9183 123.997H23.8107C22.1463 123.997 20.7979 125.347 20.7979 127.012C20.7979 128.676 22.1463 130.024 23.8107 130.024Z" fill="white"/>
<path d="M181.858 98.5459H146.156C144.492 98.5459 143.143 99.8959 143.143 101.56C143.143 103.225 144.492 104.573 146.156 104.573H181.858C183.522 104.573 184.87 103.225 184.87 101.56C184.87 99.8959 183.522 98.5459 181.858 98.5459Z" fill="white"/>
<path d="M181.858 111.271H152.928C151.264 111.271 149.914 112.622 149.914 114.286C149.914 115.95 151.264 117.299 152.928 117.299H181.858C183.522 117.299 184.871 115.949 184.871 114.286C184.871 112.622 183.522 111.271 181.858 111.271Z" fill="white"/>
<path d="M181.858 123.997H157.75C156.084 123.997 154.736 125.347 154.736 127.012C154.736 128.676 156.084 130.024 157.75 130.024H181.858C183.522 130.024 184.871 128.674 184.871 127.012C184.871 125.346 183.522 123.997 181.858 123.997Z" fill="white"/>
</g>
<defs>
<clipPath id="clip0_984_2687">
<rect width="206" height="206" fill="white"/>
</clipPath>
</defs>
</svg>
