<svg width="80" height="81" viewBox="0 0 80 81" fill="none" xmlns="http://www.w3.org/2000/svg">
<g opacity="0.36">
<path d="M72.3034 60.3935C71.6789 60.4009 71.7475 60.3702 70.9172 60.4291V40.7611C70.9172 38.6562 69.2258 36.9437 67.1469 36.9437H57.6281C57.623 36.9437 57.6181 36.9429 57.613 36.9429H46.6517V7.3138L55.6416 16.1123C56.1497 16.6097 56.4411 17.3051 56.4411 18.0207V32.5364C56.4411 33.1917 56.9658 33.723 57.613 33.723C58.2602 33.723 58.7848 33.1917 58.7848 32.5364V18.0207C58.7848 16.6655 58.233 15.348 57.2705 14.406L46.2942 3.66357C46.0475 3.42912 45.5747 3.21871 45.1064 3.39194L25.4156 10.0934V5.47389C25.4305 3.45538 23.6417 1.69853 21.5609 1.82098C19.5708 1.82098 17.9516 3.45965 17.9516 5.47389V12.6337L12.7998 14.3871C10.7762 15.0759 9.41656 16.9908 9.41656 19.1525V60.4C4.20172 60.5352 0 64.8694 0 70.1813V76.2149C0 77.8529 1.31609 79.1853 2.93375 79.1853H77.0661C78.6839 79.1853 79.9998 77.8528 79.9998 76.2149V68.1861C80 63.8893 76.5473 60.3935 72.3034 60.3935ZM72.3034 62.7665C75.255 62.7665 77.6562 65.1978 77.6562 68.1862V69.431H66.2891V68.1862C66.2917 64.9429 69.1062 62.4855 72.3034 62.7665ZM68.5734 40.7611V61.0413C65.8525 62.244 63.9453 64.9931 63.9453 68.1861V69.4308H46.6517V39.3167H67.1469C67.9334 39.3167 68.5734 39.9647 68.5734 40.7611ZM20.2953 5.47389C20.2953 4.76815 20.8631 4.19403 21.5609 4.19403C22.1877 4.10085 23.0316 4.5984 23.0719 5.47389V10.8911L20.2953 11.836V5.47389ZM9.41672 62.7708V69.431H2.38094C2.74547 65.7762 5.74219 62.8964 9.41672 62.7708ZM2.34375 76.215V71.804H9.41672V76.8124H2.93391C2.60844 76.8124 2.34375 76.5444 2.34375 76.215ZM11.7605 19.1525C11.7605 18.0112 12.4783 17.0003 13.5467 16.6365L44.3081 6.1673V12.6323L18.75 21.3307C18.1366 21.5394 17.8064 22.2123 18.0127 22.8335C18.1772 23.3293 18.6338 23.6423 19.1233 23.6423C19.247 23.6423 19.373 23.6223 19.4969 23.5801L44.3081 15.136V21.1722L18.75 29.8706C18.1366 30.0794 17.8064 30.7522 18.0127 31.3733C18.1772 31.8691 18.6338 32.1821 19.1233 32.1821C19.247 32.1821 19.373 32.1621 19.4969 32.1199L44.3081 23.6756V29.7119L18.75 38.4104C18.1366 38.619 17.8064 39.2919 18.0127 39.9131C18.1772 40.4089 18.6338 40.7219 19.1233 40.7219C19.247 40.7219 19.373 40.7019 19.4969 40.6597L44.3081 32.2156V38.1258C44.3081 38.1273 44.308 38.1288 44.308 38.1303V38.252L18.75 46.9502C18.1366 47.159 17.8064 47.8318 18.0127 48.4529C18.1772 48.9487 18.6338 49.2617 19.1233 49.2617C19.247 49.2617 19.373 49.2417 19.4969 49.1995L44.3078 40.7552V46.7916L28.3489 52.2231C27.7355 52.4317 27.4053 53.1046 27.6116 53.7258C27.7761 54.2217 28.2327 54.5346 28.7222 54.5346C28.8459 54.5346 28.9719 54.5146 29.0958 54.4724L44.3078 49.2951V76.8123H34.1841V64.483C34.1841 63.6749 33.8194 62.931 33.1836 62.4425C32.5478 61.954 31.7422 61.7983 30.9734 62.0157L20.0661 65.0988C18.8213 65.4506 17.9519 66.6102 17.9519 67.9189V76.8123H11.7605V19.1525ZM20.2956 67.919C20.2956 67.671 20.4605 67.4512 20.6962 67.3845L24.8959 66.1973V76.8124H20.2955V67.919H20.2956ZM27.2397 76.8124V65.5348L31.6036 64.3013C31.6625 64.2845 31.7175 64.2949 31.7664 64.3327C31.8153 64.3704 31.8402 64.421 31.8402 64.4832V76.8124H27.2397ZM46.6517 76.8124V71.804H63.9453V76.8124H46.6517ZM77.6562 76.215C77.6562 76.5446 77.3916 76.8124 77.0663 76.8124H66.2891V71.804H77.6562V76.215Z" fill="#676EAE"/>
<path d="M19.1232 57.8014C19.247 57.8014 19.3729 57.7814 19.4968 57.7392L23.8477 56.2584C24.4612 56.0498 24.7913 55.3769 24.5851 54.7557C24.3788 54.1344 23.7143 53.7999 23.1009 54.0091L18.7499 55.4899C18.1365 55.6985 17.8063 56.3714 18.0126 56.9926C18.1771 57.4883 18.6337 57.8014 19.1232 57.8014Z" fill="#676EAE"/>
<path d="M51.7839 49.1032H63.2762C64.366 49.1032 65.2526 48.2056 65.2526 47.1023V44.2462C65.2526 43.1428 64.366 42.2451 63.2762 42.2451H51.7839C50.694 42.2451 49.8076 43.1428 49.8076 44.2462V47.1023C49.8076 48.2056 50.6942 49.1032 51.7839 49.1032ZM52.1514 44.6182H62.9089V46.7302H52.1514V44.6182Z" fill="#676EAE"/>
<path d="M51.7839 58.1257H63.2762C64.366 58.1257 65.2526 57.228 65.2526 56.1246V53.2685C65.2526 52.1651 64.366 51.2676 63.2762 51.2676H51.7839C50.694 51.2676 49.8076 52.1652 49.8076 53.2685V56.1246C49.8076 57.228 50.6942 58.1257 51.7839 58.1257ZM52.1514 53.6406H62.9089V55.7526H52.1514V53.6406Z" fill="#676EAE"/>
<path d="M51.7839 67.2399H55.5851C56.675 67.2399 57.5615 66.3423 57.5615 65.239V62.3829C57.5615 61.2795 56.675 60.3818 55.5851 60.3818H51.7839C50.694 60.3818 49.8076 61.2795 49.8076 62.3829V65.239C49.8076 66.3423 50.6942 67.2399 51.7839 67.2399ZM52.1514 62.7549H55.2178V64.8669H52.1514V62.7549Z" fill="#676EAE"/>
</g>
</svg>
