<svg width="50" height="50" viewBox="0 0 50 50" fill="none" xmlns="http://www.w3.org/2000/svg">
<g opacity="0.36">
<path d="M10.1562 44.5312C10.1562 42.8078 8.75469 41.4062 7.03125 41.4062C5.30781 41.4062 3.90625 42.8078 3.90625 44.5312C3.90625 46.2547 5.30781 47.6562 7.03125 47.6562C8.75469 47.6562 10.1562 46.2547 10.1562 44.5312ZM7.03125 46.0938C6.16953 46.0938 5.46875 45.393 5.46875 44.5312C5.46875 43.6695 6.16953 42.9688 7.03125 42.9688C7.89297 42.9688 8.59375 43.6695 8.59375 44.5312C8.59375 45.393 7.89297 46.0938 7.03125 46.0938Z" fill="#676EAE"/>
<path d="M17.9688 44.5312C17.9688 42.8078 16.5672 41.4062 14.8438 41.4062C13.1203 41.4062 11.7188 42.8078 11.7188 44.5312C11.7188 46.2547 13.1203 47.6562 14.8438 47.6562C16.5672 47.6562 17.9688 46.2547 17.9688 44.5312ZM14.8438 46.0938C13.982 46.0938 13.2812 45.393 13.2812 44.5312C13.2812 43.6695 13.982 42.9688 14.8438 42.9688C15.7055 42.9688 16.4062 43.6695 16.4062 44.5312C16.4062 45.393 15.7055 46.0938 14.8438 46.0938Z" fill="#676EAE"/>
<path d="M25.7812 44.5312C25.7812 42.8078 24.3797 41.4062 22.6562 41.4062C20.9328 41.4062 19.5312 42.8078 19.5312 44.5312C19.5312 46.2547 20.9328 47.6562 22.6562 47.6562C24.3797 47.6562 25.7812 46.2547 25.7812 44.5312ZM22.6562 46.0938C21.7945 46.0938 21.0938 45.393 21.0938 44.5312C21.0938 43.6695 21.7945 42.9688 22.6562 42.9688C23.518 42.9688 24.2188 43.6695 24.2188 44.5312C24.2188 45.393 23.518 46.0938 22.6562 46.0938Z" fill="#676EAE"/>
<path d="M42.825 28.125C42.5891 27.4633 42.068 26.9422 41.4062 26.7062V11.6563C44.0516 11.275 46.0938 8.99922 46.0938 6.25C46.0938 3.23438 43.6398 0.78125 40.625 0.78125C38.4125 0.78125 36.507 2.10469 35.6469 3.99922L7.92812 13.4641L4.06328 30.4688H3.125C1.83281 30.4688 0.78125 31.5203 0.78125 32.8125V35.9375C0.78125 37.2297 1.83281 38.2812 3.125 38.2812H10.9375V39.8438H5.46875C2.88359 39.8438 0.78125 41.9461 0.78125 44.5312C0.78125 47.1164 2.88359 49.2188 5.46875 49.2188H24.2188C26.8039 49.2188 28.9062 47.1164 28.9062 44.5312C28.9062 42.2133 27.2133 40.2883 25 39.9141V38.2812H25.2656C27.2727 38.2812 28.9062 36.6484 28.9062 34.6406C28.9062 34.4141 28.8852 34.1883 28.8437 33.9695L26.9859 24.0633C26.7977 23.0563 26.1969 22.2195 25.3859 21.6914L38.0031 11.0469C38.5641 11.3547 39.1859 11.5617 39.8438 11.6563V26.7062C39.182 26.9422 38.6609 27.4633 38.425 28.125H32.0312V32.8125V34.375V39.0625H38.425C38.7484 39.9695 39.6078 40.625 40.625 40.625C41.6422 40.625 42.5016 39.9695 42.825 39.0625H49.2188V34.375V32.8125V28.125H42.825ZM40.625 2.34375C42.7789 2.34375 44.5312 4.09609 44.5312 6.25C44.5312 8.40391 42.7789 10.1562 40.625 10.1562C38.4711 10.1562 36.7188 8.40391 36.7188 6.25C36.7188 4.09609 38.4711 2.34375 40.625 2.34375ZM28.6516 16.893L25.0391 13.9375L28.9062 11.8625V16.6781L28.6516 16.893ZM30.4688 11.0234L31.6961 10.3648L34.7453 11.7508L30.4688 15.3602V11.0234ZM33.4281 9.43594L35.5563 8.29375C35.8281 8.96484 36.2273 9.57109 36.7273 10.0789L36.068 10.6352L33.4281 9.43594ZM35.1805 6.72266L13.2812 18.4727V17.9688C13.2812 16.3141 12.4172 14.8602 11.1188 14.0258L35.1789 5.81016C35.1672 5.95547 35.1562 6.10156 35.1562 6.25C35.1562 6.40937 35.1664 6.56641 35.1805 6.72266V6.72266ZM18.8117 21.0938L16.5914 18.4703L20.3125 16.4734V21.0938H18.8117ZM13.2812 20.2461L15.1836 19.225L16.7648 21.0938H15.625C14.7422 21.0938 13.9359 21.3992 13.2812 21.8953V20.2461ZM9.20312 14.9055C10.6359 15.1898 11.7188 16.4547 11.7188 17.9688V25V30.4688H5.66641L9.20312 14.9055ZM27.3438 44.5312C27.3438 46.2547 25.9422 47.6562 24.2188 47.6562H22.6562H14.8438H7.03125H5.46875C3.74531 47.6562 2.34375 46.2547 2.34375 44.5312C2.34375 42.8078 3.74531 41.4062 5.46875 41.4062H7.03125H14.8438H22.6562H24.2188C25.9422 41.4062 27.3438 42.8078 27.3438 44.5312ZM23.4375 39.8438H12.5V38.2812H23.4375V39.8438ZM25.2656 36.7188H3.125C2.69375 36.7188 2.34375 36.368 2.34375 35.9375V32.8125C2.34375 32.382 2.69375 32.0312 3.125 32.0312H13.2812V25C13.2812 23.7078 14.3328 22.6562 15.625 22.6562H23.4086C24.3617 22.6562 25.1789 23.3078 25.4141 24.2188H16.4062C15.5445 24.2188 14.8438 24.9195 14.8438 25.7812V32.0312H26.8906L27.3086 34.2586C27.332 34.3844 27.3438 34.5125 27.3438 34.6406C27.3438 35.7867 26.4117 36.7188 25.2656 36.7188ZM25.7187 25.7812L26.5977 30.4688H16.4062V25.7812H25.7187ZM23.4086 21.0938H21.875V15.6352L23.5492 14.7367L27.4375 17.918L23.6484 21.1148C23.5672 21.1094 23.4898 21.0938 23.4086 21.0938V21.0938ZM33.5938 29.6875H38.2812V32.8125H33.5938V29.6875ZM33.5938 34.375H38.2812V37.5H33.5938V34.375ZM41.4062 38.2812C41.4062 38.7117 41.0562 39.0625 40.625 39.0625C40.1938 39.0625 39.8438 38.7117 39.8438 38.2812V28.9062C39.8438 28.4758 40.1938 28.125 40.625 28.125C41.0562 28.125 41.4062 28.4758 41.4062 28.9062V38.2812ZM47.6562 37.5H42.9688V34.375H47.6562V37.5ZM42.9688 32.8125V29.6875H47.6562V32.8125H42.9688Z" fill="#676EAE"/>
<path d="M40.625 8.59375C41.9172 8.59375 42.9688 7.54219 42.9688 6.25C42.9688 4.95781 41.9172 3.90625 40.625 3.90625C39.3328 3.90625 38.2812 4.95781 38.2812 6.25C38.2812 7.54219 39.3328 8.59375 40.625 8.59375ZM40.625 5.46875C41.0562 5.46875 41.4062 5.81953 41.4062 6.25C41.4062 6.68047 41.0562 7.03125 40.625 7.03125C40.1938 7.03125 39.8438 6.68047 39.8438 6.25C39.8438 5.81953 40.1938 5.46875 40.625 5.46875Z" fill="#676EAE"/>
</g>
</svg>
