<svg width="206" height="206" viewBox="0 0 206 206" fill="none" xmlns="http://www.w3.org/2000/svg">
<g opacity="0.15" clip-path="url(#clip0_984_2707)">
<path d="M74.7495 34.3051C80.5907 34.3051 85.3432 29.5526 85.3432 23.7114C85.3432 17.8702 80.5907 13.1177 74.7495 13.1177C68.9082 13.1177 64.1558 17.8702 64.1558 23.7114C64.1558 29.5526 68.9082 34.3051 74.7495 34.3051ZM74.7495 19.1532C77.2629 19.1532 79.308 21.1983 79.308 23.7118C79.308 26.2252 77.2629 28.2703 74.7495 28.2703C72.236 28.2703 70.1909 26.2252 70.1909 23.7118C70.1909 21.1983 72.236 19.1532 74.7495 19.1532Z" fill="white"/>
<path d="M150.627 137.925C156.469 137.925 161.221 133.173 161.221 127.332C161.221 121.49 156.468 116.738 150.627 116.738C144.786 116.738 140.034 121.49 140.034 127.332C140.034 133.173 144.786 137.925 150.627 137.925ZM150.627 122.773C153.14 122.773 155.186 124.818 155.186 127.332C155.186 129.845 153.14 131.89 150.627 131.89C148.114 131.89 146.069 129.845 146.069 127.332C146.069 124.818 148.114 122.773 150.627 122.773Z" fill="white"/>
<path d="M178.629 43.7317C171.711 35.4981 163.548 28.4825 154.368 22.8794C152.946 22.0112 151.089 22.4606 150.22 23.8833C149.352 25.306 149.801 27.1628 151.224 28.031C159.254 32.9312 166.454 38.9824 172.654 46.0367C170.539 49.0129 169.727 53.9227 164.792 54.3182C160.597 54.6541 156.89 57.0638 154.89 60.7915L151.327 67.4318C148.869 72.0137 144.033 70.521 141.383 70.521C135.697 70.521 130.231 72.9238 126.383 77.1154C122.345 81.5243 121.478 86.1118 120.714 90.1598C120.126 93.2743 119.614 95.97 117.835 98.5788C117.526 99.031 117.849 98.5756 109.337 109.941C106.459 113.786 107.231 119.282 111.186 122.153L118.227 127.259C120.358 128.8 123.01 129.27 125.464 128.635C125.959 128.511 126.442 128.39 126.917 128.27C126.923 128.268 126.93 128.267 126.936 128.265C126.942 128.606 126.955 128.945 126.975 129.284C127.678 141.061 134.55 152.184 142.491 160.919C146.9 165.769 154.451 165.663 158.755 160.93C158.759 160.926 158.763 160.922 158.766 160.918C164.385 154.739 169.431 147.449 172.178 139.493L185.451 149.702C170.705 178.302 142.207 197.236 110.172 199.689C109.881 198.213 105.374 192.224 110.558 188.525C113.718 186.284 115.605 182.628 115.605 178.746C115.605 175.575 115.812 173.018 114.15 169.959C113.699 169.129 113.121 168.296 112.359 167.483L107.67 162.483C105.774 160.462 105.532 157.333 107.094 155.045L108.353 153.199C112.838 146.618 109.799 137.54 102.183 135.036L88.5714 130.569C88.0254 130.389 87.5656 130.017 87.2763 129.518L77.9423 113.462C74.7932 108.032 66.9213 107.844 63.5738 113.271L61.3412 116.89C60.9095 117.588 60.1664 118.005 59.3524 118.005C57.7937 118.005 56.701 116.536 57.0812 115.074L61.9166 96.5639C62.0823 95.9233 62.5177 95.381 63.1091 95.076L72.9553 90.0077C75.7532 88.5733 77.4152 85.767 77.5038 82.8254C77.6647 77.6054 73.2067 71.623 66.5419 70.4542C61.513 69.4097 58.6584 69.6306 55.2622 67.5666L40.9693 58.892C38.0616 57.1253 35.9513 54.3616 35.0074 51.1171L33.4817 45.8782C38.8333 39.8193 44.9236 34.5068 51.6431 30.0323C51.6878 30.26 52.0587 32.376 52.9696 35.1622C56.196 45.0337 64.0952 55.1369 67.4331 58.1111C72.0041 62.1816 78.8898 61.696 82.8775 57.3104C91.2856 48.0674 98.455 36.2208 98.4618 23.724C98.4618 23.7199 98.4618 23.7155 98.4618 23.7115C98.4618 20.6239 97.8495 17.5327 96.7004 14.7271C98.8042 14.5851 100.912 14.5135 103.003 14.5135C116 14.5135 128.572 17.1517 140.371 22.354C141.896 23.0267 143.678 22.3355 144.35 20.8106C145.022 19.2857 144.331 17.5045 142.806 16.8322C130.236 11.2891 116.844 8.47835 103.003 8.47835C99.7783 8.47835 96.5201 8.64773 93.2889 8.96398C88.9561 3.53073 82.2977 0.0271173 74.8378 -0.000242071C61.7866 -0.0593866 51.5868 10.5452 51.0754 23.2283C42.3256 28.645 34.5105 35.3505 27.8292 43.1837C27.8123 43.2038 27.7974 43.2256 27.7809 43.2457C12.6013 61.0699 4.24219 83.7927 4.24219 107.239C4.24219 132.604 13.8441 156.713 31.2797 175.128C32.4256 176.337 34.3355 176.39 35.5457 175.244C36.756 174.098 36.8079 172.188 35.662 170.978C19.2927 153.69 10.2777 131.054 10.2777 107.24C10.2777 87.114 16.8368 67.5561 28.8515 51.5629C29.3726 52.9124 30.471 59.572 37.8375 64.0513L52.1303 72.7258C57.8485 76.1992 64.393 75.4859 67.5542 77.0792C69.506 78.0641 70.927 79.8722 71.4139 82.0614C71.642 83.0721 71.1383 84.1576 70.198 84.6396L60.3458 89.7107C58.2279 90.8023 56.6712 92.7484 56.0765 95.0438L51.2416 113.552C49.8652 118.853 53.8564 124.04 59.3532 124.04C62.3052 124.04 64.9534 122.525 66.4771 120.061C69.4195 115.291 68.4727 116.826 68.7113 116.439C69.6548 114.91 71.8492 114.983 72.7243 116.492C82.5813 133.425 82.0776 132.637 82.4735 133.194C83.5055 134.649 84.9777 135.739 86.6885 136.302L100.301 140.77C104.067 142.005 105.608 146.51 103.368 149.798C102.24 151.469 101.969 151.8 101.553 152.536C98.9958 157.074 99.627 162.727 103.269 166.611L107.958 171.611C110.202 174.005 109.384 176.588 109.569 178.874C109.527 180.838 108.497 182.587 107.061 183.607C98.2631 189.885 103.749 199.86 103.757 199.961C103.506 199.963 103.255 199.964 103.003 199.964C81.6089 199.964 60.7333 192.502 44.2227 178.952C42.934 177.894 41.0329 178.082 39.9759 179.37C38.9186 180.659 39.1061 182.56 40.3944 183.617C57.98 198.051 80.2147 206 103.002 206C105.899 206 107.794 205.878 108.369 205.854C108.409 205.84 165.329 205.328 191.976 150.14C191.977 150.139 191.977 150.139 191.977 150.138C198.468 136.704 201.759 122.271 201.759 107.239C201.758 84.0301 193.545 61.4759 178.629 43.7317C178.629 43.7317 178.63 43.7321 178.629 43.7317ZM74.7505 6.03491H74.8153C84.5496 6.07032 92.4263 14.023 92.4263 23.7115C92.4263 36.0039 83.6459 47.4944 78.4118 53.25C76.4311 55.4278 73.0353 55.3924 71.0775 53.2395C64.2168 45.6915 57.5479 35.2342 57.1106 25.007L57.1053 24.8232C57.1053 24.8183 57.1041 24.8139 57.1041 24.8091C56.7754 14.7356 64.6066 6.03491 74.7505 6.03491ZM150.604 109.655C150.613 109.655 150.621 109.655 150.629 109.655H150.693C160.403 109.69 168.304 117.62 168.304 127.331C168.304 138.062 161.556 148.877 154.289 156.87C152.313 159.043 148.921 159.022 146.955 156.859C142.043 151.456 133.697 140.641 132.998 128.925C132.382 118.564 140.392 109.67 150.604 109.655ZM188.098 144.125L173.827 133.149C174.125 131.461 174.339 129.297 174.339 127.332C174.339 114.305 163.741 103.668 150.715 103.62C150.714 103.62 150.713 103.62 150.713 103.62C150.684 103.62 150.656 103.62 150.628 103.62C139.659 103.62 130.309 111.194 127.667 121.846C124.016 122.797 123.018 123.277 121.766 122.371L114.727 117.268C113.538 116.405 113.285 114.735 114.166 113.559L122.285 102.725C125.015 99.0978 125.844 95.5081 126.643 91.2807C127.347 87.553 127.955 84.3338 130.83 81.1947C133.536 78.2472 137.381 76.5569 141.381 76.5569C143.998 76.5569 152.271 78.4367 156.644 70.286L160.207 63.6457C161.236 61.7285 163.153 60.5046 165.273 60.3352C173.272 59.6935 175.639 52.6943 176.206 52.0313L176.758 51.0499C189.017 67.1352 195.722 86.9201 195.722 107.24C195.723 120.099 193.16 132.489 188.098 144.125Z" fill="white"/>
</g>
<defs>
<clipPath id="clip0_984_2707">
<rect width="206" height="206" fill="white"/>
</clipPath>
</defs>
</svg>
