<svg width="54" height="54" viewBox="0 0 54 54" fill="none" xmlns="http://www.w3.org/2000/svg">
<g opacity="0.36" clip-path="url(#clip0_984_4259)">
<path d="M54 48.3786C54 47.9417 53.6459 47.5876 53.209 47.5876H52.581L51.7234 41.0112L52.0792 40.8326C52.3494 40.697 52.5187 40.4193 52.5154 40.117C52.512 39.8148 52.3368 39.5408 52.0637 39.4111L51.4785 39.1333L50.7389 33.4626L51.3541 33.1705C51.6233 33.0427 51.7978 32.7745 51.8055 32.4766C51.8133 32.1787 51.6531 31.9018 51.3908 31.76L50.4506 31.2519L49.727 25.7041L50.6758 25.1914C50.9242 25.0572 51.0823 24.8008 51.0905 24.5185C51.0988 24.2362 50.956 23.9711 50.7157 23.8225L49.3735 22.9929L48.6906 17.7562L49.5777 17.2079C49.7923 17.0752 49.9308 16.8481 49.9504 16.5964C49.97 16.3449 49.8685 16.0991 49.6769 15.9347L48.2987 14.7518L47.5963 9.36583H49.9287V11.0533H49.7165C49.2795 11.0533 48.9255 11.4074 48.9255 11.8443C48.9255 12.2813 49.2795 12.6354 49.7165 12.6354H51.7229C52.1599 12.6354 52.5139 12.2813 52.5139 11.8443C52.5139 11.4074 52.1599 11.0533 51.7229 11.0533H51.5106V8.57471C51.5106 8.13775 51.1566 7.78369 50.7196 7.78369H47.3899L47.0945 5.51928C47.0432 5.12535 46.7075 4.83057 46.3101 4.83057H40.2728C39.8754 4.83057 39.5398 5.12535 39.4883 5.51928L39.193 7.78369H35.8636C35.4266 7.78369 35.0726 8.13775 35.0726 8.57471V11.0532H34.8604C34.4234 11.0532 34.0694 11.4073 34.0694 11.8442C34.0694 12.2812 34.4234 12.6353 34.8604 12.6353H36.8667C37.3037 12.6353 37.6577 12.2812 37.6577 11.8442C37.6577 11.4073 37.3037 11.0532 36.8667 11.0532H36.6545V9.36572H38.9869L38.2845 14.7517L36.9063 15.9346C36.7148 16.0991 36.6133 16.3449 36.6328 16.5963C36.6525 16.848 36.7909 17.0751 37.0055 17.2077L37.8926 17.7561L37.7214 19.0687H33.5606C30.5101 19.0687 28.0284 21.5505 28.0284 24.601V29.6157H27.1601V25.0278C27.1601 24.5909 26.806 24.2368 26.3691 24.2368H22.1799V20.2641H22.3196C22.7565 20.2641 23.1106 19.9101 23.1106 19.4731C23.1106 19.0362 22.7565 18.6821 22.3196 18.6821H22.1799V15.7993H22.3196C22.7565 15.7993 23.1106 15.4453 23.1106 15.0083C23.1106 14.5713 22.7565 14.2173 22.3196 14.2173H22.1799V11.3345H22.3196C22.7565 11.3345 23.1106 10.9804 23.1106 10.5435C23.1106 10.1065 22.7565 9.75248 22.3196 9.75248H22.1799V6.4126H22.3196C22.7565 6.4126 23.1106 6.05854 23.1106 5.62158C23.1106 5.18462 22.7565 4.83057 22.3196 4.83057H15.5194C15.0826 4.83057 14.7284 5.18462 14.7284 5.62158C14.7284 6.05854 15.0826 6.4126 15.5194 6.4126H15.6592V9.75248H15.5194C15.0826 9.75248 14.7284 10.1065 14.7284 10.5435C14.7284 10.9804 15.0826 11.3345 15.5194 11.3345H15.6592V14.2173H15.5194C15.0826 14.2173 14.7284 14.5713 14.7284 15.0083C14.7284 15.4453 15.0826 15.7993 15.5194 15.7993H15.6592V18.6821H15.5194C15.0826 18.6821 14.7284 19.0362 14.7284 19.4731C14.7284 19.9101 15.0826 20.2641 15.5194 20.2641H15.6592V24.2368H12.9154C12.4785 24.2368 12.1244 24.5909 12.1244 25.0278C12.1244 25.4648 12.4785 25.8188 12.9154 25.8188H25.578V47.5876H22.0384V43.0577C22.0384 41.5777 20.8343 40.3735 19.3543 40.3735H14.2812C12.8012 40.3735 11.597 41.5777 11.597 43.0577V47.5876H8.0575V25.8188H9.75132C10.1882 25.8188 10.5423 25.4648 10.5423 25.0278C10.5423 24.5909 10.1882 24.2368 9.75132 24.2368H7.26648C6.82963 24.2368 6.47546 24.5909 6.47546 25.0278V36.0493H2.11359C1.67674 36.0493 1.32258 36.4034 1.32258 36.8403V43.1896C1.32258 43.6265 1.67674 43.9806 2.11359 43.9806C2.55045 43.9806 2.90461 43.6265 2.90461 43.1896V37.6313H6.47578V47.5876H2.90461V46.3536C2.90461 45.9167 2.55045 45.5626 2.11359 45.5626C1.67674 45.5626 1.32258 45.9167 1.32258 46.3536V47.5876H0.791016C0.354164 47.5876 0 47.9417 0 48.3786C0 48.8156 0.354164 49.1696 0.791016 49.1696H53.209C53.6458 49.1696 54 48.8156 54 48.3786ZM17.2414 6.4126H20.5979V9.75248H17.2414V6.4126ZM17.2414 11.3345H20.5979V14.2173H17.2414V11.3345ZM17.2414 15.7993H20.5979V18.6821H17.2414V15.7993ZM17.2414 24.2368V20.2641H20.5979V24.2368H17.2414ZM48.0176 24.8295L43.2917 27.3833L38.5657 24.8295L38.6813 23.9433L43.2917 21.0934L47.902 23.9433L48.0176 24.8295ZM41.6278 28.2824L37.8491 30.3243L38.3466 26.5094L41.6278 28.2824ZM49.0214 32.5266L43.2917 35.2466L37.562 32.5266L37.5969 32.2589L43.2917 29.1815L48.9864 32.2589L49.0214 32.5266ZM41.4472 36.1223L36.8056 38.3259L37.3469 34.1758L41.4472 36.1223ZM43.2917 36.9979L49.9215 40.1454L43.2917 43.4729L36.6618 40.1454L43.2917 36.9979ZM41.5283 44.3579L35.6331 47.3168L36.3575 41.7627L41.5283 44.3579ZM43.2917 45.243L47.963 47.5876H38.6202L43.2917 45.243ZM50.9503 47.3168L45.0551 44.3579L50.2259 41.7627L50.9503 47.3168ZM49.7777 38.3258L45.1361 36.1222L49.2364 34.1757L49.7777 38.3258ZM48.7342 30.3243L44.9555 28.2824L48.2367 26.5094L48.7342 30.3243ZM47.6382 21.9202L44.7962 20.1634L47.2141 18.6687L47.6382 21.9202ZM39.775 15.5573L43.2918 12.5388L46.8085 15.5573L46.9898 16.9476L43.2918 19.2335L39.5937 16.9476L39.775 15.5573ZM44.5062 11.4963L46.1004 10.1279L46.5022 13.2095L44.5062 11.4963ZM43.2917 10.4538L42.0239 9.36572H44.5594L43.2917 10.4538ZM40.9675 6.4126H45.6158L45.7945 7.78369H40.7887L40.9675 6.4126ZM40.483 10.1279L42.0772 11.4963L40.0812 13.2095L40.483 10.1279ZM41.7872 20.1634L38.9452 21.9202L39.3692 18.6687L41.7872 20.1634ZM13.1793 47.5876V43.0577C13.1793 42.4499 13.6737 41.9556 14.2814 41.9556H19.3545C19.9622 41.9556 20.4566 42.45 20.4566 43.0577V47.5876H13.1793ZM27.1603 47.5876V31.1978H30.9754V34.3302C30.9754 34.7671 31.3295 35.1212 31.7664 35.1212C32.2034 35.1212 32.5575 34.7671 32.5575 34.3302V30.4067C32.5575 29.9698 32.2034 29.6157 31.7664 29.6157H29.6107V24.6011C29.6107 22.423 31.3828 20.6509 33.5608 20.6509H37.5152L37.2098 22.9929L35.8676 23.8225C35.6274 23.971 35.4845 24.2362 35.4928 24.5185C35.501 24.8008 35.659 25.057 35.9075 25.1914L36.8563 25.7041L36.1328 31.2519L35.1925 31.76C34.9303 31.9018 34.77 32.1787 34.7778 32.4766C34.7855 32.7745 34.9601 33.0427 35.2292 33.1705L35.8444 33.4626L35.1049 39.1333L34.5196 39.4111C34.2465 39.5408 34.0713 39.8148 34.0679 40.117C34.0646 40.4193 34.2339 40.697 34.5041 40.8326L34.86 41.0112L34.0023 47.5876H32.5574V37.4942C32.5574 37.0573 32.2033 36.7032 31.7663 36.7032C31.3294 36.7032 30.9753 37.0573 30.9753 37.4942V47.5876H27.1603Z" fill="#676EAE"/>
<path d="M15.1905 33.8783C15.5243 34.1617 16.0232 34.1198 16.3056 33.7877L18.5362 31.1621C18.7359 30.927 18.7807 30.5975 18.6513 30.3178C18.5218 30.038 18.2417 29.8588 17.9334 29.8588H17.4654L18.5361 28.5986C18.819 28.2656 18.7784 27.7663 18.4454 27.4835C18.1126 27.2008 17.6133 27.2414 17.3304 27.5741L15.1525 30.1377C14.9528 30.3728 14.908 30.7022 15.0374 30.9819C15.1669 31.2618 15.447 31.4409 15.7553 31.4409H16.2233L15.0997 32.7633C14.817 33.0963 14.8576 33.5955 15.1905 33.8783Z" fill="#676EAE"/>
</g>
<defs>
<clipPath id="clip0_984_4259">
<rect width="54" height="54" fill="white"/>
</clipPath>
</defs>
</svg>
