<svg width="17" height="17" viewBox="0 0 17 17" fill="none" xmlns="http://www.w3.org/2000/svg">
<g clip-path="url(#clip0_984_4078)">
<path d="M7.80872 11.6404C7.89646 11.728 8.01537 11.7773 8.13948 11.7773C8.26348 11.7773 8.38239 11.7281 8.47013 11.6404L10.1399 9.9706C10.3226 9.78788 10.3226 9.4918 10.1399 9.30907C9.9573 9.12647 9.6611 9.12647 9.4785 9.30907L8.13948 10.6481L7.52895 10.0376C7.34623 9.85495 7.05015 9.85495 6.86742 10.0376C6.68482 10.2202 6.68482 10.5164 6.86742 10.6991L7.80872 11.6404Z" fill="#2E3152"/>
<path d="M8.504 14.1878C10.5513 14.1878 12.2169 12.5221 12.2169 10.4748C12.2169 8.42751 10.5513 6.76196 8.504 6.76196C6.45657 6.76196 4.79102 8.42751 4.79102 10.4748C4.79102 12.5221 6.45669 14.1878 8.504 14.1878ZM8.504 7.69734C10.0355 7.69734 11.2815 8.9433 11.2815 10.4748C11.2815 12.0064 10.0355 13.2524 8.504 13.2524C6.97247 13.2524 5.72639 12.0064 5.72639 10.4748C5.72639 8.9433 6.97247 7.69734 8.504 7.69734Z" fill="#2E3152"/>
<path d="M14.7291 1.576H13.876V1.04777C13.876 0.789511 13.6666 0.580078 13.4083 0.580078C13.1501 0.580078 12.9406 0.789511 12.9406 1.04777V1.576H12.0216V1.04777C12.0216 0.789511 11.8121 0.580078 11.5537 0.580078C11.2955 0.580078 11.0861 0.789511 11.0861 1.04777V1.576H5.92143V1.04777C5.92143 0.789511 5.712 0.580078 5.45362 0.580078C5.19537 0.580078 4.98594 0.789511 4.98594 1.04777V1.576H4.06687V1.04777C4.06687 0.789511 3.85744 0.580078 3.59907 0.580078C3.34081 0.580078 3.13138 0.789511 3.13138 1.04777V1.576H2.27818C1.4442 1.576 0.765625 2.25457 0.765625 3.08867V14.9075C0.765625 15.7415 1.4442 16.4201 2.27818 16.4201H14.7291C15.5632 16.4201 16.2416 15.7415 16.2416 14.9075V3.08867C16.2416 2.25457 15.5631 1.576 14.7291 1.576ZM15.3061 14.9075C15.3061 15.2257 15.0473 15.4847 14.7291 15.4847H2.27818C1.95998 15.4847 1.701 15.2257 1.701 14.9075V5.46506H15.3061V14.9075ZM1.701 3.08867C1.701 2.77036 1.95998 2.5115 2.27818 2.5115H3.13138V3.03973C3.13138 3.29799 3.34081 3.50742 3.59919 3.50742C3.85744 3.50742 4.06687 3.29799 4.06687 3.03973V2.5115H4.98594V3.03973C4.98594 3.29799 5.19537 3.50742 5.45374 3.50742C5.712 3.50742 5.92143 3.29799 5.92143 3.03973V2.5115H11.0861V3.03973C11.0861 3.29799 11.2955 3.50742 11.5539 3.50742C11.8121 3.50742 12.0216 3.29799 12.0216 3.03973V2.5115H12.9406V3.03973C12.9406 3.29799 13.1501 3.50742 13.4083 3.50742C13.6667 3.50742 13.8761 3.29799 13.8761 3.03973V2.5115H14.7291C15.0473 2.5115 15.3063 2.77036 15.3063 3.08867V4.52956H1.701V3.08867Z" fill="#2E3152"/>
</g>
<defs>
<clipPath id="clip0_984_4078">
<rect width="15.84" height="15.84" fill="white" transform="translate(0.580078 0.580078)"/>
</clipPath>
</defs>
</svg>
