<svg width="92" height="93" viewBox="0 0 92 93" fill="none" xmlns="http://www.w3.org/2000/svg">
<g opacity="0.36">
<path d="M79.2564 24.4399C78.4701 24.4398 77.7014 24.6754 77.0476 25.1168C76.3937 25.5583 75.8841 26.1859 75.5831 26.9202C75.2821 27.6545 75.2033 28.4625 75.3566 29.2421C75.5099 30.0217 75.8885 30.7378 76.4444 31.2999C77.0003 31.862 77.7087 32.2448 78.4799 32.3999C79.251 32.555 80.0504 32.4755 80.7768 32.1714C81.5033 31.8672 82.1242 31.3521 82.5611 30.6913C82.9979 30.0304 83.2311 29.2534 83.2311 28.4586C83.23 27.3932 82.8109 26.3718 82.0658 25.6184C81.3206 24.8651 80.3103 24.4412 79.2564 24.4399ZM79.2564 30.2975C78.8966 30.2976 78.5448 30.1899 78.2455 29.9879C77.9463 29.786 77.713 29.4988 77.5752 29.1628C77.4374 28.8268 77.4013 28.457 77.4714 28.1002C77.5415 27.7435 77.7147 27.4158 77.9691 27.1585C78.2235 26.9012 78.5476 26.726 78.9005 26.655C79.2534 26.584 79.6192 26.6204 79.9517 26.7595C80.2841 26.8987 80.5683 27.1344 80.7682 27.4368C80.9681 27.7393 81.0748 28.0948 81.0748 28.4586C81.0745 28.946 80.8828 29.4135 80.5419 29.7583C80.2009 30.1031 79.7386 30.297 79.2564 30.2977V30.2975Z" fill="#676EAE"/>
<path d="M33.059 14.5972C33.9853 14.5976 34.8909 14.3203 35.6613 13.8004C36.4316 13.2805 37.0322 12.5413 37.3869 11.6763C37.7417 10.8113 37.8347 9.85942 37.6542 8.941C37.4738 8.02258 37.0279 7.17889 36.373 6.51664C35.7182 5.85439 34.8838 5.40333 33.9753 5.2205C33.0668 5.03768 32.1251 5.13131 31.2693 5.48955C30.4135 5.84779 29.682 6.45455 29.1673 7.23308C28.6526 8.01162 28.3779 8.92695 28.3779 9.86331C28.379 11.1181 28.8725 12.3213 29.7501 13.2088C30.6276 14.0963 31.8176 14.5956 33.059 14.5972ZM33.059 7.30908C33.5588 7.30869 34.0475 7.45816 34.4633 7.73858C34.8791 8.019 35.2033 8.41778 35.3948 8.88447C35.5864 9.35116 35.6367 9.86479 35.5394 10.3604C35.4421 10.856 35.2016 11.3113 34.8483 11.6687C34.495 12.0261 34.0448 12.2696 33.5546 12.3683C33.0644 12.467 32.5563 12.4166 32.0945 12.2233C31.6326 12.03 31.2379 11.7027 30.9602 11.2826C30.6824 10.8625 30.5342 10.3686 30.5342 9.86331C30.5347 9.18638 30.8008 8.53729 31.2741 8.05844C31.7474 7.57959 32.3893 7.31009 33.059 7.30908Z" fill="#676EAE"/>
<path d="M51.157 42.1069C51.1566 41.1711 50.8817 40.2564 50.3671 39.4785C49.8525 38.7006 49.1213 38.0944 48.2659 37.7366C47.4106 37.3787 46.4694 37.2853 45.5615 37.4681C44.6536 37.6509 43.8197 38.1018 43.1653 38.7636C42.5108 39.4255 42.0652 40.2686 41.8847 41.1865C41.7043 42.1043 41.7971 43.0556 42.1514 43.9202C42.5058 44.7847 43.1058 45.5236 43.8755 46.0435C44.6453 46.5633 45.5502 46.8408 46.476 46.8408C47.7173 46.8391 48.9073 46.3398 49.7848 45.4523C50.6624 44.5648 51.1559 43.3617 51.157 42.1069ZM46.476 44.6611C45.9761 44.6615 45.4874 44.512 45.0716 44.2316C44.6558 43.9512 44.3317 43.5524 44.1401 43.0857C43.9486 42.619 43.8983 42.1054 43.9955 41.6098C44.0928 41.1142 44.3333 40.6589 44.6866 40.3015C45.0399 39.9441 45.4901 39.7006 45.9803 39.6019C46.4705 39.5032 46.9787 39.5536 47.4405 39.7469C47.9023 39.9401 48.297 40.2675 48.5748 40.6876C48.8525 41.1077 49.0008 41.6016 49.0008 42.1069C49.0003 42.7839 48.7341 43.433 48.2607 43.9119C47.7873 44.3907 47.1453 44.6602 46.4756 44.6611H46.476Z" fill="#676EAE"/>
<path d="M15.5687 29.3853C16.495 29.3857 17.4006 29.1084 18.171 28.5885C18.9414 28.0686 19.5419 27.3294 19.8967 26.4644C20.2514 25.5994 20.3445 24.6475 20.164 23.7291C19.9835 22.8107 19.5377 21.967 18.8828 21.3047C18.228 20.6425 17.3935 20.1914 16.485 20.0086C15.5766 19.8258 14.6349 19.9194 13.7791 20.2776C12.9232 20.6359 12.1917 21.2426 11.6771 22.0212C11.1624 22.7997 10.8877 23.715 10.8877 24.6514C10.8888 25.9062 11.3823 27.1093 12.2599 27.9968C13.1374 28.8843 14.3274 29.3836 15.5687 29.3853ZM15.5687 22.0972C16.0686 22.0968 16.5573 22.2462 16.9731 22.5267C17.3889 22.8071 17.713 23.2059 17.9046 23.6726C18.0961 24.1392 18.1464 24.6529 18.0492 25.1485C17.9519 25.6441 17.7114 26.0994 17.3581 26.4568C17.0048 26.8142 16.5546 27.0577 16.0644 27.1564C15.5742 27.2551 15.066 27.2047 14.6042 27.0114C14.1424 26.8181 13.7477 26.4907 13.4699 26.0707C13.1922 25.6506 13.0439 25.1567 13.0439 24.6514C13.0444 23.9745 13.3105 23.3254 13.7838 22.8465C14.2572 22.3677 14.8991 22.0982 15.5687 22.0972Z" fill="#676EAE"/>
<path d="M86.056 28.1906C85.8248 24.5941 82.918 21.7774 79.4385 21.7774C77.8305 21.7809 76.2805 22.385 75.0865 23.4736C71.5535 19.9848 67.1427 16.9798 62.26 14.7459C56.7235 12.213 50.9674 10.8741 45.6143 10.8741C44.1377 10.8877 42.6628 10.9802 41.1958 11.1513C41.2693 10.6199 41.2888 10.0824 41.254 9.54703C40.9751 5.212 37.4748 1.81641 33.2852 1.81641C29.0956 1.81641 25.5946 5.212 25.3164 9.54521C25.2165 11.5285 25.8079 13.4844 26.9875 15.0724L27.2102 15.3733C25.2375 16.5017 23.3369 17.754 21.5195 19.1231C20.7853 18.3312 19.8988 17.6993 18.9144 17.2662C17.9299 16.8332 16.8683 16.6081 15.7946 16.6049C11.6048 16.6049 8.104 20.0015 7.82602 24.3337C7.7262 26.317 8.31754 28.2729 9.49711 29.861L10.7824 31.5986C7.73671 37.5197 5.92978 44.7297 5.92978 51.0288C5.91867 56.3041 6.93695 61.5298 8.92632 66.4068C10.9157 71.2838 13.8371 75.7162 17.5232 79.4503C21.2094 83.1845 25.5879 86.1471 30.4082 88.1684C35.2285 90.1898 40.3958 91.2303 45.6144 91.2303C50.833 91.2303 56.0003 90.1898 60.8206 88.1684C65.6408 86.1471 70.0194 83.1845 73.7056 79.4503C77.3917 75.7162 80.3131 71.2838 82.3025 66.4068C84.2918 61.5298 85.3101 56.3041 85.299 51.0288C85.299 46.5579 84.1725 39.853 82.7013 35.4357L84.6701 32.7747C85.6597 31.4635 86.1514 29.837 86.056 28.1906ZM27.468 9.68835C27.6477 6.89108 29.8731 3.99609 33.2852 3.99609C36.6973 3.99609 38.9222 6.89036 39.1024 9.69125C39.1825 11.1569 38.7403 12.603 37.8559 13.7673L33.2852 19.9476L28.7222 13.778C27.8445 12.6047 27.4008 11.1578 27.468 9.68835ZM9.97814 24.4768C10.1578 21.6795 12.3831 18.7845 15.7952 18.7845C19.2072 18.7845 21.4323 21.6788 21.6124 24.4799C21.6926 25.9455 21.2503 27.3916 20.3659 28.5557L15.7946 34.736L11.2322 28.5664C10.3545 27.3931 9.91085 25.9462 9.97814 24.4768ZM12.2282 33.5534L14.9321 37.2087C15.0325 37.3445 15.1628 37.4547 15.3127 37.5306C15.4626 37.6065 15.628 37.646 15.7956 37.646C15.9633 37.646 16.1286 37.6065 16.2785 37.5306C16.4284 37.4547 16.5587 37.3445 16.6591 37.2087L22.0921 29.8617C23.0543 28.5943 23.6318 27.0718 23.7547 25.479C23.8776 23.8862 23.5406 22.2916 22.7845 20.8887C24.6107 19.5117 26.5248 18.2581 28.5143 17.136L32.422 22.4195C32.5224 22.5553 32.6527 22.6655 32.8026 22.7414C32.9525 22.8173 33.1178 22.8568 33.2855 22.8568C33.4531 22.8568 33.6185 22.8173 33.7684 22.7414C33.9183 22.6655 34.0486 22.5553 34.149 22.4195L39.5824 15.0727C39.9621 14.5612 40.285 14.009 40.5453 13.4261C40.9933 13.3682 41.4409 13.3141 41.8822 13.2688L46.4103 19.8726C46.9349 20.6343 47.2053 21.5454 47.1822 22.4732C47.159 23.401 46.8435 24.2971 46.2817 25.0312L45.0026 26.7101C44.6906 27.1181 44.2787 27.4369 43.8076 27.6349C43.3365 27.8329 42.8224 27.9033 42.3161 27.8391L40.8653 27.6517C39.843 27.5191 38.8047 27.6932 37.8796 28.1524C36.9544 28.6116 36.1832 29.3355 35.6618 30.2343C35.3681 30.7405 34.9338 31.1484 34.4128 31.4073C33.8917 31.6662 33.307 31.7646 32.7311 31.6905L29.3813 31.26C28.3794 31.1283 27.3611 31.2815 26.4406 31.7025C25.5201 32.1235 24.7339 32.7956 24.1704 33.6433C23.6431 34.4308 23.3545 35.3567 23.34 36.3075C23.3255 37.2583 23.5857 38.1927 24.0888 38.9962L26.3017 42.5319C26.7095 43.1796 27.2726 43.7127 27.9388 44.0816C28.605 44.4505 29.3526 44.6432 30.1121 44.6418C30.848 44.6424 31.5725 44.4586 32.2209 44.1069L34.4994 42.8717C35.6156 42.2667 37.4283 42.2607 38.7348 42.8049C38.8595 44.4372 39.4381 46.0006 40.4039 47.3148L45.8384 54.664C45.9388 54.7998 46.0691 54.91 46.219 54.9859C46.3689 55.0618 46.5342 55.1013 46.7019 55.1013C46.8695 55.1013 47.0349 55.0618 47.1847 54.9859C47.3346 54.91 47.465 54.7998 47.5653 54.664L50.3216 50.9371L50.672 51.4225C50.8204 51.6317 50.9794 51.8377 51.1449 52.0346L53.9121 55.3292C54.0354 55.476 54.128 55.6466 54.1841 55.8307C54.2403 56.0147 54.2589 56.2084 54.2388 56.4C54.2187 56.5915 54.1604 56.7769 54.0673 56.945C53.9742 57.1131 53.8484 57.2603 53.6974 57.3777L49.504 60.6373C48.388 61.5013 47.5669 62.6963 47.1557 64.0552L45.7579 68.642C45.6481 69.0038 45.4682 69.3399 45.2289 69.6308L43.8688 71.2859C42.8557 72.5165 42.2285 74.0244 42.0673 75.617C42.0279 76.0043 41.8861 76.3737 41.6568 76.6865C41.4275 76.9993 41.1191 77.2439 40.764 77.3947C40.6152 77.4577 40.4541 77.4858 40.293 77.4769C40.1319 77.4681 39.9748 77.4225 39.8336 77.3435C39.6924 77.2646 39.5708 77.1543 39.4777 77.0211C39.3846 76.8878 39.3226 76.735 39.2963 76.5741L38.0151 68.7964C37.8552 67.8298 37.4649 66.9172 36.8781 66.1372L32.1845 59.9103C31.7627 59.3518 31.4509 58.7167 31.2659 58.0394L29.7168 52.3852C29.443 51.3945 28.9203 50.4922 28.1995 49.7661C27.4788 49.0399 26.5845 48.5146 25.6036 48.241L25.2668 48.1482C24.5854 47.9595 23.9601 47.605 23.4455 47.1156L20.5563 44.363C20.0961 43.9249 19.7013 43.4215 19.3842 42.8686C18.7119 41.6968 17.6943 40.7665 16.4736 40.2077C15.2528 39.6488 13.8899 39.4892 12.5752 39.7513C12.533 39.7597 12.4915 39.7706 12.4506 39.784L9.55569 40.736C10.2311 38.2654 11.1255 35.8615 12.2282 33.5534ZM40.8851 41.9321C41.0648 39.1348 43.29 36.2398 46.7021 36.2398C50.1142 36.2398 52.3393 39.1341 52.5193 41.9352C52.5995 43.4008 52.1573 44.8469 51.2728 46.011L46.7021 52.1913L42.1391 46.0217C41.2615 44.8484 40.8178 43.4015 40.8851 41.9321ZM83.1428 51.0288C83.1428 71.9684 66.3075 89.0039 45.6143 89.0039C24.9211 89.0039 8.08603 71.9684 8.08603 51.0288C8.10363 48.4049 8.39319 45.7901 8.94996 43.2272L13.0528 41.8782C13.919 41.7185 14.8129 41.833 15.6124 42.206C16.4119 42.579 17.0779 43.1925 17.5196 43.9625C17.9413 44.6976 18.4663 45.3669 19.0782 45.9496L21.9676 48.7013C22.7397 49.4352 23.6778 49.9669 24.6999 50.2502L25.0367 50.3428C25.6574 50.5162 26.2232 50.8489 26.6791 51.3086C27.135 51.7683 27.4656 52.3394 27.6387 52.9664L29.1878 58.6216C29.4459 59.5667 29.8809 60.453 30.4693 61.2323L35.163 67.4593C35.5373 67.9568 35.7862 68.539 35.8882 69.1555L37.1693 76.9332C37.2483 77.4189 37.4351 77.8802 37.7159 78.2824C37.9967 78.6846 38.364 79.0172 38.7903 79.2551C39.2166 79.493 39.6907 79.6301 40.177 79.6561C40.6633 79.682 41.149 79.5962 41.5977 79.4049C42.3097 79.1029 42.9282 78.6126 43.388 77.9856C43.8479 77.3586 44.1323 76.618 44.2113 75.8415C44.329 74.6785 44.787 73.5773 45.5268 72.6786L46.8868 71.0235C47.3083 70.5116 47.6248 69.9201 47.818 69.2834L49.2152 64.6966C49.4957 63.7699 50.0556 62.9549 50.8166 62.3656L55.0118 59.1059C55.3943 58.8085 55.7131 58.4358 55.9489 58.0102C56.1847 57.5846 56.3325 57.115 56.3834 56.6299C56.4343 56.1448 56.3872 55.6544 56.245 55.1882C56.1028 54.7221 55.8684 54.29 55.556 53.9182L52.7889 50.6236C52.6616 50.4721 52.5393 50.3137 52.4201 50.1457L51.6732 49.1104L52.9995 47.3172C54.1924 45.7364 54.7853 43.7757 54.6705 41.7908C54.3919 37.4557 50.8915 34.0602 46.7018 34.0602C42.9158 34.0602 39.694 36.8333 38.9017 40.5649C37.1108 40.0312 34.9666 40.1471 33.4805 40.9522L31.2021 42.1873C30.6811 42.4672 30.0749 42.5383 29.5044 42.3864C28.9339 42.2345 28.441 41.8707 28.1241 41.3677L25.911 37.8319C25.6323 37.3867 25.4881 36.869 25.4961 36.3421C25.5041 35.8153 25.664 35.3023 25.9561 34.8659C26.2971 34.3529 26.7728 33.9462 27.3299 33.6914C27.8869 33.4366 28.5032 33.3438 29.1095 33.4235L32.4592 33.8538C33.4538 33.9824 34.4638 33.8126 35.3637 33.3656C36.2636 32.9186 37.0138 32.2141 37.5208 31.3397C37.8282 30.8089 38.2833 30.3812 38.8294 30.1099C39.3755 29.8386 39.9885 29.7356 40.592 29.8139L42.0427 30.0014C42.9224 30.113 43.8157 29.9907 44.6344 29.6467C45.4531 29.3026 46.1689 28.7488 46.7111 28.0397L47.9901 26.3608C48.8323 25.2609 49.3051 23.9179 49.3397 22.5275C49.3743 21.1371 48.9689 19.7718 48.1826 18.6305L44.3775 13.0828C44.8136 13.0647 45.2287 13.0538 45.6143 13.0538C50.6635 13.0538 56.1116 14.3253 61.3709 16.7318C63.0187 17.4877 64.62 18.3429 66.1662 19.293L63.27 24.3111C62.8549 25.0476 62.6768 25.8964 62.7605 26.7398C62.8442 27.5831 63.1856 28.3793 63.7372 29.0176C64.5694 29.9812 65.7243 30.6004 66.9802 30.7563L67.5054 30.8217C68.0138 30.8854 68.4929 31.0969 68.8847 31.4305C69.2764 31.7641 69.564 32.2055 69.7124 32.7011C69.8527 33.172 69.8569 33.6736 69.7242 34.1468C69.5916 34.6199 69.3278 35.0448 68.964 35.3712L63.7631 40.0198C63.2359 40.4913 62.8138 41.0707 62.5247 41.7194C62.2356 42.3682 62.086 43.0716 62.0859 43.7832V45.0167C62.0842 45.7477 62.2646 46.4673 62.6104 47.1094C62.9561 47.7514 63.4562 48.2951 64.0644 48.6904C64.3668 48.8869 64.6212 49.1501 64.8086 49.4602C64.9959 49.7703 65.1114 50.1193 65.1461 50.481L65.2678 51.7125C65.3631 52.7096 65.8229 53.6348 66.5574 54.3072C67.2918 54.9797 68.248 55.351 69.2389 55.3484H72.283C73.5441 55.3481 74.7777 54.9764 75.8333 54.2789C76.8889 53.5815 77.7206 52.5883 78.227 51.4208L78.41 50.9992C78.5892 50.5813 78.8812 50.2228 79.2527 49.9649C79.6241 49.7069 80.0599 49.56 80.5101 49.5408L81.2244 49.5082C81.3406 49.5029 81.4566 49.4944 81.5723 49.4825L83.0908 49.328C83.1246 49.925 83.1428 50.4961 83.1428 51.0288ZM82.9118 47.1539L81.3563 47.3121C81.2805 47.3199 81.2043 47.3254 81.1274 47.329L80.412 47.3619C79.5595 47.398 78.7344 47.6762 78.031 48.1645C77.3277 48.6528 76.7746 49.3315 76.4352 50.1228L76.2523 50.5444C75.9142 51.3241 75.3588 51.9875 74.6539 52.4533C73.949 52.9192 73.1252 53.1675 72.283 53.1678H69.2385C68.7828 53.1688 68.3432 52.9979 68.0055 52.6886C67.6679 52.3792 67.4566 51.9536 67.4129 51.4951L67.2911 50.2634C67.2249 49.5756 67.0054 48.9119 66.6491 48.3222C66.2927 47.7325 65.8088 47.2321 65.2337 46.8586C64.9286 46.6602 64.6779 46.3875 64.5045 46.0654C64.3312 45.7434 64.2407 45.3824 64.2416 45.0158V43.7823C64.2416 43.3795 64.3263 42.9813 64.4899 42.614C64.6536 42.2467 64.8925 41.9188 65.1909 41.6518L70.3918 37.0033C71.0641 36.4 71.5516 35.615 71.7967 34.7407C72.0419 33.8664 72.0345 32.9395 71.7754 32.0694C71.5058 31.1697 70.9836 30.3685 70.2723 29.7629C69.5611 29.1574 68.6912 28.7736 67.7683 28.658L67.2431 28.5926C66.5137 28.5021 65.843 28.1425 65.3596 27.5829C65.1035 27.287 64.9446 26.9182 64.9048 26.5271C64.865 26.1361 64.9463 25.7422 65.1373 25.3999L67.9834 20.4685C70.0346 21.8566 71.9553 23.4322 73.7214 25.1754C73.1965 26.0974 72.8885 27.1291 72.8211 28.1906C72.7378 29.8356 73.2279 31.4581 74.2062 32.7754L78.5751 38.6809C78.6755 38.8166 78.8058 38.9268 78.9557 39.0027C79.1056 39.0786 79.2709 39.1181 79.4385 39.1181C79.6061 39.1181 79.7714 39.0786 79.9213 39.0027C80.0712 38.9268 80.2015 38.8166 80.3019 38.6809L81.1053 37.5949C81.9634 40.7263 82.5676 43.9232 82.9118 47.1539ZM82.944 31.468L79.4385 36.2064L75.9409 31.4783C75.2645 30.5759 74.922 29.4626 74.9727 28.3316C75.1111 26.181 76.8194 23.9566 79.4385 23.9566C82.0576 23.9566 83.7661 26.181 83.9044 28.3341C83.9657 29.4614 83.6248 30.5734 82.9438 31.4681L82.944 31.468Z" fill="#676EAE"/>
</g>
</svg>
