<svg width="80" height="81" viewBox="0 0 80 81" fill="none" xmlns="http://www.w3.org/2000/svg">
<g opacity="0.36" clip-path="url(#clip0_984_4252)">
<path d="M71.9679 41.85H63.9679C63.2793 41.8521 62.618 42.1228 62.1214 42.6058C61.6248 43.0887 61.331 43.7468 61.3012 44.4434C61.0614 49.1346 59.4833 53.6549 56.7581 57.4566C54.0329 61.2584 50.2774 64.1785 45.9465 65.8634C41.6157 67.5483 36.8952 67.9256 32.3569 66.9497C27.8185 65.9738 23.657 63.6864 20.3764 60.3648C17.0957 57.0431 14.8366 52.8296 13.8728 48.2345C12.9089 43.6395 13.2815 38.86 14.9456 34.475C16.6097 30.09 19.4938 26.2876 23.2486 23.5283C27.0034 20.769 31.4679 19.1712 36.1012 18.9284C36.7882 18.8993 37.4379 18.6036 37.9155 18.1027C38.3931 17.6018 38.662 16.934 38.6665 16.2378V8.13782C38.6667 7.7761 38.5951 7.41803 38.4559 7.08487C38.3168 6.75171 38.1129 6.45026 37.8565 6.19842C37.6001 5.94658 37.2962 5.74947 36.9631 5.61882C36.63 5.48816 36.2743 5.42661 35.9172 5.43782C26.351 5.8051 17.2898 9.87905 10.6056 16.8179C3.92154 23.7567 0.125413 33.0301 0.00165841 42.722C-0.122096 52.4139 3.43597 61.7836 9.94068 68.8951C16.4454 76.0065 25.3996 80.3163 34.9532 80.9339C35.7532 80.9834 36.5532 81.0086 37.3532 81.0095C47.0071 81.0039 56.2836 77.2121 63.2356 70.4299C70.1875 63.6478 74.2745 54.4027 74.6385 44.6351C74.6532 44.2762 74.5954 43.9181 74.4686 43.5827C74.3418 43.2473 74.1487 42.9416 73.9012 42.6843C73.6504 42.4215 73.3501 42.2122 73.018 42.0689C72.6859 41.9256 72.3289 41.8512 71.9679 41.85ZM11.6265 19.6533C14.7143 16.171 18.4646 13.3557 22.6527 11.3761C26.8409 9.3964 31.3806 8.29315 35.9999 8.13242L35.9705 16.2324C32.3395 16.4285 28.786 17.3716 25.5269 19.0043C22.2678 20.6369 19.3714 22.9248 17.0145 25.7283C13.313 30.1159 11.1055 35.5939 10.7191 41.3509C10.3327 47.108 11.7879 52.838 14.8692 57.6923L8.33588 62.3943C4.13339 55.9065 2.17647 48.19 2.772 40.4548C3.36754 32.7196 6.48186 25.4034 11.6265 19.6533ZM9.87988 64.5935L16.4132 59.8914C18.5844 62.6932 21.2824 65.0316 24.3514 66.7715C27.4203 68.5115 30.7993 69.6185 34.2932 70.0286C34.8639 70.0934 35.4319 70.1055 35.9999 70.1339V78.2636C35.7065 78.2528 35.4132 78.2487 35.1185 78.2298C30.194 77.9133 25.3935 76.5324 21.04 74.1803C16.6866 71.8282 12.8812 68.5592 9.87988 64.5935ZM60.5892 69.228C54.568 74.7732 46.8007 77.9783 38.6665 78.2744V70.1352C44.5244 69.8642 50.1263 67.6256 54.5879 63.7727C57.36 61.383 59.6213 58.4456 61.2333 55.1403C62.8452 51.835 63.7739 48.2314 63.9625 44.55L71.9732 44.5581C71.8108 49.2338 70.719 53.8284 68.763 58.0671C66.807 62.3059 64.027 66.1018 60.5892 69.228Z" fill="#676EAE"/>
<path d="M17.3237 43.2096C17.3237 47.2166 18.4973 51.1335 20.6959 54.4652C22.8946 57.7968 26.0196 60.3935 29.6758 61.9269C33.3321 63.4603 37.3553 63.8615 41.2367 63.0798C45.1181 62.2981 48.6834 60.3686 51.4818 57.5352C54.2802 54.7019 56.1859 51.092 56.9579 47.1621C57.73 43.2321 57.3337 39.1586 55.8193 35.4567C54.3048 31.7548 51.7402 28.5907 48.4497 26.3645C45.1591 24.1384 41.2905 22.9502 37.3331 22.9502C32.0282 22.9566 26.9424 25.0932 23.1913 28.8912C19.4402 32.6891 17.3301 37.8385 17.3237 43.2096ZM54.6757 43.2096C54.6757 46.6826 53.6586 50.0775 51.753 52.9652C49.8473 55.8528 47.1388 58.1034 43.9698 59.4325C40.8009 60.7615 37.3138 61.1092 33.9497 60.4317C30.5855 59.7542 27.4954 58.0818 25.0699 55.6261C22.6445 53.1703 20.9928 50.0415 20.3236 46.6353C19.6545 43.2291 19.9979 39.6985 21.3105 36.4899C22.6232 33.2814 24.846 30.539 27.698 28.6095C30.55 26.68 33.903 25.6502 37.3331 25.6502C41.931 25.6556 46.3391 27.5073 49.5903 30.7992C52.8416 34.091 54.6704 38.5542 54.6757 43.2096Z" fill="#676EAE"/>
<path d="M35.9997 31.0595V31.1945C34.4926 31.5043 33.1377 32.3322 32.1645 33.5377C31.1913 34.7433 30.6597 36.2524 30.6597 37.8095C30.6597 39.3665 31.1913 40.8757 32.1645 42.0812C33.1377 43.2868 34.4926 44.1146 35.9997 44.4245V52.4124C35.2225 52.1342 34.5491 51.6197 34.0718 50.9392C33.5945 50.2587 33.3364 49.4455 33.333 48.6108C33.333 48.2528 33.1925 47.9094 32.9425 47.6562C32.6924 47.4031 32.3533 47.2608 31.9997 47.2608C31.6461 47.2608 31.3069 47.4031 31.0569 47.6562C30.8068 47.9094 30.6664 48.2528 30.6664 48.6108C30.6683 50.1663 31.1998 51.6735 32.1713 52.8785C33.1428 54.0835 34.4949 54.9125 35.9997 55.2258V55.3608C35.9997 55.7189 36.1402 56.0622 36.3902 56.3154C36.6403 56.5686 36.9794 56.7108 37.333 56.7108C37.6866 56.7108 38.0258 56.5686 38.2758 56.3154C38.5259 56.0622 38.6664 55.7189 38.6664 55.3608V55.2258C40.1734 54.916 41.5283 54.0881 42.5015 52.8826C43.4747 51.677 44.0064 50.1679 44.0064 48.6108C44.0064 47.0538 43.4747 45.5446 42.5015 44.3391C41.5283 43.1335 40.1734 42.3057 38.6664 41.9958V34.0079C39.4436 34.2861 40.1169 34.8006 40.5942 35.4811C41.0716 36.1616 41.3296 36.9748 41.333 37.8095C41.333 38.1675 41.4735 38.5109 41.7235 38.7641C41.9736 39.0172 42.3127 39.1595 42.6664 39.1595C43.02 39.1595 43.3591 39.0172 43.6092 38.7641C43.8592 38.5109 43.9997 38.1675 43.9997 37.8095C43.9977 36.254 43.4662 34.7468 42.4947 33.5418C41.5232 32.3368 40.1711 31.5078 38.6664 31.1945V31.0595C38.6664 30.7014 38.5259 30.3581 38.2758 30.1049C38.0258 29.8517 37.6866 29.7095 37.333 29.7095C36.9794 29.7095 36.6403 29.8517 36.3902 30.1049C36.1402 30.3581 35.9997 30.7014 35.9997 31.0595ZM33.333 37.8095C33.3364 36.9748 33.5945 36.1616 34.0718 35.4811C34.5491 34.8006 35.2225 34.2861 35.9997 34.0079V41.6111C35.2225 41.3329 34.5491 40.8183 34.0718 40.1378C33.5945 39.4573 33.3364 38.6441 33.333 37.8095ZM41.333 48.6095C41.3296 49.4441 41.0716 50.2573 40.5942 50.9378C40.1169 51.6183 39.4436 52.1329 38.6664 52.4111V44.8079C39.4436 45.0861 40.1169 45.6006 40.5942 46.2811C41.0716 46.9616 41.3296 47.7748 41.333 48.6095Z" fill="#676EAE"/>
<path d="M79.609 0.39575C79.359 0.142664 79.0199 0.000488281 78.6663 0.000488281C78.3128 0.000488281 77.9737 0.142664 77.7237 0.39575L69.457 8.76575V6.87575C69.457 6.51771 69.3165 6.17433 69.0665 5.92116C68.8164 5.66798 68.4773 5.52575 68.1237 5.52575C67.7701 5.52575 67.4309 5.66798 67.1809 5.92116C66.9308 6.17433 66.7903 6.51771 66.7903 6.87575V8.9615C60.4313 3.48103 52.4317 0.333589 44.0863 0.02855C43.7301 0.00928969 43.3738 0.0664381 43.0409 0.196253C42.7079 0.326069 42.4058 0.525623 42.1543 0.78185C41.8954 1.03641 41.6893 1.34086 41.5482 1.67726C41.4072 2.01366 41.334 2.37524 41.333 2.7407V10.8407C41.3326 11.5365 41.5989 12.2054 42.076 12.7063C42.5531 13.2072 43.2035 13.501 43.8903 13.5259C49.8197 13.841 55.4242 16.3661 59.6246 20.6151C63.825 24.864 66.3242 30.5362 66.641 36.5393C66.6611 37.2382 66.9493 37.9016 67.4443 38.389C67.9394 38.8764 68.6025 39.1494 69.293 39.1502H77.293C77.654 39.1492 78.0111 39.0751 78.3433 38.9323C78.6756 38.7895 78.9763 38.5808 79.2277 38.3186C79.4763 38.0607 79.6705 37.7543 79.7984 37.418C79.9263 37.0817 79.9853 36.7226 79.9717 36.3625C79.6669 27.9134 76.5577 19.8151 71.1463 13.376H73.2103C73.564 13.376 73.9031 13.2338 74.1532 12.9806C74.4032 12.7274 74.5437 12.384 74.5437 12.026C74.5437 11.668 74.4032 11.3246 74.1532 11.0714C73.9031 10.8182 73.564 10.676 73.2103 10.676H71.3437L79.6103 2.306C79.7342 2.18053 79.8325 2.03157 79.8995 1.86764C79.9664 1.7037 80.0009 1.52801 80.0007 1.3506C80.0006 1.17318 79.966 0.997538 79.8987 0.833698C79.8315 0.669859 79.7331 0.52104 79.609 0.39575ZM69.305 36.4219C68.9616 29.7431 66.1841 23.4306 61.5098 18.7053C56.8355 13.98 50.5965 11.1778 43.9997 10.8407L43.9903 2.72585C52.7183 3.06386 60.9986 6.72522 67.1754 12.9778C73.3523 19.2303 76.9704 27.6132 77.3063 36.4502L69.305 36.4219Z" fill="#676EAE"/>
</g>
<defs>
<clipPath id="clip0_984_4252">
<rect width="80" height="81" fill="white"/>
</clipPath>
</defs>
</svg>
