<svg width="80" height="81" viewBox="0 0 80 81" fill="none" xmlns="http://www.w3.org/2000/svg">
<g opacity="0.36" clip-path="url(#clip0_984_4275)">
<path d="M72.1801 62.9815C73.7603 60.7815 74.6168 58.1338 74.6281 55.4134C74.6451 55.0557 74.5211 54.7059 74.2833 54.4408C74.0455 54.1757 73.7134 54.0171 73.3601 54C72.6273 53.9723 72.0071 54.5427 71.9641 55.2838C71.9741 57.4398 71.3182 59.545 70.0881 61.3048C67.4868 64.6312 62.5508 64.8 61.5868 64.8C60.8504 64.8 60.2534 65.4044 60.2534 66.15C60.2534 66.8956 60.8504 67.5 61.5868 67.5C62.7654 67.5 68.8148 67.2826 72.1801 62.9815Z" fill="#676EAE"/>
<path d="M45.3332 45.9002C45.3332 45.1546 44.7362 44.5502 43.9998 44.5502C43.2635 44.5502 42.6665 45.1546 42.6665 45.9002C42.6665 48.8825 45.0543 51.3002 47.9998 51.3002V52.6502C47.9998 53.3958 48.5968 54.0002 49.3332 54.0002C50.0695 54.0002 50.6665 53.3958 50.6665 52.6502V51.3002C53.612 51.3002 55.9998 48.8825 55.9998 45.9002C55.9998 42.9179 53.612 40.5002 50.6665 40.5002V35.1002C52.1393 35.1002 53.3332 36.309 53.3332 37.8002C53.3332 38.5458 53.9301 39.1502 54.6665 39.1502C55.4029 39.1502 55.9998 38.5458 55.9998 37.8002C55.9998 34.8179 53.612 32.4002 50.6665 32.4002V31.0502C50.6665 30.3046 50.0695 29.7002 49.3332 29.7002C48.5968 29.7002 47.9998 30.3046 47.9998 31.0502V32.4002C45.0543 32.4002 42.6665 34.8179 42.6665 37.8002C42.6665 40.7825 45.0543 43.2002 47.9998 43.2002V48.6002C46.5271 48.6002 45.3332 47.3914 45.3332 45.9002ZM45.3332 37.8002C45.3332 36.309 46.5271 35.1002 47.9998 35.1002V40.5002C46.5271 40.5002 45.3332 39.2914 45.3332 37.8002ZM50.6665 43.2002C52.1393 43.2002 53.3332 44.409 53.3332 45.9002C53.3332 47.3914 52.1393 48.6002 50.6665 48.6002V43.2002Z" fill="#676EAE"/>
<path d="M78.8853 45.5909C75.6 31.455 68.296 23.2646 63.0213 18.9864C69.636 19.4913 71.7653 22.2777 71.828 22.3614C72.2457 22.9652 73.0646 23.1181 73.6675 22.7048C74.2704 22.2916 74.4344 21.4651 74.036 20.8481C73.94 20.7023 72.088 18.0239 66.7027 16.7981C68.0797 15.6519 68.8943 13.9545 68.9333 12.15C68.7551 9.15836 66.6981 6.62147 63.8347 5.86173C63.9521 4.88657 64.0117 3.90516 64.0133 2.92278C64.0119 2.01774 63.5627 1.17362 62.817 0.674608C62.0713 0.175592 61.1282 0.0880605 60.3053 0.44148C59.6322 0.750057 59.007 1.15616 58.4493 1.64703C57.795 2.32786 56.8942 2.70828 55.956 2.70003C55.0193 2.70671 54.1203 2.32645 53.4667 1.64703C51.1169 -0.550312 47.4938 -0.550312 45.144 1.64703C44.4896 2.32935 43.5873 2.70998 42.648 2.70003C41.7114 2.70791 40.8124 2.32743 40.16 1.64703C39.6038 1.15722 38.9804 0.751599 38.3093 0.44283C37.487 0.0917792 36.5457 0.180507 35.8015 0.679226C35.0573 1.17795 34.6089 2.02053 34.6067 2.92413C34.6067 6.28293 35.2627 12.2742 39.416 16.2972C37.2332 17.6411 35.1947 19.2115 33.3333 20.9831V10.8C33.3333 7.72203 29.0333 5.40003 23.3333 5.40003C17.6333 5.40003 13.3333 7.72203 13.3333 10.8V24.4013C8.65733 24.8738 5.33333 27 5.33333 29.7V64.0373C2.112 64.9134 0 66.69 0 68.85V75.6C0 78.678 4.3 81 10 81C15.0973 81 19.0667 79.1411 19.8493 76.545C22.1509 77.7789 24.7304 78.3838 27.3333 78.3C33.0333 78.3 37.3333 75.978 37.3333 72.9V55.35C37.3333 52.272 33.0333 49.95 27.3333 49.95C26.6654 49.9496 25.9979 49.9834 25.3333 50.0513V29.7C25.3333 26.7435 21.364 24.4917 16 24.3176V14.5382C18.2683 15.7055 20.79 16.277 23.3333 16.2C25.8767 16.277 28.3984 15.7055 30.6667 14.5382V23.7452C29.788 24.7401 28.9053 25.8242 28.0347 27.0257C27.636 27.6268 27.7767 28.4394 28.3536 28.8673C28.9305 29.2953 29.7381 29.1862 30.184 28.62C31.0404 27.4462 31.9581 26.3196 32.9333 25.245C32.944 25.2329 32.9533 25.2207 32.964 25.2099C35.5093 22.3459 38.4981 19.9206 41.8133 18.0293C42.4669 18.3485 43.1584 18.5813 43.8707 18.7218L40.4333 21.9699C39.895 22.4792 39.8664 23.3338 40.3693 23.8788C40.8723 24.4239 41.7164 24.4529 42.2547 23.9436L47.588 18.9068H48.0133V22.9568C48.0133 23.7024 48.6103 24.3068 49.3467 24.3068C50.083 24.3068 50.68 23.7024 50.68 22.9568V18.9H51.1053L56.4387 23.9369C56.7869 24.2663 57.2822 24.3826 57.7381 24.242C58.194 24.1014 58.5411 23.7252 58.6488 23.2551C58.7564 22.7851 58.6082 22.2926 58.26 21.9632L54.8 18.7016C55.508 18.5597 56.195 18.326 56.844 18.0063C60.368 19.9368 71.952 27.5643 76.2907 46.2092C78.1773 54.3254 77.4973 60.534 74.2707 64.6583C70.1427 69.93 62.98 70.2 61.5867 70.2H42.6667C41.9303 70.2 41.3333 70.8045 41.3333 71.55C41.3333 72.2956 41.9303 72.9 42.6667 72.9H61.5867C63.8533 72.9 71.5933 72.4262 76.36 66.335C80.1173 61.5303 80.968 54.5508 78.8853 45.5909ZM10 66.15C14.4093 66.15 17.3333 67.77 17.3333 68.85C17.3333 69.93 14.4093 71.55 10 71.55C5.59067 71.55 2.66667 69.93 2.66667 68.85C2.66667 67.77 5.59067 66.15 10 66.15ZM10 78.3C5.59067 78.3 2.66667 76.68 2.66667 75.6V72.5882C4.93497 73.7555 7.45664 74.327 10 74.25C12.5434 74.327 15.065 73.7555 17.3333 72.5882V75.6C17.3333 76.68 14.4093 78.3 10 78.3ZM27.3333 75.6C22.924 75.6 20 73.98 20 72.9V59.0882C22.2683 60.2555 24.79 60.827 27.3333 60.75C29.8767 60.827 32.3984 60.2555 34.6667 59.0882V72.9C34.6667 73.98 31.7427 75.6 27.3333 75.6ZM34.6667 55.35C34.6667 56.43 31.7427 58.05 27.3333 58.05C22.924 58.05 20 56.43 20 55.35C20 54.27 22.924 52.65 27.3333 52.65C31.7427 52.65 34.6667 54.27 34.6667 55.35ZM17.3333 55.35V65.1119C15.065 63.9446 12.5434 63.3731 10 63.45C9.33207 63.4496 8.66455 63.4834 8 63.5513V33.4382C10.2683 34.6055 12.79 35.177 15.3333 35.1C17.8767 35.177 20.3984 34.6055 22.6667 33.4382V50.5373C19.4453 51.4134 17.3333 53.19 17.3333 55.35ZM22.6667 29.7C22.6667 30.78 19.7427 32.4 15.3333 32.4C10.924 32.4 8 30.78 8 29.7C8 28.62 10.924 27 15.3333 27C19.7427 27 22.6667 28.62 22.6667 29.7ZM23.3333 13.5C18.924 13.5 16 11.88 16 10.8C16 9.72003 18.924 8.10003 23.3333 8.10003C27.7427 8.10003 30.6667 9.72003 30.6667 10.8C30.6667 11.88 27.7427 13.5 23.3333 13.5ZM66.2667 12.15C66.2667 14.3627 63.9 16.1784 60.9333 16.2C60.4371 16.1969 59.9427 16.1394 59.4587 16.0286C61.3938 13.9382 62.7389 11.3598 63.3533 8.56308C64.9583 9.04188 66.1126 10.4632 66.2667 12.15ZM38.4907 3.75303C39.6167 4.82133 41.1049 5.41093 42.648 5.40003C44.192 5.41177 45.6814 4.8221 46.808 3.75303C47.4671 3.0793 48.3648 2.70026 49.3013 2.70026C50.2379 2.70026 51.1356 3.0793 51.7947 3.75303C52.9213 4.8229 54.4114 5.41267 55.956 5.40003C57.5005 5.41211 58.9904 4.82242 60.1173 3.75303C60.4868 3.42238 60.898 3.14275 61.34 2.92143C61.34 5.42838 60.88 11.6262 56.584 15.0242C55.6175 15.7591 54.4459 16.1651 53.2373 16.1838C54.3916 14.1765 55.3052 12.037 55.9587 9.81048C56.0863 9.34554 55.9593 8.84695 55.6255 8.50254C55.2916 8.15812 54.8016 8.0202 54.3401 8.14074C53.8786 8.26127 53.5157 8.62194 53.388 9.08688C52.6495 11.6246 51.5143 14.026 50.0253 16.2H48.6547C47.1687 14.0241 46.0332 11.6232 45.2907 9.08688C45.0929 8.36851 44.3575 7.94844 43.648 8.14863C42.9385 8.34882 42.5236 9.09346 42.7213 9.81183C43.3755 12.0402 44.2899 14.1816 45.4453 16.1906C44.2126 16.1842 43.0147 15.7756 42.0293 15.0255C37.7333 11.6289 37.2733 5.43108 37.2733 2.93223C37.7152 3.14657 38.125 3.42289 38.4907 3.75303Z" fill="#676EAE"/>
</g>
<defs>
<clipPath id="clip0_984_4275">
<rect width="80" height="81" fill="white"/>
</clipPath>
</defs>
</svg>
