<svg width="25" height="25" viewBox="0 0 25 25" fill="none" xmlns="http://www.w3.org/2000/svg">
<path d="M20.8156 17.6082V7.03027C20.8156 6.11551 20.0719 5.37183 19.1571 5.37183H9.88124C8.96648 5.37183 8.22279 6.11551 8.22279 7.03027V9.88623H5.72324C4.87501 9.88623 4.18359 10.5776 4.18359 11.4259V17.6082C4.18359 18.9839 5.30269 20.103 6.67839 20.103H18.3208C19.6965 20.103 20.8156 18.9839 20.8156 17.6082ZM8.22279 17.6082C8.22279 18.4588 7.529 19.1526 6.67839 19.1526C5.82779 19.1526 5.13399 18.4588 5.13399 17.6082V11.4259C5.13399 11.1004 5.39773 10.8366 5.72324 10.8366H8.22279V17.6082ZM9.17319 17.6082V7.03027C9.17319 6.64061 9.49158 6.32223 9.88124 6.32223H19.1571C19.5468 6.32223 19.8652 6.64061 19.8652 7.03027V17.6082C19.8652 18.4588 19.1714 19.1526 18.3208 19.1526H8.63622C8.97361 18.7273 9.17319 18.1903 9.17319 17.6082Z" fill="#2E3152"/>
<path d="M17.4894 8.22314H11.5494C11.2881 8.22314 11.0742 8.43698 11.0742 8.69834V11.5495C11.0742 11.8109 11.2881 12.0247 11.5494 12.0247H17.4894C17.7508 12.0247 17.9646 11.8109 17.9646 11.5495V8.69834C17.9646 8.43698 17.7508 8.22314 17.4894 8.22314ZM17.0142 11.0743H12.0246V9.17354H17.0142V11.0743Z" fill="#2E3152"/>
<path d="M17.4894 13.2126H11.5494C11.2881 13.2126 11.0742 13.4265 11.0742 13.6878C11.0742 13.9492 11.2881 14.163 11.5494 14.163H17.4894C17.7508 14.163 17.9646 13.9492 17.9646 13.6878C17.9646 13.4265 17.7508 13.2126 17.4894 13.2126Z" fill="#2E3152"/>
<path d="M17.4894 15.3511H11.5494C11.2881 15.3511 11.0742 15.5649 11.0742 15.8263C11.0742 16.0876 11.2881 16.3015 11.5494 16.3015H17.4894C17.7508 16.3015 17.9646 16.0876 17.9646 15.8263C17.9646 15.5649 17.7508 15.3511 17.4894 15.3511Z" fill="#2E3152"/>
</svg>
