<svg width="206" height="206" viewBox="0 0 206 206" fill="none" xmlns="http://www.w3.org/2000/svg">
<g opacity="0.15">
<path d="M186.181 153.593C184.573 153.612 184.75 153.534 182.612 153.683V103.663C182.612 98.3103 178.256 93.9549 172.903 93.9549H148.392C148.379 93.9549 148.367 93.9529 148.353 93.9529H120.128V18.6L143.277 40.9763C144.585 42.2413 145.336 44.01 145.336 45.8298V82.7464C145.336 84.4129 146.687 85.764 148.353 85.764C150.02 85.764 151.371 84.4129 151.371 82.7464V45.8298C151.371 42.3833 149.95 39.0326 147.471 36.637L119.208 9.3167C118.572 8.72042 117.355 8.1853 116.149 8.62587L65.4452 25.6692V13.9207C65.4835 8.78721 60.8774 4.31918 55.5194 4.6306C50.3948 4.6306 46.2253 8.79807 46.2253 13.9207V32.1296L32.9596 36.5888C27.7488 38.3406 24.2476 43.2105 24.2476 48.7082V153.609C10.8194 153.953 0 164.976 0 178.485V193.83C0 197.996 3.38894 201.384 7.55441 201.384H198.445C202.611 201.384 206 197.995 206 193.83V173.411C206 162.483 197.109 153.593 186.181 153.593ZM186.181 159.628C193.782 159.628 199.965 165.811 199.965 173.411V176.577H170.694V173.411C170.701 165.163 177.949 158.913 186.181 159.628ZM176.577 103.663V155.24C169.57 158.299 164.659 165.29 164.659 173.411V176.577H120.128V99.9901H172.903C174.929 99.9901 176.577 101.638 176.577 103.663ZM52.2604 13.9207C52.2604 12.1259 53.7225 10.6658 55.5194 10.6658C57.1332 10.4288 59.3063 11.6941 59.4101 13.9207V27.6978L52.2604 30.101V13.9207ZM24.2481 159.639V176.577H6.13091C7.06958 167.282 14.7861 159.958 24.2481 159.639ZM6.03516 193.83V182.612H24.2481V195.35H7.55481C6.71673 195.35 6.03516 194.668 6.03516 193.83ZM30.2832 48.7082C30.2832 45.8056 32.1316 43.2347 34.8828 42.3097L114.093 15.6842V32.126L48.2812 54.248C46.7016 54.7787 45.8515 56.4899 46.3826 58.0699C46.8063 59.3308 47.9819 60.1267 49.2425 60.1267C49.5611 60.1267 49.8854 60.076 50.2045 59.9686L114.093 38.4935V53.8449L48.2812 75.9665C46.7016 76.4976 45.8515 78.2088 46.3826 79.7884C46.8063 81.0494 47.9819 81.8452 49.2425 81.8452C49.5611 81.8452 49.8854 81.7945 50.2045 81.6871L114.093 60.2116V75.563L48.2812 97.6851C46.7016 98.2158 45.8515 99.9269 46.3826 101.507C46.8063 102.768 47.9819 103.564 49.2425 103.564C49.5611 103.564 49.8854 103.513 50.2045 103.406L114.093 81.9305V96.9613C114.093 96.9653 114.093 96.9689 114.093 96.9729V97.2823L48.2812 119.404C46.7016 119.935 45.8515 121.646 46.3826 123.225C46.8063 124.486 47.9819 125.282 49.2425 125.282C49.5611 125.282 49.8854 125.232 50.2045 125.124L114.093 103.649V119L72.9984 132.814C71.4188 133.344 70.5687 135.056 71.0998 136.636C71.5234 137.896 72.6991 138.692 73.9596 138.692C74.2783 138.692 74.6026 138.642 74.9216 138.534L114.093 125.367V195.349H88.024V163.993C88.024 161.938 87.0849 160.046 85.4478 158.804C83.8106 157.561 81.7361 157.166 79.7566 157.718L51.6702 165.559C48.4647 166.454 46.2261 169.403 46.2261 172.731V195.349H30.2832V48.7082ZM52.2612 172.732C52.2612 172.101 52.6857 171.542 53.2928 171.372L64.107 168.353V195.35H52.2608V172.732H52.2612ZM70.1422 195.35V166.668L81.3793 163.531C81.5309 163.488 81.6726 163.515 81.7985 163.611C81.9244 163.707 81.9884 163.836 81.9884 163.994V195.35H70.1422ZM120.128 195.35V182.612H164.659V195.35H120.128ZM199.965 193.83C199.965 194.668 199.283 195.35 198.446 195.35H170.694V182.612H199.965V193.83Z" fill="white"/>
<path d="M49.2426 147.001C49.5613 147.001 49.8855 146.95 50.2046 146.843L61.4083 143.077C62.9879 142.546 63.838 140.835 63.3069 139.255C62.7758 137.675 61.0647 136.824 59.4851 137.356L48.2814 141.122C46.7018 141.653 45.8516 143.364 46.3827 144.944C46.8064 146.205 47.9821 147.001 49.2426 147.001Z" fill="white"/>
<path d="M133.344 124.879H162.937C165.743 124.879 168.026 122.596 168.026 119.79V112.527C168.026 109.72 165.743 107.438 162.937 107.438H133.344C130.537 107.438 128.255 109.72 128.255 112.527V119.79C128.255 122.596 130.538 124.879 133.344 124.879ZM134.29 113.473H161.991V118.844H134.29V113.473Z" fill="white"/>
<path d="M133.344 147.825H162.937C165.743 147.825 168.026 145.542 168.026 142.736V135.472C168.026 132.666 165.743 130.383 162.937 130.383H133.344C130.537 130.383 128.255 132.666 128.255 135.472V142.736C128.255 145.542 130.538 147.825 133.344 147.825ZM134.29 136.418H161.991V141.79H134.29V136.418Z" fill="white"/>
<path d="M133.344 171.005H143.132C145.938 171.005 148.221 168.722 148.221 165.916V158.653C148.221 155.846 145.938 153.563 143.132 153.563H133.344C130.537 153.563 128.255 155.846 128.255 158.653V165.916C128.255 168.722 130.538 171.005 133.344 171.005ZM134.29 159.599H142.186V164.97H134.29V159.599Z" fill="white"/>
</g>
</svg>
