<svg width="81" height="82" viewBox="0 0 81 82" fill="none" xmlns="http://www.w3.org/2000/svg">
<g opacity="0.36" clip-path="url(#clip0_984_4243)">
<path d="M34.4644 46.6143L44.5941 33.7999L46.571 35.4014L36.4413 48.2158L34.4644 46.6143Z" fill="#676EAE"/>
<path d="M35.4375 35.875H37.9688V38.4375H35.4375V35.875Z" fill="#676EAE"/>
<path d="M43.0312 43.5625H45.5625V46.125H43.0312V43.5625Z" fill="#676EAE"/>
<path d="M73.8834 67.4745C75.1376 66.3034 75.9375 64.6403 75.9375 62.7812C75.9375 60.1073 74.3074 57.8164 72.0027 56.858L76.0413 39.7085C78.7839 39.6508 81 37.383 81 34.5938C81 31.9121 78.9484 29.7288 76.3526 29.511L72.957 9.78491C74.7098 8.97772 75.9375 7.19806 75.9375 5.125C75.9375 2.29856 73.667 0 70.875 0C68.3134 0 66.2124 1.94238 65.8808 4.44466L43.9374 7.10325C43.1983 5.19931 41.3745 3.84375 39.2344 3.84375C36.4424 3.84375 34.1719 6.14231 34.1719 8.96875C34.1719 9.20706 34.2098 9.43513 34.2415 9.66447L20.7866 15.2751C19.5286 13.4198 17.7504 11.9579 15.6646 11.1007C16.9189 9.92841 17.7188 8.26534 17.7188 6.40625C17.7188 2.87384 14.88 0 11.3906 0C7.9013 0 5.0625 2.87384 5.0625 6.40625C5.0625 8.26534 5.86238 9.92841 7.11661 11.0995C2.94891 12.8151 0 16.9535 0 21.7812V24.3438C0 25.051 0.565734 25.625 1.26562 25.625H10.063L9.08972 46.2339C6.79388 46.7195 5.0625 48.7836 5.0625 51.25C5.0625 53.2744 6.237 55.0117 7.92534 55.8446L4.78153 71.7795C2.12245 71.9307 0 74.1472 0 76.875C0 79.7014 2.27053 82 5.0625 82C7.78739 82 9.9997 79.8052 10.1048 77.0723L29.6738 72.7724C30.5117 74.4381 32.2026 75.5938 34.1719 75.5938C36.264 75.5938 38.0637 74.3022 38.8344 72.4649L58.5554 75.4233C58.344 76.301 58.2188 77.2132 58.2188 78.1562V80.7188C58.2188 81.426 58.7845 82 59.4844 82H79.7344C80.4343 82 81 81.426 81 80.7188V78.1562C81 73.3285 78.0511 69.1901 73.8834 67.4745ZM73.4062 62.7812C73.4062 64.9004 71.7027 66.625 69.6094 66.625C67.516 66.625 65.8125 64.9004 65.8125 62.7812C65.8125 60.6621 67.516 58.9375 69.6094 58.9375C71.7027 58.9375 73.4062 60.6621 73.4062 62.7812ZM78.4688 34.5938C78.4688 36.007 77.3335 37.1562 75.9375 37.1562C74.5415 37.1562 73.4062 36.007 73.4062 34.5938C73.4062 33.1805 74.5415 32.0312 75.9375 32.0312C77.3335 32.0312 78.4688 33.1805 78.4688 34.5938ZM55.161 37.0525C53.4878 30.6923 47.8913 25.953 41.1594 25.6583L40.6936 13.8503C41.3809 13.6389 42.0023 13.2891 42.5326 12.824L71.1977 32.8448C71.0421 33.2741 70.9497 33.7302 70.913 34.203L55.161 37.0525ZM33.9757 65.3643C32.9062 65.4065 31.9292 65.7845 31.1293 66.3995L14.7483 53.3192C15.0268 52.685 15.1875 51.9867 15.1875 51.25C15.1875 51.1296 15.1609 51.0181 15.1521 50.9002L26.5452 47.059C28.2956 51.1744 31.7697 54.3673 36.045 55.6972L33.9757 65.3643ZM7.26216 72.2804L10.406 56.3455C11.4412 56.2866 12.3892 55.9176 13.1676 55.3192L29.5485 68.3995C29.2967 68.9761 29.1549 69.6077 29.1296 70.2714L9.55927 74.5713C9.05934 73.5745 8.25567 72.7699 7.26216 72.2804ZM27.8438 41C27.8438 33.9352 33.5213 28.1875 40.5 28.1875C47.4787 28.1875 53.1562 33.9352 53.1562 41C53.1562 48.0648 47.4787 53.8125 40.5 53.8125C33.5213 53.8125 27.8438 48.0648 27.8438 41ZM70.875 2.5625C72.271 2.5625 73.4062 3.71178 73.4062 5.125C73.4062 6.53822 72.271 7.6875 70.875 7.6875C69.479 7.6875 68.3438 6.53822 68.3438 5.125C68.3438 3.71178 69.479 2.5625 70.875 2.5625ZM70.4599 10.2077L73.8568 29.9338C73.41 30.1388 73.0063 30.4156 72.6405 30.7372L43.9741 10.7164C44.0969 10.3756 44.1804 10.0181 44.2298 9.64781L66.1732 6.98922C66.8617 8.76759 68.5032 10.0424 70.4599 10.2077ZM39.2344 6.40625C40.6304 6.40625 41.7656 7.55553 41.7656 8.96875C41.7656 10.382 40.6304 11.5312 39.2344 11.5312C37.8384 11.5312 36.7031 10.382 36.7031 8.96875C36.7031 7.55553 37.8384 6.40625 39.2344 6.40625ZM7.59375 6.40625C7.59375 4.28706 9.29728 2.5625 11.3906 2.5625C13.484 2.5625 15.1875 4.28706 15.1875 6.40625C15.1875 8.52544 13.484 10.25 11.3906 10.25C9.29728 10.25 7.59375 8.52544 7.59375 6.40625ZM2.53125 21.7812C2.53125 16.8356 6.50658 12.8125 11.3906 12.8125C16.2747 12.8125 20.25 16.8356 20.25 21.7812V23.0625H2.53125V21.7812ZM21.5156 25.625C22.2155 25.625 22.7812 25.051 22.7812 24.3438V21.7812C22.7812 20.286 22.4902 18.8626 21.9763 17.5506L35.2021 12.0348C35.921 13.0008 36.9575 13.7094 38.1649 13.9733L38.6294 25.7531C31.1369 26.691 25.3125 33.1639 25.3125 41C25.3125 42.2505 25.477 43.46 25.7567 44.6234L14.3648 48.4646C13.727 47.4742 12.7575 46.7374 11.6197 46.3787L12.598 25.625H21.5156ZM10.125 48.6875C11.521 48.6875 12.6562 49.8368 12.6562 51.25C12.6562 52.6632 11.521 53.8125 10.125 53.8125C8.72902 53.8125 7.59375 52.6632 7.59375 51.25C7.59375 49.8368 8.72902 48.6875 10.125 48.6875ZM5.0625 79.4375C3.66652 79.4375 2.53125 78.2882 2.53125 76.875C2.53125 75.4618 3.66652 74.3125 5.0625 74.3125C6.45848 74.3125 7.59375 75.4618 7.59375 76.875C7.59375 78.2882 6.45848 79.4375 5.0625 79.4375ZM34.1719 73.0312C32.7759 73.0312 31.6406 71.882 31.6406 70.4688C31.6406 69.0555 32.7759 67.9062 34.1719 67.9062C35.5679 67.9062 36.7031 69.0555 36.7031 70.4688C36.7031 71.882 35.5679 73.0312 34.1719 73.0312ZM39.18 69.9268C38.9939 68.1689 37.9396 66.6839 36.4475 65.9165L38.5218 56.2302C39.1711 56.3148 39.828 56.375 40.5 56.375C48.8746 56.375 55.6875 49.478 55.6875 41C55.6875 40.5182 55.6597 40.0442 55.6166 39.574L71.3496 36.7283C71.8154 37.7495 72.6051 38.5772 73.5822 39.1025L69.5119 56.3853C66.0682 56.4391 63.2812 59.2822 63.2812 62.7812C63.2812 64.6403 64.0811 66.3034 65.3354 67.4745C62.7801 68.5264 60.6905 70.4905 59.4515 72.9672L39.18 69.9268ZM78.4688 79.4375H60.75V78.1562C60.75 73.2106 64.7253 69.1875 69.6094 69.1875C74.4934 69.1875 78.4688 73.2106 78.4688 78.1562V79.4375Z" fill="#676EAE"/>
</g>
<defs>
<clipPath id="clip0_984_4243">
<rect width="81" height="82" fill="white"/>
</clipPath>
</defs>
</svg>
