<svg width="82" height="82" viewBox="0 0 82 82" fill="none" xmlns="http://www.w3.org/2000/svg">
<g opacity="0.36" clip-path="url(#clip0_984_4279)">
<path d="M81.5265 56.9934L77.6172 53.116C76.9889 52.4928 75.9748 52.4971 75.3518 53.1253C74.7286 53.7534 74.733 54.7677 75.3611 55.3907L79.2702 59.2681C79.5825 59.578 79.9904 59.7327 80.3982 59.7327C80.8103 59.7327 81.2223 59.5746 81.5354 59.2588C82.1588 58.6306 82.1546 57.6164 81.5265 56.9934Z" fill="#676EAE"/>
<path d="M73.6336 49.1489C73.008 48.5233 71.994 48.5233 71.3682 49.1489L71.3654 49.1516C70.7399 49.7772 70.7413 50.7901 71.3669 51.4157C71.6792 51.7282 72.089 51.8843 72.4987 51.8843C72.9093 51.8843 73.3203 51.7275 73.6334 51.4144C74.259 50.7889 74.259 49.7746 73.6336 49.1489Z" fill="#676EAE"/>
<path d="M59.9775 56.5354L75.5171 40.9959C77.8706 38.6423 77.8706 34.8126 75.517 32.4589C74.687 31.629 73.6734 31.0931 72.6058 30.8486C72.9719 30.0616 73.1657 29.1978 73.1657 28.304C73.1657 26.6915 72.5377 25.1757 71.3977 24.0357C70.5036 23.1414 69.3778 22.5638 68.156 22.3558C68.8439 20.26 68.3577 17.8597 66.6941 16.1963C65.7794 15.2819 64.6419 14.7245 63.4546 14.5208C63.6535 13.9172 63.7584 13.2797 63.7584 12.6257C63.7584 11.0132 63.1305 9.49733 61.9905 8.35734C60.8503 7.21735 59.3344 6.58938 57.7222 6.58938C56.6983 6.58938 55.7138 6.84338 54.8392 7.32033L54.6846 7.15425C52.6759 4.99566 49.8327 3.75781 46.8844 3.75781H34.3057C33.4212 3.75781 32.7038 4.47515 32.7038 5.3597V7.46031C32.7038 8.30097 32.846 9.11936 33.118 9.88891C32.3934 9.58798 31.6095 9.42991 30.8013 9.42991C29.1889 9.42991 27.673 10.0579 26.5328 11.1979C24.8685 12.8622 24.3827 15.2642 25.0722 17.3607C23.884 17.5639 22.7448 18.1216 21.8294 19.0369C20.6894 20.177 20.0614 21.6929 20.0614 23.3052C20.0614 23.958 20.166 24.5945 20.3641 25.1968C19.1437 25.4055 18.0191 25.9827 17.1257 26.8762C15.2876 28.7143 14.8852 31.453 15.9183 33.6854C14.8243 33.9354 13.8195 34.4864 13.0062 35.2995C10.6527 37.653 10.6527 41.4826 13.0062 43.8363L16.202 47.0319L0.469178 62.7643C-0.156393 63.3899 -0.156393 64.4042 0.469178 65.0299C0.781963 65.3425 1.19196 65.4992 1.6018 65.4992C2.01164 65.4992 2.42164 65.3427 2.73443 65.0299L18.619 49.1453C19.5183 49.6584 20.5388 49.9329 21.6024 49.9329C23.2147 49.9329 24.7306 49.305 25.8708 48.1648C27.1094 46.9263 27.6953 45.2788 27.6301 43.6529C27.7113 43.6563 27.7925 43.6587 27.8737 43.6587C29.4192 43.6585 30.9655 43.0701 32.142 41.8936C33.282 40.7534 33.91 39.2375 33.91 37.6253C33.91 37.5437 33.9072 37.4627 33.904 37.3817C33.9843 37.3849 34.0645 37.3874 34.1449 37.3874C35.6906 37.3874 37.2366 36.799 38.4132 35.6223C39.5532 34.4822 40.1812 32.9663 40.1812 31.354C40.1812 31.2725 40.1785 31.1915 40.1753 31.1104C40.2555 31.1136 40.3358 31.1162 40.4162 31.1162C41.962 31.1162 43.5078 30.5278 44.6845 29.3511C46.8959 27.1397 47.029 23.6254 45.0849 21.2565L55.7183 10.6231C56.2534 10.0878 56.9645 9.7933 57.7212 9.7933C58.4779 9.7933 59.1892 10.0878 59.7243 10.6231C60.2593 11.1582 60.5539 11.8692 60.5539 12.626C60.5539 13.3826 60.2593 14.094 59.7241 14.6289L58.1563 16.1967L52.4679 21.8851C51.8423 22.5107 51.8423 23.5249 52.4679 24.1507C52.7807 24.4633 53.1907 24.6199 53.6005 24.6199C54.0104 24.6199 54.4204 24.4635 54.7332 24.1507L60.4216 18.4622C61.5259 17.3578 63.323 17.3576 64.4276 18.4621C65.532 19.5667 65.532 21.3636 64.4276 22.4682L62.8596 24.0362L58.7391 28.1567C58.1136 28.7822 58.1136 29.7965 58.7391 30.4222C59.0519 30.7349 59.4619 30.8915 59.8718 30.8915C60.2816 30.8915 60.6916 30.735 61.0044 30.4222L65.1249 26.3017C65.66 25.7665 66.3712 25.472 67.1278 25.472C67.8845 25.472 68.5958 25.7665 69.1309 26.3017C69.666 26.8368 69.9605 27.5479 69.9605 28.3046C69.9605 29.0612 69.666 29.7726 69.1307 30.3076L66.9787 32.4596L65.0102 34.4281C64.3847 35.0536 64.3847 36.0679 65.0102 36.6936C65.323 37.0063 65.733 37.1629 66.1429 37.1629C66.5527 37.1629 66.9627 37.0064 67.2755 36.6936L69.2454 34.7237C70.35 33.621 72.146 33.6212 73.2499 34.7251C74.3545 35.8296 74.3545 37.6267 73.2499 38.7313L57.7103 54.2708C53.8083 58.173 48.6222 60.432 43.1076 60.6322C42.7022 60.6469 42.3172 60.8149 42.0308 61.1026L27.6757 75.5109C27.0513 76.1376 27.053 77.1518 27.6799 77.7763C27.9923 78.0876 28.4014 78.2434 28.8104 78.2434C29.2212 78.2434 29.6324 78.0863 29.9451 77.7721L40.5038 67.1746C43.1857 68.8951 46.3398 69.7132 49.547 69.5012L57.8107 77.7651C58.1235 78.0777 58.5335 78.2343 58.9433 78.2343C59.3533 78.2343 59.7632 78.0778 60.076 77.7651C60.7015 77.1395 60.7015 76.1252 60.076 75.4995L51.2898 66.7124C50.9571 66.3799 50.4949 66.2099 50.0262 66.2484L49.5183 66.29C47.1741 66.4822 44.857 65.9688 42.8339 64.835L43.8633 63.8018C49.9519 63.4263 55.6521 60.8609 59.9775 56.5354ZM23.6055 45.8996C23.0704 46.4348 22.359 46.7293 21.6026 46.7293C20.8459 46.7293 20.1346 46.4348 19.5997 45.8996L15.2713 41.5713C14.1669 40.4669 14.1669 38.6698 15.2713 37.5652C15.8064 37.03 16.5178 36.7354 17.2744 36.7354C18.031 36.7354 18.7424 37.03 19.2773 37.5652L23.6057 41.8934C24.7099 42.9979 24.7099 44.795 23.6055 45.8996ZM29.8771 39.628C28.7725 40.7324 26.975 40.7324 25.8709 39.628L21.5425 35.2996L19.3904 33.1474C18.2859 32.043 18.2859 30.2459 19.3904 29.1415C19.9254 28.6062 20.6369 28.3117 21.3933 28.3117C22.15 28.3117 22.8613 28.6062 23.3962 29.1415L29.8766 35.6219C29.8766 35.6219 29.8766 35.6219 29.8767 35.6219C30.412 36.1571 30.7065 36.8684 30.7065 37.6249C30.7065 38.3815 30.412 39.0929 29.8771 39.628ZM36.1483 33.3566C35.0437 34.4609 33.2464 34.4611 32.1422 33.3566L24.0938 25.3083C23.5587 24.7732 23.2642 24.0621 23.2642 23.3054C23.2642 22.5488 23.5587 21.8374 24.094 21.3025C24.6462 20.7502 25.3717 20.4741 26.0969 20.4741C26.8218 20.4741 27.5465 20.7499 28.0985 21.3012L31.7668 24.9694L36.148 29.3506H36.1481C36.6831 29.8857 36.9776 30.5968 36.9776 31.3535C36.9779 32.1103 36.6834 32.8217 36.1483 33.3566ZM42.4197 27.0852C41.3153 28.1896 39.5182 28.1896 38.4137 27.0852L30.3654 19.0369C30.3646 19.0361 30.3636 19.0353 30.3627 19.0343L28.7975 17.4691C27.693 16.3645 27.693 14.5676 28.7975 13.463C29.3497 12.9106 30.0752 12.6345 30.8005 12.6345C31.5259 12.6345 32.2514 12.9106 32.8034 13.463L42.4194 23.0789C42.9546 23.614 43.2492 24.3252 43.2492 25.0818C43.2493 25.8387 42.9549 26.5503 42.4197 27.0852ZM42.8409 18.9698L38.4411 14.57C38.94 14.6765 39.453 14.733 39.9751 14.7328C39.9868 14.7328 39.9986 14.7328 40.0105 14.7328L44.4064 14.7122C45.291 14.708 46.005 13.9875 46.0008 13.1028C45.9966 12.2206 45.2803 11.5084 44.3991 11.5084C44.3965 11.5084 44.3939 11.5084 44.3914 11.5084L39.9954 11.5291C39.9887 11.5291 39.9823 11.5291 39.9756 11.5291C38.8924 11.5291 37.8737 11.1087 37.1056 10.3442C36.3326 9.57485 35.9071 8.55081 35.9071 7.46014V6.96142H46.8839C48.9459 6.96142 50.9342 7.82706 52.3391 9.3367L52.4043 9.40668L42.8409 18.9698Z" fill="#676EAE"/>
</g>
<defs>
<clipPath id="clip0_984_4279">
<rect width="82" height="82" fill="white"/>
</clipPath>
</defs>
</svg>
