<svg width="54" height="51" viewBox="0 0 54 51" fill="none" xmlns="http://www.w3.org/2000/svg">
<g opacity="0.4" clip-path="url(#clip0_984_4269)">
<path d="M15.3005 30.5996H8.10059V32.2996H15.3005V30.5996Z" fill="#676EAE"/>
<path d="M53.9048 40.4192L51.2048 35.3192C51.0524 35.0312 50.7406 34.8494 50.3998 34.8494H44.9999V32.2994C44.9999 31.83 44.5969 31.4495 44.0999 31.4495H26.1002C25.6032 31.4495 25.2002 31.83 25.2002 32.2994V47.5992C25.2002 48.0686 25.6032 48.4492 26.1002 48.4492H29.8279C30.3153 50.2603 32.265 51.3553 34.1825 50.895C35.4551 50.5895 36.4488 49.6511 36.7722 48.4492H43.3277C43.815 50.2603 45.7647 51.3553 47.6823 50.895C48.9548 50.5895 49.9485 49.6511 50.272 48.4492H53.0997C53.5967 48.4492 53.9997 48.0686 53.9997 47.5992V40.7993C53.9997 40.6673 53.9672 40.5372 53.9048 40.4192ZM33.3001 49.2992C32.3059 49.2992 31.5001 48.5381 31.5001 47.5992C31.5001 46.6603 32.3059 45.8992 33.3001 45.8992C34.2942 45.8992 35.1 46.6603 35.1 47.5992C35.099 48.5377 34.2938 49.2982 33.3001 49.2992ZM43.1999 46.7492H36.7722C36.3642 45.252 34.937 44.2039 33.3001 44.1992C31.6631 44.2039 30.2359 45.252 29.8279 46.7492H27.0002V33.1494H43.1999V46.7492ZM48.5998 36.5494H49.8435L51.6436 39.9493H48.5998V36.5494ZM46.7998 49.2992C45.8057 49.2992 44.9999 48.5381 44.9999 47.5992C44.9999 46.6603 45.8057 45.8992 46.7998 45.8992C47.794 45.8992 48.5998 46.6603 48.5998 47.5992C48.5988 48.5377 47.7935 49.2982 46.7998 49.2992ZM52.1997 46.7492H50.272C49.8639 45.252 48.4368 44.2039 46.7998 44.1992C46.1659 44.2026 45.5446 44.366 44.9999 44.6723V36.5494H46.7998V40.7993C46.7998 41.2687 47.2028 41.6493 47.6998 41.6493H52.1997V46.7492Z" fill="#676EAE"/>
<path d="M21.5994 11.8999H19.8003V13.5999H21.5994V11.8999Z" fill="#676EAE"/>
<path d="M25.1995 11.8999H23.4004V13.5999H25.1995V11.8999Z" fill="#676EAE"/>
<path d="M28.7991 11.8999H27V13.5999H28.7991V11.8999Z" fill="#676EAE"/>
<path d="M32.3992 11.8999H30.6001V13.5999H32.3992V11.8999Z" fill="#676EAE"/>
<path d="M49.578 14.1974L46.7897 11.5636C44.7167 9.60824 41.9088 8.50687 38.979 8.49986H31.9989L27.7635 2.09968C27.5989 1.85116 27.3106 1.70008 27.0002 1.69997H24.3002C23.803 1.70018 23.4 2.08108 23.4002 2.55081C23.4002 2.62008 23.4092 2.68904 23.427 2.75629L24.9474 8.49986H17.7701L15.2626 0.605934C15.1484 0.246283 14.7979 0 14.4004 0H9.90047C9.40346 0 9.00049 0.380581 9.00049 0.849986V9.34984H9.00893C9.006 9.57424 9.0978 9.79056 9.26418 9.95078L14.8891 15.2632C17.2098 17.4693 20.3685 18.7067 23.6612 18.6997H23.9064L21.6701 23.4547C21.4684 23.8836 21.6731 24.3859 22.1272 24.5765C22.1537 24.5875 22.1805 24.5974 22.208 24.606L24.9062 25.456C25.2841 25.5749 25.6998 25.4451 25.9283 25.1368L30.6964 18.6997H47.601C49.1426 18.7023 50.3946 17.5243 50.3975 16.0682C50.3989 15.3665 50.1039 14.6932 49.578 14.1974ZM26.5014 3.39994L29.8763 8.49986H26.803L25.4529 3.39994H26.5014ZM10.8005 1.69997H13.7307L15.8907 8.49986H10.8005V1.69997ZM24.8385 23.6427L23.7175 23.2895L26.6754 16.9997H29.759L24.8385 23.6427ZM48.5242 16.4171C48.3743 16.7734 48.0069 17.0052 47.601 16.9997H31.9556L32.2243 16.637C32.5091 16.2523 32.4098 15.7222 32.0024 15.4532C31.8512 15.3534 31.6713 15.2997 31.4868 15.2997H26.0904C25.7346 15.2997 25.4122 15.4977 25.2678 15.8048L24.7059 16.9997H23.6612C20.8462 17.0056 18.1457 15.9474 16.1617 14.0613L12.073 10.1998H38.979C40.9412 10.2078 42.8502 10.803 44.4318 11.8998H37.8V13.5998H46.3995L48.3076 15.4019C48.5958 15.665 48.6821 16.069 48.5242 16.4171Z" fill="#676EAE"/>
<path d="M22.062 48.6745C21.4954 48.0998 20.7353 47.7283 19.9113 47.6232L23.3479 38.5352C23.5148 38.0925 23.2701 37.6059 22.8014 37.4482C22.796 37.4464 22.7905 37.4446 22.7849 37.4429L20.5903 36.752L18.8858 27.8976C18.808 27.4933 18.4352 27.1995 18.0003 27.1995H14.4003V24.6495C14.4003 24.1801 13.9974 23.7996 13.5004 23.7996H9.90042C9.4034 23.7996 9.00044 24.1801 9.00044 24.6495V27.1995H5.4005C4.96547 27.1995 4.59276 27.4934 4.51502 27.8976L2.81045 36.752L0.615838 37.4429C0.143908 37.592 -0.110563 38.0741 0.0472723 38.5197C0.0490723 38.5249 0.0509847 38.53 0.0528972 38.5352L3.48949 47.6235C2.66679 47.7293 1.9081 48.1007 1.34224 48.6745C1.01656 49.0619 0.524264 49.2912 0.000585586 49.2991V50.9991C0.975832 50.9941 1.9045 50.6044 2.56217 49.9242C2.88785 49.5365 3.38037 49.3071 3.90427 49.2991C4.09439 49.2976 4.28305 49.3309 4.4599 49.397C4.46744 49.4002 4.47227 49.407 4.47992 49.41C4.76218 49.5428 5.01845 49.7199 5.23794 49.9338C5.90235 50.6081 6.83203 50.9936 7.80739 50.9991C8.78241 50.994 9.71086 50.6041 10.3681 49.9238C10.9343 49.2253 11.9928 49.0925 12.7323 49.6271C12.8502 49.7123 12.9558 49.812 13.0461 49.9233C13.7026 50.6039 14.6306 50.9939 15.6054 50.9991C16.5802 50.9936 17.5092 50.6079 18.1726 49.9333C18.3902 49.721 18.6441 49.5448 18.9237 49.4121C18.9318 49.4089 18.9369 49.4017 18.9448 49.3983C19.1221 49.3313 19.3115 49.2978 19.5024 49.2992C20.025 49.3072 20.5163 49.5365 20.8405 49.9239C21.4974 50.6041 22.4255 50.9939 23.4002 50.9992V49.2992C22.8775 49.2912 22.3862 49.0619 22.062 48.6745ZM10.8004 25.4995H12.6004V27.1995H10.8004V25.4995ZM10.8004 47.71C10.1715 47.8937 9.60264 48.2256 9.14725 48.6745C8.57958 49.3737 7.51917 49.5059 6.77882 48.9698C6.66137 48.8848 6.5563 48.7854 6.46619 48.6745C6.18686 48.4167 5.87715 48.19 5.54314 47.9989L2.05716 38.781L10.8004 36.0287V47.71ZM11.4157 34.043L4.75791 36.1389L6.15153 28.8995H17.2492L18.6429 36.1389L11.9851 34.043C11.8003 33.9848 11.6005 33.9848 11.4157 34.043ZM17.8558 48.0044C17.5258 48.1947 17.2195 48.4196 16.943 48.6749C16.378 49.3727 15.3209 49.5056 14.5821 48.9719C14.4639 48.8865 14.3582 48.7866 14.2677 48.6749C13.8096 48.2215 13.2353 47.8874 12.6005 47.7052V36.0287L21.3437 38.781L17.8558 48.0044Z" fill="#676EAE"/>
<path d="M35.9993 11.8999H34.2002V13.5999H35.9993V11.8999Z" fill="#676EAE"/>
</g>
<defs>
<clipPath id="clip0_984_4269">
<rect width="54" height="51" fill="white"/>
</clipPath>
</defs>
</svg>
