<svg width="385" height="289" viewBox="0 0 385 289" fill="none" xmlns="http://www.w3.org/2000/svg">
  <path d="M194.457 288.54C96.5076 287.2 19.1787 221.522 2.06321 126.459C1.75389 124.809 1.65078 123.159 1.54768 121.613C1.23836 117.488 0.825944 112.643 6.29052 111.818C11.652 110.993 12.9924 115.014 13.7141 119.447C14.9514 126.356 16.2917 133.16 18.0445 139.862C36.6034 213.582 99.2914 267.403 174.971 274.518C250.547 281.632 321.689 241.73 354.58 173.784C355.508 171.928 356.333 170.072 357.157 168.216C358.807 164.401 361.694 161.824 365.818 163.37C371.077 165.329 370.252 169.66 368.499 173.681C361.488 189.559 352.518 204.303 341.485 217.604C302.821 263.898 252.712 286.478 194.457 288.54Z" fill="white"/>
  <path d="M190.745 -96.5585C287.664 -96.5585 367.158 -29.2308 382.212 63.667C383.14 69.2346 387.779 77.1738 378.19 78.6172C369.53 79.9576 371.076 70.9874 370.148 66.0384C359.219 6.23736 326.638 -38.0979 272.611 -65.5238C184.765 -110.168 76.5048 -74.0816 31.9634 13.764C31.2416 15.2075 30.623 16.7541 29.7982 18.1976C27.0143 22.7342 26.1895 31.1888 18.1473 27.1677C11.2392 23.6621 15.9821 17.7851 18.1473 13.2485C46.3981 -44.3873 92.383 -79.6493 154.968 -93.4654C167.547 -96.2492 180.229 -96.8678 190.642 -96.4554L190.745 -96.5585Z" fill="white"/>
  <path d="M193.222 265.238C154.454 264.929 119.192 253.484 88.1575 229.564C84.2395 226.574 78.8781 223.274 82.7961 217.707C87.7451 210.695 92.3849 217.191 96.0966 219.872C160.744 266.372 239.722 264.516 297.461 211.933C345.302 168.319 359.943 113.57 343.034 50.6761C341.59 45.2116 334.579 36.86 344.374 33.87C353.756 30.9831 353.138 41.6029 354.891 46.9643C384.585 140.584 325.299 240.183 227.659 261.32C216.317 263.795 204.873 264.104 193.222 265.032V265.238Z" fill="white"/>
  <path d="M22.6836 93.5682C25.983 25.8281 55.7804 -26.1369 117.437 -56.3467C178.888 -86.4534 238.586 -79.1329 294.469 -40.2623C296.84 -38.6126 299.006 -36.7567 301.171 -34.7977C303.645 -32.5294 303.748 -29.6425 302.202 -26.9617C300.449 -23.6624 296.943 -24.1779 294.572 -25.312C290.551 -27.271 287.045 -30.158 283.23 -32.6325C232.296 -67.0696 178.269 -72.328 123.211 -45.4176C69.5965 -19.2288 40.6239 25.3126 35.3656 85.0105C33.6128 105.735 36.6028 125.84 43.0985 145.533C44.645 150.276 46.8102 155.638 39.9022 157.597C33.7159 159.246 32.4786 153.575 31.1383 149.451C25.4675 131.305 21.8588 112.849 22.5805 93.5682H22.6836Z" fill="white"/>
  <path d="M45.6773 95.9399C45.6773 -2.93801 140.328 -73.4619 234.05 -45.5204C237.144 -44.5925 240.237 -43.4583 243.33 -42.2211C246.732 -40.8807 248.898 -38.3031 247.66 -34.4882C246.32 -30.1578 243.021 -29.1267 238.793 -30.5702C229.411 -33.6633 219.925 -36.3441 210.027 -37.3751C152.391 -43.4583 106.922 -22.2187 77.3306 26.9625C47.7394 76.2468 51.1419 126.253 83.4138 173.99C84.3417 175.331 85.4759 176.568 86.3007 178.012C88.2597 181.311 92.1777 184.817 87.1256 188.528C82.1765 192.137 78.7741 189.044 75.784 185.229C69.1853 176.774 63.6176 167.701 59.081 158.009C49.8015 137.904 44.9556 116.973 45.5742 96.043L45.6773 95.9399Z" fill="white"/>
  <path d="M5.87774 97.7952C2.16595 96.9703 -0.205464 95.0113 -0.102358 91.2995C0.103852 87.4847 2.37216 85.835 6.29016 85.835C10.4144 85.835 11.8578 88.2064 11.7547 91.9182C11.6516 95.9393 9.28021 97.4858 5.87774 97.6921V97.7952Z" fill="white"/>
  <path d="M383.139 122.334C382.108 125.737 380.562 128.521 376.541 128.211C372.829 127.902 370.664 125.221 370.87 121.613C371.076 118.107 373.241 115.633 377.262 115.942C381.18 116.251 382.727 118.829 383.036 122.334H383.139Z" fill="white"/>
  <path d="M49.8004 181.414C46.501 180.796 43.7172 179.455 43.3048 175.537C42.9954 171.516 45.47 169.351 49.0786 169.145C52.6873 168.938 55.3681 170.691 55.6774 174.712C55.9867 178.837 53.306 180.383 49.6973 181.414H49.8004Z" fill="white"/>
  <path d="M12.7863 40.6749C16.395 41.2936 18.8695 43.1494 18.5602 47.1705C18.2509 50.4699 16.1887 52.3258 12.7863 52.3258C8.97139 52.3258 6.39375 50.6761 6.29065 46.655C6.29065 42.4277 9.1776 41.1905 12.7863 40.6749Z" fill="white"/>
  <path d="M13.8182 67.07C13.8182 72.6377 11.8592 74.5967 7.83807 74.5967C4.4356 74.5967 2.06417 73.1532 1.75486 69.8538C1.44554 66.1421 3.50765 63.4613 7.32254 63.0489C11.0343 62.6365 13.612 64.3893 13.8182 66.9669V67.07Z" fill="white"/>
  <path d="M100.529 207.292C95.9921 207.086 93.93 204.612 93.93 201.003C93.93 197.291 95.7859 194.714 100.116 195.023C103.416 195.332 105.375 197.188 105.581 200.591C105.787 204.406 104.034 206.777 100.632 207.396L100.529 207.292Z" fill="white"/>
  <path d="M384.894 99.6508C384.585 103.569 382.111 105.734 378.605 105.425C375.203 105.218 372.522 102.641 372.728 98.929C372.934 95.3204 375.409 93.2583 379.224 93.3614C383.348 93.3614 384.791 95.939 384.791 99.6508H384.894Z" fill="white"/>
  <path d="M341.177 15.4144C341.074 19.1262 339.528 21.9101 335.506 22.0132C331.692 22.0132 329.526 19.6417 329.526 15.8269C329.526 12.6306 331.176 10.3623 334.578 10.053C338.6 9.64055 340.662 11.5995 341.177 15.5175V15.4144Z" fill="white"/>
  <path d="M372.004 138.213C376.644 138.213 378.293 140.894 378.19 144.503C378.087 147.493 376.644 150.173 373.138 150.38C369.22 150.586 366.849 148.627 366.746 144.606C366.539 140.791 368.498 138.419 372.107 138.11L372.004 138.213Z" fill="white"/>
  <path d="M69.7008 209.458C66.2984 208.84 63.4114 207.499 63.1021 203.581C62.7928 199.663 65.0611 197.395 68.7729 197.189C72.4847 196.983 75.0623 198.736 75.3716 202.757C75.5778 206.675 73.1033 208.531 69.7008 209.562V209.458Z" fill="white"/>
</svg>
