<svg width="122" height="229" viewBox="0 0 122 229" fill="none" xmlns="http://www.w3.org/2000/svg">
  <g clip-path="url(#clip0_2085_4868)">
    <path d="M8.52409 229.275C-49.8415 228.477 -95.9195 189.341 -106.118 132.696C-106.302 131.713 -106.364 130.73 -106.425 129.808C-106.61 127.351 -106.855 124.463 -103.599 123.972C-100.404 123.48 -99.6058 125.876 -99.1757 128.518C-98.4384 132.634 -97.6398 136.689 -96.5953 140.683C-85.5366 184.61 -48.1826 216.681 -3.08758 220.92C41.946 225.159 84.3379 201.383 103.936 160.896C104.489 159.79 104.981 158.684 105.472 157.578C106.455 155.305 108.176 153.769 110.633 154.69C113.766 155.858 113.275 158.438 112.23 160.834C108.053 170.296 102.708 179.081 96.1339 187.006C73.0948 214.592 43.2362 228.047 8.52409 229.275Z" fill="#5454C4"/>
    <path d="M6.31216 -0.193676C64.0633 -0.193676 111.432 39.925 120.401 95.2801C120.954 98.5977 123.719 103.328 118.005 104.188C112.845 104.987 113.766 99.6421 113.213 96.6931C106.701 61.0594 87.2867 34.6413 55.0935 18.299C2.74879 -8.30342 -61.7605 13.1997 -88.3015 65.5444C-88.7315 66.4045 -89.1002 67.326 -89.5917 68.1862C-91.2505 70.8894 -91.742 75.9273 -96.5341 73.5312C-100.65 71.4423 -97.8243 67.9404 -96.5341 65.2372C-79.7002 30.8937 -52.2991 9.88206 -15.0066 1.64944C-7.51128 -0.00936574 0.0455399 -0.37799 6.25072 -0.13224L6.31216 -0.193676Z" fill="#17B091"/>
    <path d="M7.78774 215.39C-15.3127 215.206 -36.3243 208.387 -54.817 194.133C-57.1516 192.351 -60.3464 190.385 -58.0117 187.068C-55.0627 182.89 -52.2981 186.761 -50.0863 188.358C-11.565 216.066 35.496 214.96 69.901 183.627C98.4079 157.639 107.132 125.016 97.0563 87.5391C96.1962 84.283 92.0184 79.3065 97.855 77.5248C103.446 75.8046 103.077 82.1326 104.122 85.3274C121.816 141.113 86.4891 200.461 28.3078 213.056C21.5497 214.53 14.7302 214.715 7.78774 215.268V215.39Z" fill="white"/>
    <path d="M-93.831 113.097C-91.865 72.7331 -74.1095 41.7686 -37.37 23.7675C-0.753273 5.82775 34.819 10.1898 68.1181 33.3517C69.5311 34.3347 70.8213 35.4406 72.1115 36.6079C73.586 37.9595 73.6474 39.6798 72.7259 41.2771C71.6814 43.2431 69.5926 42.9359 68.1795 42.2601C65.7834 41.0928 63.6946 39.3726 61.4214 37.8981C31.0713 17.378 -1.1219 14.2447 -33.9295 30.2798C-65.8769 45.8849 -83.1408 72.4259 -86.2742 107.998C-87.3186 120.347 -85.5369 132.327 -81.6663 144.062C-80.7448 146.888 -79.4546 150.083 -83.5709 151.25C-87.2572 152.233 -87.9944 148.854 -88.7931 146.397C-92.1721 135.584 -94.3225 124.586 -93.8924 113.097H-93.831Z" fill="white"/>
    <path d="M-80.1297 114.511C-80.1297 55.5921 -23.7302 13.5689 32.1165 30.2184C33.9596 30.7714 35.8027 31.4472 37.6458 32.1844C39.6733 32.9831 40.9635 34.519 40.2262 36.7922C39.4275 39.3726 37.4615 39.987 34.9426 39.1268C29.3518 37.2837 23.6995 35.6863 17.8016 35.072C-16.542 31.4472 -43.6359 44.1033 -61.2684 73.4089C-78.9009 102.776 -76.8735 132.573 -57.6436 161.019C-57.0907 161.817 -56.4148 162.555 -55.9233 163.415C-54.756 165.381 -52.4214 167.47 -55.4318 169.681C-58.3808 171.832 -60.4083 169.989 -62.19 167.715C-66.122 162.677 -69.4396 157.271 -72.1428 151.496C-77.6722 139.516 -80.5597 127.044 -80.1911 114.572L-80.1297 114.511Z" fill="#F26E6E"/>
    <path d="M49.5654 45.3935C47.3536 45.3935 46.0635 44.0419 45.8177 41.953C45.572 39.8027 46.6164 38.2053 49.0124 38.021C51.1628 37.8981 52.6987 38.7583 52.8216 41.2158C52.9444 43.5504 51.8386 44.7791 49.6268 45.3321L49.5654 45.3935Z" fill="#F26E6E"/>
    <path d="M81.2052 46.5608C82.8026 46.6222 84.2771 47.7895 84.4 49.9399C84.5228 52.1516 83.0483 53.6261 80.898 53.6875C78.7477 53.8104 77.2732 52.6431 77.2118 50.247C77.1503 47.9124 78.2562 46.6837 81.2052 46.5608Z" fill="white"/>
    <path d="M120.954 130.238C120.34 132.266 119.418 133.924 117.022 133.74C114.811 133.556 113.52 131.958 113.643 129.808C113.766 127.719 115.056 126.245 117.452 126.429C119.787 126.613 120.709 128.149 120.893 130.238H120.954Z" fill="white"/>
    <path d="M122 116.722C121.816 119.056 120.341 120.347 118.252 120.162C116.225 120.039 114.628 118.503 114.75 116.292C114.873 114.141 116.348 112.913 118.621 112.974C121.078 112.974 121.939 114.51 121.939 116.722H122Z" fill="white"/>
    <path d="M95.9502 66.5277C95.8888 68.7395 94.9672 70.3983 92.5712 70.4597C90.298 70.4597 89.0078 69.0467 89.0078 66.7735C89.0078 64.8689 89.9908 63.5173 92.0182 63.333C94.4143 63.0872 95.643 64.2546 95.9502 66.5892V66.5277Z" fill="white"/>
    <path d="M114.319 139.7C117.084 139.7 118.067 141.297 118.005 143.448C117.944 145.229 117.084 146.827 114.995 146.95C112.66 147.072 111.247 145.905 111.186 143.509C111.063 141.236 112.23 139.823 114.38 139.639L114.319 139.7Z" fill="white"/>
  </g>
  <defs>
    <clipPath id="clip0_2085_4868">
      <rect width="122" height="229" fill="white"/>
    </clipPath>
  </defs>
</svg>
