<svg width="96" height="124" viewBox="0 0 96 124" fill="none" xmlns="http://www.w3.org/2000/svg">
  <g clip-path="url(#clip0_2085_4888)">
    <path d="M77.6888 124.185C38.4386 123.648 7.45158 97.3299 0.593124 59.2365C0.469176 58.5755 0.427859 57.9144 0.386543 57.2947C0.262595 55.642 0.0973317 53.7002 2.28708 53.3697C4.43551 53.0391 4.97262 54.6504 5.26183 56.427C5.75762 59.1952 6.29473 61.9221 6.9971 64.6076C14.434 94.1485 39.5541 115.715 69.88 118.566C100.165 121.417 128.673 105.428 141.853 78.2006C142.224 77.4569 142.555 76.7132 142.885 75.9695C143.546 74.4408 144.703 73.4079 146.356 74.0276C148.463 74.8127 148.133 76.5479 147.43 78.1592C144.621 84.5219 141.026 90.4301 136.605 95.7599C121.112 114.311 101.032 123.359 77.6888 124.185Z" fill="#5454C4"/>
    <path d="M76.2011 -30.1303C115.038 -30.1303 146.893 -3.15091 152.925 34.0748C153.297 36.3059 155.156 39.4872 151.314 40.0656C147.843 40.6027 148.463 37.0082 148.091 35.0251C143.711 11.0618 130.656 -6.70409 109.006 -17.6941C73.8047 -35.584 30.4229 -21.1234 12.5744 14.0779C12.2852 14.6563 12.0373 15.276 11.7068 15.8544C10.5913 17.6723 10.2607 21.0603 7.03809 19.4489C4.26991 18.0442 6.17045 15.6892 7.03809 13.8713C18.3587 -9.22437 36.7856 -23.3544 61.8644 -28.8908C66.9049 -30.0063 71.9868 -30.2542 76.1597 -30.0889L76.2011 -30.1303Z" fill="#17B091"/>
    <path d="M77.1936 114.848C61.6588 114.724 47.5287 110.138 35.0926 100.552C33.5226 99.3543 31.3742 98.0321 32.9442 95.8011C34.9273 92.9916 36.7866 95.5945 38.2739 96.6687C64.1791 115.302 95.8271 114.559 118.964 93.4874C138.135 76.0107 144.002 54.0719 137.226 28.8692C136.647 26.6794 133.838 23.3328 137.763 22.1347C141.523 20.9778 141.275 25.2334 141.977 27.3818C153.876 64.8967 130.119 104.808 90.9931 113.278C86.4484 114.269 81.8623 114.393 77.1936 114.765V114.848Z" fill="white"/>
    <path d="M8.85609 46.0568C10.1782 18.9122 22.1185 -1.91105 46.8255 -14.0166C71.4498 -26.0809 95.3718 -23.1475 117.765 -7.57134C118.715 -6.91028 119.583 -6.16659 120.451 -5.38159C121.442 -4.47264 121.483 -3.31579 120.864 -2.24157C120.161 -0.919462 118.757 -1.12604 117.806 -1.58052C116.195 -2.36552 114.79 -3.52237 113.262 -4.51395C92.8515 -18.3135 71.2019 -20.4206 49.1392 -9.63714C27.6549 0.857124 16.0451 18.7056 13.938 42.6276C13.2356 50.9321 14.4337 58.9887 17.0367 66.8801C17.6564 68.7806 18.524 70.929 15.7559 71.7141C13.2769 72.3751 12.7811 70.1027 12.244 68.4501C9.97162 61.1785 8.52556 53.7829 8.81477 46.0568H8.85609Z" fill="white"/>
    <path d="M18.07 47.0071C18.07 7.38504 55.9981 -20.8751 93.5543 -9.67846C94.7938 -9.30662 96.0333 -8.85214 97.2728 -8.35635C98.6362 -7.81924 99.5038 -6.78634 99.008 -5.25765C98.4709 -3.52238 97.1488 -3.10922 95.4549 -3.68764C91.6951 -4.92712 87.894 -6.00134 83.9277 -6.4145C60.8321 -8.85214 42.6117 -0.341044 30.754 19.3667C18.8963 39.1157 20.2598 59.154 33.1917 78.2833C33.5635 78.8204 34.018 79.3162 34.3485 79.8946C35.1335 81.2167 36.7035 82.6215 34.679 84.1088C32.6959 85.5549 31.3324 84.3154 30.1343 82.7867C27.4901 79.3988 25.259 75.763 23.4411 71.8793C19.7226 63.8227 17.7808 55.4355 18.0287 47.0484L18.07 47.0071Z" fill="#F26E6E"/>
    <path d="M2.12162 47.7507C0.634246 47.4201 -0.316022 46.6351 -0.274706 45.1478C-0.192074 43.6191 0.716878 42.958 2.28689 42.958C3.93952 42.958 4.51795 43.9083 4.47663 45.3957C4.43532 47.007 3.48505 47.6267 2.12162 47.7093V47.7507Z" fill="white"/>
    <path d="M19.7222 81.2581C18.4001 81.0102 17.2846 80.4731 17.1193 78.9031C16.9954 77.2917 17.987 76.4241 19.433 76.3415C20.8791 76.2588 21.9533 76.9612 22.0773 78.5725C22.2012 80.2252 21.127 80.8449 19.6809 81.2581H19.7222Z" fill="white"/>
    <path d="M4.8899 24.8615C6.33595 25.1093 7.32754 25.853 7.20359 27.4644C7.07964 28.7865 6.25332 29.5302 4.8899 29.5302C3.3612 29.5302 2.3283 28.8691 2.28699 27.2578C2.28699 25.5638 3.44384 25.068 4.8899 24.8615Z" fill="white"/>
    <path d="M5.30356 35.4385C5.30356 37.6696 4.51856 38.4546 2.90724 38.4546C1.54381 38.4546 0.59354 37.8762 0.469592 36.5541C0.345644 35.0667 1.17196 33.9925 2.70066 33.8272C4.18803 33.6619 5.22093 34.3643 5.30356 35.3972V35.4385Z" fill="white"/>
    <path d="M40.05 91.6281C38.2321 91.5455 37.4058 90.5539 37.4058 89.1078C37.4058 87.6204 38.1495 86.5875 39.8847 86.7115C41.2068 86.8354 41.9918 87.5791 42.0745 88.9425C42.1571 90.4712 41.4547 91.4215 40.0913 91.6694L40.05 91.6281Z" fill="white"/>
    <path d="M27.6967 92.496C26.3333 92.2481 25.1765 91.711 25.0525 90.141C24.9286 88.571 25.8375 87.662 27.3249 87.5794C28.8123 87.4967 29.8452 88.1991 29.9691 89.8104C30.0517 91.3805 29.0602 92.1241 27.6967 92.5373V92.496Z" fill="white"/>
  </g>
  <defs>
    <clipPath id="clip0_2085_4888">
      <rect width="154" height="154" fill="white" transform="translate(0 -30)"/>
    </clipPath>
  </defs>
</svg>
