<svg width="120" height="147" viewBox="0 0 120 147" fill="none" xmlns="http://www.w3.org/2000/svg">
<g>
<path d="M155.858 105.075C118.951 125.715 75.866 117.853 48.9493 86.0082C48.4776 85.4582 48.0829 84.8637 47.7106 84.3078C46.7048 82.8327 45.5047 81.1101 47.3695 79.6223C49.1958 78.1567 50.5648 79.3707 51.7916 80.8724C53.7451 83.1878 55.715 85.4425 57.8168 87.5696C80.6666 111.124 115.719 117.714 145.546 104.039C175.336 90.3863 193.319 60.114 190.95 27.6137C190.896 26.7196 190.804 25.8478 190.712 24.9759C190.505 23.1937 191.028 21.6069 192.904 21.295C195.292 20.8924 195.919 22.6893 196.131 24.5709C196.937 32.0201 196.766 39.4682 195.513 46.8217C191.05 72.4737 177.191 91.7306 155.858 105.075Z" fill="#484c71"/>
<path d="M71.3512 -38.0903C107.584 -59.0091 151.834 -50.997 177.512 -19.5168C179.061 -17.6357 182.509 -15.6691 179.236 -13.0599C176.288 -10.6894 174.93 -14.3767 173.514 -16.0266C156.521 -36.0239 134.772 -45.566 108.655 -44.1579C66.178 -41.8875 33.4945 -5.02989 35.8034 37.4244C35.8452 38.1198 35.9477 38.8315 35.9509 39.5492C35.8894 41.846 37.4058 45.1847 33.5314 45.4173C30.1922 45.5978 30.6968 42.377 30.5271 40.2137C28.6485 12.5693 38.2287 -10.5385 58.6436 -29.2117C62.7453 -32.9675 67.3528 -35.936 71.3349 -38.0295L71.3512 -38.0903Z" fill="#484c71"/>
<path d="M150.367 96.6305C135.807 104.882 120.154 108.215 103.389 105.971C101.279 105.699 98.5625 105.622 98.8255 102.695C99.1624 99.006 102.299 100.433 104.265 100.634C138.47 104.065 167.595 86.3241 177.83 54.2037C186.302 27.5732 179.958 3.94566 160.062 -15.9172C158.343 -17.6486 153.919 -19.2575 156.936 -22.4894C159.82 -25.5938 161.881 -21.4901 163.694 -19.8641C195.001 8.72577 194.335 58.7565 162.395 87.7329C158.689 91.1059 154.477 93.6918 150.322 96.5534L150.367 96.6305Z" fill="#484c71"/>
<path d="M49.5591 69.2617C36.1717 43.2254 36.0952 17.3672 52.6247 -7.23453C69.0995 -31.7532 92.9972 -41.9016 122.278 -39.4317C123.521 -39.3269 124.731 -39.1004 125.963 -38.8354C127.378 -38.5215 128.04 -37.4644 128.04 -36.1285C128.097 -34.5167 126.675 -33.9528 125.544 -33.8649C123.618 -33.7294 121.684 -34.052 119.724 -34.1537C93.2497 -36.0343 71.917 -26.3389 57.1422 -4.39496C42.7512 16.9676 41.5338 39.8726 52.4531 63.3252C56.2709 71.4511 61.7283 78.322 68.4071 84.2822C70.009 85.7214 71.9757 87.2584 69.816 89.4818C67.8593 91.4338 66.1728 89.5809 64.7816 88.3283C58.7449 82.7684 53.4123 76.6477 49.5206 69.2839L49.5591 69.2617Z" fill="#484c71"/>
<path d="M58.6671 65.1853C37.3254 28.2205 57.4881 -18.5736 98.5566 -28.3569C99.9132 -28.6776 101.314 -28.9212 102.738 -29.1263C104.299 -29.3596 105.665 -28.8633 106.026 -27.1701C106.459 -25.2619 105.448 -24.1643 103.556 -23.7915C99.3813 -22.9227 95.2565 -21.8775 91.3336 -20.1266C68.4739 -9.96073 56.0598 7.79363 55.6125 32.5666C55.1875 57.3781 67.2527 75.3382 89.621 86.2191C90.2572 86.5199 90.9482 86.7376 91.5682 87.0992C93.0126 87.9098 95.234 88.3747 94.1464 90.8528C93.0752 93.2701 91.1355 92.8481 89.1943 92.0673C84.9026 90.3308 80.8628 88.1406 77.0749 85.4965C69.2663 79.9831 62.9371 73.2043 58.6508 65.2461L58.6671 65.1853Z" fill="#484c71"/>
<path d="M44.1887 74.4692C42.623 74.962 41.3136 74.7415 40.551 73.3316C39.8047 71.8609 40.2967 70.7546 41.7614 69.909C43.3032 69.0188 44.3547 69.5938 45.1173 71.0037C45.9466 72.5292 45.3939 73.6192 44.1664 74.4307L44.1887 74.4692Z" fill="#484c71"/>
<path d="M78.6571 96.2494C77.2901 96.7303 75.9601 96.83 74.9603 95.4543C73.9767 94.0178 74.4345 92.6743 75.739 91.8183C77.0436 90.9623 78.4241 91.039 79.4077 92.4755C80.4135 93.9505 79.7451 95.1073 78.6185 96.2717L78.6571 96.2494Z" fill="#484c71"/>
<path d="M34.4426 51.624C35.9252 51.0764 37.2509 51.2361 38.0032 52.8061C38.5997 54.1063 38.2293 55.2452 36.9573 55.9796C35.5312 56.803 34.2115 56.7426 33.305 55.2616C32.3926 53.6813 33.2048 52.5956 34.4426 51.624Z" fill="#484c71"/>
<path d="M40.5255 61.2688C41.7272 63.3503 41.4177 64.5055 39.9144 65.3734C38.6424 66.1078 37.4443 66.08 36.6165 64.9133C35.6998 63.5924 35.8921 62.1452 37.2292 61.1676C38.5278 60.2123 39.8698 60.3112 40.5032 61.2303L40.5255 61.2688Z" fill="#484c71"/>
<path d="M103.207 94.9747C101.467 95.8768 100.162 95.3968 99.3827 94.0477C98.5816 92.6601 98.719 91.2959 100.405 90.4769C101.705 89.8804 102.838 90.1514 103.649 91.3788C104.55 92.7605 104.406 94.0254 103.268 94.991L103.207 94.9747Z" fill="#484c71"/>
<path d="M92.1498 102.438C90.7442 102.941 89.3757 103.063 88.4144 101.665C87.4531 100.267 87.8115 98.9299 89.1546 98.0517C90.4977 97.1734 91.8397 97.2724 92.8232 98.7089C93.746 100.129 93.2215 101.357 92.172 102.477L92.1498 102.438Z" fill="#484c71"/>
</g>
</svg>
