<?xml version="1.0" standalone="no"?>
<!DOCTYPE svg PUBLIC "-//W3C//DTD SVG 20010904//EN"
 "http://www.w3.org/TR/2001/REC-SVG-20010904/DTD/svg10.dtd">
<svg version="1.0" xmlns="http://www.w3.org/2000/svg"
 width="512.000000pt" height="512.000000pt" viewBox="0 0 512.000000 512.000000"
 preserveAspectRatio="xMidYMid meet">
<metadata>
Created by potrace 1.11, written by Peter Selinger 2001-2013
</metadata>
<g transform="translate(0.000000,512.000000) scale(0.100000,-0.100000)"
fill="#000000" stroke="none">
<path d="M2463 5081 c-83 -21 -177 -104 -217 -190 -32 -71 -29 -197 7 -272 33
-67 98 -131 165 -160 36 -16 54 -31 71 -63 27 -50 102 -112 154 -128 28 -8 43
-21 57 -47 10 -20 32 -51 49 -68 30 -34 113 -83 138 -83 7 0 18 -12 24 -27 6
-16 22 -43 35 -61 27 -34 117 -92 146 -92 9 0 29 -23 47 -55 36 -63 108 -122
162 -131 30 -5 38 -12 48 -41 26 -71 107 -135 185 -147 11 -2 25 -19 35 -43 9
-22 23 -49 31 -60 26 -35 89 -72 135 -79 41 -6 44 -8 50 -43 12 -71 104 -143
182 -143 27 0 33 -4 34 -21 3 -89 77 -158 170 -159 47 0 49 -1 49 -29 0 -47
25 -94 65 -125 30 -23 47 -28 90 -28 31 0 61 6 71 15 15 13 16 12 8 -11 -4
-14 -8 -45 -8 -68 2 -121 180 -165 244 -60 68 111 -42 245 -163 199 -25 -10
-25 -9 -11 17 47 91 -33 212 -140 212 -34 0 -35 1 -31 33 12 85 -55 172 -144
186 -31 6 -35 9 -37 44 -7 81 -72 160 -141 173 -39 7 -39 8 -47 58 -12 74 -79
149 -145 162 -26 5 -32 12 -37 43 -14 76 -65 139 -141 173 -26 11 -43 26 -43
36 -1 57 -85 162 -148 184 -22 8 -35 21 -39 38 -15 65 -74 140 -134 170 -28
15 -43 33 -62 72 -31 68 -68 112 -123 144 -32 19 -49 38 -64 72 -29 66 -62
105 -118 140 -36 24 -54 44 -71 82 -25 56 -91 127 -137 149 -16 7 -38 18 -49
24 -25 13 -160 19 -202 8z"/>
<path d="M1600 4861 c-186 -61 -285 -248 -225 -426 32 -92 84 -149 178 -195
46 -22 63 -37 79 -69 28 -56 108 -126 167 -146 35 -11 51 -22 55 -39 15 -62
115 -152 188 -170 20 -4 35 -20 53 -54 13 -26 32 -57 42 -69 26 -31 113 -83
140 -83 18 0 29 -12 49 -55 39 -82 101 -129 212 -161 6 -2 12 -12 12 -22 0
-24 47 -94 81 -121 23 -18 109 -60 124 -61 3 0 9 0 13 0 5 0 14 -18 21 -41 26
-86 110 -149 213 -158 4 -1 13 -21 19 -46 20 -80 112 -155 191 -155 33 0 38
-3 38 -24 0 -95 111 -190 209 -179 22 3 31 1 26 -6 -12 -20 23 -116 52 -143
43 -40 73 -51 134 -51 l56 0 -4 -31 c-4 -40 13 -91 42 -121 46 -50 134 -69
185 -40 36 20 43 18 26 -7 -9 -13 -16 -43 -16 -71 0 -42 5 -53 38 -89 35 -37
45 -42 93 -45 91 -7 151 47 155 138 5 107 -100 177 -201 135 -35 -15 -35 -15
-20 7 36 56 25 138 -27 193 -32 34 -98 58 -135 50 -21 -5 -23 -1 -22 42 1 63
-5 86 -36 126 -27 36 -83 64 -135 68 -28 2 -30 5 -31 43 -2 55 -2 56 -21 90
-29 54 -83 93 -142 102 -39 6 -39 6 -41 51 -3 77 -67 153 -150 177 -47 14 -50
17 -52 49 -4 74 -79 164 -156 187 -37 10 -47 18 -47 35 0 66 -70 156 -147 190
-47 21 -53 28 -64 66 -20 76 -71 135 -147 169 -24 11 -45 28 -48 37 -26 89
-102 180 -169 202 -23 8 -35 19 -40 38 -18 73 -89 157 -161 191 -32 15 -43 27
-52 59 -18 59 -76 127 -139 164 -47 28 -59 41 -70 75 -20 59 -93 137 -160 169
-42 21 -73 28 -132 30 -42 2 -87 0 -101 -5z"/>
<path d="M3870 4629 c-83 -37 -124 -104 -124 -199 0 -71 17 -115 62 -158 32
-29 98 -61 129 -62 14 0 24 -9 32 -30 15 -44 74 -97 120 -110 22 -6 43 -10 48
-9 23 4 31 -4 37 -34 12 -65 103 -122 176 -111 28 5 30 3 30 -27 0 -89 94
-147 178 -109 96 43 97 176 1 225 -15 8 -32 15 -36 14 -4 -1 -18 -1 -30 0 -19
1 -21 5 -14 24 9 25 -6 93 -29 124 -19 26 -79 63 -102 63 -14 0 -18 8 -18 38
0 60 -49 129 -110 155 -23 9 -36 21 -37 34 -1 11 -8 35 -16 54 -49 117 -182
170 -297 118z"/>
<path d="M955 4407 c-66 -22 -99 -43 -144 -92 -66 -71 -86 -124 -86 -225 0
-66 5 -96 22 -132 30 -65 96 -133 160 -164 39 -20 59 -37 73 -64 25 -48 100
-115 154 -135 29 -11 46 -25 56 -48 21 -48 100 -122 151 -141 34 -13 50 -27
64 -54 28 -54 97 -117 149 -137 37 -14 51 -27 76 -71 33 -59 106 -120 155
-129 25 -5 36 -18 60 -62 32 -62 99 -118 154 -129 26 -5 36 -14 48 -42 8 -20
26 -50 39 -67 26 -35 110 -85 142 -85 14 0 24 -10 31 -33 25 -74 96 -140 168
-155 32 -7 40 -14 53 -49 8 -22 26 -54 40 -70 28 -34 95 -73 125 -73 28 0 44
-12 48 -35 16 -82 79 -141 163 -153 43 -6 48 -10 51 -36 11 -83 88 -152 177
-158 31 -2 40 -7 41 -23 4 -51 18 -84 48 -113 40 -38 80 -54 131 -50 39 2 39
2 41 -37 3 -55 18 -87 54 -118 38 -32 93 -43 143 -30 33 9 36 8 29 -6 -17 -32
-6 -97 22 -134 69 -91 217 -62 244 48 4 16 6 33 5 36 0 4 -3 18 -6 31 -10 57
-57 98 -121 105 -23 3 -52 0 -63 -6 -20 -11 -21 -10 -10 20 33 96 -33 199
-131 204 l-46 3 -2 46 c-4 100 -72 167 -179 175 -7 1 -12 19 -12 40 -1 93 -80
171 -176 176 -5 0 -11 17 -12 37 -7 82 -76 161 -155 177 -27 5 -32 11 -35 40
-10 89 -96 172 -187 180 -5 1 -6 5 -3 10 10 15 -23 95 -53 132 -16 19 -46 42
-67 53 -22 10 -46 22 -54 26 -8 4 -17 21 -21 37 -13 67 -77 140 -142 164 -27
9 -38 22 -53 61 -25 66 -74 121 -130 148 -25 13 -48 30 -51 39 -25 80 -92 159
-157 186 -25 10 -35 24 -44 53 -16 52 -89 133 -141 157 -23 10 -41 23 -41 29
0 15 -40 86 -66 118 -11 14 -45 41 -75 61 -40 25 -58 44 -68 72 -20 57 -81
123 -137 150 -22 10 -38 30 -52 62 -26 61 -91 127 -156 160 -60 31 -179 40
-241 20z"/>
<path d="M4645 3798 c-34 -20 -46 -36 -52 -72 -6 -41 9 -71 47 -95 55 -33 119
-3 139 66 21 71 -69 138 -134 101z"/>
<path d="M527 3778 c-85 -18 -184 -94 -219 -168 -17 -36 -39 -91 -40 -100 0
-3 -4 -15 -9 -27 -5 -13 -5 -23 0 -23 4 0 11 -22 14 -49 13 -109 98 -219 203
-261 30 -12 54 -27 54 -33 0 -22 63 -102 104 -133 22 -17 58 -36 78 -43 29 -9
43 -24 67 -65 16 -29 44 -65 62 -80 37 -32 102 -66 123 -66 9 0 27 -22 40 -49
14 -27 40 -63 58 -81 31 -31 119 -80 145 -80 7 0 22 -23 34 -50 28 -65 95
-125 164 -146 47 -15 54 -21 64 -55 18 -61 89 -125 161 -146 56 -17 61 -21 70
-54 22 -79 100 -146 185 -158 35 -5 40 -10 46 -40 17 -82 107 -161 189 -164
22 -1 40 -6 41 -12 6 -78 39 -129 109 -172 39 -24 35 -23 90 -23 37 0 40 -2
40 -29 0 -34 22 -87 49 -119 34 -39 118 -64 171 -51 11 3 15 -5 16 -31 1 -95
60 -164 146 -174 31 -3 58 2 103 20 17 7 18 5 8 -7 -43 -54 -11 -164 58 -199
49 -25 82 -25 135 0 68 33 96 116 64 188 -31 69 -105 101 -176 76 -22 -8 -40
-14 -42 -14 -1 0 4 10 12 23 20 29 23 83 7 129 -23 68 -106 119 -174 106 -21
-4 -22 -1 -23 57 0 73 -26 122 -81 155 -31 18 -50 23 -114 29 -3 1 -5 18 -4
39 3 92 -70 174 -176 196 -21 5 -26 12 -27 35 -1 40 -34 113 -63 140 -30 28
-73 51 -107 57 -32 6 -29 2 -35 46 -11 82 -88 169 -163 184 -28 5 -33 12 -48
66 -20 73 -88 147 -152 166 -37 11 -43 16 -48 50 -4 20 -23 61 -43 89 -27 41
-49 59 -93 80 -53 26 -60 32 -75 77 -23 68 -77 131 -139 161 -45 22 -53 31
-69 74 -22 62 -95 144 -147 165 -22 9 -43 24 -46 34 -27 85 -91 164 -159 196
-31 15 -49 32 -50 46 -2 26 -56 108 -92 140 -58 51 -91 67 -162 80 -61 10 -76
10 -134 -2z"/>
<path d="M300 2915 c-68 -18 -110 -43 -161 -95 -85 -88 -114 -225 -73 -342 24
-67 124 -171 181 -188 29 -10 46 -24 71 -64 36 -56 116 -121 161 -131 17 -3
33 -16 40 -31 30 -66 118 -142 181 -158 17 -4 34 -22 52 -56 35 -63 111 -121
174 -132 11 -2 28 -23 40 -50 28 -58 108 -124 163 -133 32 -5 40 -12 46 -33
17 -69 99 -138 186 -156 19 -4 29 -15 37 -43 22 -69 93 -129 164 -139 42 -6
47 -9 52 -38 15 -75 92 -143 169 -149 41 -4 58 -14 51 -31 -6 -15 19 -70 45
-100 30 -34 86 -56 134 -52 39 3 45 1 42 -15 -6 -29 15 -92 38 -117 31 -33 77
-55 112 -53 42 2 63 6 71 14 16 15 24 6 13 -15 -30 -56 2 -137 66 -168 72 -35
142 -10 179 65 17 33 18 44 8 82 -13 47 -33 73 -69 92 -31 16 -84 17 -112 1
-22 -11 -23 -11 -16 6 11 29 21 68 20 79 -10 89 -79 155 -157 150 -29 -2 -31
2 -28 48 1 15 -4 43 -10 61 -12 36 -79 105 -105 107 -8 1 -19 3 -25 4 -5 1
-19 3 -29 4 -14 1 -19 7 -16 20 7 35 -17 100 -51 140 -25 29 -47 42 -82 51
-43 12 -48 16 -50 44 -6 76 -83 169 -153 183 -22 4 -29 14 -42 62 -19 67 -68
124 -133 152 -28 11 -44 25 -44 35 0 28 -37 97 -70 131 -17 17 -51 40 -75 52
-33 15 -45 27 -45 42 0 49 -79 146 -141 174 -21 10 -39 23 -39 30 0 20 -50
108 -77 137 -14 14 -45 37 -69 50 -24 12 -44 28 -44 34 0 44 -90 159 -146 185
-17 9 -40 36 -59 70 -38 72 -51 88 -100 126 -74 57 -185 81 -275 58z"/>
<path d="M4720 2629 c-76 -47 -69 -166 12 -200 80 -33 161 18 161 102 0 92
-94 145 -173 98z"/>
<path d="M4945 2416 c-27 -12 -45 -35 -58 -77 -8 -26 20 -77 51 -93 40 -21 81
-12 116 26 23 26 27 37 22 66 -10 66 -73 103 -131 78z"/>
<path d="M4300 2032 c-86 -14 -133 -125 -84 -199 67 -103 233 -56 234 65 0 85
-68 147 -150 134z"/>
<path d="M4491 1783 c-66 -32 -80 -125 -27 -179 39 -38 112 -40 151 -4 60 57
49 147 -24 184 -33 17 -62 17 -100 -1z"/>
<path d="M4711 1544 c-29 -21 -49 -68 -43 -100 6 -35 57 -74 96 -74 78 0 123
108 69 162 -28 27 -92 34 -122 12z"/>
<path d="M590 1451 c-104 -34 -160 -109 -161 -216 -1 -91 70 -184 158 -207 34
-8 47 -18 67 -52 32 -54 89 -86 169 -95 4 -1 7 -8 7 -18 0 -24 46 -81 80 -98
16 -8 47 -15 70 -15 35 0 40 -3 40 -22 0 -27 29 -73 57 -93 34 -24 85 -27 122
-8 58 30 77 67 72 142 -2 33 -61 88 -103 96 -34 7 -36 9 -31 39 9 57 -36 123
-105 152 -18 7 -32 19 -30 26 9 46 -44 130 -98 155 -19 9 -34 22 -34 29 0 25
-39 102 -64 128 -15 14 -41 33 -58 42 -36 18 -122 27 -158 15z"/>
<path d="M3855 1351 c-36 -16 -67 -58 -72 -98 -14 -105 104 -179 190 -120 96
66 62 213 -53 223 -25 2 -54 0 -65 -5z"/>
<path d="M4054 1129 c-27 -14 -54 -60 -54 -94 0 -35 25 -82 53 -96 78 -43 167
12 167 102 0 47 -56 99 -106 98 -22 0 -48 -5 -60 -10z"/>
<path d="M3167 923 c-133 -97 -1 -299 140 -213 109 66 61 230 -70 235 -26 1
-48 -6 -70 -22z"/>
<path d="M4295 922 c-35 -12 -52 -26 -68 -57 -35 -69 40 -151 116 -126 57 19
84 92 51 139 -13 19 -66 54 -76 51 -2 -1 -12 -4 -23 -7z"/>
<path d="M3411 698 c-133 -71 -35 -265 100 -197 95 48 70 192 -36 205 -23 3
-50 -1 -64 -8z"/>
<path d="M1274 660 c-55 -22 -73 -111 -32 -150 59 -55 147 -33 163 42 17 76
-58 138 -131 108z"/>
<path d="M3643 465 c-61 -26 -77 -103 -32 -151 56 -60 149 -28 162 56 8 46
-23 84 -84 103 -8 3 -29 -1 -46 -8z"/>
<path d="M2564 456 c-30 -13 -64 -66 -64 -100 0 -9 7 -32 15 -52 23 -57 108
-82 161 -48 74 49 70 160 -7 200 -34 17 -64 17 -105 0z"/>
<path d="M2783 239 c-26 -9 -56 -53 -59 -83 -5 -69 75 -122 138 -90 107 54 33
216 -79 173z"/>
</g>
</svg>
