<?xml version="1.0" encoding="UTF-8"?>
<svg width="24px" height="24px" viewBox="0 0 24 24" version="1.1" xmlns="http://www.w3.org/2000/svg" xmlns:xlink="http://www.w3.org/1999/xlink">
    <!-- Generator: sketchtool 60.1 (101010) - https://sketch.com -->
    <title>58F1CB6F-B989-48E3-97C6-D2BCA6A6B642</title>
    <desc>Created with sketchtool.</desc>
    <g id="Asset-Artboard-Page" stroke="none" stroke-width="1" fill="none" fill-rule="evenodd">
        <g id="Icons/24px/Policies-Icons/24px/official-building" fill="#828397" fill-rule="nonzero">
            <g id="official-building-3" transform="translate(0.000000, -1.000000)">
                <path d="M22.5,22.48456 C22.9142136,22.48456 23.25,22.8203464 23.25,23.23456 C23.25,23.6487736 22.9142136,23.98456 22.5,23.98456 L22.5,23.98456 L1.5,23.98456 C1.08578644,23.98456 0.75,23.6487736 0.75,23.23456 C0.75,22.8203464 1.08578644,22.48456 1.5,22.48456 L1.5,22.48456 Z M12.6595179,1.1196831 L21.3245179,5.2784031 L21.3424914,5.28714984 C21.3640403,5.29823025 21.3849829,5.31032362 21.4052562,5.32336705 L21.3245179,5.2784031 C21.3625075,5.29663604 21.3984779,5.31781573 21.4322082,5.34159137 C21.4501435,5.35421198 21.4675033,5.36765172 21.4842343,5.38181135 C21.4942494,5.39027185 21.5037794,5.39876579 21.513073,5.40748371 C21.5273793,5.4208891 21.5420382,5.43578262 21.5560594,5.45126433 C21.5655703,5.46176178 21.5747863,5.47254755 21.5836835,5.48357717 C21.5962063,5.49905519 21.6080195,5.51491868 21.6192037,5.53124697 C21.6262158,5.54163089 21.6330158,5.55213338 21.6395499,5.56279978 C21.7095974,5.67663587 21.75,5.81087967 21.75,5.95456 L21.75,5.95456 L21.75,8.11456 C21.75,8.9334229 21.0717322,9.58456 20.25,9.58456 L20.25,16.72456 C21.0717322,16.72456 21.75,17.3756971 21.75,18.19456 L21.75,19.6043242 L22.5,19.60456 C22.8796958,19.60456 23.193491,19.8867139 23.2431534,20.2527894 L23.25,20.35456 C23.25,20.7687736 22.9142136,21.10456 22.5,21.10456 L22.5,21.10456 L1.5,21.10456 C1.08578644,21.10456 0.75,20.7687736 0.75,20.35456 C0.75,19.9403464 1.08578644,19.60456 1.5,19.60456 L1.5,19.60456 L2.25,19.6043242 L2.25,18.19456 C2.25,17.3756971 2.92826782,16.72456 3.75,16.72456 L3.75,9.58456 C2.92826782,9.58456 2.25,8.9334229 2.25,8.11456 L2.25,5.95456 L2.25684662,5.85278944 C2.27112456,5.74754272 2.30723473,5.64923265 2.3604664,5.56256995 C2.36698416,5.55213338 2.3737842,5.54163089 2.38084373,5.53130263 C2.39198046,5.51491868 2.4037937,5.49905519 2.41620106,5.48369144 C2.42521365,5.47254755 2.43442969,5.46176178 2.44395523,5.4512348 C2.45796184,5.43578262 2.47262065,5.4208891 2.48787558,5.40662518 C2.49622057,5.39876579 2.50575062,5.39027185 2.51551049,5.38201255 C2.53249669,5.36765172 2.54985647,5.35421198 2.56779716,5.34153994 C2.57669458,5.33531603 2.58575339,5.32922154 2.5949642,5.32331435 C2.61501714,5.31032362 2.63595971,5.29823025 2.65750857,5.28714984 C2.6636474,5.28417892 2.66954007,5.28125496 2.67548214,5.2784031 L11.3417307,1.1190853 C11.7571748,0.920637675 12.2428252,0.920637675 12.6595179,1.1196831 Z M4.458,18.2213242 L3.75,18.2213242 L3.75,19.60456 L20.25,19.60456 L20.25,18.22456 L16.5,18.22456 L16.49,18.2233242 L13.5184023,18.2243387 C13.5122861,18.2244859 13.5061517,18.22456 13.5,18.22456 L10.5,18.22456 L10.474,18.2223242 L7.53365466,18.2238184 C7.52249804,18.2243111 7.51127809,18.22456 7.5,18.22456 L4.5,18.22456 L4.458,18.2213242 Z M9.75,9.58432422 L8.25,9.58432422 L8.25,16.7243242 L9.75,16.7243242 L9.75,9.58432422 Z M15.75,9.58432422 L14.25,9.58432422 L14.25,16.7243242 L15.75,16.7243242 L15.75,9.58432422 Z M6.75,9.58456 L5.25,9.58456 L5.25,16.72456 L6.75,16.72456 L6.75,9.58456 Z M12.75,9.58456 L11.25,9.58456 L11.25,16.72456 L12.75,16.72456 L12.75,9.58456 Z M18.75,9.58456 L17.25,9.58456 L17.25,16.72456 L18.75,16.72456 L18.75,9.58456 Z M20.25,6.70432422 L3.75,6.70432422 L3.75,8.08456 L20.2523246,8.08514522 L20.25,6.70432422 Z M11.9895179,2.4719969 L6.296,5.20432422 L17.704,5.20432422 L12.0117307,2.4725947 C12.0051847,2.46946787 11.9948153,2.46946787 11.9895179,2.4719969 Z" id="Combined-Shape"></path>
            </g>
        </g>
    </g>
</svg>
