<?xml version="1.0" encoding="UTF-8"?>
<svg width="24px" height="24px" viewBox="0 0 24 24" version="1.1" xmlns="http://www.w3.org/2000/svg" xmlns:xlink="http://www.w3.org/1999/xlink">
    <!-- Generator: sketchtool 60 (101010) - https://sketch.com -->
    <title>37B49927-6C0D-4415-B177-0928DDC9C956</title>
    <desc>Created with sketchtool.</desc>
    <g id="Asset-Artboard-Page" stroke="none" stroke-width="1" fill="none" fill-rule="evenodd">
        <g id="Icons/24px/arrow-left-Copy-10-Icons/24px/legal-scale-1" fill="#2E3152" fill-rule="nonzero">
            <g id="legal-scale-1" transform="translate(0.000000, 1.000000)">
                <path d="M18.8319201,1.85442252 C18.8385633,1.85514419 18.8451805,1.8559526 18.8517706,1.85684662 L18.8654221,1.85888504 C18.8761392,1.86056289 18.8868133,1.86247139 18.8974368,1.86460808 C18.9069818,1.86635189 18.9166662,1.86849684 18.9263296,1.87084164 C18.9344333,1.87280422 18.9419297,1.87474146 18.9493797,1.87679072 L18.9635384,1.88104082 C18.9712434,1.88333015 18.9789115,1.88574246 18.9865394,1.88827675 C19.0235564,1.9004914 19.0604152,1.91604589 19.0964508,1.93481444 L19.0195632,1.89990086 C19.0327333,1.90497514 19.0457242,1.91041034 19.0585237,1.91619435 C19.0648714,1.91921695 19.0716216,1.92237371 19.0783262,1.92563143 L19.0964508,1.93481444 C19.1024329,1.93793012 19.1083555,1.94111516 19.114218,1.94436806 C19.1188147,1.94677358 19.1236944,1.94955887 19.1285394,1.95239699 L19.1397283,1.95908092 C19.1475278,1.96381352 19.1552479,1.96869258 19.1628838,1.97371665 C19.1759997,1.98245016 19.1882754,1.99108051 19.2002248,2.00002477 C19.202583,2.0018831 19.205451,2.00406747 19.2083026,2.00627192 C19.2242507,2.01857417 19.2346321,2.02718937 19.2447964,2.03610385 C19.2534641,2.04373665 19.2618323,2.05141822 19.269999,2.05926487 C19.2733847,2.06279165 19.2768742,2.066214 19.2803301,2.06966991 L19.2878422,2.07700691 C19.2949779,2.08435095 19.3019793,2.09186011 19.3088402,2.09953244 C19.3157569,2.10723827 19.3220276,2.11453719 19.3281452,2.12194231 L19.3437281,2.14169736 L19.3437281,2.14169736 L19.3505951,2.15060455 C19.3744901,2.18262017 19.3961344,2.21697104 19.4151856,2.25354919 L19.3708462,2.17896907 C19.3788426,2.19078294 19.3864877,2.20280543 19.3937758,2.21501914 C19.3951525,2.21730039 19.3963826,2.21937731 19.397603,2.22146064 L19.4038457,2.235 L19.4151856,2.25354919 L23.1651856,9.45354919 C23.3565251,9.82092103 23.2138227,10.2738461 22.8464508,10.4651856 C22.479079,10.6565251 22.0261539,10.5138227 21.8348144,10.1464508 L21.8348144,10.1464508 L18.7498457,4.224 L15.6651856,10.1464508 C15.489791,10.4832083 15.094592,10.6311811 14.7469736,10.5061245 L14.6535492,10.4651856 C14.2861773,10.2738461 14.1434749,9.82092103 14.3348144,9.45354919 L14.3348144,9.45354919 L17.5128457,3.35 L14.1147367,3.35043414 C13.8849431,3.96438802 13.381281,4.44773331 12.7506746,4.66498707 L12.7498457,20.569 L16.5,20.57 C16.8796958,20.57 17.193491,20.8521539 17.2431534,21.2182294 L17.25,21.32 C17.25,21.7342136 16.9142136,22.07 16.5,22.07 L16.5,22.07 L12.0138457,22.069 L12,22.07 C11.9949239,22.07 11.9898595,22.0699496 11.9848074,22.0698492 L7.5,22.07 C7.08578644,22.07 6.75,21.7342136 6.75,21.32 C6.75,20.9057864 7.08578644,20.57 7.5,20.57 L7.5,20.57 L11.2498457,20.569 L11.2503134,4.6653272 C10.6192451,4.44823807 10.1151769,3.96470862 9.8852633,3.35043414 L6.48584571,3.35 L9.66518556,9.45354919 C9.84058011,9.79030671 9.73528666,10.1989527 9.43354987,10.4121019 L9.34645081,10.4651856 C8.97907897,10.6565251 8.52615394,10.5138227 8.33481444,10.1464508 L8.33481444,10.1464508 L5.24984571,4.224 L2.16518556,10.1464508 C1.98979102,10.4832083 1.59459197,10.6311811 1.24697361,10.5061245 L1.15354919,10.4651856 C0.786177344,10.2738461 0.643474936,9.82092103 0.834814437,9.45354919 L0.834814437,9.45354919 L4.58481444,2.25354919 C4.58793012,2.24756708 4.59111516,2.24164454 4.59436806,2.23578205 C4.59683761,2.23107308 4.5995915,2.22624991 4.60239699,2.22146064 L4.60974094,2.20918605 C4.61596152,2.19897326 4.62243358,2.18889749 4.62915385,2.17896907 C4.63435121,2.17142132 4.63949846,2.16410195 4.64475862,2.15689824 C4.64849736,2.15188817 4.65235289,2.14676698 4.65627192,2.14169736 L4.66485398,2.130546 C4.67173581,2.12195881 4.67881992,2.11350872 4.68610385,2.10520357 C4.69415105,2.09608661 4.7015709,2.08801253 4.70914466,2.08012614 C4.71216968,2.07725005 4.71589982,2.07344001 4.71966991,2.06966991 L4.73000099,2.05926487 C4.73885016,2.05076254 4.74793577,2.04245403 4.75725454,2.03434981 C4.76540014,2.02722583 4.77345378,2.02051441 4.7816311,2.01398603 C4.78538048,2.0111955 4.78852884,2.00872131 4.79169736,2.00627192 L4.79956139,2.00018489 C4.83187368,1.97598077 4.86657345,1.95407263 4.90354919,1.93481444 L4.84005664,1.97179188 C4.84637705,1.96767571 4.85275437,1.96365846 4.85918605,1.95974094 C4.86315296,1.9573176 4.86729397,1.95483776 4.87146064,1.95239699 L4.88484571,1.945 L4.90354919,1.93481444 C4.91103992,1.93091301 4.91856623,1.92715046 4.92612516,1.92352587 C4.93091845,1.92119439 4.93595425,1.91885442 4.94101402,1.91657094 C4.9464152,1.91395464 4.95222175,1.91141069 4.95806615,1.90893872 L4.98087176,1.89987724 C4.99119467,1.89589442 5.0015636,1.89215568 5.01197145,1.88865878 C5.01966645,1.88620286 5.02705787,1.88385994 5.03448393,1.88163137 C5.03960455,1.87988934 5.04509968,1.87830927 5.05062029,1.87679072 L5.07245608,1.87113738 C5.08351513,1.86843426 5.09460202,1.86599307 5.10570856,1.86381124 C5.11456759,1.86223847 5.12356781,1.8606361 5.13259886,1.85919757 C5.17043028,1.85315543 5.20984664,1.85 5.25,1.85 L5.1743489,1.85374062 C5.17568013,1.85360441 5.17701188,1.85347176 5.17834411,1.85334264 C5.18435555,1.85265942 5.19002914,1.85218526 5.1957021,1.85177639 C5.2099636,1.85080809 5.22462291,1.8501535 5.23931452,1.84993128 L5.24171754,1.84988491 L5.25,1.85 L9.88489599,1.85054795 C10.2000877,1.00716782 11.0319865,0.41 12,0.41 C12.9680135,0.41 13.7999123,1.00716782 14.115104,1.85054795 L18.75,1.85 L18.75,1.85 L18.7616829,1.84994703 C18.7753687,1.85017229 18.7890262,1.8507727 18.8026399,1.85174344 C18.8049653,1.85181997 18.807635,1.8520196 18.8103048,1.85223372 Z M9,11.93 C9.41421356,11.93 9.75,12.2657864 9.75,12.68 C9.75,15.089443 7.72858643,17.03 5.25,17.03 C2.77141357,17.03 0.75,15.089443 0.75,12.68 C0.75,12.2657864 1.08578644,11.93 1.5,11.93 L9,11.93 Z M22.5,11.93 C22.9142136,11.93 23.25,12.2657864 23.25,12.68 C23.25,15.089443 21.2285864,17.03 18.75,17.03 C16.2714136,17.03 14.25,15.089443 14.25,12.68 C14.25,12.2657864 14.5857864,11.93 15,11.93 L22.5,11.93 Z M8.14480219,13.43 L2.35519781,13.43 C2.70122644,14.6364608 3.86170953,15.53 5.25,15.53 C6.57518636,15.53 7.69280442,14.7158455 8.09262329,13.5925233 L8.14480219,13.43 Z M21.6448022,13.43 L15.8551978,13.43 C16.2012264,14.6364608 17.3617095,15.53 18.75,15.53 C20.0751864,15.53 21.1928044,14.7158455 21.5926233,13.5925233 L21.6448022,13.43 Z M12,1.91 C11.5790915,1.91 11.25,2.22592784 11.25,2.6 C11.25,2.97407216 11.5790915,3.29 12,3.29 C12.4209085,3.29 12.75,2.97407216 12.75,2.6 C12.75,2.22592784 12.4209085,1.91 12,1.91 Z" id="Combined-Shape"></path>
            </g>
        </g>
    </g>
</svg>