<?xml version="1.0" encoding="UTF-8"?>
<svg width="24px" height="24px" viewBox="0 0 24 24" version="1.1" xmlns="http://www.w3.org/2000/svg" xmlns:xlink="http://www.w3.org/1999/xlink">
    <!-- Generator: sketchtool 60 (101010) - https://sketch.com -->
    <title>C5DDDCA7-1369-480F-9428-1D025597AC6C</title>
    <desc>Created with sketchtool.</desc>
    <g id="Asset-Artboard-Page" stroke="none" stroke-width="1" fill="none" fill-rule="evenodd">
        <g id="Icons/24px/arrow-left-Copy-19-Icons/24px/search" fill="#2E3152" fill-rule="nonzero">
            <path d="M6.94504928,2.28410025 C11.421021,0.381857661 16.5915852,2.46827733 18.4938278,6.94424901 C19.8358097,10.1019288 19.1926624,13.6053024 17.1258483,16.0629541 L22.8637011,21.803041 C23.1565735,22.095955 23.1565397,22.5708288 22.8636257,22.8637011 C22.5707116,23.1565735 22.0958379,23.1565397 21.8029655,22.8636257 L21.8029655,22.8636257 L16.0639619,17.125461 C15.4092157,17.6765877 14.6624049,18.1408275 13.833679,18.4930275 C9.35770737,20.3952701 4.1871431,18.3088505 2.28490052,13.8328788 C0.382657931,9.3569071 2.4690776,4.18634283 6.94504928,2.28410025 Z M17.1133264,7.53094811 C15.5351088,3.81740631 11.2452902,2.08638405 7.53174838,3.66460166 C3.81820658,5.24281928 2.08718432,9.53263787 3.66540193,13.2461797 C5.24361955,16.9597215 9.53343814,18.6907437 13.2469799,17.1125261 C14.127933,16.73813 14.8973163,16.2111338 15.5374177,15.575432 L15.555041,15.5540766 C15.5613065,15.547812 15.5676553,15.5416814 15.5740838,15.5356847 C17.6044216,13.4922877 18.3097108,10.3460375 17.1133264,7.53094811 Z" id="Combined-Shape"></path>
        </g>
    </g>
</svg>