<?xml version="1.0" standalone="no"?>
<!DOCTYPE svg PUBLIC "-//W3C//DTD SVG 20010904//EN"
 "http://www.w3.org/TR/2001/REC-SVG-20010904/DTD/svg10.dtd">
<svg version="1.0" xmlns="http://www.w3.org/2000/svg"
 width="700.000000pt" height="700.000000pt" viewBox="0 0 700.000000 700.000000"
 preserveAspectRatio="xMidYMid meet">
<metadata>
Created by potrace 1.11, written by Peter Selinger 2001-2013
</metadata>
<g transform="translate(0.000000,700.000000) scale(0.100000,-0.100000)"
fill="#000000" stroke="none">
<path d="M3478 5816 c-15 -8 -69 -45 -120 -83 -51 -38 -163 -121 -248 -183
-85 -63 -211 -157 -280 -208 -69 -51 -136 -101 -148 -110 -13 -9 -52 -38 -87
-64 l-62 -47 -44 13 c-135 40 -255 -100 -191 -225 l18 -35 -69 -125 c-38 -68
-94 -171 -124 -229 -31 -58 -64 -117 -75 -132 -10 -14 -18 -28 -18 -31 0 -4
-204 -380 -307 -567 -14 -25 -41 -74 -61 -110 -19 -36 -85 -157 -147 -270 -62
-113 -129 -236 -150 -275 -21 -38 -58 -106 -83 -150 -24 -44 -60 -109 -79
-145 -46 -84 -147 -270 -186 -340 -17 -30 -36 -66 -44 -80 -9 -18 -22 -26 -44
-28 -87 -7 -149 -73 -151 -160 -1 -28 4 -57 11 -65 6 -8 8 -17 3 -19 -4 -1
-42 -41 -82 -88 -41 -47 -79 -90 -85 -96 -5 -6 -35 -40 -65 -74 -30 -35 -62
-71 -70 -80 -198 -223 -467 -536 -472 -550 -14 -37 20 -80 62 -80 13 0 57 44
126 125 32 39 61 72 64 75 3 3 53 59 110 125 58 66 117 134 131 150 14 17 48
55 75 85 46 53 73 83 225 258 l64 74 62 1 c72 2 106 22 140 83 28 48 29 98 4
145 l-19 35 115 209 c63 116 133 244 155 285 23 41 64 116 91 165 27 50 64
117 82 150 50 95 106 197 125 230 10 17 33 59 53 95 52 97 94 175 147 270 25
47 50 92 53 100 4 8 18 33 30 55 13 22 39 69 59 105 19 36 47 85 60 110 14 25
52 95 85 155 33 61 74 135 90 165 17 30 57 105 90 165 128 234 118 219 160
226 89 13 146 77 145 164 l-1 41 222 164 c122 90 309 229 415 307 106 79 196
143 200 143 4 0 7 -168 7 -374 l-1 -374 -135 -224 c-75 -122 -214 -352 -310
-509 l-174 -286 -37 -1 c-57 -1 -107 -33 -134 -84 -21 -41 -26 -99 -10 -130 8
-15 11 -28 8 -30 -4 -2 -30 -30 -57 -63 -53 -63 -93 -110 -110 -129 -5 -6 -44
-51 -85 -101 -75 -90 -272 -322 -358 -424 -26 -30 -65 -76 -86 -103 -35 -42
-44 -48 -71 -45 -135 16 -233 -125 -166 -238 24 -41 29 -26 -73 -238 -42 -87
-76 -160 -76 -161 0 -2 -29 -64 -64 -137 -35 -74 -75 -159 -89 -189 -13 -30
-77 -166 -141 -303 -123 -261 -130 -288 -81 -307 50 -19 62 -4 140 157 41 85
75 157 75 159 0 2 34 74 75 160 41 86 75 157 75 159 0 2 34 74 75 160 41 87
75 159 75 160 0 2 31 68 69 148 68 143 69 144 107 152 50 9 102 49 120 91 16
39 18 97 4 124 -8 15 0 30 42 82 29 35 58 68 64 73 6 6 55 64 110 130 54 66
101 122 104 125 3 3 39 46 80 95 41 50 78 92 81 95 3 3 45 52 92 108 168 201
152 186 200 184 99 -5 180 75 172 172 -2 27 -8 53 -14 59 -6 6 -11 17 -11 24
0 7 79 142 176 300 97 159 185 304 196 323 11 19 35 58 52 85 18 28 43 69 56
92 13 23 26 41 29 39 3 -2 6 -338 5 -746 l0 -743 -25 -19 c-13 -11 -40 -34
-59 -51 -19 -18 -75 -65 -123 -106 -85 -72 -88 -73 -125 -64 -154 38 -258
-135 -161 -268 9 -12 2 -42 -35 -145 -26 -71 -51 -138 -56 -149 -4 -11 -46
-123 -91 -250 -46 -126 -88 -233 -94 -237 -5 -4 -19 -8 -29 -8 -31 0 -87 -50
-107 -94 -18 -42 -18 -82 2 -133 8 -21 -1 -39 -65 -131 -147 -214 -166 -244
-166 -261 0 -27 22 -50 53 -55 35 -6 37 -4 174 198 l108 158 48 3 c131 8 197
143 123 255 -15 23 -21 42 -16 51 5 8 47 121 94 252 93 255 113 311 126 342 5
11 19 50 32 88 14 41 28 67 37 67 8 0 33 9 55 20 66 32 103 108 86 171 -6 20
-3 29 12 40 11 8 30 23 42 34 61 54 139 121 149 127 9 5 12 -208 12 -882 -1
-728 1 -892 12 -907 13 -17 78 -18 1759 -18 1716 0 1746 0 1760 19 23 33 16
59 -30 111 -24 28 -126 145 -226 260 -101 116 -188 215 -194 221 -6 6 -31 35
-55 64 -25 29 -50 58 -56 64 -5 6 -39 45 -75 86 -36 41 -75 86 -88 100 -85 92
-150 178 -184 242 -45 83 -218 400 -256 468 -14 25 -38 70 -55 100 -16 30 -57
105 -90 165 -106 195 -114 209 -152 280 -21 39 -46 84 -55 100 -10 17 -33 59
-53 95 -31 59 -462 847 -527 965 -15 28 -41 75 -58 105 -31 59 -41 77 -146
267 l-68 123 -111 83 c-62 46 -227 169 -367 272 -140 104 -324 240 -409 303
-205 152 -210 155 -243 138z"/>
</g>
</svg>
