<?xml version="1.0" encoding="UTF-8"?>
<svg width="249px" height="249px" viewBox="0 0 249 249" version="1.1" xmlns="http://www.w3.org/2000/svg" xmlns:xlink="http://www.w3.org/1999/xlink">
    <!-- Generator: sketchtool 57.1 (101010) - https://sketch.com -->
    <title>69F6CEF7-6433-4581-B99D-98CA2FAC805E</title>
    <desc>Created with sketchtool.</desc>
    <defs>
        <path d="M136.758636,246.546873 C137.436709,246.546873 137.986395,247.096024 137.986395,247.773436 C137.986395,248.450849 137.436709,249 136.758636,249 C136.080564,249 135.530878,248.450849 135.530878,247.773436 C135.530878,247.096024 136.080564,246.546873 136.758636,246.546873 Z M126.315112,235.265515 C127.457789,235.265515 128.384112,236.190937 128.384112,237.332502 C128.384112,238.16852 127.880016,238.922219 127.106884,239.242149 C126.333752,239.562079 125.443838,239.385237 124.852108,238.794083 C124.260378,238.202929 124.083363,237.313881 124.403605,236.541501 C124.723847,235.76912 125.478279,235.265515 126.315112,235.265515 Z M180.836676,234.90966 C181.513028,234.913793 182.060298,235.460531 182.064435,236.136224 C182.064435,236.813636 181.514749,237.362788 180.836676,237.362788 C180.158604,237.362788 179.608918,236.813636 179.608918,236.136224 C179.608918,235.458812 180.158604,234.90966 180.836676,234.90966 Z M115.871587,223.991729 C116.643431,223.991729 117.383663,224.298045 117.929439,224.84329 C118.475215,225.388535 118.781829,226.128046 118.781829,226.899139 C118.781829,228.504858 117.47887,229.80655 115.871587,229.80655 C114.264305,229.80655 112.961345,228.504858 112.961345,226.899139 C112.961345,225.293421 114.264305,223.991729 115.871587,223.991729 Z M59.4629128,224.907866 C60.1392641,224.911999 60.6865343,225.458737 60.6906711,226.13443 C60.6906711,226.811842 60.140985,227.360994 59.4629128,227.360994 C58.7848406,227.360994 58.2351545,226.811842 58.2351545,226.13443 C58.2351545,225.457018 58.7848406,224.907866 59.4629128,224.907866 Z M169.55191,222.916593 C170.627617,222.916593 171.49965,223.787778 171.49965,224.862438 C171.49965,225.937098 170.627617,226.808283 169.55191,226.808283 C168.476203,226.808283 167.60417,225.937098 167.60417,224.862438 C167.60417,223.787778 168.476203,222.916593 169.55191,222.916593 Z M50.9216558,214.792491 C52.4715643,214.796675 53.7257952,216.053078 53.7257952,217.601484 C53.7257952,218.738299 53.039915,219.763032 51.9883172,220.197362 C50.9367194,220.631691 49.7267569,220.389976 48.9232107,219.585042 C48.1196645,218.780108 47.8809802,217.570675 48.3185696,216.521276 C48.7561591,215.471878 49.7837373,214.789437 50.9216558,214.792491 Z M105.420484,212.7028 C107.496557,212.7028 109.179546,214.384153 109.179546,216.458205 C109.179546,218.532258 107.496557,220.21361 105.420484,220.21361 C103.344411,220.21361 101.661421,218.532258 101.661421,216.458205 C101.661421,214.384153 103.344411,212.7028 105.420484,212.7028 Z M158.267144,210.923515 C158.97598,210.921514 159.656474,211.201415 160.158409,211.701441 C160.660344,212.201468 160.942455,212.880503 160.942455,213.588652 C160.945511,214.670341 160.295644,215.647225 159.296199,216.063294 C158.296754,216.479364 157.144819,216.252572 156.378116,215.488785 C155.611413,214.724998 155.381134,213.574831 155.794771,212.575183 C156.208409,211.575534 157.184397,210.923515 158.267144,210.923515 Z M213.410166,211.809378 C214.088238,211.809378 214.637924,212.358529 214.637924,213.035941 C214.637924,213.713354 214.088238,214.262505 213.410166,214.262505 C212.732094,214.262505 212.182408,213.713354 212.182408,213.035941 C212.182408,212.358529 212.732094,211.809378 213.410166,211.809378 Z M42.37282,204.677137 C44.8004859,204.677137 46.7684979,206.643234 46.7684979,209.068538 C46.7684979,211.493841 44.8004859,213.459939 42.37282,213.459939 C39.9451541,213.459939 37.977142,211.493841 37.977142,209.068538 C37.977142,206.643234 39.9451541,204.677137 42.37282,204.677137 Z M94.9693806,201.43658 C96.1913907,201.434565 97.3638223,201.919158 98.2272036,202.78312 C99.0905849,203.647083 99.5737197,204.819169 99.56971,206.039985 C99.565501,208.577201 97.5040255,210.631025 94.9643364,210.628242 C92.4246473,210.625454 90.3676908,208.567113 90.3690825,206.029894 C90.3704755,203.492675 92.42969,201.43658 94.9693806,201.43658 Z M25.2599909,184.423693 C29.4456218,184.423693 32.838746,187.813516 32.838746,191.995074 C32.8392274,192.941561 32.659179,193.879472 32.3082331,194.758628 C32.8035088,194.631251 33.3125713,194.565138 33.8239842,194.561772 C35.4091854,194.559762 36.9301497,195.18746 38.0517677,196.306567 C39.1074082,197.359843 39.7277763,198.767074 39.797108,200.249293 L39.803622,200.52802 L39.7808857,200.550734 C39.8587364,202.734328 38.7370794,204.786175 36.8561008,205.901043 C34.9751223,207.015911 32.6349523,207.015911 30.7539737,205.901043 C28.8729952,204.786175 27.7513382,202.734328 27.8291889,200.550734 C27.8312991,200.039241 27.9000865,199.5302 28.0338152,199.036458 C27.1513832,199.387829 26.2099314,199.567713 25.2599909,199.566455 C21.07436,199.566455 17.6812357,196.176632 17.6812357,191.995074 C17.6812357,187.813516 21.07436,184.423693 25.2599909,184.423693 Z M146.982377,198.922887 C148.85754,198.922887 150.377659,200.441528 150.377659,202.314866 C150.377659,204.188204 148.85754,205.706845 146.982377,205.706845 C145.107214,205.706845 143.587095,204.188204 143.587095,202.314866 C143.587095,200.441528 145.107214,198.922887 146.982377,198.922887 Z M202.943905,200.740003 C203.969385,200.740003 204.800715,201.570525 204.800715,202.595007 C204.803765,203.349711 204.350652,204.031666 203.653299,204.321895 C202.955946,204.612124 202.152211,204.453253 201.61803,203.919592 C201.08385,203.385931 200.924824,202.582978 201.215336,201.886303 C201.505847,201.189629 202.188466,200.736957 202.943905,200.740003 Z M84.525856,190.140086 C87.531139,190.140086 89.9674022,192.573978 89.9674022,195.576337 C89.9674022,197.775096 88.6416121,199.75735 86.6082456,200.598779 C84.5748792,201.440207 82.2343731,200.975104 80.6781018,199.420347 C79.1218305,197.86559 78.6562749,195.527362 79.4985229,193.495974 C80.3407708,191.464586 82.324956,190.140086 84.525856,190.140086 Z M135.720347,186.929813 C137.993145,186.929813 139.835618,188.770494 139.835618,191.04108 C139.838676,192.708366 138.835303,194.213041 137.294016,194.852499 C135.752729,195.491957 133.977584,195.140049 132.797485,193.961098 C131.617386,192.782147 131.265135,191.00873 131.905216,189.468942 C132.545296,187.929155 134.051437,186.926758 135.720347,186.929813 Z M192.477644,189.640363 C193.13824,189.638363 193.77247,189.899119 194.240294,190.365067 C194.708118,190.831016 194.971066,191.463832 194.971066,192.123788 C194.974122,193.13198 194.368571,194.042604 193.437094,194.430548 C192.505618,194.818492 191.431917,194.607247 190.717234,193.89543 C190.002551,193.183613 189.787833,192.111604 190.173317,191.179857 C190.558801,190.248111 191.468465,189.640363 192.477644,189.640363 Z M74.0747527,178.873867 C75.7423644,178.871861 77.3423638,179.532265 78.5222548,180.709588 C79.7021457,181.88691 80.3651195,183.484556 80.3651195,185.150546 C80.3651195,188.616071 77.5537553,191.425824 74.0848547,191.427216 C70.6159541,191.428607 67.8023343,188.621112 67.7995434,185.155587 C67.7967567,181.690063 70.6058543,178.878052 74.0747527,178.873867 Z M182.018962,178.555864 C182.847704,178.553856 183.643084,178.88186 184.229095,179.4673 C184.815105,180.05274 185.143428,180.847347 185.141418,181.675282 C185.141418,183.398084 183.743442,184.794691 182.018962,184.794691 C180.294482,184.794691 178.896515,183.398084 178.896515,181.675282 C178.896515,179.95248 180.294482,178.555864 182.018962,178.555864 Z M124.412844,174.936747 C127.081546,174.940922 129.243917,177.101189 129.248096,179.767294 C129.251155,181.725502 128.072364,183.492454 126.262038,184.243244 C124.451712,184.994033 122.36689,184.580586 120.980877,183.195922 C119.594865,181.811257 119.181015,179.728464 119.932535,177.9199 C120.684056,176.111335 122.452729,174.933691 124.412844,174.936747 Z M11.3681327,111.216012 C17.646579,111.216012 22.7362654,116.300746 22.7362654,122.573084 C28.1646145,123.029555 32.3380494,127.564202 32.3385482,133.006446 C32.3385482,133.241159 32.3006544,133.506157 32.3006544,133.763584 C37.6272278,133.771938 41.9408375,138.088126 41.9408309,143.409524 C41.9365013,143.975518 41.885807,144.54021 41.7892558,145.097941 C42.1036791,145.061212 42.420038,145.043513 42.7366002,145.044942 C47.6015308,145.04494 51.5465093,148.982691 51.5506924,153.842886 C51.5469248,154.781739 51.3960491,155.714214 51.1035459,156.60644 C51.7821235,156.417197 52.4831843,156.320418 53.1877035,156.318728 C56.1323439,156.321533 58.835691,157.945578 60.2187697,160.542666 C61.6018484,163.139753 61.4394447,166.286985 59.796378,168.728221 C61.987229,167.324204 64.770559,167.227115 67.0540966,168.475055 C69.2588915,169.679962 70.6581103,171.953116 70.7503957,174.448958 L70.7552596,174.717183 L70.7476792,174.686898 C70.7476792,178.617562 67.5581424,181.803995 63.6236494,181.803995 C59.6891563,181.803995 56.4996195,178.617562 56.4996195,174.686898 C56.4980335,173.327743 56.8902225,171.997176 57.6288541,170.855779 C54.8684186,172.706687 51.2476259,172.650138 48.5464522,170.713931 C45.8452785,168.777725 44.6319136,165.369141 45.5028458,162.163834 C42.8222352,163.060543 39.8734594,162.61357 37.5797371,160.962857 C35.2860147,159.312143 33.9277095,156.659457 33.9300867,153.835315 C33.9286565,153.519061 33.9463726,153.20301 33.983138,152.888892 C33.4248629,152.985349 32.8596217,153.035994 32.2930756,153.04032 C26.9840855,153.057208 22.6574061,148.788854 22.6074266,143.485237 C22.3421701,143.523094 22.0844925,143.523094 21.8116573,143.523094 C16.3626994,143.526218 11.8215546,139.354932 11.3681327,133.930155 C5.08968638,133.930155 -1.42108547e-14,128.845421 -1.42108547e-14,122.573084 C-1.42108547e-14,116.300746 5.08968638,111.216012 11.3681327,111.216012 Z M236.51779,179.184274 C236.844031,179.182267 237.157499,179.310842 237.38819,179.541309 C237.618881,179.771776 237.747581,180.084938 237.745572,180.410861 C237.745572,181.088274 237.195862,181.637425 236.51779,181.637425 C235.839718,181.637425 235.290032,181.088274 235.290032,180.410861 C235.290032,179.733449 235.839718,179.184274 236.51779,179.184274 Z M171.552701,167.4638 C173.628774,167.4638 175.311764,169.145152 175.311764,171.219205 C175.311764,173.293258 173.628774,174.97461 171.552701,174.97461 C169.476628,174.97461 167.793639,173.293258 167.793639,171.219205 C167.793639,169.145152 169.476628,167.4638 171.552701,167.4638 Z M115.247539,163.358426 C117.327148,164.218159 118.683311,166.245064 118.683311,168.493508 C118.685317,169.966724 118.100924,171.380289 117.058899,172.42272 C116.016874,173.465152 114.60273,174.050907 113.128078,174.050907 C110.877446,174.053965 108.84672,172.701893 107.983315,170.625482 C107.11991,168.549071 107.593967,166.157496 109.184321,164.566522 C110.774674,162.975549 113.16793,162.498692 115.247539,163.358426 Z M225.210288,167.198787 C225.728172,167.196789 226.225537,167.400908 226.59245,167.766043 C226.959363,168.131178 227.165606,168.627262 227.165606,169.144647 C227.165606,170.21832 226.295101,171.089088 225.220383,171.090477 C224.145665,171.091862 223.272918,170.223344 223.270126,169.149675 C223.267348,168.076005 224.135577,167.20298 225.210288,167.198787 Z M164.18705,157.662597 C165.900709,159.374589 165.900709,162.150276 164.18705,163.862269 C162.47339,165.57426 159.694999,165.57426 157.98134,163.862269 C156.267681,162.150276 156.267681,159.374589 157.98134,157.662597 C159.694999,155.950605 162.47339,155.950605 164.18705,157.662597 Z M106.288594,152.784127 C108.084861,154.580813 108.620517,157.281764 107.645673,159.626952 C106.670828,161.972141 104.377571,163.49946 101.835733,163.496401 C98.370536,163.488057 95.5646884,160.681555 95.5605235,157.219722 C95.5605235,154.680356 97.0920988,152.391175 99.4407464,151.42011 C101.789394,150.449045 104.492327,150.98744 106.288594,152.784127 Z M213.940679,155.213295 C215.415246,155.217479 216.608401,156.412865 216.608401,157.886004 C216.608401,158.967697 215.955757,159.942735 214.955135,160.35597 C213.954513,160.769205 212.803226,160.53915 212.038695,159.773193 C211.274165,159.007236 211.047152,157.856421 211.463626,156.857949 C211.880101,155.859477 212.857936,155.210242 213.940679,155.213295 Z M150.62018,145.294797 C153.395253,145.294797 155.644894,147.54225 155.644894,150.314623 C155.644894,153.086996 153.395253,155.334448 150.62018,155.334448 C147.845106,155.334448 145.595465,153.086996 145.595465,150.314623 C145.595465,147.54225 147.845106,145.294797 150.62018,145.294797 Z M90.5509664,138.94998 C94.4184893,138.94998 97.5537361,142.082176 97.5537361,145.945936 C97.5537361,149.809696 94.4184893,152.941892 90.5509664,152.941892 C86.6834434,152.941892 83.5481966,149.809696 83.5481966,145.945936 C83.5481966,142.082176 86.6834434,138.94998 90.5509664,138.94998 Z M202.67107,143.22781 C204.546232,143.22781 206.066352,144.746451 206.066352,146.619789 C206.066352,148.493127 204.546232,150.011768 202.67107,150.011768 C200.795907,150.011768 199.275788,148.493127 199.275788,146.619789 C199.275788,144.746451 200.795907,143.22781 202.67107,143.22781 Z M142.315762,134.639523 C144.429354,135.513319 145.807675,137.573353 145.807675,139.858546 C145.809682,141.355858 145.215707,142.792533 144.156626,143.852003 C143.097545,144.911474 141.66027,145.506801 140.161497,145.506801 C137.874081,145.509859 135.810194,144.135651 134.932712,142.025289 C134.05523,139.914927 134.537069,137.484273 136.153432,135.867315 C137.769796,134.250356 140.202169,133.765727 142.315762,134.639523 Z M27.1309151,67.8070814 C31.2890462,69.5236852 34.0334103,73.5232944 34.1533525,77.9974499 L34.1574494,78.3032201 L34.1574494,78.9695016 C40.0173326,78.9695016 44.7677066,83.7152533 44.7677066,89.5694347 C44.7643532,90.0485441 44.7263605,90.5267857 44.6540253,91.0004257 C44.8889667,90.9549974 45.1466443,90.9549974 45.4119008,90.9549974 C48.4424615,90.9433167 51.3097833,92.3256547 53.1863231,94.703052 C55.0628629,97.0804494 55.7398,100.18835 55.0217623,103.129778 C55.5711193,103.023287 56.1294858,102.97004 56.6890884,102.970779 C59.7126354,102.966242 62.5434415,104.453362 64.2533449,106.944545 C65.9632484,109.435728 66.331712,112.609669 65.2379242,115.4257 C68.726825,114.229612 72.5889969,115.43695 74.773166,118.406472 C76.9573351,121.375994 76.9568621,125.418892 74.7719982,128.387904 C78.0500842,126.043103 82.5804899,126.602691 85.1882205,129.6745 C87.795951,132.746309 87.6088204,137.302935 84.7579733,140.151008 C81.9071263,142.999081 77.3460619,143.18603 74.2712613,140.580837 C71.1964606,137.975644 70.6363267,133.449646 72.983412,130.17475 C70.4171508,132.071724 66.9988158,132.358834 64.1515397,130.916549 C61.3042636,129.474265 59.5159523,126.549734 59.5311216,123.360507 C59.5313069,122.430015 59.6875722,121.506131 59.9934257,120.627239 C57.173798,121.723175 53.9942776,121.356668 51.4985667,119.648027 C49.0028557,117.939386 47.5132764,115.109283 47.5187947,112.086721 C47.521502,111.52783 47.57477,110.970327 47.6779486,110.421017 C46.9334649,110.601023 46.1702984,110.692514 45.404322,110.693587 C42.7847485,110.703653 40.2690107,109.671092 38.4131269,107.824118 C36.5572431,105.977144 35.5140272,103.467836 35.5140466,100.850792 C35.5140466,100.608508 35.5519403,100.351081 35.5519403,100.093654 C35.0772469,100.159626 34.598798,100.195032 34.1195556,100.199653 C28.2596724,100.199653 23.5092984,95.4539017 23.5092984,89.5997203 C23.3627758,89.6249582 23.2162532,89.6333708 23.0674851,89.6361751 L22.842368,89.6375772 L22.8272105,89.6602913 C18.2258127,89.6756145 14.0689633,86.9182893 12.2974465,82.6756786 C10.5259297,78.4330679 11.4891631,73.5419929 14.7374244,70.2860391 C17.9856856,67.0300854 22.878281,66.0514638 27.1309151,67.8070814 Z M191.393882,131.242308 C193.66668,131.242308 195.509153,133.082988 195.509153,135.353574 C195.512211,137.02086 194.508838,138.525536 192.967551,139.164994 C191.426264,139.804452 189.65112,139.452543 188.47102,138.273592 C187.290921,137.094641 186.93867,135.321224 187.578751,133.781437 C188.218831,132.241649 189.724973,131.239253 191.393882,131.242308 Z M247.772242,134.869006 C248.097863,134.869006 248.410149,134.998233 248.640398,135.228258 C248.870647,135.458283 249,135.770265 249,136.09557 C249,136.772982 248.450314,137.322133 247.772242,137.322133 C247.094169,137.322133 246.544483,136.772982 246.544483,136.09557 C246.544483,135.418157 247.094169,134.869006 247.772242,134.869006 Z M129.695237,123.125794 C133.165125,123.125794 135.978025,125.935957 135.978025,129.402469 C135.978025,132.868981 133.165125,135.679144 129.695237,135.679144 C126.225349,135.679144 123.412449,132.868981 123.412449,129.402469 C123.412449,125.935957 126.225349,123.125794 129.695237,123.125794 Z M181.996203,119.618982 C183.806529,120.369771 184.98532,122.136723 184.982261,124.094931 C184.982261,126.762765 182.817442,128.925478 180.14701,128.925478 C178.186894,128.928534 176.418221,127.75089 175.666701,125.942325 C174.91518,124.133761 175.32903,122.050968 176.715043,120.666304 C178.101055,119.281639 180.185877,118.868193 181.996203,119.618982 Z M237.37419,123.602791 C238.516867,123.602791 239.44319,124.528213 239.44319,125.669778 C239.44319,126.505797 238.939094,127.259495 238.165962,127.579425 C237.392829,127.899356 236.502915,127.722513 235.911186,127.131359 C235.319456,126.540205 235.142441,125.651157 235.462683,124.878777 C235.782925,124.106397 236.537357,123.602791 237.37419,123.602791 Z M126.059657,117.83849 C126.671286,121.602801 124.11256,125.149719 120.344583,125.760753 C116.576606,126.371787 113.026233,123.815551 112.414604,120.05124 C111.802975,116.286929 114.361701,112.740011 118.129678,112.128977 C121.897656,111.517943 125.448028,114.074179 126.059657,117.83849 Z M172.790843,108.901731 C174.381196,110.492704 174.855254,112.884279 173.991849,114.96069 C173.128444,117.037102 171.097718,118.389173 168.847086,118.386115 C165.777793,118.381932 163.291858,115.895026 163.291858,112.828717 C163.291858,110.580272 164.648016,108.553367 166.727625,107.693634 C168.807234,106.833901 171.200489,107.310757 172.790843,108.901731 Z M226.983716,112.374424 C228.590999,112.374424 229.893968,113.676126 229.893968,115.281844 C229.897023,116.462216 229.187245,117.527924 228.096244,117.981048 C227.005244,118.434173 225.748402,118.185261 224.912937,117.350609 C224.077472,116.515957 223.828317,115.260337 224.281883,114.170398 C224.735449,113.080459 225.802194,112.371372 226.983716,112.374424 Z M45.8495563,34.3524799 C52.0872539,34.3260479 57.1812845,39.3258758 57.2650738,45.5569982 C62.7309379,45.9914979 66.967022,50.4773782 67.1135358,55.9224778 L67.1174555,56.209931 L67.1174555,56.6036428 C72.5911968,56.7229963 76.9670211,61.1887196 76.9698372,66.6584365 C76.9709126,66.8910993 76.9633997,67.1236831 76.9473223,67.3557142 L76.9167859,67.703287 L77.3639324,67.703287 C80.1883515,67.668844 82.878004,68.9074442 84.6862877,71.0752733 C86.4945715,73.2431024 87.2290341,76.1094422 86.6858012,78.8786451 C89.6625327,78.4469885 92.6528026,79.5710987 94.6062785,81.8561319 C96.5597543,84.1411651 97.2032812,87.2676046 96.3108203,90.1372883 C99.3996008,89.3492927 102.664794,90.4316756 104.669349,92.9080677 C106.673905,95.3844599 107.050226,98.8007381 105.632689,101.653358 C108.695279,100.245699 112.320423,101.028241 114.528041,103.573555 C116.73566,106.118868 116.994985,109.814996 115.164372,112.643086 C113.333759,115.471177 109.853333,116.751285 106.624128,115.784208 C103.394924,114.81713 101.193322,111.835376 101.221854,108.467601 C101.221928,107.387631 101.457263,106.320614 101.91152,105.340621 C99.0523381,106.750651 95.6332895,106.370049 93.1549134,104.365852 C90.6765373,102.361655 89.5917563,99.1001286 90.376655,96.0126798 C89.548262,96.2622628 88.6878578,96.389795 87.8226145,96.3912488 C82.9589114,96.3912488 79.0161011,92.4522749 79.0161011,87.5933043 C79.0191483,87.1954563 79.0495348,86.7982868 79.1070461,86.4045976 C78.5318509,86.5098574 77.9486713,86.5655855 77.3639324,86.5711679 C72.2662765,86.5507577 68.1229833,82.4972201 67.9634173,77.4394106 L67.9586973,77.167513 L67.9586973,76.7208015 C67.6113194,76.7577193 67.2621633,76.7754128 66.9128291,76.7738012 C61.5305823,76.7710356 57.1195287,72.546355 56.8580502,67.2081 L56.8482423,66.9310062 L56.4465683,66.9310062 C50.9648305,66.9252917 46.3895876,62.7892434 45.8100553,57.3743699 L45.7832598,57.0882111 L45.7377872,57.065497 C39.5006523,56.9776912 34.499306,51.8853301 34.5298312,45.6537207 C34.5606369,39.4221114 39.6118588,34.3791223 45.8495563,34.3524799 Z M216.578086,101.146076 C218.654158,101.146076 220.337148,102.827428 220.337148,104.901481 C220.337148,106.975534 218.654158,108.656886 216.578086,108.656886 C214.502013,108.656886 212.819023,106.975534 212.819023,104.901481 C212.819023,102.827428 214.502013,101.146076 216.578086,101.146076 Z M162.020079,97.1317941 C163.816944,98.9269104 164.354472,101.62662 163.382016,103.972053 C162.40956,106.317485 160.118627,107.846748 157.577477,107.846748 C154.10932,107.842576 151.298865,105.034855 151.294689,101.570073 C151.294689,99.0313954 152.825441,96.742692 155.173158,95.771182 C157.520875,94.799672 160.223214,95.3366777 162.020079,97.1317941 Z M206.20277,89.9177182 C208.722706,89.9467521 210.75019,91.995895 210.750023,94.5135464 C210.749899,96.3771817 209.623244,98.056243 207.897706,98.7643724 C206.172168,99.4725018 204.189403,99.0694902 202.878002,97.7440808 C201.566601,96.4186714 201.186222,94.4332942 201.915007,92.7177646 C202.643792,91.002235 204.337443,89.8962266 206.20277,89.9177182 Z M146.307868,83.3079028 C150.175391,83.3079028 153.310638,86.4400989 153.310638,90.3038587 C153.310638,94.1676184 150.175391,97.2998145 146.307868,97.2998145 C142.440345,97.2998145 139.305098,94.1676184 139.305098,90.3038587 C139.305098,86.4400989 142.440345,83.3079028 146.307868,83.3079028 Z M195.78956,78.7045033 C198.794843,78.7045033 201.231106,81.138396 201.231106,84.1407547 C201.226932,87.1413843 198.793112,89.5728357 195.78956,89.5770061 C192.784277,89.5770061 190.348014,87.1431135 190.348014,84.1407547 C190.348014,81.138396 192.784277,78.7045033 195.78956,78.7045033 Z M78.5916908,11.3419284 C84.7720364,11.3419284 89.8004805,16.2690058 89.9561105,22.4058685 L89.9598235,22.6989996 L89.9598235,23.3652811 C95.8197067,23.3652811 100.570081,28.1110328 100.570081,33.9652142 C100.565738,34.4389736 100.530294,34.9119382 100.463978,35.3810624 C100.706498,35.3432055 100.964176,35.3432055 101.221854,35.3432055 C106.685328,35.3473848 111.112131,39.7732693 111.112129,45.2314288 C111.111339,45.9966771 111.019755,46.7591343 110.839294,47.5028431 C114.102419,46.8847906 117.444162,48.0852929 119.566034,50.637875 C121.687906,53.1904571 122.255351,56.6926514 121.047877,59.7836227 C124.53164,58.5902715 128.387642,59.7928365 130.57314,62.7542504 C132.758638,65.7156643 132.768341,69.7512439 130.597109,72.7231125 C133.897989,70.40948 138.422019,71.0036109 141.012226,74.090907 C143.602432,77.1782032 143.397553,81.7321174 140.540559,84.574823 C137.683564,87.4175286 133.124424,87.6038066 130.044612,85.0036679 C126.964799,82.4035291 126.388373,77.8815376 128.717577,74.5932435 C126.151738,76.463447 122.751844,76.7352102 119.920989,75.2963799 C117.090133,73.8575495 115.308273,70.9520722 115.310759,67.7790008 C115.312633,66.853592 115.468875,65.9349657 115.773063,65.0608751 C112.962057,66.1248838 109.807315,65.7425169 107.332537,64.0378508 C104.857758,62.3331847 103.378293,59.5234368 103.37422,56.5203576 C103.37688,55.9689851 103.430155,55.4190184 103.533374,54.877368 C102.788052,55.0517936 102.025244,55.1407013 101.259747,55.1423663 C95.9033737,55.1424228 91.5371893,50.8908083 91.3669408,45.5754366 L91.3618932,45.2995713 L91.3618932,44.5424332 C90.892312,44.6086845 90.4188867,44.6440936 89.944666,44.6484325 C84.1808464,44.6484325 79.4904569,40.0570038 79.3382226,34.3355003 L79.3344088,34.0484994 L78.6750571,34.0484994 L78.5916908,34.0560708 C72.3132444,34.0560708 67.2235581,28.9713368 67.2235581,22.6989996 C67.2235581,16.4266624 72.3132444,11.3419284 78.5916908,11.3419284 Z M185.391508,67.4610028 C188.861396,67.4610028 191.674296,70.2711658 191.674296,73.7376775 C191.674296,77.2041892 188.861396,80.0143522 185.391508,80.0143522 C181.92162,80.0143522 179.10872,77.2041892 179.10872,73.7376775 C179.10872,70.2711658 181.92162,67.4610028 185.391508,67.4610028 Z M122.934987,2.84217094e-13 C129.213433,2.84217094e-13 134.30312,5.08473397 134.30312,11.3570712 C139.621408,11.8275939 143.719429,16.2110526 143.856397,21.5131051 L143.85993,21.7980053 L143.85993,22.5551434 C146.700964,22.5529211 149.396663,23.8096513 151.219907,25.9863521 C153.043152,28.163053 153.806136,31.035511 153.303059,33.8289294 C156.264356,33.5268078 159.178237,34.7383258 161.050599,37.0501607 C162.922961,39.3619957 163.50082,42.4617843 162.587034,45.2919999 C163.241747,45.1149887 163.91714,45.0258726 164.595404,45.0270016 C167.514052,45.0219144 170.201289,46.6134489 171.597452,49.1740122 C172.993614,51.7345756 172.87464,54.8532375 171.287445,57.3002098 C174.066617,55.5999844 177.644742,55.9909343 179.990353,58.2510994 C182.335965,60.5112644 182.856279,64.0694546 181.255889,66.905521 C179.6555,69.7415875 176.338857,71.1387982 173.188973,70.3038921 C170.039089,69.4689861 167.852004,66.6129611 167.869426,63.3573144 C167.868158,62.0468156 168.232991,60.7619664 168.922873,59.6473379 C167.635499,60.4849202 166.13171,60.9295666 164.595404,60.9269012 C162.134424,60.9177834 159.816689,59.7694902 158.319995,57.8178268 C156.823301,55.8661635 156.316736,53.3316192 156.94844,50.9553927 C154.118504,51.8652904 151.020067,51.2873735 148.709405,49.4186576 C146.398743,47.5499418 145.187788,44.6426973 145.489362,41.6880226 C142.693223,42.1906106 139.817968,41.4283685 137.639147,39.6068981 C135.460326,37.7854278 134.202372,35.092352 134.204596,32.2540822 C133.946918,32.2919391 133.696819,32.2919391 133.44672,32.2919391 C128.096201,32.3127741 123.605782,28.308327 122.99433,23.0284812 L122.965302,22.7444279 L122.934987,22.7141424 C116.656541,22.7141424 111.566854,17.6294084 111.566854,11.3570712 C111.566854,5.08473397 116.656541,2.84217094e-13 122.934987,2.84217094e-13 Z M232.584416,63.8948825 C233.262489,63.8948825 233.812175,64.4440337 233.812175,65.1214462 C233.812175,65.7988586 233.262489,66.3480099 232.584416,66.3480099 C231.906344,66.3480099 231.356658,65.7988586 231.356658,65.1214462 C231.356658,64.4440337 231.906344,63.8948825 232.584416,63.8948825 Z M224.353703,53.3270573 C225.40437,53.7618344 226.089423,54.7860912 226.089423,55.9222185 C226.089423,57.4735766 224.830574,58.7312008 223.277705,58.7312008 C222.140471,58.7312008 221.115217,58.0468142 220.680016,56.9971695 C220.244816,55.9475247 220.485374,54.7393314 221.28952,53.9359681 C222.093666,53.1326048 223.303036,52.8922802 224.353703,53.3270573 Z M213.978573,42.33159 C216.406238,42.33159 218.37425,44.2976871 218.37425,46.7229908 C218.37425,49.1482946 216.406238,51.1143917 213.978573,51.1143917 C211.550907,51.1143917 209.582895,49.1482946 209.582895,46.7229908 C209.582895,44.2976871 211.550907,42.33159 213.978573,42.33159 Z M200.846343,23.0946789 C203.23244,25.5901119 203.627539,29.3817384 201.807092,32.3146532 C202.686151,31.8196207 203.677921,31.5588824 204.687019,31.5575151 C207.985453,31.5784004 210.644002,34.2636836 210.628759,37.5589395 C210.613385,40.8541954 207.930002,43.5147102 204.631515,43.5050346 C201.333028,43.4953061 198.665373,40.819052 198.669487,37.5237632 C198.667861,36.5402177 198.912776,35.5719203 199.38189,34.7072095 C198.276268,35.406299 197.009947,35.806513 195.706792,35.871525 L195.380307,35.8807736 L195.387886,35.8959163 C191.933515,35.9058133 188.909523,33.580841 188.034546,30.2423572 C187.159568,26.9038733 188.655025,23.3967106 191.670999,21.7141042 C194.686973,20.0314978 198.460246,20.599246 200.846343,23.0946789 Z" id="path-1"></path>
    </defs>
    <g id="TPI-visuals" stroke="none" stroke-width="1" fill="none" fill-rule="evenodd">
        <g id="TPI---Home" transform="translate(-291.000000, -3007.000000)">
            <g id="Newsletter-block" transform="translate(0.000000, 2931.000000)">
                <g id="newsletter-img">
                    <g transform="translate(291.000000, 76.000000)">
                        <mask id="mask-2" fill="white">
                            <use xlink:href="#path-1"></use>
                        </mask>
                        <use id="Combined-Shape" fill="#2465F5" fill-rule="nonzero" xlink:href="#path-1"></use>
                    </g>
                </g>
            </g>
        </g>
    </g>
</svg>