<?xml version="1.0" encoding="UTF-8"?>
<svg width="54px" height="43px" viewBox="0 0 54 43" version="1.1" xmlns="http://www.w3.org/2000/svg" xmlns:xlink="http://www.w3.org/1999/xlink">
    <!-- Generator: sketchtool 60 (101010) - https://sketch.com -->
    <title>374C9449-93C0-4B39-8FFA-A551888EA1FF</title>
    <desc>Created with sketchtool.</desc>
    <g id="TPI-visuals" stroke="none" stroke-width="1" fill="none" fill-rule="evenodd">
        <g id="TPI---Home" transform="translate(-299.000000, -2439.000000)" fill="#5587F6" fill-rule="nonzero">
            <path d="M320,2471.9061 C320,2474.73241 319.100009,2477.12127 317.3,2479.07277 C315.5,2481.02427 313.26668,2482 310.6,2482 C307.333333,2482 304.583344,2480.63734 302.35,2477.91197 C300.116656,2475.18661 299,2471.80518 299,2467.76761 C299,2459.75974 302.599964,2451.28095 309.8,2442.33099 C311.600009,2440.11032 313.199993,2439 314.6,2439 C317.066679,2439 318.3,2440.41313 318.3,2443.23944 C318.3,2444.85447 317.566674,2446.73864 316.1,2448.89202 C312.299981,2454.54463 310.4,2458.27933 310.4,2460.09624 C310.4,2461.10564 311.133326,2461.8122 312.6,2462.21596 C317.533358,2463.56182 320,2466.79184 320,2471.9061 Z M353,2471.9061 C353,2474.73241 352.100009,2477.12127 350.3,2479.07277 C348.5,2481.02427 346.26668,2482 343.6,2482 C340.333333,2482 337.583344,2480.63734 335.35,2477.91197 C333.116656,2475.18661 332,2471.80518 332,2467.76761 C332,2459.75974 335.599964,2451.28095 342.8,2442.33099 C344.600009,2440.11032 346.199993,2439 347.6,2439 C350.066679,2439 351.3,2440.41313 351.3,2443.23944 C351.3,2444.85447 350.566674,2446.73864 349.1,2448.89202 C345.299981,2454.54463 343.4,2458.27933 343.4,2460.09624 C343.4,2461.10564 344.133326,2461.8122 345.6,2462.21596 C350.533358,2463.56182 353,2466.79184 353,2471.9061 Z" id="‘‘"></path>
        </g>
    </g>
</svg>