<?xml version="1.0" encoding="UTF-8"?>
<svg width="24px" height="24px" viewBox="0 0 24 24" version="1.1" xmlns="http://www.w3.org/2000/svg" xmlns:xlink="http://www.w3.org/1999/xlink">
    <!-- Generator: sketchtool 60.1 (101010) - https://sketch.com -->
    <title>0C1DF53B-0423-486A-82A9-31A51836C767</title>
    <desc>Created with sketchtool.</desc>
    <g id="Asset-Artboard-Page" stroke="none" stroke-width="1" fill="none" fill-rule="evenodd">
        <g id="Icons/24px/Laws-Icons/24px/law" fill="#828397" fill-rule="nonzero">
            <g id="legal-certificate">
                <path d="M20.25,0 C22.3210678,0 24,1.67893219 24,3.75 C24,5.82106781 22.3210678,7.5 20.25,7.5 C19.4057002,7.5 18.6265694,7.22097837 17.9997877,6.75011513 L18,18.75 C18,21.6494949 15.6494949,24 12.75,24 L12.75,24 L0.75,24 C-0.25,24 -0.25,22.5 0.75,22.5 C2.55925884,22.5 3.5,21.1425147 3.5,18.75 L3.499,18.809 L3.5,5.25 C3.5,2.42299244 5.73444888,0.117868372 8.53359538,0.00437904832 L8.75,0 C8.83817046,0 8.92278736,0.0152146066 9.0013685,0.0431616229 C9.07793285,0.0150853961 9.16220473,0 9.25,0 L9.25,0 Z M8.999635,1.45719446 L8.94937971,1.47320928 C8.88589266,1.4906726 8.81903559,1.5 8.75,1.5 C6.67893219,1.5 5,3.17893219 5,5.25 L5,5.25 L4.999,18.736 L5,18.75 C5,18.7698891 4.99994058,18.7897374 4.99982179,18.8095448 L5,19.25 C5,19.3190356 4.9906726,19.3858927 4.97320928,19.4493797 L4.95756054,19.642081 C4.84459178,20.7898022 4.50690434,21.7650025 3.95424902,22.5 L3.95424902,22.5 L12.75,22.5 C14.8210678,22.5 16.5,20.8210678 16.5,18.75 L16.5,18.75 L16.5,3.75 L16.5,3.75 L16.505198,3.55084143 C16.5453586,2.78335038 16.8162806,2.07697278 17.2498849,1.49978766 L9.25,1.5 C9.16220473,1.5 9.07793285,1.4849146 8.999635,1.45719446 Z M14.25,16.5 C14.6642136,16.5 15,16.8357864 15,17.25 C15,17.6642136 14.6642136,18 14.25,18 L14.25,18 L7.25,18 C6.83578644,18 6.5,17.6642136 6.5,17.25 C6.5,16.8357864 6.83578644,16.5 7.25,16.5 L7.25,16.5 Z M14.25,13.5 C14.6642136,13.5 15,13.8357864 15,14.25 C15,14.6642136 14.6642136,15 14.25,15 L14.25,15 L7.25,15 C6.83578644,15 6.5,14.6642136 6.5,14.25 C6.5,13.8357864 6.83578644,13.5 7.25,13.5 L7.25,13.5 Z M14.25,10.5 C14.6642136,10.5 15,10.8357864 15,11.25 C15,11.6642136 14.6642136,12 14.25,12 L14.25,12 L7.25,12 C6.83578644,12 6.5,11.6642136 6.5,11.25 C6.5,10.8357864 6.83578644,10.5 7.25,10.5 L7.25,10.5 Z M14.25,7.5 C14.6642136,7.5 15,7.83578644 15,8.25 C15,8.66421356 14.6642136,9 14.25,9 L14.25,9 L7.25,9 C6.83578644,9 6.5,8.66421356 6.5,8.25 C6.5,7.83578644 6.83578644,7.5 7.25,7.5 L7.25,7.5 Z M20.25,1.5 C19.0073593,1.5 18,2.50735931 18,3.75 C18,4.99264069 19.0073593,6 20.25,6 C21.4926407,6 22.5,4.99264069 22.5,3.75 C22.5,2.50735931 21.4926407,1.5 20.25,1.5 Z" id="Combined-Shape"></path>
            </g>
        </g>
    </g>
</svg>
