<svg width="30" height="30" viewBox="0 0 30 30" fill="none" xmlns="http://www.w3.org/2000/svg">
<path d="M15 30C23.2843 30 30 23.2843 30 15C30 6.71573 23.2843 0 15 0C6.71573 0 0 6.71573 0 15C0 23.2843 6.71573 30 15 30Z" fill="white"/>
<path fill-rule="evenodd" clip-rule="evenodd" d="M8.52596 12.5546H11.1838V21.8175H8.52596V12.5546ZM9.78713 11.396H9.76789C8.80578 11.396 8.18201 10.6879 8.18201 9.79116C8.18201 8.87614 8.82422 8.18201 9.80557 8.18201C10.7861 8.18201 11.3891 8.87439 11.4083 9.78854C11.4083 10.6852 10.7861 11.396 9.78713 11.396ZM21.8184 21.8184H18.8045V17.0241C18.8045 15.7694 18.3331 14.9137 17.2964 14.9137C16.5035 14.9137 16.0625 15.4909 15.8573 16.0488C15.7803 16.2479 15.7923 16.5264 15.7923 16.8058V21.8184H12.8066C12.8066 21.8184 12.8451 13.3264 12.8066 12.5546H15.7923V14.0083C15.9687 13.3727 16.9228 12.4655 18.4454 12.4655C20.3343 12.4655 21.8184 13.7988 21.8184 16.667V21.8184Z" fill="black"/>
</svg>
