<?xml version="1.0" encoding="UTF-8"?>
<svg width="24px" height="24px" viewBox="0 0 24 24" version="1.1" xmlns="http://www.w3.org/2000/svg" xmlns:xlink="http://www.w3.org/1999/xlink">
    <!-- Generator: sketchtool 60.1 (101010) - https://sketch.com -->
    <title>2966A72A-C331-45D4-9AFA-C0567948836D</title>
    <desc>Created with sketchtool.</desc>
    <g id="Asset-Artboard-Page" stroke="none" stroke-width="1" fill="none" fill-rule="evenodd">
        <g id="Icons/24px/arrow-left-Copy-Icons/24px/arrow-right" fill="#2E3152" fill-rule="nonzero">
            <g id="keyboard-arrow-right" transform="translate(0.000000, 7.000000)">
                <path d="M18.9696699,1.21666991 C19.2625631,0.923776695 19.7374369,0.923776695 20.0303301,1.21666991 L20.0303301,1.21666991 L23.7803301,4.96666991 C23.8049299,4.99126976 23.8278288,5.01757056 23.8488352,5.04538075 C23.8568243,5.05587091 23.8643147,5.06633877 23.8715034,5.07694996 C23.8825387,5.09334194 23.893187,5.11049194 23.903145,5.12808416 C23.9112981,5.14237558 23.9189416,5.15700914 23.9260696,5.17182849 C23.934555,5.18948608 23.9425505,5.20790579 23.9498114,5.22669108 C23.9539715,5.23754351 23.957697,5.24790869 23.9611871,5.25833534 C23.9684207,5.27971655 23.9748291,5.3021728 23.980192,5.32503188 C23.9829853,5.3372739 23.9854242,5.34896718 23.9875819,5.360702 C23.9957051,5.40431196 24,5.45015442 24,5.497 L23.9963234,5.42260364 C23.9978395,5.43790188 23.9988867,5.45323781 23.999465,5.46858812 L24,5.497 C24,5.50691105 23.9998078,5.5167772 23.9994268,5.52659492 C23.9988542,5.54109054 23.9978527,5.55575909 23.9964221,5.57039361 C23.9943128,5.59228402 23.9913287,5.61336981 23.9874876,5.63415509 C23.9854242,5.64503282 23.9829853,5.6567261 23.9802653,5.66836702 C23.9748291,5.6918272 23.9684207,5.71428345 23.9610197,5.73628365 C23.957697,5.74609131 23.9539715,5.75645649 23.9500107,5.76675191 C23.9425505,5.78609421 23.934555,5.80451392 23.9258602,5.82253283 C23.9189416,5.83699086 23.9112981,5.85162442 23.9031392,5.86604532 C23.893187,5.88350806 23.8825387,5.90065806 23.8712371,5.91732907 C23.8451622,5.95593181 23.8147711,5.99288908 23.7803301,6.02733009 L23.8488352,5.94861925 C23.8471451,5.95085686 23.8454427,5.95308469 23.8437281,5.95530264 L23.7803301,6.02733009 L20.0303301,9.77733009 C19.7374369,10.0702233 19.2625631,10.0702233 18.9696699,9.77733009 C18.6767767,9.48443687 18.6767767,9.00956313 18.9696699,8.71666991 L18.9696699,8.71666991 L21.439,6.247 L0.75,6.247 C0.370304234,6.247 0.0565090391,5.96484612 0.006846616,5.59877056 L0,5.497 C0,5.08278644 0.335786438,4.747 0.75,4.747 L0.75,4.747 L21.439,4.747 L18.9696699,2.27733009 C18.7034034,2.01106352 18.6791973,1.59439984 18.8970518,1.30078835 Z" id="Combined-Shape"></path>
            </g>
        </g>
    </g>
</svg>