<?xml version="1.0" encoding="UTF-8"?>
<svg width="24px" height="24px" viewBox="0 0 24 24" version="1.1" xmlns="http://www.w3.org/2000/svg" xmlns:xlink="http://www.w3.org/1999/xlink">
    <!-- Generator: sketchtool 60 (101010) - https://sketch.com -->
    <title>769FB875-EC00-4AB9-847B-932437E45C1E</title>
    <desc>Created with sketchtool.</desc>
    <g id="Asset-Artboard-Page" stroke="none" stroke-width="1" fill="none" fill-rule="evenodd">
        <g id="Icons/24px/arrow-left-Copy-5-Icons/24px/country" fill="#2E3152" fill-rule="nonzero">
            <g id="flag" transform="translate(4.000000, 1.000000)">
                <path d="M0.242647059,2.0125 C0.242647059,1.81615947 0.319640038,1.62764788 0.457092429,1.48744644 C0.651801833,1.28884285 1.01641661,1.0409048 1.57788767,0.811824607 C2.44590019,0.457675499 3.56571906,0.25 4.96323529,0.25 C6.17039642,0.25 7.04260481,0.462798064 8.56924485,1.05882224 L8.56924485,1.05882224 L9.52043758,1.44079462 C11.0867816,2.068674 11.8564102,2.275 12.9044118,2.275 C14.1125941,2.275 15.0401098,2.102988 15.7231083,1.82432461 C15.9458342,1.73345242 16.1204741,1.63969837 16.2516361,1.55050825 L16.2516361,1.55050825 L16.320461,1.50161489 L16.4163984,1.41839045 C16.8932884,1.04374619 17.625,1.37609123 17.625,2.0125 L17.625,2.0125 L17.625,14.1625 C17.625,14.3588405 17.548007,14.5473521 17.4105546,14.6875536 C17.2158452,14.8861571 16.8512304,15.1340952 16.2897594,15.3631754 C15.4217469,15.7173245 14.301928,15.925 12.9044118,15.925 C11.6972506,15.925 10.8250422,15.7122019 9.29840221,15.1161778 L9.29840221,15.1161778 L8.34720947,14.7342054 C6.78086541,14.106326 6.0112369,13.9 4.96323529,13.9 C3.755053,13.9 2.82753731,14.072012 2.1445388,14.3506754 C1.98692426,14.4149821 1.85339048,14.480732 1.74230441,14.5452865 L1.74264706,21.25 C1.74264706,21.6642136 1.40686062,22 0.992647059,22 C0.578433496,22 0.242647059,21.6642136 0.242647059,21.25 L0.242647059,21.25 Z M4.96323529,1.75 C3.755053,1.75 2.82753731,1.922012 2.1445388,2.20067539 C1.98708629,2.26491602 1.85366505,2.33059686 1.74264706,2.39508739 L1.74264706,2.39508739 L1.74264706,12.8975076 L2.00240963,12.8070705 C2.80188612,12.5479582 3.78363812,12.4 4.96323529,12.4 C6.17039642,12.4 7.04260481,12.6127981 8.56924485,13.2088222 L8.56924485,13.2088222 L9.52043758,13.5907946 C11.0867816,14.218674 11.8564102,14.425 12.9044118,14.425 C14.1125941,14.425 15.0401098,14.252988 15.7231083,13.9743246 C15.8805608,13.910084 16.013982,13.8444031 16.125,13.7799126 L16.125,13.7799126 L16.125,3.27749237 C15.2814855,3.59233558 14.2150753,3.775 12.9044118,3.775 C11.6972506,3.775 10.8250422,3.56220194 9.29840221,2.96617776 L9.29840221,2.96617776 L8.34720947,2.58420538 C6.78086541,1.956326 6.0112369,1.75 4.96323529,1.75 Z" id="Combined-Shape"></path>
            </g>
        </g>
    </g>
</svg>