<?xml version="1.0" encoding="UTF-8"?>
<svg width="16px" height="16px" viewBox="0 0 16 16" version="1.1" xmlns="http://www.w3.org/2000/svg" xmlns:xlink="http://www.w3.org/1999/xlink">
    <!-- Generator: sketchtool 60.1 (101010) - https://sketch.com -->
    <title>F0BDEAB3-FE95-454B-B68B-62B770E38F52</title>
    <desc>Created with sketchtool.</desc>
    <g id="Asset-Artboard-Page" stroke="none" stroke-width="1" fill="none" fill-rule="evenodd">
        <g id="Icons/16px/close-Copy-2-Icons/16px/plus" fill="#2E3152" fill-rule="nonzero">
            <g id="add-circle" transform="translate(2.000000, 2.000000)">
                <path d="M6,0.75 C6.41421356,0.75 6.75,1.08578644 6.75,1.5 L6.75,1.5 L6.75,5.25 L10.5,5.25 C10.8796958,5.25 11.193491,5.53215388 11.2431534,5.89822944 L11.25,6 C11.25,6.41421356 10.9142136,6.75 10.5,6.75 L10.5,6.75 L6.75,6.75 L6.75,10.5 C6.75,10.8796958 6.46784612,11.193491 6.10177056,11.2431534 L6,11.25 C5.58578644,11.25 5.25,10.9142136 5.25,10.5 L5.25,10.5 L5.25,6.75 L1.5,6.75 C1.12030423,6.75 0.806509039,6.46784612 0.756846616,6.10177056 L0.75,6 C0.75,5.58578644 1.08578644,5.25 1.5,5.25 L1.5,5.25 L5.25,5.25 L5.25,1.5 C5.25,1.12030423 5.53215388,0.806509039 5.89822944,0.756846616 Z" id="Combined-Shape"></path>
            </g>
        </g>
    </g>
</svg>