<?xml version="1.0" encoding="UTF-8"?>
<svg width="24px" height="24px" viewBox="0 0 24 24" version="1.1" xmlns="http://www.w3.org/2000/svg" xmlns:xlink="http://www.w3.org/1999/xlink">
    <!-- Generator: sketchtool 62 (101010) - https://sketch.com -->
    <title>A7609FE8-C329-4B6D-B6AF-254902DA6C96</title>
    <desc>Created with sketchtool.</desc>
    <g id="Asset-Artboard-Page" stroke="none" stroke-width="1" fill="none" fill-rule="evenodd">
        <g id="Icons/24px/Edit" fill="#ffffff" fill-rule="nonzero">
            <g id="pencil">
                <path d="M1.92361221,15.8902231 L1.95471691,15.8521984 C1.96602432,15.8392051 1.97785379,15.8265081 1.99020532,15.8141349 L1.99627818,15.8076675 L16.4836565,1.32075228 C17.2476415,0.539140211 18.2736031,0.0727194485 19.3591146,0.00747632755 L19.592562,-0.000332530984 L19.826223,0.00431470529 C20.9125263,0.0548636954 21.9448378,0.50748035 22.7212715,1.28061302 C23.5478606,2.11014468 24.0084995,3.23574349 24.000768,4.40694272 C23.9926396,5.57801254 23.5168007,6.69727039 22.6853301,7.50933009 L22.6853301,7.50933009 L8.18533009,22.0093301 C8.15842603,22.0362341 8.12961523,22.0609516 8.0991797,22.0833218 L8.19079468,22.0038651 C8.15951355,22.0352011 8.12615011,22.0631922 8.09114891,22.0878381 C8.0162322,22.1427371 7.93150717,22.1823568 7.84132961,22.2054856 L7.84132961,22.2054856 L0.936329607,23.9764856 C0.384032412,24.1181392 -0.11808946,23.6160856 0.0234891207,23.0637691 L0.0234891207,23.0637691 L1.79348912,16.1587691 C1.79670512,16.1462231 1.8002403,16.1337826 1.80408833,16.1214586 C1.80915539,16.1067753 1.81431914,16.0917687 1.81997237,16.0769055 C1.82827358,16.0541095 1.83815072,16.0316614 1.84909278,16.0097633 C1.85363876,16.0011897 1.8579503,15.9929278 1.86242621,15.9847317 C1.87429262,15.9626089 1.88778459,15.9406909 1.90238266,15.9195014 C1.90739259,15.9124386 1.91245751,15.9053427 1.91766092,15.898317 L1.92361221,15.8902231 L1.92361221,15.8902231 Z M2.91927818,17.8016675 L1.791,22.208 L6.19927818,21.0766675 L2.91927818,17.8016675 Z M16.6052782,3.31966747 L3.58127818,16.3426675 L7.65827818,20.4126675 L20.6782782,7.39266747 L16.6052782,3.31966747 Z M19.6027165,1.49956845 L19.393567,1.50865721 C18.6995802,1.56386007 18.045629,1.86866675 17.5503301,2.37533009 L17.6682782,2.26166747 L21.7382634,6.33190373 C22.128348,5.90795959 22.3813526,5.37837017 22.4677082,4.81274891 L22.4916823,4.60598012 L22.5007688,4.39678625 C22.5058565,3.6260714 22.2027034,2.88529838 21.6608035,2.34146125 C21.1145742,1.79755959 20.3736049,1.49448061 19.6027165,1.49956845 L19.6027165,1.49956845 Z" id="Combined-Shape"></path>
            </g>
        </g>
    </g>
</svg>