<?xml version="1.0" encoding="UTF-8"?>
<svg width="24px" height="24px" viewBox="0 0 24 24" version="1.1" xmlns="http://www.w3.org/2000/svg" xmlns:xlink="http://www.w3.org/1999/xlink">
    <!-- Generator: sketchtool 60 (101010) - https://sketch.com -->
    <title>DCACEBEC-427C-4F1B-86FE-6A6EA525B0A1</title>
    <desc>Created with sketchtool.</desc>
    <g id="Asset-Artboard-Page" stroke="none" stroke-width="1" fill="none" fill-rule="evenodd">
        <g id="Icons/24px/arrow-left-Copy-16-Icons/24px/search-again" fill="#2E3152" fill-rule="nonzero">
            <g id="synchronize-arrows-search">
                <path d="M21.75,2.497 C22.1642136,2.497 22.5,2.83278644 22.5,3.247 C22.5,3.66121356 22.1642136,3.997 21.75,3.997 L21.75,3.997 L18.287374,3.9966356 C20.6870072,6.49622573 21.6184719,10.142921 20.5866549,13.5636525 C20.1858947,14.8922729 19.5195112,16.0855229 18.656163,17.0924108 L23.7803301,22.2166699 C24.0732233,22.5095631 24.0732233,22.9844369 23.7803301,23.2773301 C23.4874369,23.5702233 23.0125631,23.5702233 22.7196699,23.2773301 L22.7196699,23.2773301 L17.5949852,18.1527992 C15.8696369,19.6301935 13.6379536,20.4985476 11.2498281,20.4980002 C10.8356145,20.4980002 10.5,20.1620416 10.5,19.7478281 C10.5,19.3336145 10.8359584,18.9979051 11.2501719,18.998 C13.4864286,18.9985127 15.5605664,18.0985948 17.0713216,16.5962601 L17.0836699,16.5806699 C17.0890586,16.5752812 17.094509,16.5699916 17.1000186,16.5648012 C18.0344752,15.6287954 18.7496214,14.4596996 19.1505638,13.1304753 C20.055546,10.1302329 19.1756525,6.92456057 16.9774545,4.80737284 L16.977,8.771 C16.977,9.18521356 16.6412136,9.521 16.227,9.521 C15.8127864,9.521 15.477,9.18521356 15.477,8.771 L15.477,8.771 L15.477,3.247 C15.477,3.17346208 15.4875837,3.10239612 15.5073109,3.03524224 C15.5100447,3.02698545 15.5127013,3.01855726 15.5155141,3.01016025 C15.5238644,2.98404591 15.5337784,2.95897053 15.5449604,2.93459785 C15.5612509,2.90038317 15.5801545,2.8663552 15.602,2.83342193 L15.5535819,2.91645413 C15.5658992,2.89140777 15.5795726,2.86714864 15.5945064,2.84377256 L15.602,2.83342193 C15.605548,2.8280731 15.6091528,2.82278453 15.612813,2.81755649 C15.6279907,2.79474267 15.6453344,2.77267967 15.6638364,2.7516608 C15.6674002,2.74848518 15.6705936,2.74492174 15.6738156,2.74139477 C15.694937,2.71747337 15.7176897,2.69554808 15.7417483,2.67511388 C15.7449196,2.67318795 15.7479944,2.67062106 15.7510869,2.66808148 C15.774111,2.64837823 15.7984225,2.6307012 15.8237726,2.61450638 C15.8288265,2.61218452 15.8332771,2.60942282 15.8377529,2.60671027 C15.9506887,2.53691873 16.0841826,2.497 16.227,2.497 L16.227,2.497 Z M11.2501719,0.996999522 C11.6643854,0.996999522 12,1.3329581 12,1.74717165 C12,2.1613852 11.6640417,2.49709467 11.2498281,2.49699952 C7.6104396,2.49616566 4.40043643,4.88019595 3.34943616,8.36452474 C2.44445397,11.3647671 3.32434746,14.5704394 5.52254544,16.687627 L5.523,12.724 C5.523,12.3097864 5.85878644,11.974 6.273,11.974 C6.68721356,11.974 7.023,12.3097864 7.023,12.724 L7.023,12.724 L7.023,18.247 C7.023,18.3197875 7.0126312,18.3901533 6.99329009,18.4567008 C6.99027807,18.4670604 6.98698966,18.477492 6.98346179,18.4878751 C6.97557398,18.5111629 6.96673885,18.5335262 6.95689125,18.5553342 C6.94052592,18.5914039 6.92087594,18.6270911 6.89800004,18.6615778 L6.9409187,18.5885006 C6.93135684,18.6071646 6.92103567,18.6253752 6.90999595,18.6430918 L6.89800004,18.6615778 C6.89303282,18.6690662 6.88795431,18.6764364 6.88276815,18.6836878 C6.87060346,18.700762 6.85722942,18.71783 6.84315574,18.7342817 C6.8360473,18.7427126 6.82881066,18.7508321 6.8214278,18.7587631 C6.80454649,18.7766514 6.78732704,18.7933914 6.7693393,18.8092817 C6.76061725,18.8172314 6.75145181,18.8249486 6.74213142,18.8324212 C6.7276994,18.8437685 6.71319292,18.8545668 6.69829661,18.8648404 C6.68459825,18.8744174 6.67064717,18.8833376 6.65644995,18.8917671 C6.64071334,18.9010907 6.62430599,18.9100692 6.60754124,18.9184384 C6.59444053,18.9248963 6.58161133,18.9308164 6.56864043,18.9363648 C6.47822774,18.9753651 6.37814042,18.997 6.273,18.997 L6.273,18.997 L0.75,18.997 C0.335786438,18.997 0,18.6612136 0,18.247 C0,17.8327864 0.335786438,17.497 0.75,17.497 L0.75,17.497 L4.21262603,17.4983643 C1.81299281,14.9987743 0.881528093,11.3520791 1.91334513,7.93134747 C3.15543635,3.81350436 6.94907643,0.996014051 11.2501719,0.996999522 Z" id="Combined-Shape"></path>
            </g>
        </g>
    </g>
</svg>