<?xml version="1.0" encoding="UTF-8"?>
<svg width="24px" height="24px" viewBox="0 0 24 24" version="1.1" xmlns="http://www.w3.org/2000/svg" xmlns:xlink="http://www.w3.org/1999/xlink">
    <!-- Generator: sketchtool 60 (101010) - https://sketch.com -->
    <title>DF8DE6BF-5914-4FB6-9FE9-F17BFC88B644</title>
    <desc>Created with sketchtool.</desc>
    <g id="Asset-Artboard-Page" stroke="none" stroke-width="1" fill="none" fill-rule="evenodd">
        <g id="Icons/24px/arrow-left-Copy-17-Icons/24px/Target" fill="#2E3152" fill-rule="nonzero">
            <g id="target-center" transform="translate(1.000000, 0.000000)">
                <path d="M0.973763123,8.87018403 C2.78007477,4.64776231 7.12089111,2.08918232 11.6898836,2.55384875 C12.1019715,2.59575809 12.4020606,2.96379561 12.3601512,3.37588357 C12.3182419,3.78797152 11.9502044,4.08806058 11.5381164,4.04615125 C7.62183719,3.64786573 3.90113747,5.8409343 2.35287034,9.46015292 C0.804603213,13.0793715 1.78807085,17.2848379 4.78074491,19.8421366 C7.77341897,22.3994353 12.0807977,22.7151008 15.4143183,20.6214163 C18.7478389,18.5277318 20.3339003,14.5105729 19.3298087,10.7043051 C19.2241539,10.303793 19.4631828,9.89346363 19.8636949,9.78780874 C20.264207,9.68215386 20.6745364,9.92118283 20.7801913,10.3216949 C21.9516314,14.7623407 20.1012265,19.449026 16.2121191,21.891658 C12.3230117,24.3342899 7.29773653,23.9660134 3.80628345,20.9824983 C0.31483038,17.9989832 -0.832548525,13.0926058 0.973763123,8.87018403 Z M10.621514,7 C11.0357275,6.99973177 11.3717315,7.33530057 11.3719998,7.74951405 C11.3722682,8.16372752 11.0366994,8.49973146 10.622486,8.5 C8.70222623,8.50124406 6.99422379,9.72061136 6.36936647,11.5363625 C5.74450914,13.3521137 6.34042131,15.3643308 7.85325525,16.547011 C9.3660892,17.7296911 11.4626443,17.8223499 13.0739149,16.7777418 C14.6851855,15.7331338 15.4562903,13.781333 14.9940533,11.9175369 C14.8943455,11.515503 15.1394292,11.108761 15.5414631,11.0090533 C15.943497,10.9093455 16.350239,11.1544292 16.4499467,11.5564631 C17.0662285,14.0413866 16.0381459,16.643643 13.8899044,18.0363765 C11.7416629,19.4291099 8.94641142,19.3055717 6.92941152,17.7287524 C4.91241163,16.151933 4.11790621,13.4691259 4.95100304,11.0482589 C5.78409987,8.62739178 8.06130995,7.00165902 10.621514,7 Z M18.7356407,1.60907256 L19.1419759,3.7330241 L21.2659274,4.13935934 C21.8541699,4.25189658 22.0797167,4.97453855 21.6599214,5.40169865 L18.4679214,8.64969865 C18.3541276,8.76548884 18.2058346,8.84122918 18.0453189,8.86554195 L14.5389747,9.39632842 L10.5463301,13.3893301 C10.2800635,13.6555966 9.86339984,13.6798027 9.56978835,13.4619482 L9.48566991,13.3893301 C9.1927767,13.0964369 9.1927767,12.6215631 9.48566991,12.3286699 L9.48566991,12.3286699 L13.4779747,8.33532842 L14.009458,4.82968111 C14.0337708,4.66916542 14.1095112,4.52087238 14.2253014,4.40707857 L17.4733014,1.21507857 C17.9004615,0.795283304 18.6231034,1.0208301 18.7356407,1.60907256 Z M17.5255813,3.26681263 L15.4550856,5.30161014 L15.0769596,7.7980404 L17.5733899,7.41991443 L19.6081874,5.34941872 L18.3600726,5.11064066 C18.0581978,5.05288871 17.8221113,4.81680215 17.7643593,4.51492744 L17.5255813,3.26681263 Z" id="Combined-Shape"></path>
            </g>
        </g>
    </g>
</svg>