<?xml version="1.0" encoding="UTF-8"?>
<svg width="24px" height="24px" viewBox="0 0 24 24" version="1.1" xmlns="http://www.w3.org/2000/svg" xmlns:xlink="http://www.w3.org/1999/xlink">
    <!-- Generator: sketchtool 60.1 (101010) - https://sketch.com -->
    <title>743747DF-0B91-4159-8F16-55D454CDCFB7</title>
    <desc>Created with sketchtool.</desc>
    <g id="Asset-Artboard-Page" stroke="none" stroke-width="1" fill="none" fill-rule="evenodd">
        <g id="Icons/24px/Map-Icons/24px/world" fill="#2E3152" fill-rule="nonzero">
            <g id="Earth-1">
                <path d="M12,0 C18.4600546,0 23.7278517,5.10466112 23.9897878,11.5003798 C23.9913158,11.5345053 23.9926011,11.5681586 23.9937445,11.601818 C23.9947331,11.6390105 23.9957955,11.676967 23.9966813,11.7149672 C24.0039971,11.9990341 24.0008632,12.2827569 23.9876236,12.5662866 C23.9848099,12.6107181 23.9825058,12.6550568 23.9799616,12.6993312 C23.9767603,12.7668766 23.9722688,12.8345311 23.9672004,12.9021621 C23.9570531,13.0305656 23.945496,13.1583311 23.9319522,13.285503 C23.9245197,13.357525 23.9161277,13.4294833 23.9070774,13.5013894 C23.1660237,19.4221778 18.1176157,24 12,24 C5.46313981,24 0.147055883,18.7732355 0.00299874352,12.2709571 C-0.00348331953,11.9982524 -0.000497384493,11.7250271 0.0119241266,11.4513034 C0.0145900346,11.4008682 0.0171865242,11.3502257 0.0200960178,11.299667 C0.0226187636,11.2506146 0.0257640802,11.2016662 0.0292124709,11.1527069 C0.0339319357,11.0884518 0.0389149913,11.0243971 0.0443989982,10.9604855 C0.0478556879,10.9194983 0.051650206,10.8781741 0.0556617899,10.836846 C0.640762683,4.75506512 5.76507886,0 12,0 Z M12,1.5 C7.24345149,1.5 3.22561216,4.66278992 1.93480373,9.00004801 L6.329,9 C7.36126731,9 8.26108048,9.7025676 8.51160688,10.7040983 L9.2615823,13.704 C9.42971741,14.3761545 9.27879751,15.0882887 8.85246712,15.6344604 C8.42613673,16.1806321 7.77194674,16.499924 7.079,16.5 L6.61490076,16.5 L5.81710645,20.4874712 C7.55150253,21.7530971 9.68852701,22.5 12,22.5 C15.5664861,22.5 18.7176638,20.7218534 20.6153624,18.003731 L20.021238,18.0030003 C18.9213108,18.003349 17.9823593,17.2084124 17.8011877,16.1231982 L17.1145667,12 L16.1709177,12 C15.4780533,11.999924 14.8238633,11.6806321 14.3975329,11.1344604 C13.9712025,10.5882887 13.8202826,9.87615454 13.9883931,9.20409828 L14.7384177,6.204 C14.9889195,5.2025676 15.8887327,4.5 16.921,4.5 L19.3487825,4.50030222 C17.45495,2.6443437 14.8611129,1.5 12,1.5 Z M6.329,10.5 L1.60668676,10.5 L1.56376639,10.8366826 L1.54084504,11.0674583 C1.51380616,11.3746986 1.5,11.685737 1.5,12 L1.50267378,12.2453052 C1.50314667,12.2650136 1.50367509,12.2847164 1.50425896,12.3044133 C1.50610959,12.3669968 1.50843995,12.4294682 1.51131375,12.4917978 L1.50425896,12.3044133 C1.5822398,14.9351118 2.64930944,17.4604573 4.51441487,19.3551494 L5.26455328,15.602969 C5.33464438,15.2523744 5.64246773,15 6,15 L7.0789177,15 C7.30987252,14.9999747 7.52793585,14.893544 7.67004598,14.7114868 C7.81215611,14.5294296 7.86246274,14.2920515 7.80639312,14.0679017 L7.0564177,11.068 C6.97291371,10.7341757 6.67299333,10.5 6.329,10.5 Z M20.6034944,6 L16.921,6 C16.5770067,6 16.2770863,6.23417566 16.1936069,6.56790172 L15.4435823,9.568 C15.3875373,9.79205152 15.4378439,10.0294296 15.579954,10.2114868 C15.7220642,10.393544 15.9401275,10.4999747 16.171,10.5 L17.75,10.5 C18.1166681,10.5 18.4295818,10.7651144 18.4898123,11.1268018 L19.280762,15.8765 C19.3411357,16.2381375 19.6541196,16.5031164 20.021,16.5030002 L21.4839963,16.5030002 C21.8204305,15.7974411 22.07262,15.065344 22.2416691,14.3205083 C22.2481001,14.2966458 22.2535059,14.2722812 22.2588269,14.247885 L22.2416691,14.3205083 C22.3151716,13.9966542 22.3729563,13.6703919 22.4151141,13.3428556 C22.4220138,13.2874036 22.4286766,13.2316754 22.4349011,13.1758149 L22.4151141,13.3428556 C22.4279405,13.2432037 22.4393203,13.1434338 22.4492562,13.0435779 L22.4349011,13.1758149 C22.4453127,13.082378 22.4544982,12.9885707 22.4624412,12.8944098 L22.4492562,13.0435779 C22.4593034,12.9426031 22.4678741,12.8415405 22.474971,12.7404229 L22.4624412,12.8944098 C22.487312,12.5995734 22.5,12.3012684 22.5,12 C22.5,11.8462772 22.4966966,11.693326 22.4901569,11.5412134 C22.4079454,9.69652109 21.837642,7.87670447 20.7954249,6.28324837 L20.6034944,6 Z" id="Combined-Shape"></path>
            </g>
        </g>
    </g>
</svg>