<?xml version="1.0" encoding="UTF-8"?>
<svg width="320px" height="60px" viewBox="0 0 320 60" version="1.1" xmlns="http://www.w3.org/2000/svg" xmlns:xlink="http://www.w3.org/1999/xlink">
    <!-- Generator: sketchtool 60.1 (101010) - https://sketch.com -->
    <title>C6B4B517-0CBA-4CF5-A6CE-E84127C0840A</title>
    <desc>Created with sketchtool.</desc>
    <defs>
        <polygon id="path-1" points="0.0179692315 0.164251757 6.78518584 0.164251757 6.78518584 10.127799 0.0179692315 10.127799"></polygon>
    </defs>
    <g id="Asset-Artboard-Page" stroke="none" stroke-width="1" fill="none" fill-rule="evenodd">
        <g id="GRI-logo">
            <path d="M163.749956,8.43233563 L163.749956,4.04744054 L159.308894,4.04744054 L159.308894,5.73941256 L161.84674,5.73941256 L161.84674,7.86841955 C161.282824,8.31955241 160.549733,8.62948248 159.647243,8.62948248 C157.744027,8.62948248 156.277621,7.16330067 156.277621,5.24598599 C156.277621,3.37074124 157.687635,1.86226573 159.56288,1.86226573 C160.535411,1.86226573 161.367411,2.28520279 161.959523,2.87731467 L163.18604,1.58030768 C162.297873,0.72033566 161.042936,0.170293704 159.576978,0.170293704 C156.503411,0.170293704 154.374181,2.41208391 154.374181,5.24598599 C154.374181,8.0796643 156.531383,10.3214545 159.60495,10.3214545 C161.409481,10.3214545 162.875887,9.54606989 163.749956,8.43233563 Z" id="Fill-1" fill="#FFFFFF"></path>
            <path d="M166.595866,5.88034696 C166.821433,5.47150779 167.455839,4.89349379 168.259643,4.89349379 C168.527279,4.89349379 168.795363,4.92168959 168.922244,4.9639833 L169.133713,3.25791332 C168.936118,3.22971752 168.781265,3.20152171 168.513181,3.20152171 C167.681629,3.20152171 166.934216,3.52599725 166.525377,4.03352174 L166.525377,3.34272451 L164.763139,3.34272451 L164.763139,10.180431 L166.595866,10.180431 L166.595866,5.88034696 Z" id="Fill-3" fill="#FFFFFF"></path>
            <path d="M172.728862,4.89347134 C173.433757,4.89347134 174.039967,5.23182098 174.420834,5.73934543 L174.420834,7.78376495 C174.068162,8.29128941 173.461953,8.62963905 172.770932,8.62963905 C171.742009,8.62963905 170.9664,7.84015656 170.9664,6.76849225 C170.9664,5.78163914 171.657421,4.89347134 172.728862,4.89347134 M170.007743,9.16535945 C170.613953,9.87025456 171.57261,10.3213874 172.587883,10.3213874 C173.278904,10.3213874 173.927183,10.1101427 174.491099,9.63059022 L174.491099,10.1804084 L176.253561,10.1804084 L176.253561,3.3427021 L174.491099,3.3427021 L174.491099,3.89252029 C173.955379,3.45548532 173.264582,3.20149931 172.489197,3.20149931 C170.628051,3.20149931 169.133673,4.75249231 169.133673,6.76849232 C169.133673,7.69917763 169.472023,8.54505176 170.007743,9.16535945" id="Fill-5" fill="#FFFFFF"></path>
            <path d="M179.089097,5.73939035 C179.34286,5.38694278 179.977265,4.8935162 180.752874,4.8935162 C181.175811,4.8935162 181.542132,5.03449522 181.78202,5.27415956 C182.035559,5.52792181 182.19086,5.88036937 182.19086,6.55706869 L182.19086,10.1804534 L184.023587,10.1804534 L184.023587,6.69804771 C184.023587,5.52792181 183.769825,4.83712459 183.318692,4.30118052 C182.754776,3.6244812 181.894804,3.20154412 180.95002,3.20154412 C180.188734,3.20154412 179.54023,3.46940427 179.018608,3.89256512 L179.018608,3.34274692 L177.256146,3.34274692 L177.256146,10.1804534 L179.089097,10.1804534 L179.089097,5.73939035 Z" id="Fill-7" fill="#FFFFFF"></path>
            <path d="M186.139586,7.23755004 C186.139586,8.21052911 186.294663,8.81673893 186.64711,9.28196972 C187.112341,9.90227745 187.915921,10.2688229 189.015782,10.2688229 C189.368229,10.2688229 189.918047,10.2124313 190.157712,10.1278439 L189.875754,8.57685081 C189.748872,8.60527039 189.396425,8.6475641 189.128565,8.6475641 C188.677432,8.6475641 188.381376,8.52068297 188.198103,8.30921443 C188.043026,8.12571791 187.972313,7.87195566 187.972313,7.44901858 L187.972313,4.84090655 L190.228201,4.84090655 L190.228201,3.28991346 L187.972313,3.28991346 L187.972313,1.38669658 L186.139586,1.38669658 L186.139586,3.28991346 L184.236369,3.28991346 L184.236369,4.84090655 L186.139586,4.84090655 L186.139586,7.23755004 Z" id="Fill-9" fill="#FFFFFF"></path>
            <g id="Group-13" transform="translate(190.881119, 0.000000)">
                <mask id="mask-2" fill="white">
                    <use xlink:href="#path-1"></use>
                </mask>
                <g id="Clip-12"></g>
                <path d="M1.85069646,5.68673596 C2.10445869,5.33428839 2.73886427,4.84086179 3.51447264,4.84086179 C3.93740969,4.84086179 4.30395514,4.98184082 4.54361946,5.22150517 C4.7973817,5.47526742 4.95245862,5.82771499 4.95245862,6.50441433 L4.95245862,10.1277991 L6.78518584,10.1277991 L6.78518584,6.64539336 C6.78518584,5.47526742 6.53142361,4.78447018 6.08029075,4.24874987 C5.51637468,3.57182676 4.65640268,3.14888968 3.71161949,3.14888968 C3.0067244,3.14888968 2.35822092,3.38855402 1.85069646,3.78351908 L1.85069646,0.164162245 L0.0179692315,0.164162245 L0.0179692315,10.1277991 L1.85069646,10.1277991 L1.85069646,5.68673596 Z" id="Fill-11" fill="#FFFFFF" mask="url(#mask-2)"></path>
            </g>
            <path d="M202.054801,4.84079437 C202.759697,4.84079437 203.365906,5.17914401 203.746773,5.68666847 L203.746773,7.73108798 C203.394102,8.23861244 202.787892,8.57696208 202.096871,8.57696208 C201.067724,8.57696208 200.29234,7.78747959 200.29234,6.71603906 C200.29234,5.72896217 200.983361,4.84079437 202.054801,4.84079437 M201.913822,10.2687105 C202.604843,10.2687105 203.253123,10.0574657 203.817039,9.57791325 L203.817039,10.1277314 L205.579501,10.1277314 L205.579501,3.28980136 L203.817039,3.28980136 L203.817039,3.83984332 C203.281319,3.40280835 202.590522,3.14882234 201.815137,3.14882234 C199.95399,3.14882234 198.459613,4.69981535 198.459613,6.71603912 C198.459613,7.64650066 198.797962,8.49237479 199.333683,9.11268248 C199.939892,9.81757759 200.89855,10.2687105 201.913822,10.2687105" id="Fill-14" fill="#FFFFFF"></path>
            <path d="M208.425308,5.68673578 C208.67907,5.36248403 209.242986,4.84086164 210.018595,4.84086164 C210.370818,4.84086164 210.765783,4.95364486 211.047742,5.26379871 C211.25921,5.50346305 211.386091,5.81361691 211.386091,6.43392462 L211.386091,10.1277988 L213.218818,10.1277988 L213.218818,6.50441413 C213.218818,6.22245608 213.190623,5.96869383 213.162427,5.74312739 C213.402315,5.39067983 214.022623,4.84086164 214.812105,4.84086164 C215.164553,4.84086164 215.559294,4.95364486 215.841252,5.26379871 C216.052721,5.50346305 216.179602,5.81361691 216.179602,6.43392462 L216.179602,10.1277988 L218.012553,10.1277988 L218.012553,6.50441413 C218.012553,5.48936515 217.758791,4.78447003 217.321532,4.24874973 C216.771714,3.57182664 215.869448,3.14888956 214.924888,3.14888956 C213.909616,3.14888956 213.049867,3.64253992 212.499825,4.22055393 C211.964105,3.57182664 211.132329,3.14888956 210.201644,3.14888956 C209.539266,3.14888956 208.890762,3.3603581 208.354818,3.83991056 L208.354818,3.28986859 L206.592357,3.28986859 L206.592357,10.1277988 L208.425308,10.1277988 L208.425308,5.68673578 Z" id="Fill-16" fill="#FFFFFF"></path>
            <path d="M173.667448,20.2230161 C173.498273,20.4062888 173.258609,20.5190721 172.708791,20.5190721 L171.129602,20.5190721 L171.129602,18.4041629 L172.708791,18.4041629 C173.258609,18.4041629 173.498273,18.531044 173.667448,18.7143167 C173.836623,18.8978132 173.949406,19.1795475 173.949406,19.4758273 C173.949406,19.7575615 173.836623,20.0397434 173.667448,20.2230161 M174.978552,21.4777295 C175.514273,20.970205 175.852622,20.2509882 175.852622,19.4617294 C175.852622,18.6720231 175.514273,17.95303 174.978552,17.4455055 C174.485126,16.9943727 173.836622,16.7124146 172.821574,16.7124146 L169.226385,16.7124146 L169.226385,26.5816177 L171.129602,26.5816177 L171.129602,22.2108204 L171.820623,22.2108204 L175.331224,26.5816177 L177.685573,26.5816177 L173.991699,22.0557435 C174.386441,21.9288623 174.710692,21.7314917 174.978552,21.4777295" id="Fill-18" fill="#FFFFFF"></path>
            <path d="M180.357131,21.0830327 C181.10432,21.0830327 181.654138,21.6751447 181.71053,22.2813545 L178.890949,22.2813545 C178.975313,21.6610467 179.595844,21.0830327 180.357131,21.0830327 M183.4166,25.4958998 L182.373131,24.4526551 C182.048879,24.8051026 181.428572,25.2419138 180.653187,25.2419138 C179.680432,25.2419138 178.905047,24.5795362 178.806138,23.6206551 L183.543481,23.6206551 C183.571677,23.4655781 183.585774,23.2823054 183.585774,23.0990327 C183.585774,21.1958159 182.24625,19.6025292 180.357131,19.6025292 C178.326809,19.6025292 177.029802,21.2663054 177.029802,23.1695222 C177.029802,25.3126271 178.566697,26.7224173 180.610893,26.7224173 C181.668236,26.7224173 182.753774,26.2853823 183.4166,25.4958998" id="Fill-20" fill="#FFFFFF"></path>
            <path d="M187.485311,24.5936341 C187.485311,24.9319837 187.104668,25.1716481 186.611241,25.1716481 C185.920444,25.1716481 185.201227,24.9178858 184.735996,24.4949488 L183.848052,25.8060537 C184.651409,26.3981656 185.652584,26.7224173 186.597143,26.7224173 C188.035129,26.7224173 189.318038,25.9188369 189.318038,24.607732 C189.318038,22.2390607 186.005031,22.5915082 186.005031,21.7033404 C186.005031,21.3508928 186.427745,21.1532984 186.935493,21.1532984 C187.42892,21.1532984 187.89415,21.3649907 188.246598,21.618753 L189.106794,20.2933264 C188.655437,19.9408788 187.682682,19.6025292 186.794514,19.6025292 C185.441115,19.6025292 184.17208,20.4202075 184.17208,21.7315362 C184.17208,23.9310327 187.485311,23.5642635 187.485311,24.5936341" id="Fill-22" fill="#FFFFFF"></path>
            <path d="M192.907612,21.0830327 C193.654801,21.0830327 194.204619,21.6751447 194.26101,22.2813545 L191.44143,22.2813545 C191.525794,21.6610467 192.146325,21.0830327 192.907612,21.0830327 M193.161374,26.7224173 C194.218717,26.7224173 195.304255,26.2853823 195.96708,25.4958998 L194.923612,24.4526551 C194.59936,24.8051026 193.979052,25.2419138 193.203668,25.2419138 C192.230912,25.2419138 191.455528,24.5795362 191.356619,23.6206551 L196.093962,23.6206551 C196.122157,23.4655781 196.136255,23.2823054 196.136255,23.0990327 C196.136255,21.1958159 194.796731,19.6025292 192.907612,19.6025292 C190.87729,19.6025292 189.580283,21.2663054 189.580283,23.1695222 C189.580283,25.3126271 191.117178,26.7224173 193.161374,26.7224173" id="Fill-24" fill="#FFFFFF"></path>
            <path d="M201.87155,24.1846601 C201.519102,24.6921846 200.912892,25.030758 200.221871,25.030758 C199.192724,25.030758 198.41734,24.2410517 198.41734,23.1696111 C198.41734,22.1827579 199.108137,21.2943662 200.179578,21.2943662 C200.884696,21.2943662 201.490906,21.6329397 201.87155,22.1404642 L201.87155,24.1846601 Z M203.704277,26.5815271 L203.704277,19.743597 L201.942039,19.743597 L201.942039,20.2934152 C201.406319,19.8563802 200.715522,19.602618 199.939913,19.602618 C198.07899,19.602618 196.584613,21.1533872 196.584613,23.169611 C196.584613,24.1000725 196.922962,24.9459466 197.458683,25.5662543 C198.064892,26.2713732 199.023326,26.7225061 200.038599,26.7225061 C200.72962,26.7225061 201.377899,26.5110376 201.942039,26.0317089 L201.942039,26.5815271 L203.704277,26.5815271 Z" id="Fill-26" fill="#FFFFFF"></path>
            <path d="M204.717384,19.7436653 L204.717384,26.5815955 L206.550335,26.5815955 L206.550335,22.2812877 C206.775902,21.8724486 207.410307,21.2944346 208.213888,21.2944346 C208.481972,21.2944346 208.749832,21.3226304 208.876489,21.3649241 L209.087958,19.6590779 C208.890587,19.6308821 208.735734,19.6026863 208.46765,19.6026863 C207.635874,19.6026863 206.888685,19.926938 206.479622,20.4342387 L206.479622,19.7436653 L204.717384,19.7436653 Z" id="Fill-28" fill="#FFFFFF"></path>
            <path d="M215.855482,25.185746 L214.445468,24.1284033 C214.149412,24.5795362 213.5573,25.0306691 212.810111,25.0306691 C211.696377,25.0306691 210.920768,24.2409628 210.920768,23.1695222 C210.920768,22.1262774 211.710251,21.2942774 212.767817,21.2942774 C213.430419,21.2942774 213.980237,21.6328509 214.346782,22.1121795 L215.644013,20.9702495 C215.009607,20.1523474 213.952041,19.6025292 212.767817,19.6025292 C210.681104,19.6025292 209.088041,21.1814942 209.088041,23.1695222 C209.088041,25.1434523 210.63881,26.7224173 212.753719,26.7224173 C214.036852,26.7224173 215.051677,26.2571865 215.855482,25.185746" id="Fill-30" fill="#FFFFFF"></path>
            <path d="M216.417682,16.5713457 L216.417682,26.5815281 L218.250409,26.5815281 L218.250409,22.1404649 C218.504171,21.7880173 219.138801,21.294367 219.914185,21.294367 C220.337123,21.294367 220.703668,21.435346 220.943332,21.6752341 C221.197095,21.9287726 221.352172,22.2814439 221.352172,22.9581433 L221.352172,26.5815281 L223.185123,26.5815281 L223.185123,23.0991223 C223.185123,21.9287726 222.931137,21.2379753 222.480004,20.702255 C221.916088,20.0255557 221.056116,19.6026186 220.111556,19.6026186 C219.406437,19.6026186 218.757934,19.842283 218.250409,20.2370242 L218.250409,16.5713457 L216.417682,16.5713457 Z" id="Fill-32" fill="#FFFFFF"></path>
            <polygon id="Fill-34" fill="#FFFFFF" points="227.289964 26.5899868 229.193181 26.5899868 229.193181 16.7207837 227.289964 16.7207837"></polygon>
            <path d="M232.039081,22.1403976 C232.292843,21.78795 232.927249,21.2942997 233.702857,21.2942997 C234.125794,21.2942997 234.492116,21.4355025 234.732004,21.6751668 C234.985766,21.9289291 235.140843,22.2813766 235.140843,22.9580759 L235.140843,26.5814607 L236.97357,26.5814607 L236.97357,23.099055 C236.97357,21.9289291 236.719808,21.2381318 236.268675,20.7021878 C235.704759,20.0254885 234.844787,19.6025514 233.900004,19.6025514 C233.138941,19.6025514 232.490214,19.8704115 231.968591,20.2933486 L231.968591,19.7437542 L230.20613,19.7437542 L230.20613,26.5814607 L232.039081,26.5814607 L232.039081,22.1403976 Z" id="Fill-36" fill="#FFFFFF"></path>
            <path d="M243.014467,24.607732 C243.014467,22.2390607 239.701237,22.5915082 239.701237,21.7033404 C239.701237,21.3508928 240.124174,21.1532984 240.631922,21.1532984 C241.125125,21.1532984 241.590356,21.3649907 241.942803,21.618753 L242.802999,20.2933264 C242.351866,19.9411026 241.378887,19.6025292 240.490719,19.6025292 C239.137321,19.6025292 237.868286,20.4202075 237.868286,21.7315362 C237.868286,23.9310327 241.181516,23.5642635 241.181516,24.5936341 C241.181516,24.9319837 240.800873,25.1716481 240.307447,25.1716481 C239.616649,25.1716481 238.897656,24.9178858 238.432426,24.4949488 L237.544034,25.8060537 C238.347838,26.3981656 239.348789,26.7224173 240.293349,26.7224173 C241.731335,26.7224173 243.014467,25.9188369 243.014467,24.607732" id="Fill-37" fill="#FFFFFF"></path>
            <path d="M246.984447,17.840247 L245.15172,17.840247 L245.15172,19.7436877 L243.248279,19.7436877 L243.248279,21.294457 L245.15172,21.294457 L245.15172,23.6913242 C245.15172,24.6640795 245.306573,25.2702894 245.659244,25.7355201 C246.124475,26.3560516 246.928055,26.7223733 248.027915,26.7223733 C248.380139,26.7223733 248.929957,26.6659817 249.169845,26.5816181 L248.887663,25.030625 C248.760782,25.0588208 248.408335,25.1011145 248.140475,25.1011145 C247.689342,25.1011145 247.393286,24.9742334 247.210013,24.7627648 C247.054936,24.5794921 246.984447,24.3257299 246.984447,23.9027928 L246.984447,21.294457 L249.240111,21.294457 L249.240111,19.7436877 L246.984447,19.7436877 L246.984447,17.840247 Z" id="Fill-38" fill="#FFFFFF"></path>
            <polygon id="Fill-39" fill="#FFFFFF" points="249.915073 26.581482 251.748024 26.581482 251.748024 19.743552 249.915073 19.743552"></polygon>
            <path d="M250.831462,18.4887494 C251.494063,18.4887494 252.029784,17.9812249 252.029784,17.3186235 C252.029784,16.6560221 251.494063,16.1484976 250.831462,16.1484976 C250.168861,16.1484976 249.63314,16.6560221 249.63314,17.3186235 C249.63314,17.9812249 250.168861,18.4887494 250.831462,18.4887494" id="Fill-40" fill="#FFFFFF"></path>
            <path d="M254.32195,23.6913242 C254.32195,24.6640795 254.477027,25.2702894 254.829699,25.7355201 C255.294929,26.3560516 256.098286,26.7223733 257.198146,26.7223733 C257.550594,26.7223733 258.100412,26.6659817 258.340076,26.5816181 L258.058118,25.030625 C257.931237,25.0588208 257.578789,25.1011145 257.310929,25.1011145 C256.859796,25.1011145 256.56374,24.9742334 256.380468,24.7627648 C256.225391,24.5794921 256.154678,24.3257299 256.154678,23.9027928 L256.154678,21.294457 L258.410566,21.294457 L258.410566,19.7436877 L256.154678,19.7436877 L256.154678,17.840247 L254.32195,17.840247 L254.32195,19.7436877 L252.418734,19.7436877 L252.418734,21.294457 L254.32195,21.294457 L254.32195,23.6913242 Z" id="Fill-41" fill="#FFFFFF"></path>
            <path d="M262.098381,26.7224613 C262.760983,26.7224613 263.409486,26.5109927 263.94543,26.031664 L263.94543,26.5814822 L265.707668,26.5814822 L265.707668,19.743552 L263.874941,19.743552 L263.874941,24.184615 C263.621179,24.5088668 263.057262,25.030713 262.281654,25.030713 C261.929207,25.030713 261.534465,24.9179297 261.252507,24.6077759 C261.041039,24.3678878 260.914158,24.0577339 260.914158,23.4374262 L260.914158,19.743552 L259.08143,19.743552 L259.08143,23.3669367 C259.08143,24.3822095 259.334969,25.0868808 259.772004,25.6228249 C260.307948,26.2854263 261.153822,26.7224613 262.098381,26.7224613" id="Fill-42" fill="#FFFFFF"></path>
            <path d="M268.28185,23.6913242 C268.28185,24.6640795 268.436927,25.2702894 268.789374,25.7355201 C269.254605,26.3560516 270.058185,26.7223733 271.158046,26.7223733 C271.510493,26.7223733 272.060311,26.6659817 272.299976,26.5816181 L272.017794,25.030625 C271.891136,25.0588208 271.538689,25.1011145 271.270829,25.1011145 C270.819696,25.1011145 270.52364,24.9742334 270.340367,24.7627648 C270.185067,24.5794921 270.114577,24.3257299 270.114577,23.9027928 L270.114577,21.294457 L272.370465,21.294457 L272.370465,19.7436877 L270.114577,19.7436877 L270.114577,17.840247 L268.28185,17.840247 L268.28185,19.7436877 L266.378633,19.7436877 L266.378633,21.294457 L268.28185,21.294457 L268.28185,23.6913242 Z" id="Fill-43" fill="#FFFFFF"></path>
            <path d="M275.697712,21.0830327 C276.444901,21.0830327 276.994719,21.6751447 277.051111,22.2813545 L274.231307,22.2813545 C274.315894,21.6610467 274.936202,21.0830327 275.697712,21.0830327 M275.951475,26.7224173 C277.008817,26.7224173 278.094356,26.2853823 278.756957,25.4958998 L277.713712,24.4526551 C277.389461,24.8051026 276.769153,25.2419138 275.993768,25.2419138 C275.021013,25.2419138 274.245628,24.5795362 274.146719,23.6206551 L278.883838,23.6206551 C278.912258,23.4655781 278.926356,23.2823054 278.926356,23.0990327 C278.926356,21.1958159 277.586831,19.6025292 275.697712,19.6025292 C273.667391,19.6025292 272.370384,21.2663054 272.370384,23.1695222 C272.370384,25.3126271 273.907279,26.7224173 275.951475,26.7224173" id="Fill-44" fill="#FFFFFF"></path>
            <path d="M183.62112,41.4316984 C182.549456,41.4316984 181.816365,40.5999222 181.816365,39.5705516 C181.816365,38.5414048 182.549456,37.6955307 183.62112,37.6955307 C184.69256,37.6955307 185.425651,38.5414048 185.425651,39.5705516 C185.425651,40.5999222 184.69256,41.4316984 183.62112,41.4316984 M183.62112,36.0035586 C181.548505,36.0035586 179.983637,37.5966216 179.983637,39.5705517 C179.983637,41.5442579 181.548505,43.1234468 183.62112,43.1234468 C185.693735,43.1234468 187.258602,41.5442579 187.258602,39.5705517 C187.258602,37.5966216 185.693735,36.0035586 183.62112,36.0035586" id="Fill-45" fill="#FFFFFF"></path>
            <path d="M192.898669,39.3590388 L192.898669,42.9824235 L194.731397,42.9824235 L194.731397,39.5000178 C194.731397,38.3298919 194.477634,37.6390947 194.026502,37.1033744 C193.462585,36.4266751 192.602613,36.0035143 191.65783,36.0035143 C190.896543,36.0035143 190.24804,36.2713744 189.726418,36.6943115 L189.726418,36.1444933 L187.963956,36.1444933 L187.963956,42.9824235 L189.796907,42.9824235 L189.796907,38.5413605 C190.050446,38.1889129 190.685075,37.6954863 191.460683,37.6954863 C191.883397,37.6954863 192.250166,37.8364654 192.489606,38.0761297 C192.743592,38.3298919 192.898669,38.6823395 192.898669,39.3590388" id="Fill-46" fill="#FFFFFF"></path>
            <path d="M206.747664,40.0640213 C206.16965,40.8112102 205.239188,41.4317416 203.956056,41.4317416 C202.052839,41.4317416 200.586433,39.965336 200.586433,38.0477976 C200.586433,36.1727766 201.996447,34.6643011 203.871468,34.6643011 C204.844447,34.6643011 205.676223,35.0872382 206.268335,35.67935 L207.494853,34.3821193 C206.606685,33.5221473 205.351972,32.9723291 203.885566,32.9723291 C200.812223,32.9723291 198.682993,35.2141193 198.682993,38.0477976 C198.682993,40.8816997 200.840196,43.1234899 203.913762,43.1234899 C205.718293,43.1234899 207.184699,42.3481053 208.058769,41.2341472 L206.747664,40.0640213 Z" id="Fill-47" fill="#FFFFFF"></path>
            <polygon id="Fill-48" fill="#FFFFFF" points="208.608446 42.982491 210.441397 42.982491 210.441397 32.9723086 208.608446 32.9723086"></polygon>
            <path d="M212.389141,32.5493921 C211.726539,32.5493921 211.190819,33.0569166 211.190819,33.719518 C211.190819,34.3821194 211.726539,34.8898676 212.389141,34.8898676 C213.051742,34.8898676 213.587462,34.3821194 213.587462,33.719518 C213.587462,33.0569166 213.051742,32.5493921 212.389141,32.5493921" id="Fill-49" fill="#FFFFFF"></path>
            <polygon id="Fill-50" fill="#FFFFFF" points="211.472779 42.9824893 213.305506 42.9824893 213.305506 36.1445592 211.472779 36.1445592"></polygon>
            <path d="M219.130519,42.9825123 L220.963246,42.9825123 L220.963246,39.3591276 C220.963246,39.0771695 220.93505,38.8234073 220.906854,38.5976171 C221.146519,38.2453933 221.76705,37.6955751 222.556533,37.6955751 C222.90898,37.6955751 223.303721,37.8081345 223.585679,38.1185122 C223.797148,38.3581765 223.924029,38.6683304 223.924029,39.2886381 L223.924029,42.9825123 L225.75698,42.9825123 L225.75698,39.3591276 C225.75698,38.3438548 225.503218,37.6391835 225.065959,37.1034632 C224.516141,36.4265401 223.613875,36.003603 222.669316,36.003603 C221.654043,36.003603 220.794295,36.4970296 220.244253,37.0752674 C219.708533,36.4265401 218.876756,36.003603 217.946295,36.003603 C217.283693,36.003603 216.634966,36.2150716 216.099246,36.6944003 L216.099246,36.1445821 L214.336784,36.1445821 L214.336784,42.9825123 L216.169735,42.9825123 L216.169735,38.5414493 C216.423498,38.2171975 216.987414,37.6955751 217.762798,37.6955751 C218.115246,37.6955751 218.510211,37.8081345 218.792169,38.1185122 C219.003637,38.3581765 219.130519,38.6683304 219.130519,39.2886381 L219.130519,42.9825123 Z" id="Fill-51" fill="#FFFFFF"></path>
            <path d="M229.939089,37.6954863 C230.643984,37.6954863 231.250194,38.0338359 231.630837,38.5413604 L231.630837,40.5857799 C231.27839,41.0933044 230.67218,41.431654 229.981383,41.431654 C228.952236,41.431654 228.176851,40.6419477 228.176851,39.5705072 C228.176851,38.5836541 228.867649,37.6954863 229.939089,37.6954863 M229.79811,43.1234024 C230.488907,43.1234024 231.137411,42.9121576 231.701327,42.4326052 L231.701327,42.9824233 L233.463788,42.9824233 L233.463788,36.1444933 L231.701327,36.1444933 L231.701327,36.6943115 C231.165606,36.2572765 230.474809,36.0035143 229.699425,36.0035143 C227.838278,36.0035143 226.3439,37.5545073 226.3439,39.5705073 C226.3439,40.5011926 226.68225,41.3470667 227.21797,41.9673744 C227.82418,42.6722695 228.783061,43.1234024 229.79811,43.1234024" id="Fill-52" fill="#FFFFFF"></path>
            <path d="M237.870674,34.2412526 L236.037947,34.2412526 L236.037947,36.1444694 L234.134506,36.1444694 L234.134506,37.6954625 L236.037947,37.6954625 L236.037947,40.092106 C236.037947,41.0650851 236.1928,41.6712949 236.545471,42.1365257 C237.010702,42.7570572 237.814282,43.1233789 238.914143,43.1233789 C239.266366,43.1233789 239.816408,43.0669873 240.056073,42.9826236 L239.774115,41.4316306 C239.647233,41.4598264 239.294786,41.5021201 239.026926,41.5021201 C238.575569,41.5021201 238.279737,41.3752389 238.09624,41.1637704 C237.941164,40.9804977 237.870674,40.7267354 237.870674,40.3037983 L237.870674,37.6954625 L240.126562,37.6954625 L240.126562,36.1444694 L237.870674,36.1444694 L237.870674,34.2412526 Z" id="Fill-53" fill="#FFFFFF"></path>
            <path d="M243.883682,37.4840383 C244.630871,37.4840383 245.180689,38.0761502 245.237081,38.68236 L242.417277,38.68236 C242.501864,38.0620523 243.122396,37.4840383 243.883682,37.4840383 M246.943151,41.8969054 L245.899683,40.8536606 C245.575655,41.2061082 244.955347,41.6431431 244.179739,41.6431431 C243.206983,41.6431431 242.431599,40.9805417 242.332913,40.0216606 L247.069809,40.0216606 C247.098228,39.8665837 247.112326,39.6835347 247.112326,39.5000382 C247.112326,37.5965977 245.772802,36.0035347 243.883683,36.0035347 C241.853361,36.0035347 240.556354,37.667311 240.556354,39.5705277 C240.556354,41.7136326 242.093025,43.1234229 244.137445,43.1234229 C245.194788,43.1234229 246.280326,42.6863879 246.943151,41.8969054" id="Fill-54" fill="#FFFFFF"></path>
            <path d="M255.338115,34.6642362 C256.31087,34.6642362 257.142646,35.0871733 257.734758,35.6792852 L258.961499,34.3822782 C258.073108,33.5220824 256.818394,32.9722642 255.352213,32.9722642 C252.278646,32.9722642 250.149639,35.2140544 250.149639,38.0479565 C250.149639,40.8818586 252.306842,43.123425 255.380409,43.123425 C257.18494,43.123425 258.651345,42.3480404 259.525415,41.2343061 L258.214311,40.0639565 C257.636297,40.8113691 256.705611,41.4316767 255.422702,41.4316767 C253.519485,41.4316767 252.05308,39.9652712 252.05308,38.0479565 C252.05308,36.1729355 253.46287,34.6642362 255.338115,34.6642362" id="Fill-55" fill="#FFFFFF"></path>
            <path d="M263.868699,36.003602 C263.163804,36.003602 262.515301,36.2432663 262.007776,36.6380076 L262.007776,32.9723291 L260.174825,32.9723291 L260.174825,42.9825115 L262.007776,42.9825115 L262.007776,38.5414483 C262.261539,38.1890007 262.895944,37.6955741 263.671329,37.6955741 C264.094266,37.6955741 264.460811,37.8363293 264.700476,38.0762175 C264.954238,38.3299797 265.109315,38.6824273 265.109315,39.3591266 L265.109315,42.9825115 L266.942266,42.9825115 L266.942266,39.5001057 C266.942266,38.3299797 266.688504,37.6391825 266.237371,37.1034622 C265.673231,36.4265391 264.813259,36.003602 263.868699,36.003602" id="Fill-56" fill="#FFFFFF"></path>
            <path d="M271.186917,37.6954863 C271.891812,37.6954863 272.498022,38.0338359 272.878889,38.5413604 L272.878889,40.5857799 C272.526218,41.0933044 271.920008,41.431654 271.229211,41.431654 C270.200064,41.431654 269.424456,40.6419477 269.424456,39.5705072 C269.424456,38.5836541 270.115477,37.6954863 271.186917,37.6954863 M271.045938,43.1234024 C271.736736,43.1234024 272.385239,42.9121576 272.949155,42.4326052 L272.949155,42.9824233 L274.711617,42.9824233 L274.711617,36.1444933 L272.949155,36.1444933 L272.949155,36.6943115 C272.413435,36.2572765 271.722638,36.0035143 270.947253,36.0035143 C269.086106,36.0035143 267.591729,37.5545073 267.591729,39.5705073 C267.591729,40.5011926 267.930078,41.3470667 268.465798,41.9673744 C269.072008,42.6722695 270.030666,43.1234024 271.045938,43.1234024" id="Fill-57" fill="#FFFFFF"></path>
            <path d="M277.502792,36.1623719 L275.74033,36.1623719 L275.74033,43.0003021 L277.573057,43.0003021 L277.573057,38.5592391 C277.827043,38.2067915 278.461449,37.7133649 279.236834,37.7133649 C279.659771,37.7133649 280.026316,37.854344 280.266204,38.0940083 C280.519743,38.3477705 280.675043,38.7002181 280.675043,39.3769174 L280.675043,43.0003021 L282.507771,43.0003021 L282.507771,39.5178965 C282.507771,38.3477705 282.254008,37.6569733 281.802876,37.121253 C281.238736,36.4443299 280.378987,36.0213929 279.434204,36.0213929 C278.672917,36.0213929 278.024414,36.289253 277.502792,36.7124139 L277.502792,36.1623719 Z" id="Fill-58" fill="#FFFFFF"></path>
            <path d="M286.737808,37.6954863 C287.442703,37.6954863 288.048913,38.0338359 288.429556,38.5413604 L288.429556,40.5857799 C288.077108,41.0933044 287.470899,41.431654 286.779878,41.431654 C285.750955,41.431654 284.975346,40.6419477 284.975346,39.5705072 C284.975346,38.5836541 285.666143,37.6954863 286.737808,37.6954863 M286.596829,43.1234025 C287.287626,43.1234025 287.879738,42.9262556 288.429556,42.5030948 L288.429556,42.7286612 C288.429556,43.6027311 288.288577,44.025892 288.006619,44.3360458 C287.696465,44.7025913 287.203039,44.885864 286.610927,44.885864 C285.483095,44.885864 284.848689,44.2937521 284.48192,43.8990109 L283.325892,45.0973326 C284.002591,45.8868151 285.271402,46.5071228 286.610927,46.5071228 C287.922032,46.5071228 289.021668,45.9995983 289.642199,45.1396263 C290.051039,44.5616123 290.262507,43.8285213 290.262507,42.6017801 L290.262507,36.1444933 L288.500046,36.1444933 L288.500046,36.6943115 C287.964325,36.2572765 287.273528,36.0035143 286.49792,36.0035143 C284.636997,36.0035143 283.142619,37.5545073 283.142619,39.5705073 C283.142619,40.5011926 283.466871,41.3470668 284.002591,41.9673745 C284.608801,42.6722696 285.581556,43.1234025 286.596829,43.1234025" id="Fill-59" fill="#FFFFFF"></path>
            <path d="M294.224728,37.4840383 C294.971917,37.4840383 295.521735,38.0761502 295.578127,38.68236 L292.758323,38.68236 C292.84291,38.0620523 293.463441,37.4840383 294.224728,37.4840383 M294.47849,43.1234229 C295.535833,43.1234229 296.621372,42.6863879 297.284197,41.8969054 L296.240728,40.8536606 C295.916477,41.2061082 295.296169,41.6431431 294.520784,41.6431431 C293.548029,41.6431431 292.772644,40.9805417 292.673735,40.0216606 L297.411078,40.0216606 C297.439274,39.8665837 297.453372,39.6835347 297.453372,39.5000382 C297.453372,37.5965977 296.113847,36.0035347 294.224728,36.0035347 C292.194407,36.0035347 290.897399,37.667311 290.897399,39.5705277 C290.897399,41.7136326 292.434071,43.1234229 294.47849,43.1234229" id="Fill-60" fill="#FFFFFF"></path>
            <path d="M197.7436,56.9867854 C197.391152,57.4943099 196.784942,57.8326595 196.093921,57.8326595 C195.064774,57.8326595 194.289166,57.0431771 194.289166,55.9715128 C194.289166,54.9846596 194.980187,54.0964918 196.051628,54.0964918 C196.756746,54.0964918 197.362732,54.4348415 197.7436,54.9423659 L197.7436,56.9867854 Z M197.813865,53.0955408 C197.278145,52.6585058 196.587348,52.4045198 195.811963,52.4045198 C193.95104,52.4045198 192.456662,53.9555128 192.456662,55.9715128 C192.456662,56.9021981 192.795012,57.7480723 193.330509,58.3683799 C193.936942,59.0734988 194.8956,59.5244079 195.910648,59.5244079 C196.601669,59.5244079 197.249949,59.3131632 197.813865,58.8336107 L197.813865,59.3834289 L199.576327,59.3834289 L199.576327,52.5454988 L197.813865,52.5454988 L197.813865,53.0955408 Z" id="Fill-61" fill="#FFFFFF"></path>
            <path d="M204.283281,52.4044993 C203.521994,52.4044993 202.873491,52.6725832 202.351868,53.0955203 L202.351868,52.5454783 L200.589407,52.5454783 L200.589407,59.3834086 L202.422358,59.3834086 L202.422358,54.9423455 C202.67612,54.589898 203.310526,54.0964714 204.086134,54.0964714 C204.508847,54.0964714 204.875393,54.2374504 205.115057,54.4771148 C205.369043,54.730877 205.52412,55.0833246 205.52412,55.7602477 L205.52412,59.3834086 L207.356847,59.3834086 L207.356847,55.9010029 C207.356847,54.730877 207.103085,54.0400798 206.651952,53.5043595 C206.087812,52.8276602 205.228064,52.4044993 204.283281,52.4044993" id="Fill-62" fill="#FFFFFF"></path>
            <path d="M213.285995,56.9867861 C212.933547,57.4943105 212.327337,57.8326602 211.636316,57.8326602 C210.607393,57.8326602 209.831785,57.0431777 209.831785,55.9715134 C209.831785,54.9846603 210.522582,54.0964925 211.594246,54.0964925 C212.299141,54.0964925 212.905351,54.4348421 213.285995,54.9423666 L213.285995,56.9867861 Z M213.285995,53.0391496 C212.750274,52.6162125 212.101771,52.4045202 211.354582,52.4045202 C209.493435,52.4045202 207.999058,53.9555132 207.999058,55.9715132 C207.999058,56.9021985 208.337407,57.7480727 208.873127,58.3683804 C209.479337,59.0734993 210.437995,59.5244083 211.453267,59.5244083 C212.144065,59.5244083 212.792568,59.3131636 213.356484,58.8336111 L213.356484,59.3834293 L215.118946,59.3834293 L215.118946,49.3734712 L213.285995,49.3734712 L213.285995,53.0391496 Z" id="Fill-63" fill="#FFFFFF"></path>
            <path d="M222.571081,50.6422615 L220.738354,50.6422615 L220.738354,52.5454784 L218.834913,52.5454784 L218.834913,54.0964715 L220.738354,54.0964715 L220.738354,56.493115 C220.738354,57.466094 220.893431,58.0723039 221.245878,58.5375347 C221.711109,59.1578424 222.514689,59.5243879 223.61455,59.5243879 C223.966997,59.5243879 224.516815,59.4679963 224.75648,59.3836326 L224.474522,57.8326395 C224.34764,57.8608353 223.995193,57.903129 223.727333,57.903129 C223.2762,57.903129 222.980144,57.7762479 222.796647,57.5647794 C222.641571,57.3815066 222.571081,57.1277444 222.571081,56.7048073 L222.571081,54.0964715 L224.826969,54.0964715 L224.826969,52.5454784 L222.571081,52.5454784 L222.571081,50.6422615 Z" id="Fill-64" fill="#FFFFFF"></path>
            <path d="M229.191607,52.4044996 C228.486712,52.4044996 227.837985,52.6443877 227.330684,53.039129 L227.330684,49.3734507 L225.497733,49.3734507 L225.497733,59.3834086 L227.330684,59.3834086 L227.330684,54.9423457 C227.584222,54.5898982 228.218852,54.0964716 228.994236,54.0964716 C229.417173,54.0964716 229.783719,54.2374506 230.023383,54.477115 C230.277145,54.7308772 230.432222,55.0833248 230.432222,55.7602478 L230.432222,59.3834086 L232.265173,59.3834086 L232.265173,55.9010031 C232.265173,54.7308772 232.011411,54.04008 231.560055,53.5043597 C230.996138,52.8276605 230.136166,52.4044996 229.191607,52.4044996" id="Fill-65" fill="#FFFFFF"></path>
            <path d="M234.690605,55.083369 C234.775193,54.4630613 235.3955,53.8850473 236.157011,53.8850473 C236.903976,53.8850473 237.454018,54.4771592 237.510409,55.083369 L234.690605,55.083369 Z M236.157011,52.4045437 C234.126465,52.4045437 232.829682,54.0683199 232.829682,55.9715367 C232.829682,58.1146416 234.366353,59.5244318 236.410549,59.5244318 C237.468116,59.5244318 238.553654,59.0873969 239.216255,58.2979143 L238.173011,57.2546696 C237.848759,57.6071171 237.228451,58.0441521 236.452843,58.0441521 C235.480088,58.0441521 234.704703,57.3815507 234.606018,56.4226696 L239.343136,56.4226696 C239.371332,56.2675927 239.38543,56.0843199 239.38543,55.9010472 C239.38543,53.9976066 238.04613,52.4045437 236.157011,52.4045437 L236.157011,52.4045437 Z" id="Fill-66" fill="#FFFFFF"></path>
            <polygon id="Fill-67" fill="#FFFFFF" points="244.775949 54.9424138 247.807222 54.9424138 247.807222 53.2504417 244.775949 53.2504417 244.775949 51.2062458 248.794299 51.2062458 248.794299 49.5142738 242.872733 49.5142738 242.872733 59.3834769 248.935054 59.3834769 248.935054 57.6917286 244.775949 57.6917286"></polygon>
            <path d="M253.641973,52.4044993 C252.880686,52.4044993 252.232183,52.6725832 251.71056,53.0955203 L251.71056,52.5454783 L249.948099,52.5454783 L249.948099,59.3834086 L251.78105,59.3834086 L251.78105,54.9423455 C252.034812,54.589898 252.669218,54.0964714 253.444826,54.0964714 C253.867763,54.0964714 254.234085,54.2374504 254.473973,54.4771148 C254.727735,54.730877 254.882812,55.0833246 254.882812,55.7602477 L254.882812,59.3834086 L256.715539,59.3834086 L256.715539,55.9010029 C256.715539,54.730877 256.461777,54.0400798 256.010644,53.5043595 C255.446504,52.8276602 254.586756,52.4044993 253.641973,52.4044993" id="Fill-68" fill="#FFFFFF"></path>
            <polygon id="Fill-69" fill="#FFFFFF" points="260.387514 56.7188598 258.512269 52.545657 256.608829 52.545657 259.753108 59.383587 261.02192 59.383587 264.165976 52.545657 262.262535 52.545657"></polygon>
            <path d="M265.717279,48.9504011 C265.054678,48.9504011 264.518958,49.4579256 264.518958,50.120527 C264.518958,50.7831283 265.054678,51.2908766 265.717279,51.2908766 C266.379881,51.2908766 266.915601,50.7831283 266.915601,50.120527 C266.915601,49.4579256 266.379881,48.9504011 265.717279,48.9504011" id="Fill-70" fill="#FFFFFF"></path>
            <polygon id="Fill-71" fill="#FFFFFF" points="264.800891 59.3834982 266.633618 59.3834982 266.633618 52.5455682 264.800891 52.5455682"></polygon>
            <path d="M271.414055,52.4044993 C270.582279,52.4044993 269.834866,52.7289748 269.426027,53.2364993 L269.426027,52.5454783 L267.663789,52.5454783 L267.663789,59.3834086 L269.49674,59.3834086 L269.49674,55.0833246 C269.722083,54.6747092 270.356489,54.0964714 271.160293,54.0964714 C271.428153,54.0964714 271.696013,54.1246672 271.822894,54.1669609 L272.034363,52.4608909 C271.836992,52.4326951 271.681915,52.4044993 271.414055,52.4044993" id="Fill-72" fill="#FFFFFF"></path>
            <path d="M275.671819,57.8326152 C274.600379,57.8326152 273.867288,57.000839 273.867288,55.9716921 C273.867288,54.9423215 274.600379,54.0964474 275.671819,54.0964474 C276.743484,54.0964474 277.476351,54.9423215 277.476351,55.9716921 C277.476351,57.000839 276.743484,57.8326152 275.671819,57.8326152 M275.671819,52.4044754 C273.599204,52.4044754 272.034337,53.9977622 272.034337,55.9716924 C272.034337,57.9453987 273.599204,59.5245876 275.671819,59.5245876 C277.744434,59.5245876 279.309301,57.9453987 279.309301,55.9716924 C279.309301,53.9977622 277.744434,52.4044754 275.671819,52.4044754" id="Fill-73" fill="#FFFFFF"></path>
            <path d="M283.778227,52.4044993 C283.016941,52.4044993 282.368213,52.6725832 281.846815,53.0955203 L281.846815,52.5454783 L280.084353,52.5454783 L280.084353,59.3834086 L281.91708,59.3834086 L281.91708,54.9423455 C282.170843,54.589898 282.805248,54.0964714 283.580857,54.0964714 C284.003794,54.0964714 284.370339,54.2374504 284.610004,54.4771148 C284.863766,54.730877 285.018843,55.0833246 285.018843,55.7602477 L285.018843,59.3834086 L286.851794,59.3834086 L286.851794,55.9010029 C286.851794,54.730877 286.598032,54.0400798 286.146675,53.5043595 C285.582759,52.8276602 284.722787,52.4044993 283.778227,52.4044993" id="Fill-74" fill="#FFFFFF"></path>
            <path d="M296.197179,52.4044993 C295.181906,52.4044993 294.321934,52.8981497 293.772116,53.4761637 C293.236395,52.8276602 292.404619,52.4044993 291.474158,52.4044993 C290.811556,52.4044993 290.162829,52.6161916 289.627109,53.0955203 L289.627109,52.5454783 L287.864647,52.5454783 L287.864647,59.3834086 L289.697598,59.3834086 L289.697598,54.9423455 C289.95136,54.6180938 290.515276,54.0964714 291.290885,54.0964714 C291.643109,54.0964714 292.038074,54.2092546 292.320032,54.5194085 C292.5315,54.7590728 292.658381,55.0692267 292.658381,55.6897581 L292.658381,59.3834086 L294.491109,59.3834086 L294.491109,55.7602477 C294.491109,55.4780658 294.462913,55.2245274 294.434717,54.9987372 C294.674605,54.6462896 295.294913,54.0964714 296.084395,54.0964714 C296.436843,54.0964714 296.831584,54.2092546 297.113542,54.5194085 C297.325011,54.7590728 297.451892,55.0692267 297.451892,55.6897581 L297.451892,59.3834086 L299.284843,59.3834086 L299.284843,55.7602477 C299.284843,54.7449749 299.031081,54.0400798 298.593822,53.5043595 C298.044004,52.8276602 297.141738,52.4044993 296.197179,52.4044993" id="Fill-75" fill="#FFFFFF"></path>
            <path d="M301.792222,55.083369 C301.87681,54.4630613 302.497117,53.8850473 303.258628,53.8850473 C304.005817,53.8850473 304.555635,54.4771592 304.612026,55.083369 L301.792222,55.083369 Z M303.258628,52.4045437 C301.228306,52.4045437 299.931299,54.0683199 299.931299,55.9715367 C299.931299,58.1146416 301.46797,59.5244318 303.51239,59.5244318 C304.569733,59.5244318 305.655271,59.0873969 306.318096,58.2979143 L305.274628,57.2546696 C304.950376,57.6071171 304.330068,58.0441521 303.55446,58.0441521 C302.581705,58.0441521 301.80632,57.3815507 301.707635,56.4226696 L306.444977,56.4226696 C306.472949,56.2675927 306.487047,56.0843199 306.487047,55.9010472 C306.487047,53.9976066 305.147747,52.4045437 303.258628,52.4045437 L303.258628,52.4045437 Z" id="Fill-76" fill="#FFFFFF"></path>
            <path d="M310.827534,52.4044993 C310.066247,52.4044993 309.417743,52.6725832 308.895897,53.0955203 L308.895897,52.5454783 L307.133659,52.5454783 L307.133659,59.3834086 L308.96661,59.3834086 L308.96661,54.9423455 C309.220149,54.589898 309.854554,54.0964714 310.630163,54.0964714 C311.0531,54.0964714 311.419645,54.2374504 311.65931,54.4771148 C311.913072,54.730877 312.068149,55.0833246 312.068149,55.7602477 L312.068149,59.3834086 L313.9011,59.3834086 L313.9011,55.9010029 C313.9011,54.730877 313.647338,54.0400798 313.195981,53.5043595 C312.632065,52.8276602 311.772093,52.4044993 310.827534,52.4044993" id="Fill-77" fill="#FFFFFF"></path>
            <path d="M163.30949,46.3611317 L144.210861,11.4352563 L132.003196,2.40543781 L132.003196,12.1059137 L140.872567,26.6688233 L152.78149,40.7806 C152.823784,40.8307259 152.859364,40.8864462 152.887336,40.9457469 L160.832735,57.8721811 L173.354134,57.8721811 L163.403029,46.4951737 C163.367001,46.4542226 163.335672,46.4090198 163.30949,46.3611317" id="Fill-79" fill="#595975"></path>
            <path d="M139.687562,27.5931974 C139.662723,27.5638827 139.640122,27.5325541 139.620206,27.4996589 L132.003087,14.9928058 L132.003087,34.1860925 L137.228485,38.6629596 C137.326499,38.7468757 137.401017,38.8545121 137.445324,38.975575 L142.336401,52.3721624 L146.099198,57.8723582 L159.173995,57.8723582 L151.570079,41.6734212 L139.687562,27.5931974 Z" id="Fill-80" fill="#787A91"></path>
            <path d="M140.958095,52.9758456 L136.102151,39.6752577 L132.003018,36.1635373 L132.003018,57.8722933 L144.279606,57.8722933 L141.043802,53.1423351 C141.008445,53.0906428 140.979578,53.0346988 140.958095,52.9758456" id="Fill-81" fill="#BDBDC7"></path>
            <path d="M160.832653,57.8722705 L152.887254,40.9458363 C152.859282,40.8863118 152.823702,40.8308153 152.781408,40.7806895 L140.872485,26.6689127 L132.003115,12.1057793 L132.003115,2.40552723 L144.211003,11.435122 L163.309408,46.3612211 C163.335813,46.4091093 163.367142,46.4540883 163.40317,46.4952631 L173.354275,57.8722705 L160.832653,57.8722705 Z M146.099227,57.8722703 L142.33643,52.372298 L137.445353,38.9757101 C137.401045,38.8546471 137.326527,38.746787 137.228513,38.6630947 L132.003115,34.1860036 L132.003115,14.9929398 L139.620234,27.4995697 C139.64015,27.5324648 139.662751,27.5640173 139.68759,27.5931082 L151.569884,41.6733326 L159.1738,57.8722703 L146.099227,57.8722703 Z M132.003115,57.8722686 L132.003115,36.1635126 L136.102248,39.6754568 L140.958192,52.9758209 C140.979674,53.034674 141.008542,53.0906181 141.043674,53.1423104 L144.279702,57.8722686 L132.003115,57.8722686 Z M164.587395,45.5686028 L145.449157,10.5695549 C145.396793,10.4740025 145.324514,10.3909815 145.236793,10.3260864 L131.698779,0.312548255 C131.684681,0.302254549 131.669688,0.293974829 131.654919,0.284800005 C131.644402,0.277862942 131.634108,0.270702103 131.623143,0.264436369 C131.58622,0.243625181 131.548178,0.225499307 131.508793,0.211177629 C131.500513,0.208044762 131.492234,0.206478329 131.484178,0.203569238 C131.450835,0.193051756 131.417045,0.184548259 131.382807,0.178506302 C131.370276,0.176268539 131.357968,0.174254553 131.345436,0.17268812 C131.30829,0.167988819 131.271143,0.166376717 131.233772,0.166376717 C131.227954,0.166376717 131.222136,0.166376717 131.216318,0.166376717 C131.174471,0.168436372 131.132849,0.174925882 131.09145,0.184100707 C131.078695,0.186786022 131.066164,0.190590217 131.053409,0.193946861 C131.021856,0.202897909 130.990527,0.213639168 130.95987,0.226618188 C130.949129,0.231317489 130.93794,0.235345461 130.927199,0.240492314 C130.922947,0.2425063 130.918471,0.243625181 130.914443,0.245862943 C130.878416,0.263988816 130.845073,0.285247557 130.813297,0.308296507 C130.810835,0.310086717 130.80815,0.310758046 130.805688,0.312548255 L118.817772,9.17990462 C119.250108,9.45313538 119.573464,9.88121929 119.710639,10.3871773 L130.501576,2.40552721 L130.501576,12.1057787 L122.604737,25.0718202 C123.125912,25.1637922 123.578387,25.450002 123.887199,25.8534705 L130.501576,14.9927156 L130.501576,34.1860018 L126.741464,37.4074842 C127.194611,37.6505051 127.544821,38.0577779 127.717129,38.5489667 L130.501576,36.1635122 L130.501576,58.623036 C130.501576,59.0376933 130.837688,59.3738052 131.252346,59.3738052 L145.703143,59.3738052 L160.355786,59.3738052 L175.00843,59.3738052 C175.302919,59.3738052 175.570332,59.2014975 175.692066,58.9334136 C175.8138,58.6651059 175.767479,58.3504765 175.573465,58.1287143 L164.587395,45.5686028 Z" id="Fill-82" fill="#FFFFFF"></path>
            <path d="M124.398215,40.7863965 L120.796984,50.6497815 C120.811977,50.6495577 120.826299,50.6475438 120.841068,50.6475438 C121.365376,50.6475438 121.842691,50.8440193 122.207446,51.1651382 L125.808677,41.3017532 C125.793907,41.3019769 125.779362,41.3039909 125.764593,41.3039909 C125.240285,41.3039909 124.76297,41.1075154 124.398215,40.7863965" id="Fill-83" fill="#FFFFFF"></path>
            <path d="M120.424775,28.0997601 L110.971796,39.3011029 C111.464103,39.470949 111.873166,39.8193686 112.118201,40.270949 L121.573418,29.066921 C121.080663,28.8981937 120.670929,28.5506692 120.424775,28.0997601" id="Fill-84" fill="#FFFFFF"></path>
            <path d="M101.469247,58.3039796 C101.293135,58.6794761 101.454701,59.126581 101.829974,59.3026929 C101.933135,59.3512523 102.041666,59.3740775 102.148408,59.3740775 C102.430589,59.3740775 102.700911,59.2143013 102.828687,58.9421894 L110.161163,43.321043 C109.626785,43.2861339 109.148352,43.0498262 108.800603,42.6857423 L101.469247,58.3039796 Z" id="Fill-85" fill="#FFFFFF"></path>
            <path d="M119.132033,53.8867027 L116.181991,58.1990944 C115.947921,58.541472 116.035417,59.008493 116.377571,59.2427867 C116.507362,59.3314021 116.65483,59.3739196 116.800956,59.3739196 C117.040397,59.3739196 117.275809,59.2595699 117.421264,59.0469825 L120.372201,54.7336957 C119.859753,54.6148705 119.420257,54.307402 119.132033,53.8867027" id="Fill-86" fill="#FFFFFF"></path>
            <path d="M116.130193,12.2620195 L98.8025295,43.9491812 C99.3297463,44.0169854 99.7947533,44.2817127 100.120571,44.6686218 L117.448235,12.98146 C116.921019,12.9138796 116.456012,12.6491523 116.130193,12.2620195" id="Fill-87" fill="#FFFFFF"></path>
            <path d="M96.7014264,46.9583672 L86.9311325,58.1286049 C86.6581255,58.4409965 86.6899017,58.9151783 87.0020695,59.1881853 C87.1443912,59.3126049 87.3205031,59.3739196 87.4959437,59.3739196 C87.7049507,59.3739196 87.9130626,59.2870944 88.0614262,59.1172482 L97.8323915,47.9463392 C97.3432166,47.7691085 96.9397481,47.4146469 96.7014264,46.9583672" id="Fill-88" fill="#FFFFFF"></path>
            <path d="M126.741418,37.4075548 C126.450286,37.2515828 126.117978,37.1625198 125.764635,37.1625198 C124.620915,37.1625198 123.69381,38.0896247 123.69381,39.233345 C123.69381,39.8525339 123.967265,40.4068276 124.398258,40.786352 C124.763013,41.1074709 125.240328,41.3039465 125.764635,41.3039465 C125.779404,41.3039465 125.79395,41.3019325 125.808719,41.3017087 C126.931852,41.2779884 127.835237,40.3620723 127.835237,39.233345 C127.835237,38.9930094 127.792272,38.763415 127.717083,38.5490373 C127.544775,38.0576247 127.194565,37.6505758 126.741418,37.4075548" id="Fill-89" fill="#ED3D4A"></path>
            <path d="M122.60485,25.0718884 C122.487367,25.0510773 122.366976,25.038322 122.243228,25.038322 C121.099731,25.038322 120.172626,25.9654269 120.172626,27.1091472 C120.172626,27.4680843 120.264151,27.8055388 120.424822,28.0998046 C120.670976,28.5507137 121.08071,28.8982382 121.573465,29.0669654 C121.783815,29.1387976 122.008486,29.1797487 122.243228,29.1797487 C123.386948,29.1797487 124.314053,28.2526437 124.314053,27.1091472 C124.314053,26.6363081 124.153829,26.2019584 123.887088,25.853315 C123.5785,25.4498465 123.125801,25.1638605 122.60485,25.0718884" id="Fill-90" fill="#ED3D4A"></path>
            <path d="M118.817786,9.17986041 C118.49801,8.97779047 118.120276,8.85918907 117.714346,8.85918907 C116.570625,8.85918907 115.643521,9.78607021 115.643521,10.9297905 C115.643521,11.4375388 115.827017,11.9018744 116.130234,12.2619304 C116.455828,12.6490633 116.921059,12.9137905 117.448052,12.9815947 C117.535549,12.9927835 117.62394,13.0006157 117.714346,13.0006157 C118.857842,13.0006157 119.784947,12.0735108 119.784947,10.9297905 C119.784947,10.7415947 119.757646,10.560336 119.710653,10.3871332 C119.573255,9.8811751 119.250122,9.45309118 118.817786,9.17986041" id="Fill-91" fill="#ED3D4A"></path>
            <path d="M120.797046,50.6498021 C119.673913,50.6735224 118.770528,51.5896622 118.770528,52.7183895 C118.770528,53.1520679 118.904346,53.5541937 119.132151,53.8867252 C119.420374,54.3074245 119.859871,54.6148931 120.372319,54.7337182 C120.52292,54.7686273 120.679563,54.788991 120.84113,54.788991 C121.98485,54.788991 122.911955,53.8618861 122.911955,52.7183895 C122.911955,52.0989769 122.6385,51.5446832 122.207507,51.1651587 C121.842752,50.8440399 121.365437,50.6475643 120.84113,50.6475643 C120.826137,50.6475643 120.811815,50.6495783 120.797046,50.6498021" id="Fill-92" fill="#ED3D4A"></path>
            <path d="M110.971863,39.3011488 C110.760171,39.2281978 110.533709,39.1865754 110.297178,39.1865754 C109.153681,39.1865754 108.226576,40.1134565 108.226576,41.2571768 C108.226576,41.8116943 108.445653,42.3140719 108.800562,42.6857643 C109.14831,43.0498482 109.626744,43.2861559 110.161122,43.321065 C110.206548,43.3239741 110.251303,43.328002 110.297178,43.328002 C111.440898,43.328002 112.368003,42.4008971 112.368003,41.2571768 C112.368003,40.90003 112.277373,40.5641418 112.118268,40.2707712 C111.873233,39.8191908 111.464171,39.470995 110.971863,39.3011488" id="Fill-93" fill="#ED3D4A"></path>
            <path d="M98.8026198,43.9491805 C98.7151233,43.9379917 98.6267317,43.9301595 98.5365499,43.9301595 C97.3928296,43.9301595 96.4657247,44.8572644 96.4657247,46.0009847 C96.4657247,46.3464952 96.551431,46.6718659 96.7013611,46.9582994 C96.9399065,47.4145792 97.3431513,47.7690407 97.8323261,47.9462715 C98.0525219,48.0259358 98.2888296,48.0715862 98.5365499,48.0715862 C99.6800464,48.0715862 100.607151,47.1444813 100.607151,46.0009847 C100.607151,45.4932365 100.423879,45.0289008 100.120662,44.6686211 C99.7948436,44.281712 99.3296128,44.0169847 98.8026198,43.9491805" id="Fill-94" fill="#ED3D4A"></path>
            <polygon id="Fill-95" fill="#FF0000" points="2.54404112e-14 59.3738774 59.2040264 59.3738774 59.2040264 0.170293704 2.54404112e-14 0.170293704"></polygon>
            <polygon id="Fill-96" fill="#FFFFFF" points="11.1233115 11.5181426 15.019927 11.5181426 15.019927 43.9694991 20.8011859 43.9694991 20.8011859 47.9983662 11.1233115 47.9983662"></polygon>
            <polygon id="Fill-97" fill="#FFFFFF" points="38.2995452 11.5222827 48.145699 11.5222827 48.145699 15.4999052 42.1948179 15.4999052 42.1948179 27.1955696 47.756776 27.1955696 47.756776 31.4515697 42.1948179 31.4515697 42.1948179 43.9651363 48.145699 43.9651363 48.145699 47.9982552 38.2995452 47.9982552"></polygon>
            <path d="M24.1955356,47.9846935 L24.1955356,43.9934208 L25.4166824,43.989169 C27.0175776,43.980218 29.7292979,42.8646935 30.1289622,40.3407215 C30.517214,37.8961901 30.2307804,36.126344 27.0880671,30.756386 L27.0462209,30.666428 C24.8574657,27.0989875 22.7841789,23.9829036 23.5582209,19.0942883 C24.3996195,13.7793793 28.5553678,11.4384562 32.3362909,11.508722 L33.5563189,11.5069318 L33.5563189,15.4982044 L32.3362909,15.5024562 C30.7340531,15.5120786 27.9466965,16.6097009 27.5472559,19.1336729 C27.160123,21.5784281 27.4273118,23.1594071 30.4890182,28.4579805 L30.5700252,28.5938126 C32.8442629,32.2554629 34.8924867,35.4912671 34.1191161,40.3801062 C33.2765986,45.6950152 29.1969342,48.0533928 25.4166824,47.9829032 L24.1955356,47.9846935 Z" id="Fill-98" fill="#FFFFFF"></path>
            <path d="M320.000032,54.096492 L320.000032,52.5454989 L317.744144,52.5454989 L317.744144,50.642282 L315.911417,50.642282 L315.911417,52.5454989 L314.007976,52.5454989 L314.007976,54.096492 L315.911417,54.096492 L315.911417,56.4931355 C315.911417,57.4661145 316.066494,58.0723244 316.418941,58.5375552 C316.884172,59.1578629 317.687753,59.5244083 318.787613,59.5244083 C319.14006,59.5244083 319.689879,59.4680167 319.929543,59.3834293 L319.647585,57.83266 C319.520704,57.8608558 319.168256,57.9031495 318.900396,57.9031495 C318.449263,57.9031495 318.153207,57.7762684 317.969711,57.5647999 C317.814634,57.3815271 317.744144,57.1277649 317.744144,56.7048278 L317.744144,54.096492 L320.000032,54.096492 Z" id="Fill-78" fill="#FFFFFF"></path>
        </g>
    </g>
</svg>
