<svg width="60" height="60" version="1.1" viewBox="0 0 60 60" xmlns="http://www.w3.org/2000/svg">
 <title>C6B4B517-0CBA-4CF5-A6CE-E84127C0840A</title>
 <desc>Created with sketchtool.</desc>
 <g id="Asset-Artboard-Page" fill="none" fill-rule="evenodd">
  <g id="GRI-logo">
   <polygon transform="matrix(1.0134 0 0 1.0134 0 -.17214)" points="2.544e-14 0.17029 2.544e-14 59.374 59.204 59.374 59.204 0.17029" fill="#f00"/>
   <g fill="#fff">
    <polygon transform="matrix(1.0134 0 0 1.0134 0 -.17214)" points="20.801 43.969 20.801 47.998 11.123 47.998 11.123 11.518 15.02 11.518 15.02 43.969"/>
    <polygon transform="matrix(1.0134 0 0 1.0134 0 -.17214)" points="42.195 15.5 42.195 27.196 47.757 27.196 47.757 31.452 42.195 31.452 42.195 43.965 48.146 43.965 48.146 47.998 38.3 47.998 38.3 11.522 48.146 11.522 48.146 15.5"/>
    <path d="m24.521 48.458v-4.0449l1.2376-0.0044c1.6224-0.0091 4.3706-1.1396 4.7756-3.6975 0.39347-2.4774 0.10319-4.271-3.0818-9.7132l-0.04241-0.09117c-2.2182-3.6154-4.3193-6.7734-3.5349-11.728 0.85271-5.3864 5.0643-7.7588 8.8961-7.6876l1.2364-0.0018v4.0449l-1.2364 0.0044c-1.6238 0.0097-4.4486 1.1221-4.8534 3.68-0.39234 2.4776-0.12156 4.0799 2.9813 9.4497l0.0821 0.13766c2.3048 3.7109 4.3806 6.9902 3.5968 11.945-0.85384 5.3864-4.9884 7.7765-8.8194 7.705z" stroke-width="1.0134"/>
   </g>
  </g>
 </g>
</svg>
