<svg width="234" height="60" version="1.1" viewBox="0 0 234 60" xmlns="http://www.w3.org/2000/svg" xmlns:xlink="http://www.w3.org/1999/xlink">
 <title>C6B4B517-0CBA-4CF5-A6CE-E84127C0840A</title>
 <desc>Created with sketchtool.</desc>
 <defs>
  <polygon id="path-1" points="6.7852 0.16425 6.7852 10.128 0.017969 10.128 0.017969 0.16425"/>
 </defs>
 <g id="Asset-Artboard-Page" fill="none" fill-rule="evenodd">
  <g id="GRI-logo">
   <g fill="#fff" stroke-width="1.007">
    <path d="m77.251 8.3573v-4.4321h-4.4553v1.7102h2.546v2.1519c-0.56572 0.45599-1.3012 0.76926-2.2065 0.76926-1.9093 0-3.3804-1.482-3.3804-3.42 0-1.8954 1.4145-3.4202 3.2958-3.4202 0.97564 0 1.8103 0.42749 2.4043 1.026l1.2304-1.311c-0.89101-0.86924-2.1499-1.4252-3.6206-1.4252-3.0834 0-5.2194 2.2659-5.2194 5.1304 0 2.8642 2.1641 5.1302 5.2475 5.1302 1.8103 0 3.2814-0.78374 4.1583-1.9095z"/>
    <path d="m80.106 5.7778c0.22628-0.41324 0.86272-0.99749 1.6691-0.99749 0.2685 0 0.53743 0.0285 0.66472 0.071248l0.21215-1.7245c-0.19822-0.0285-0.35358-0.057-0.62251-0.057-0.83421 0-1.584 0.32797-1.9942 0.84096v-0.69824h-1.7679v6.9114h1.8386z"/>
    <path d="m86.258 4.7803c0.70715 0 1.3153 0.342 1.6974 0.85499v2.0664c-0.3538 0.51299-0.96194 0.85499-1.6552 0.85499-1.0322 0-1.8103-0.79799-1.8103-1.8812 0-0.99749 0.69323-1.8952 1.7681-1.8952m-2.7298 4.3179c0.60815 0.71249 1.5699 1.1685 2.5884 1.1685 0.69323 0 1.3436-0.21352 1.9093-0.69824v0.55574h1.7681v-6.9114h-1.7681v0.55574c-0.53743-0.44174-1.2304-0.69847-2.0083-0.69847-1.8671 0-3.3663 1.5677-3.3663 3.6054 0 0.94071 0.33943 1.7957 0.87686 2.4227"/>
    <path d="m92.639 5.6353c0.25457-0.35624 0.891-0.85499 1.6691-0.85499 0.42429 0 0.79178 0.1425 1.0324 0.38474 0.25435 0.2565 0.41015 0.61274 0.41015 1.2967v3.6624h1.8386v-3.5199c0-1.1827-0.25458-1.881-0.70715-2.4227-0.56571-0.68399-1.4284-1.1115-2.3762-1.1115-0.76372 0-1.4143 0.27075-1.9376 0.69847v-0.55574h-1.7681v6.9114h1.8388z"/>
    <path d="m99.712 7.1496c0 0.98346 0.15556 1.5962 0.50914 2.0664 0.46672 0.62699 1.2729 0.99749 2.3762 0.99749 0.35357 0 0.90515-0.057 1.1456-0.1425l-0.28286-1.5677c-0.12729 0.028726-0.48087 0.071475-0.74958 0.071475-0.45257 0-0.74957-0.12825-0.93344-0.342-0.15556-0.18547-0.22651-0.44197-0.22651-0.86946v-2.6362h2.2631v-1.5677h-2.2631v-1.9237h-1.8386v1.9237h-1.9093v1.5677h1.9093z"/>
   </g>
   <g transform="matrix(1.0032 0 0 1.0108 104.47 -.16593)">
    <mask id="mask-2" fill="white">
     <use width="100%" height="100%" xlink:href="#path-1"/>
    </mask>
    <path d="m1.8507 5.6867c0.25376-0.35245 0.88817-0.84587 1.6638-0.84587 0.42294 0 0.78948 0.14098 1.0291 0.38064 0.25376 0.25376 0.40884 0.60621 0.40884 1.2829v3.6234h1.8327v-3.4824c0-1.1701-0.25376-1.8609-0.7049-2.3966-0.56392-0.67692-1.4239-1.0999-2.3687-1.0999-0.7049 0-1.3534 0.23966-1.8609 0.63463v-3.6194h-1.8327v9.9636h1.8327z" fill="#fff" mask="url(#mask-2)"/>
   </g>
   <g fill="#fff">
    <g stroke-width="1.007">
     <path d="m115.68 4.727c0.70715 0 1.3153 0.342 1.6974 0.85499v2.0664c-0.3538 0.51299-0.96195 0.85499-1.6552 0.85499-1.0324 0-1.8103-0.79799-1.8103-1.881 0-0.99771 0.69322-1.8954 1.7681-1.8954m-0.14143 5.4864c0.69323 0 1.3436-0.21352 1.9093-0.69824v0.55574h1.7681v-6.9116h-1.7681v0.55597c-0.53743-0.44174-1.2304-0.69847-2.0083-0.69847-1.8671 0-3.3662 1.5677-3.3662 3.6057 0 0.94049 0.33943 1.7955 0.87686 2.4225 0.60815 0.71249 1.5699 1.1685 2.5884 1.1685"/>
     <path d="m122.07 5.5821c0.25457-0.32775 0.82029-0.85499 1.5984-0.85499 0.35335 0 0.74958 0.114 1.0324 0.42749 0.21214 0.24225 0.33943 0.55574 0.33943 1.1827v3.7337h1.8386v-3.6624c0-0.285-0.0283-0.54149-0.0566-0.76949 0.24064-0.35624 0.86294-0.91199 1.6549-0.91199 0.35357 0 0.74958 0.114 1.0324 0.42749 0.21214 0.24225 0.33943 0.55574 0.33943 1.1827v3.7337h1.8388v-3.6624c0-1.026-0.25457-1.7385-0.69323-2.28-0.55158-0.68422-1.4567-1.1117-2.4043-1.1117-1.0185 0-1.881 0.49897-2.4328 1.0832-0.53743-0.65572-1.3719-1.0832-2.3055-1.0832-0.66448 0-1.3151 0.21375-1.8527 0.69847v-0.55597h-1.7681v6.9116h1.8388z"/>
     <path d="m87.2 20.275c-0.16972 0.18525-0.41015 0.29925-0.96172 0.29925h-1.5842v-2.1377h1.5842c0.55158 0 0.792 0.12825 0.96172 0.3135 0.16971 0.18547 0.28286 0.47024 0.28286 0.76972 0 0.28477-0.11315 0.56999-0.28286 0.75524m1.3153 1.2682c0.53743-0.51299 0.87686-1.24 0.87686-2.0377 0-0.79822-0.33943-1.525-0.87686-2.0379-0.495-0.45599-1.1456-0.74099-2.1639-0.74099h-3.6067v9.9755h1.9093v-4.4179h0.69323l3.5218 4.4179h2.3619l-3.7057-4.5746c0.396-0.12825 0.72129-0.32774 0.99-0.58424"/>
     <path d="m93.911 21.144c0.74958 0 1.3012 0.59849 1.3577 1.2112h-2.8286c0.08467-0.62699 0.70714-1.2112 1.4709-1.2112m3.0692 4.4604-1.0468-1.0545c-0.32529 0.35625-0.94758 0.79776-1.7254 0.79776-0.97587 0-1.7537-0.66952-1.853-1.6387h4.7525c0.02829-0.15675 0.04243-0.342 0.04243-0.52724 0-1.9237-1.3438-3.5342-3.239-3.5342-2.0368 0-3.338 1.6817-3.338 3.6054 0 2.1662 1.5418 3.5912 3.5925 3.5912 1.0607 0 2.1497-0.44174 2.8147-1.2397"/>
     <path d="m101.06 24.693c0 0.342-0.38186 0.58424-0.87687 0.58424-0.69301 0-1.4145-0.2565-1.8812-0.68399l-0.89079 1.3252c0.80593 0.59849 1.8103 0.92624 2.7579 0.92624 1.4426 0 2.7296-0.81224 2.7296-2.1375 0-2.3942-3.3236-2.0379-3.3236-2.9357 0-0.35624 0.42406-0.55597 0.93344-0.55597 0.49501 0 0.96172 0.21397 1.3153 0.47047l0.86294-1.3397c-0.45279-0.35624-1.4287-0.69824-2.3197-0.69824-1.3577 0-2.6308 0.82649-2.6308 2.1519 0 2.2232 3.3238 1.8525 3.3238 2.8929"/>
     <path d="m106.5 21.144c0.74957 0 1.3012 0.59849 1.3577 1.2112h-2.8286c0.0847-0.62699 0.70714-1.2112 1.4709-1.2112m0.25457 5.7001c1.0607 0 2.1497-0.44174 2.8147-1.2397l-1.0468-1.0545c-0.32529 0.35625-0.94758 0.79776-1.7254 0.79776-0.97587 0-1.7537-0.66952-1.853-1.6387h4.7525c0.0283-0.15675 0.0424-0.342 0.0424-0.52724 0-1.9237-1.3438-3.5342-3.239-3.5342-2.0368 0-3.338 1.6817-3.338 3.6054 0 2.1662 1.5418 3.5912 3.5925 3.5912"/>
     <path d="m115.49 24.279c-0.35357 0.51299-0.96172 0.85521-1.655 0.85521-1.0324 0-1.8103-0.79822-1.8103-1.8812 0-0.99749 0.69301-1.8954 1.7679-1.8954 0.70737 0 1.3155 0.34222 1.6974 0.85522zm1.8386 2.4227v-6.9116h-1.7679v0.55574c-0.53743-0.44174-1.2304-0.69824-2.0085-0.69824-1.8669 0-3.366 1.5675-3.366 3.6054 0 0.94049 0.33943 1.7955 0.87686 2.4225 0.60815 0.71272 1.5696 1.1687 2.5882 1.1687 0.69323 0 1.3436-0.21375 1.9095-0.69824v0.55574z"/>
     <path d="m118.35 19.79v6.9116h1.8388v-4.3466c0.2263-0.41324 0.86273-0.99749 1.6689-0.99749 0.26894 0 0.53765 0.0285 0.66472 0.07125l0.21214-1.7242c-0.198-0.0285-0.35335-0.057-0.62229-0.057-0.83444 0-1.584 0.32774-1.9944 0.84051v-0.69801z"/>
     <path d="m129.52 25.291-1.4145-1.0687c-0.29701 0.45599-0.89101 0.91199-1.6406 0.91199-1.1173 0-1.8954-0.79822-1.8954-1.8812 0-1.0545 0.79201-1.8954 1.853-1.8954 0.66472 0 1.2163 0.34222 1.584 0.82671l1.3014-1.1542c-0.63643-0.82672-1.6974-1.3825-2.8854-1.3825-2.0934 0-3.6915 1.596-3.6915 3.6054 0 1.9952 1.5557 3.5912 3.6774 3.5912 1.2872 0 2.3053-0.47024 3.1117-1.5532"/>
     <path d="m130.09 16.584v10.118h1.8386v-4.4889c0.25457-0.35625 0.89123-0.85522 1.6691-0.85522 0.4243 0 0.79202 0.1425 1.0324 0.38497 0.25457 0.25627 0.41015 0.61274 0.41015 1.2967v3.6624h1.8388v-3.5199c0-1.183-0.25479-1.8812-0.70738-2.4227-0.56571-0.68399-1.4284-1.1115-2.376-1.1115-0.70737 0-1.358 0.24225-1.8671 0.64124v-3.7052z"/>
    </g>
    <polygon transform="matrix(1.0032 0 0 1.0108 -87.023 -.16593)" points="227.29 16.721 227.29 26.59 229.19 26.59 229.19 16.721"/>
    <g stroke-width="1.007">
     <path d="m145.76 22.213c0.25457-0.35624 0.89101-0.85521 1.6691-0.85521 0.42428 0 0.79178 0.14272 1.0324 0.38497 0.25458 0.2565 0.41015 0.61274 0.41015 1.2967v3.6624h1.8386v-3.5199c0-1.1827-0.25457-1.881-0.70715-2.4227-0.56571-0.68399-1.4284-1.1115-2.3762-1.1115-0.76349 0-1.4143 0.27075-1.9376 0.69824v-0.55552h-1.7681v6.9114h1.8388z"/>
     <path d="m156.77 24.707c0-2.3942-3.3238-2.0379-3.3238-2.9357 0-0.35624 0.42428-0.55597 0.93365-0.55597 0.49478 0 0.96151 0.21397 1.3151 0.47047l0.86295-1.3397c-0.45257-0.35602-1.4287-0.69824-2.3197-0.69824-1.3577 0-2.6308 0.82649-2.6308 2.1519 0 2.2232 3.3238 1.8525 3.3238 2.8929 0 0.342-0.38187 0.58424-0.87686 0.58424-0.69301 0-1.4143-0.2565-1.881-0.68399l-0.89123 1.3252c0.80637 0.59849 1.8105 0.92624 2.7581 0.92624 1.4426 0 2.7298-0.81224 2.7298-2.1375"/>
     <path d="m160.75 17.867h-1.8386v1.924h-1.9095v1.5675h1.9095v2.4227c0 0.98324 0.15534 1.596 0.50914 2.0662 0.46672 0.62722 1.2729 0.99749 2.3762 0.99749 0.35336 0 0.90493-0.057 1.1456-0.14227l-0.28308-1.5677c-0.12729 0.0285-0.48086 0.07125-0.74958 0.07125-0.45257 0-0.74957-0.12825-0.93343-0.342-0.15557-0.18525-0.22628-0.44174-0.22628-0.86924v-2.6364h2.2629v-1.5675h-2.2629z"/>
    </g>
    <polygon transform="matrix(1.0032 0 0 1.0108 -87.023 -.16593)" points="249.92 19.744 249.92 26.581 251.75 26.581 251.75 19.744"/>
    <g stroke-width="1.007">
     <path d="m164.61 18.522c0.66472 0 1.2022-0.51299 1.2022-1.1827 0-0.66974-0.53743-1.1827-1.2022-1.1827s-1.2022 0.51299-1.2022 1.1827c0 0.66974 0.53743 1.1827 1.2022 1.1827"/>
     <path d="m168.11 23.781c0 0.98324 0.15558 1.596 0.50938 2.0662 0.46671 0.62722 1.2726 0.99749 2.376 0.99749 0.35356 0 0.90514-0.057 1.1456-0.14227l-0.28287-1.5677c-0.12728 0.0285-0.48086 0.07125-0.74957 0.07125-0.45257 0-0.74958-0.12825-0.93344-0.342-0.15557-0.18525-0.22651-0.44174-0.22651-0.86924v-2.6364h2.2631v-1.5675h-2.2631v-1.924h-1.8386v1.924h-1.9093v1.5675h1.9093z"/>
     <path d="m175.91 26.844c0.66471 0 1.3153-0.21375 1.853-0.69824v0.55574h1.7679v-6.9116h-1.8386v4.4889c-0.25457 0.32775-0.82029 0.85521-1.5984 0.85521-0.35356 0-0.74958-0.114-1.0324-0.42749-0.21214-0.24247-0.33943-0.55597-0.33943-1.183v-3.7337h-1.8386v3.6624c0 1.0262 0.25435 1.7385 0.69277 2.2802 0.53766 0.66974 1.3862 1.1115 2.3338 1.1115"/>
     <path d="m182.12 23.781c0 0.98324 0.15557 1.596 0.50914 2.0662 0.46673 0.62722 1.2729 0.99749 2.3762 0.99749 0.35357 0 0.90514-0.057 1.1456-0.14227l-0.28309-1.5677c-0.12706 0.0285-0.48063 0.07125-0.74935 0.07125-0.45257 0-0.74958-0.12825-0.93343-0.342-0.1558-0.18525-0.22652-0.44174-0.22652-0.86924v-2.6364h2.2631v-1.5675h-2.2631v-1.924h-1.8386v1.924h-1.9093v1.5675h1.9093z"/>
     <path d="m189.56 21.144c0.74958 0 1.3012 0.59849 1.3577 1.2112h-2.8288c0.0849-0.62699 0.70714-1.2112 1.4711-1.2112m0.25458 5.7001c1.0607 0 2.1497-0.44174 2.8144-1.2397l-1.0466-1.0545c-0.32529 0.35625-0.94758 0.79776-1.7254 0.79776-0.97586 0-1.7537-0.66952-1.853-1.6387h4.7523c0.0285-0.15675 0.0426-0.342 0.0426-0.52724 0-1.9237-1.3438-3.5342-3.239-3.5342-2.0368 0-3.338 1.6817-3.338 3.6054 0 2.1662 1.5418 3.5912 3.5926 3.5912"/>
     <path d="m97.185 41.712c-1.0751 0-1.8105-0.84074-1.8105-1.8812 0-1.0402 0.73544-1.8952 1.8105-1.8952 1.0749 0 1.8103 0.85499 1.8103 1.8952 0 1.0405-0.73543 1.8812-1.8103 1.8812m0-5.4866c-2.0792 0-3.6491 1.6102-3.6491 3.6054 0 1.995 1.5699 3.5912 3.6491 3.5912 2.0792 0 3.6491-1.5962 3.6491-3.5912 0-1.9952-1.5699-3.6054-3.6491-3.6054"/>
     <path d="m106.49 39.617v3.6624h1.8386v-3.5199c0-1.1827-0.25458-1.881-0.70715-2.4225-0.56572-0.68399-1.4284-1.1117-2.3762-1.1117-0.76372 0-1.4143 0.27075-1.9376 0.69824v-0.55574h-1.7681v6.9116h1.8388v-4.4889c0.25435-0.35625 0.891-0.85499 1.6691-0.85499 0.42407 0 0.79201 0.1425 1.0322 0.38474 0.25479 0.2565 0.41037 0.61274 0.41037 1.2967"/>
     <path d="m120.39 40.33c-0.57986 0.75524-1.5133 1.3825-2.8005 1.3825-1.9093 0-3.3804-1.4822-3.3804-3.4204 0-1.8952 1.4145-3.42 3.2955-3.42 0.97609 0 1.8105 0.42749 2.4045 1.026l1.2304-1.3112c-0.891-0.86924-2.1497-1.425-3.6208-1.425-3.0832 0-5.2192 2.2659-5.2192 5.1302 0 2.8644 2.1641 5.1304 5.2475 5.1304 1.8103 0 3.2814-0.78374 4.1583-1.9097z"/>
    </g>
    <polygon transform="matrix(1.0032 0 0 1.0108 -87.023 -.16593)" points="208.61 32.972 208.61 42.982 210.44 42.982 210.44 32.972"/>
    <path d="m126.05 32.734c-0.66471 0-1.2021 0.51299-1.2021 1.1827s0.53743 1.183 1.2021 1.183c0.66472 0 1.2022-0.51322 1.2022-1.183s-0.53743-1.1827-1.2022-1.1827" stroke-width="1.007"/>
    <polygon transform="matrix(1.0032 0 0 1.0108 -87.023 -.16593)" points="211.47 36.145 211.47 42.982 213.31 42.982 213.31 36.145"/>
    <g stroke-width="1.007">
     <path d="m132.81 43.28h1.8386v-3.6624c0-0.285-0.0283-0.54149-0.0566-0.76972 0.24043-0.35602 0.86294-0.91176 1.655-0.91176 0.35357 0 0.74958 0.11377 1.0324 0.42749 0.21214 0.24225 0.33943 0.55574 0.33943 1.1827v3.7337h1.8388v-3.6624c0-1.0262-0.25457-1.7385-0.69323-2.28-0.55158-0.68422-1.4567-1.1117-2.4043-1.1117-1.0185 0-1.881 0.49874-2.4328 1.0832-0.53743-0.65572-1.3719-1.0832-2.3053-1.0832-0.66471 0-1.3155 0.21375-1.8529 0.69824v-0.55574h-1.7681v6.9116h1.8388v-4.4889c0.25458-0.32775 0.82029-0.85499 1.5982-0.85499 0.35357 0 0.7498 0.11377 1.0327 0.42749 0.21214 0.24225 0.33943 0.55574 0.33943 1.1827z"/>
     <path d="m143.65 37.936c0.70714 0 1.3153 0.342 1.6972 0.85499v2.0664c-0.35358 0.51299-0.96173 0.85499-1.6547 0.85499-1.0324 0-1.8103-0.79822-1.8103-1.8812 0-0.99748 0.69301-1.8952 1.7679-1.8952m-0.14143 5.4864c0.69301 0 1.3436-0.21352 1.9093-0.69824v0.55574h1.7681v-6.9116h-1.7681v0.55574c-0.53743-0.44174-1.2304-0.69824-2.0083-0.69824-1.8671 0-3.3662 1.5677-3.3662 3.6054 0 0.94071 0.33943 1.7957 0.87687 2.4227 0.60814 0.71249 1.5701 1.1685 2.5884 1.1685"/>
     <path d="m151.61 34.444h-1.8386v1.9237h-1.9095v1.5677h1.9095v2.4225c0 0.98346 0.15535 1.5962 0.50914 2.0664 0.46672 0.62722 1.2729 0.99748 2.3762 0.99748 0.35336 0 0.90516-0.057 1.1456-0.14227l-0.28286-1.5677c-0.12728 0.02849-0.48085 0.07125-0.74957 0.07125-0.4528 0-0.74957-0.12825-0.93366-0.342-0.15558-0.18525-0.22629-0.44174-0.22629-0.86924v-2.6364h2.2631v-1.5677h-2.2631z"/>
     <path d="m157.64 37.722c0.74957 0 1.3012 0.59849 1.3577 1.2112h-2.8288c0.0849-0.62699 0.70737-1.2112 1.4711-1.2112m3.0692 4.4604-1.0468-1.0545c-0.32507 0.35624-0.94735 0.79799-1.7254 0.79799-0.97587 0-1.7537-0.66974-1.8527-1.639h4.752c0.0285-0.15675 0.0426-0.34177 0.0426-0.52724 0-1.9239-1.3438-3.5342-3.239-3.5342-2.0368 0-3.338 1.6817-3.338 3.6054 0 2.1662 1.5416 3.5912 3.5926 3.5912 1.0607 0 2.1497-0.44174 2.8147-1.2397"/>
     <path d="m169.13 34.872c0.97587 0 1.8103 0.42749 2.4043 1.026l1.2307-1.311c-0.89123-0.86946-2.15-1.4252-3.6208-1.4252-3.0834 0-5.2192 2.2659-5.2192 5.1304s2.1641 5.1302 5.2475 5.1302c1.8103 0 3.2814-0.78374 4.1582-1.9095l-1.3153-1.183c-0.57985 0.75546-1.5135 1.3825-2.8005 1.3825-1.9093 0-3.3804-1.4822-3.3804-3.4202 0-1.8952 1.4143-3.4202 3.2955-3.4202"/>
     <path d="m177.69 36.226c-0.70715 0-1.3577 0.24225-1.8669 0.64124v-3.7052h-1.8388v10.118h1.8388v-4.4889c0.25457-0.35624 0.891-0.85499 1.6689-0.85499 0.4243 0 0.79201 0.14227 1.0324 0.38474 0.25457 0.2565 0.41014 0.61274 0.41014 1.2967v3.6624h1.8388v-3.5199c0-1.1827-0.25458-1.881-0.70716-2.4225-0.56594-0.68422-1.4287-1.1117-2.3762-1.1117"/>
     <path d="m185.03 37.936c0.70714 0 1.3153 0.342 1.6974 0.85499v2.0664c-0.3538 0.51299-0.96195 0.85499-1.655 0.85499-1.0324 0-1.8105-0.79822-1.8105-1.8812 0-0.99748 0.69323-1.8952 1.7681-1.8952m-0.14143 5.4864c0.69301 0 1.3436-0.21352 1.9093-0.69824v0.55574h1.7681v-6.9116h-1.7681v0.55574c-0.53744-0.44174-1.2304-0.69824-2.0083-0.69824-1.8671 0-3.3662 1.5677-3.3662 3.6054 0 0.94071 0.33943 1.7957 0.87687 2.4227 0.60814 0.71249 1.5699 1.1685 2.5884 1.1685"/>
     <path d="m191.37 36.386h-1.7681v6.9116h1.8386v-4.4889c0.25479-0.35624 0.89123-0.85499 1.6691-0.85499 0.42429 0 0.79201 0.1425 1.0327 0.38474 0.25435 0.2565 0.41014 0.61274 0.41014 1.2967v3.6624h1.8386v-3.5199c0-1.1827-0.25457-1.881-0.70714-2.4225-0.56594-0.68422-1.4284-1.1117-2.3762-1.1117-0.76371 0-1.4143 0.27075-1.9376 0.69847z"/>
     <path d="m200.63 37.936c0.70714 0 1.3153 0.342 1.6972 0.85499v2.0664c-0.35358 0.51299-0.96173 0.85499-1.655 0.85499-1.0322 0-1.8103-0.79822-1.8103-1.8812 0-0.99748 0.693-1.8952 1.7681-1.8952m-0.14143 5.4864c0.69301 0 1.287-0.19927 1.8386-0.62699v0.228c0 0.88349-0.14143 1.3112-0.4243 1.6247-0.31115 0.3705-0.80614 0.55574-1.4002 0.55574-1.1314 0-1.7679-0.59849-2.1358-0.99749l-1.1597 1.2112c0.67886 0.79799 1.9517 1.425 3.2955 1.425 1.3153 0 2.4184-0.51299 3.041-1.3822 0.41015-0.58424 0.62229-1.3252 0.62229-2.5652v-6.5269h-1.7681v0.55574c-0.53744-0.44174-1.2304-0.69824-2.0085-0.69824-1.8669 0-3.366 1.5677-3.366 3.6054 0 0.94071 0.32529 1.7957 0.86272 2.4227 0.60815 0.71249 1.584 1.1685 2.6025 1.1685"/>
     <path d="m208.14 37.722c0.74957 0 1.3011 0.59849 1.3577 1.2112h-2.8288c0.0849-0.62699 0.70737-1.2112 1.4711-1.2112m0.25457 5.7001c1.0607 0 2.1497-0.44174 2.8147-1.2397l-1.0468-1.0545c-0.32529 0.35624-0.94758 0.79799-1.7254 0.79799-0.97586 0-1.7537-0.66974-1.8529-1.639h4.7525c0.0283-0.15675 0.0424-0.34177 0.0424-0.52724 0-1.9239-1.3438-3.5342-3.239-3.5342-2.0368 0-3.338 1.6817-3.338 3.6054 0 2.1662 1.5416 3.5912 3.5925 3.5912"/>
     <path d="m111.35 57.435c-0.35358 0.51299-0.96172 0.85499-1.655 0.85499-1.0324 0-1.8105-0.79799-1.8105-1.8812 0-0.99749 0.69323-1.8952 1.7681-1.8952 0.70738 0 1.3153 0.342 1.6974 0.85499zm0.0705-3.9332c-0.53743-0.44174-1.2304-0.69847-2.0083-0.69847-1.8669 0-3.366 1.5677-3.366 3.6054 0 0.94071 0.33944 1.7957 0.87665 2.4227 0.60836 0.71272 1.5701 1.1685 2.5884 1.1685 0.69323 0 1.3436-0.21352 1.9093-0.69824v0.55574h1.7681v-6.9116h-1.7681z"/>
     <path d="m117.91 52.803c-0.76372 0-1.4143 0.27097-1.9376 0.69847v-0.55597h-1.7681v6.9116h1.8388v-4.4889c0.25457-0.35624 0.89101-0.85499 1.6691-0.85499 0.42407 0 0.79178 0.1425 1.0322 0.38474 0.25479 0.2565 0.41037 0.61274 0.41037 1.297v3.6622h1.8386v-3.5199c0-1.1827-0.25458-1.881-0.70715-2.4225-0.56594-0.68399-1.4284-1.1117-2.3762-1.1117"/>
     <path d="m126.94 57.435c-0.35358 0.51299-0.96172 0.85499-1.655 0.85499-1.0322 0-1.8103-0.79799-1.8103-1.8812 0-0.99749 0.69301-1.8952 1.7681-1.8952 0.70715 0 1.3153 0.342 1.6972 0.85499zm0-3.9902c-0.53744-0.42749-1.188-0.64147-1.9376-0.64147-1.8671 0-3.3662 1.5677-3.3662 3.6054 0 0.94071 0.33944 1.7957 0.87687 2.4227 0.60815 0.71272 1.5699 1.1685 2.5884 1.1685 0.693 0 1.3436-0.21352 1.9093-0.69824v0.55574h1.7681v-10.118h-1.8388z"/>
     <path d="m136.26 51.022h-1.8386v1.9237h-1.9095v1.5677h1.9095v2.4225c0 0.98346 0.15557 1.5962 0.50915 2.0664 0.46672 0.62699 1.2729 0.99749 2.3762 0.99749 0.35358 0 0.90514-0.057 1.1456-0.14227l-0.28286-1.5677c-0.12729 0.0285-0.48086 0.07125-0.74958 0.07125-0.45257 0-0.74958-0.12825-0.93365-0.342-0.15558-0.18525-0.2263-0.44174-0.2263-0.86924v-2.6364h2.2631v-1.5677h-2.2631z"/>
     <path d="m142.9 52.803c-0.70715 0-1.358 0.24247-1.8669 0.64147v-3.7052h-1.8388v10.118h1.8388v-4.4889c0.25435-0.35624 0.891-0.85499 1.6689-0.85499 0.42428 0 0.792 0.1425 1.0324 0.38474 0.25457 0.2565 0.41015 0.61274 0.41015 1.297v3.6622h1.8388v-3.5199c0-1.1827-0.25458-1.881-0.70738-2.4225-0.56571-0.68399-1.4284-1.1117-2.376-1.1117"/>
     <path d="m148.42 55.511c0.0849-0.62699 0.70715-1.2112 1.4711-1.2112 0.74936 0 1.3012 0.59849 1.3577 1.2112zm1.4711-2.7077c-2.037 0-3.338 1.6817-3.338 3.6054 0 2.1662 1.5416 3.5912 3.5923 3.5912 1.061 0 2.15-0.44174 2.8147-1.2397l-1.0466-1.0545c-0.32529 0.35624-0.94758 0.79799-1.7257 0.79799-0.97586 0-1.7537-0.66974-1.8527-1.639h4.7522c0.0283-0.15675 0.0424-0.342 0.0424-0.52724 0-1.9239-1.3436-3.5342-3.2387-3.5342z"/>
    </g>
    <polygon transform="matrix(1.0032 0 0 1.0108 -87.023 -.16593)" points="244.78 53.25 244.78 51.206 248.79 51.206 248.79 49.514 242.87 49.514 242.87 59.383 248.94 59.383 248.94 57.692 244.78 57.692 244.78 54.942 247.81 54.942 247.81 53.25"/>
    <path d="m167.43 52.803c-0.76371 0-1.4143 0.27097-1.9376 0.69847v-0.55597h-1.7681v6.9116h1.8388v-4.4889c0.25458-0.35624 0.89101-0.85499 1.6691-0.85499 0.42428 0 0.79177 0.1425 1.0324 0.38474 0.25457 0.2565 0.41015 0.61274 0.41015 1.297v3.6622h1.8386v-3.5199c0-1.1827-0.25457-1.881-0.70715-2.4225-0.56594-0.68399-1.4284-1.1117-2.3762-1.1117" stroke-width="1.007"/>
    <polygon transform="matrix(1.0032 0 0 1.0108 -87.023 -.16593)" points="262.26 52.546 260.39 56.719 258.51 52.546 256.61 52.546 259.75 59.384 261.02 59.384 264.17 52.546"/>
    <path d="m179.54 49.312c-0.66472 0-1.2022 0.51299-1.2022 1.1827s0.53743 1.183 1.2022 1.183 1.2022-0.51322 1.2022-1.183-0.53743-1.1827-1.2022-1.1827" stroke-width="1.007"/>
    <polygon transform="matrix(1.0032 0 0 1.0108 -87.023 -.16593)" points="264.8 52.546 264.8 59.383 266.63 59.383 266.63 52.546"/>
    <g stroke-width="1.007">
     <path d="m185.26 52.803c-0.83444 0-1.5842 0.32797-1.9944 0.84096v-0.69847h-1.7679v6.9116h1.8388v-4.3464c0.22606-0.41302 0.8625-0.99749 1.6689-0.99749 0.26871 0 0.53743 0.0285 0.66471 0.07125l0.21215-1.7245c-0.198-0.0285-0.35358-0.057-0.62228-0.057"/>
     <path d="m189.53 58.29c-1.0749 0-1.8103-0.84074-1.8103-1.881 0-1.0405 0.73543-1.8954 1.8103-1.8954 1.0751 0 1.8103 0.85499 1.8103 1.8954 0 1.0402-0.73521 1.881-1.8103 1.881m0-5.4866c-2.0792 0-3.6491 1.6105-3.6491 3.6057 0 1.995 1.5699 3.5912 3.6491 3.5912s3.6491-1.5962 3.6491-3.5912c0-1.9952-1.5699-3.6057-3.6491-3.6057"/>
     <path d="m197.66 52.803c-0.76372 0-1.4145 0.27097-1.9376 0.69847v-0.55597h-1.7681v6.9116h1.8386v-4.4889c0.25457-0.35624 0.89101-0.85499 1.6691-0.85499 0.42428 0 0.792 0.1425 1.0324 0.38474 0.25458 0.2565 0.41015 0.61274 0.41015 1.297v3.6622h1.8388v-3.5199c0-1.1827-0.25457-1.881-0.70736-2.4225-0.56572-0.68399-1.4284-1.1117-2.376-1.1117"/>
     <path d="m210.12 52.803c-1.0185 0-1.8812 0.49897-2.4328 1.0832-0.53743-0.65549-1.3719-1.0832-2.3053-1.0832-0.66472 0-1.3155 0.21397-1.853 0.69847v-0.55597h-1.7681v6.9116h1.8388v-4.4889c0.25457-0.32775 0.82029-0.85499 1.5984-0.85499 0.35336 0 0.74958 0.114 1.0324 0.42749 0.21215 0.24225 0.33943 0.55574 0.33943 1.183v3.7334h1.8386v-3.6622c0-0.28522-0.0283-0.54149-0.0566-0.76972 0.24064-0.35624 0.86294-0.91199 1.6549-0.91199 0.35358 0 0.74958 0.114 1.0324 0.42749 0.21214 0.24225 0.33943 0.55574 0.33943 1.183v3.7334h1.8388v-3.6622c0-1.0262-0.25457-1.7387-0.69323-2.2802-0.55158-0.68399-1.4567-1.1117-2.4043-1.1117"/>
     <path d="m215.73 55.511c0.0849-0.62699 0.70715-1.2112 1.4711-1.2112 0.74958 0 1.3011 0.59849 1.3577 1.2112zm1.4711-2.7077c-2.0368 0-3.338 1.6817-3.338 3.6054 0 2.1662 1.5416 3.5912 3.5925 3.5912 1.0607 0 2.1497-0.44174 2.8147-1.2397l-1.0468-1.0545c-0.32529 0.35624-0.94758 0.79799-1.7257 0.79799-0.97587 0-1.7537-0.66974-1.8527-1.639h4.7525c0.0281-0.15675 0.0422-0.342 0.0422-0.52724 0-1.9239-1.3436-3.5342-3.2387-3.5342z"/>
     <path d="m224.8 52.803c-0.76372 0-1.4143 0.27097-1.9378 0.69847v-0.55597h-1.7679v6.9116h1.8388v-4.4889c0.25435-0.35624 0.89078-0.85499 1.6689-0.85499 0.42429 0 0.792 0.1425 1.0324 0.38474 0.25458 0.2565 0.41015 0.61274 0.41015 1.297v3.6622h1.8388v-3.5199c0-1.1827-0.25457-1.881-0.70737-2.4225-0.56573-0.68399-1.4284-1.1117-2.376-1.1117"/>
    </g>
   </g>
   <g stroke-width="1.007">
    <path d="m76.809 46.695-19.16-35.302-12.247-9.1271v9.805l8.8977 14.72 11.947 14.264c0.04244 0.05067 0.07815 0.10699 0.10619 0.16693l7.9708 17.109h12.561l-9.9829-11.5c-0.03611-0.04139-0.06762-0.08708-0.0938-0.13549" fill="#595975"/>
    <path d="m53.111 27.725c-0.02488-0.02963-0.04755-0.06129-0.06762-0.09455l-7.6415-12.642v19.4l5.2421 4.5251c0.09831 0.08482 0.17309 0.19362 0.21753 0.31598l4.9067 13.541 3.7748 5.5595h13.117l-7.6282-16.373z" fill="#787a91"/>
    <path d="m54.386 53.381-4.8715-13.444-4.1122-3.5496v21.943h12.316l-3.2462-4.7809c-0.03551-0.05225-0.06441-0.1088-0.08597-0.16828" fill="#bdbdc7"/>
   </g>
   <g fill="#fff" stroke-width="1.007">
    <path d="m74.324 58.33-7.9708-17.109c-0.02809-0.06016-0.0637-0.11626-0.10618-0.16693l-11.947-14.264-8.8977-14.72v-9.8048l12.247 9.1269 19.159 35.302c0.02648 0.04841 0.05788 0.09387 0.0941 0.13549l9.9829 11.5zm-14.781 0-3.7748-5.5592-4.9067-13.541c-0.04444-0.12237-0.1192-0.23139-0.21753-0.31598l-5.2421-4.5253v-19.4l7.6415 12.641c0.01996 0.03324 0.04264 0.06514 0.06762 0.09455l11.92 14.232 7.6282 16.373zm-14.141-1e-6v-21.943l4.1122 3.5498 4.8715 13.444c0.02157 0.05948 0.05056 0.11603 0.08577 0.16828l3.2464 4.7809zm32.688-12.436-19.199-35.376c-0.05257-0.09658-0.12505-0.1805-0.21305-0.24609l-13.581-10.121c-0.01414-0.010405-0.02919-0.018774-0.04404-0.028047-0.01053-0.007012-0.02087-0.01425-0.0319-0.020583-0.03702-0.021035-0.07524-0.039357-0.11472-0.053832-8e-3 -0.003167-0.01665-0.00475-0.02468-0.00769-0.03351-0.010631-0.06732-0.019226-0.10169-0.025333-0.01254-0.002262-0.02488-0.004298-0.03752-0.005881-0.03722-0.00475-0.07454-0.006379-0.11203-0.006379h-0.01745c-0.04193 0.002082-0.08377 0.008641-0.12527 0.017915-0.01284 0.002714-0.02538 0.00656-0.03812 0.009952-0.0317 0.009047-0.0631 0.019904-0.0938 0.033023-0.01073 0.00475-0.02197 0.008821-0.0328 0.014024-4e-3 0.002036-9e-3 0.003167-0.01284 0.005429-0.03611 0.018321-0.06962 0.039809-0.10146 0.063106-2e-3 0.001809-5e-3 0.002489-8e-3 0.004298l-12.026 8.9629c0.43372 0.27617 0.7581 0.70887 0.89572 1.2203l10.825-8.0676v9.8048l-7.9221 13.106c0.52284 0.09296 0.97676 0.38226 1.2866 0.79007l6.6355-10.978v19.4l-3.7721 3.2562c0.4546 0.24564 0.80593 0.6573 0.97879 1.1538l2.7933-2.4112v22.702c0 0.41912 0.33718 0.75886 0.75317 0.75886h43.896c0.29543 0 0.5637-0.17416 0.68582-0.44514 0.12212-0.2712 0.07564-0.58922-0.11899-0.81337z"/>
    <path d="m37.773 41.06-3.6127 9.9697c0.01505-2.26e-4 0.02939-0.0022 0.04424-0.0022 0.52599 0 1.0048 0.19859 1.3707 0.52317l3.6127-9.9697c-0.01485 2.26e-4 -0.02939 0.0022-0.04424 0.0022-0.52598 0-1.0048-0.19859-1.3707-0.52317"/>
    <path d="m33.787 28.237-9.4832 11.322c0.49387 0.17168 0.90425 0.52385 1.1501 0.9803l9.4854-11.325c-0.49434-0.17054-0.90537-0.52181-1.1523-0.97758"/>
    <path d="m14.771 58.766c-0.17667 0.37954-0.01455 0.83146 0.36187 1.0095 0.10349 0.04908 0.21238 0.07215 0.31946 0.07215 0.28308 0 0.55427-0.1615 0.68245-0.43654l7.3559-15.789c-0.53609-0.03529-1.016-0.27414-1.3649-0.64215z"/>
    <path d="m32.49 54.301-2.9595 4.3589c-0.23482 0.34607-0.14704 0.81812 0.1962 1.0549 0.1302 0.08956 0.27815 0.13255 0.42474 0.13255 0.2402 0 0.47637-0.11558 0.62228-0.33046l2.9604-4.3598c-0.51409-0.1201-0.95498-0.43089-1.2441-0.85612"/>
    <path d="m29.479 12.228-17.383 32.029c0.5289 0.06853 0.99539 0.33612 1.3223 0.72719l17.383-32.029c-0.5289-0.06831-0.99539-0.33589-1.3223-0.72719"/>
    <path d="m9.9878 47.298-9.8015 11.291c-0.27388 0.31576-0.242 0.79505 0.071167 1.071 0.14278 0.12576 0.31945 0.18774 0.49545 0.18774 0.20967 0 0.41845-0.08777 0.56729-0.25944l9.8022-11.291c-0.49074-0.17914-0.8955-0.53742-1.1346-0.99862"/>
   </g>
   <g fill="#ed3d4a" stroke-width="1.007">
    <path d="m40.124 37.645c-0.29206-0.15765-0.62543-0.24768-0.97991-0.24768-1.1474 0-2.0774 0.93709-2.0774 2.0931 0 0.62586 0.27432 1.1861 0.7067 1.5697 0.36592 0.32458 0.84476 0.52317 1.3707 0.52317 0.01485 0 0.02939-2e-3 0.04424-0.0022 1.1267-0.02398 2.033-0.94976 2.033-2.0906 0-0.24292-0.04314-0.47499-0.11854-0.69168-0.17285-0.49671-0.52419-0.90814-0.97878-1.1538"/>
    <path d="m35.974 25.176c-0.11786-0.02103-0.23863-0.03393-0.36278-0.03393-1.1472 0-2.0772 0.93709-2.0772 2.0931 0 0.3628 0.09179 0.7039 0.253 1.0013 0.24695 0.45577 0.65799 0.80704 1.1523 0.97758 0.21102 0.0726 0.43641 0.114 0.6719 0.114 1.1474 0 2.0774-0.93709 2.0774-2.0929 0-0.47793-0.16073-0.91696-0.42832-1.2694-0.30958-0.40782-0.76372-0.69688-1.2863-0.78985"/>
    <path d="m32.175 9.1128c-0.3208-0.20425-0.69974-0.32413-1.107-0.32413-1.1474 0-2.0774 0.93687-2.0774 2.0929 0 0.51322 0.18409 0.98256 0.48826 1.3465 0.32664 0.3913 0.79336 0.65888 1.322 0.72742 0.08778 0.01131 0.17645 0.01923 0.26715 0.01923 1.1471 0 2.0772-0.93709 2.0772-2.0931 0-0.19022-0.02739-0.37343-0.07454-0.5485-0.13783-0.51141-0.462-0.94411-0.89571-1.2203"/>
    <path d="m34.16 51.03c-1.1267 0.02398-2.033 0.94999-2.033 2.0909 0 0.43835 0.13425 0.84481 0.36278 1.1809 0.28914 0.42523 0.73005 0.73601 1.2441 0.85612 0.15108 0.03529 0.30822 0.05587 0.47031 0.05587 1.1474 0 2.0774-0.93709 2.0774-2.0929 0-0.62609-0.27433-1.1864-0.7067-1.57-0.36592-0.32458-0.84476-0.52317-1.3707-0.52317-0.01505 0-0.02939 2e-3 -0.04424 0.0022"/>
    <path d="m24.304 39.559c-0.21237-0.07374-0.43955-0.11581-0.67684-0.11581-1.1472 0-2.0772 0.93687-2.0772 2.0929 0 0.56049 0.21977 1.0683 0.57581 1.444 0.34886 0.36801 0.82882 0.60686 1.3649 0.64215 0.04555 0.0029 0.09049 7e-3 0.1365 7e-3 1.1474 0 2.0774-0.93709 2.0774-2.0931 0-0.361-0.09089-0.7005-0.25053-0.99703-0.24582-0.45645-0.65619-0.80839-1.1501-0.98007"/>
    <path d="m12.096 44.257c-0.08778-0.01131-0.17645-0.01922-0.26692-0.01922-1.1474 0-2.0774 0.93709-2.0774 2.0931 0 0.34923 0.085984 0.67811 0.23639 0.96763 0.23931 0.4612 0.64384 0.81948 1.1346 0.99862 0.2209 0.08052 0.45796 0.12666 0.70647 0.12666 1.1472 0 2.0772-0.93709 2.0772-2.0929 0-0.51322-0.18386-0.98256-0.48804-1.3467-0.32686-0.39108-0.79358-0.65866-1.3223-0.72719"/>
   </g>
   <path d="m234 54.513v-1.5677h-2.2631v-1.9237h-1.8386v1.9237h-1.9095v1.5677h1.9095v2.4225c0 0.98346 0.15557 1.5962 0.50915 2.0664 0.46671 0.62699 1.2729 0.99749 2.3762 0.99749 0.35357 0 0.90515-0.057 1.1456-0.1425l-0.28286-1.5675c-0.12728 0.0285-0.48085 0.07125-0.74956 0.07125-0.45259 0-0.74958-0.12825-0.93367-0.342-0.15557-0.18525-0.22629-0.44174-0.22629-0.86924v-2.6364z" fill="#fff" stroke-width="1.007"/>
  </g>
 </g>
</svg>
