<?xml version="1.0" encoding="UTF-8"?>
<svg width="250px" height="98px" viewBox="0 0 250 98" version="1.1" xmlns="http://www.w3.org/2000/svg" xmlns:xlink="http://www.w3.org/1999/xlink">
    <!-- Generator: sketchtool 57.1 (101010) - https://sketch.com -->
    <title>382EEC9F-996D-4BD1-9BAB-88CE4AE2C974</title>
    <desc>Created with sketchtool.</desc>
    <g id="TPI-visuals" stroke="none" stroke-width="1" fill="none" fill-rule="evenodd">
        <g id="TPI---Company---print-styles" transform="translate(-106.000000, -83.000000)" fill="#191919" fill-rule="nonzero">
            <g id="TPI_logo" transform="translate(106.000000, 83.000000)">
                <path d="M53.7427892,96.7470952 C54.0079033,96.7470952 54.2228207,96.9620127 54.2228207,97.2271268 C54.2228207,97.4922409 54.0079033,97.7071583 53.7427892,97.7071583 C53.4776751,97.7071583 53.2627576,97.4922409 53.2627576,97.2271268 C53.2627576,96.9620127 53.4776751,96.7470952 53.7427892,96.7470952 Z M49.659558,92.3319904 C50.1063243,92.3319904 50.4685,92.6941661 50.4685,93.1409324 C50.4685,93.468119 50.2714076,93.7630886 49.9691267,93.8882974 C49.6668458,94.0135063 49.3189054,93.9442966 49.0875496,93.7129408 C48.8561938,93.481585 48.7869842,93.1336447 48.912193,92.8313637 C49.0374019,92.5290828 49.3323715,92.3319904 49.659558,92.3319904 Z M70.9765137,92.192722 C71.2409549,92.1943394 71.4549278,92.4083123 71.4565452,92.6727535 C71.4565452,92.9378676 71.2416278,93.1527851 70.9765137,93.1527851 C70.7113996,93.1527851 70.4964822,92.9378676 70.4964822,92.6727535 C70.4964822,92.4076395 70.7113996,92.192722 70.9765137,92.192722 Z M45.5763269,87.9198488 C45.8781041,87.9198488 46.1675213,88.0397293 46.3809101,88.2531181 C46.5942988,88.4665068 46.7141794,88.755924 46.7141794,89.0577013 C46.7141794,89.6861199 46.2047454,90.1955538 45.5763269,90.1955538 C44.9479083,90.1955538 44.4384743,89.6861199 44.4384743,89.0577013 C44.4384743,88.4292827 44.9479083,87.9198488 45.5763269,87.9198488 Z M23.5215449,88.2783908 C23.7859862,88.2800083 23.999959,88.4939811 24.0015765,88.7584224 C24.0015765,89.0235365 23.786659,89.2384539 23.5215449,89.2384539 C23.2564308,89.2384539 23.0415134,89.0235365 23.0415134,88.7584224 C23.0415134,88.4933083 23.2564308,88.2783908 23.5215449,88.2783908 Z M66.564372,87.4990804 C66.9849543,87.4990804 67.3259035,87.8400297 67.3259035,88.2606119 C67.3259035,88.6811941 66.9849543,89.0221434 66.564372,89.0221434 C66.1437898,89.0221434 65.8028405,88.6811941 65.8028405,88.2606119 C65.8028405,87.8400297 66.1437898,87.4990804 66.564372,87.4990804 Z M20.1820663,84.3196083 C20.7880528,84.3212457 21.2784346,84.8129551 21.2784346,85.4189438 C21.2784346,85.8638511 21.0102678,86.2648935 20.5991118,86.434874 C20.1879559,86.6048546 19.7148823,86.5102561 19.4007101,86.1952348 C19.0865379,85.8802135 18.9932166,85.4068862 19.1643063,84.9961906 C19.3353959,84.5854949 19.7371606,84.3184131 20.1820663,84.3196083 Z M41.4901325,83.5017808 C42.3018399,83.5017808 42.9598587,84.1597996 42.9598587,84.971507 C42.9598587,85.7832143 42.3018399,86.4412331 41.4901325,86.4412331 C40.6784252,86.4412331 40.0204064,85.7832143 40.0204064,84.971507 C40.0204064,84.1597996 40.6784252,83.5017808 41.4901325,83.5017808 Z M62.1522304,82.8054346 C62.4293726,82.8046514 62.6954336,82.9141943 62.8916813,83.109886 C63.087929,83.3055778 63.1982293,83.5713269 63.1982293,83.8484703 C63.1994243,84.2718032 62.9453376,84.6541192 62.5545727,84.8169534 C62.1638077,84.9797875 61.7134216,84.8910296 61.4136546,84.5921117 C61.1138875,84.2931938 61.0238522,83.8430613 61.1855771,83.451836 C61.3473021,83.0606107 61.7288958,82.8054346 62.1522304,82.8054346 Z M196.809964,67.4207246 L196.809964,71.0298505 L201.070984,71.0298505 L201.070984,73.9693029 L196.795148,73.9693029 L196.795148,78.9237023 C196.795148,79.726718 196.92849,80.2067496 197.224806,80.553439 C197.586311,80.9564284 198.149311,81.1964442 199.0027,81.1964442 C199.358972,81.1928893 199.714549,81.1669108 200.067325,81.118707 L200.41909,81.0631021 L200.955421,84.0025544 C200.247667,84.1831474 199.519776,84.2727647 198.789353,84.2693388 C196.70329,84.2693388 195.186153,83.5847492 194.297206,82.3994862 C193.672503,81.5684076 193.373275,80.5010967 193.340234,78.8418153 L193.337143,78.5236761 L193.337143,73.9693029 L189.728017,73.9693029 L189.728017,71.0298505 L193.337143,71.0298505 L193.337143,67.4207246 L196.809964,67.4207246 Z M179.516976,70.7631663 C180.80416,70.7459614 182.059324,71.1482909 183.094413,71.905268 L183.312781,72.072882 L183.312781,71.0298505 L186.667075,71.0298505 L186.667075,84.0025544 L183.327597,84.0025544 L183.327597,82.959523 C182.324683,83.8218809 181.041027,84.2877068 179.718471,84.2692386 C177.849216,84.2744711 176.067651,83.4770292 174.826298,82.0794652 C173.741077,80.8108819 173.147952,79.1945098 173.155013,77.525092 C173.155013,73.7026187 175.987855,70.7631663 179.516976,70.7631663 Z M158.051863,67.4207246 L158.051863,71.0298505 L162.327699,71.0298505 L162.327699,73.9693029 L158.051863,73.9693029 L158.051863,78.9237023 C158.051863,79.726718 158.185205,80.2067496 158.48152,80.553439 C158.82821,80.9564284 159.388247,81.1964442 160.244599,81.1964442 C160.600871,81.1928893 160.956447,81.1669108 161.309224,81.118707 L161.660988,81.0631021 L162.194357,84.0025544 C161.487629,84.1832472 160.760704,84.2728681 160.031252,84.2693446 C157.945189,84.2693446 156.428052,83.5847492 155.539105,82.3994862 C154.914402,81.5684076 154.615174,80.5010967 154.582132,78.8418153 L154.579042,78.5236761 L154.579042,73.9693029 L150.969916,73.9693029 L150.969916,71.0298505 L154.579042,71.0298505 L154.579042,67.4207246 L158.051863,67.4207246 Z M233.218281,70.7631663 C236.797775,70.7631663 239.337201,73.7826239 239.352116,77.3917499 C239.353958,77.7233387 239.32719,78.0544731 239.272012,78.3814445 L239.272012,78.3814445 L230.290681,78.3814445 C230.463366,80.1699925 231.997323,81.5157732 233.793134,81.4542389 C235.037684,81.4184802 236.214231,80.8783384 237.052607,79.9578443 L237.052607,79.9578443 L239.031996,81.9342705 C237.760802,83.4336282 235.701407,84.2603492 233.698313,84.2603492 C229.822502,84.2603492 226.909719,81.587581 226.909719,77.525092 C226.909719,73.915966 229.366176,70.7631663 233.218281,70.7631663 Z M83.712165,83.1521282 C83.9772791,83.1521282 84.1921965,83.3670457 84.1921965,83.6321597 C84.1921965,83.8972738 83.9772791,84.1121913 83.712165,84.1121913 C83.4470509,84.1121913 83.2321335,83.8972738 83.2321335,83.6321597 C83.2321335,83.3670457 83.4470509,83.1521282 83.712165,83.1521282 Z M134.31697,70.7630657 C136.054071,70.752969 137.705281,71.5177401 138.82097,72.8492293 C139.634505,73.8119592 140.10841,75.0421141 140.153767,77.0655851 L140.157354,77.3917499 L140.157354,83.993665 L136.660828,83.993665 L136.660828,77.1250657 C136.660828,75.8420185 136.367475,75.1723448 135.884481,74.6923133 C135.355793,74.2028768 134.654696,73.9428953 133.934723,73.9693029 C132.778406,74.0030498 131.692437,74.5177354 130.934901,75.3828598 L130.78785,75.5605185 L130.78785,83.993665 L127.312066,83.993665 L127.312066,71.0298505 L130.654508,71.0298505 L130.654508,72.072882 C131.684683,71.2215873 132.98058,70.7581677 134.31697,70.7630657 Z M214.85263,71.0298505 L218.408419,78.9414813 L221.964209,71.0298505 L225.573335,71.0298505 L219.611461,83.993665 L217.205377,83.993665 L211.243504,71.0298505 L214.85263,71.0298505 Z M147.894158,71.0298505 L147.894158,83.993665 L144.421338,83.993665 L144.421338,71.0298505 L147.894158,71.0298505 Z M208.437394,71.0298505 L208.437394,83.993665 L204.96161,83.993665 L204.96161,71.0298505 L208.437394,71.0298505 Z M169.679293,71.0298505 L169.679293,83.993665 L166.206472,83.993665 L166.206472,71.0298505 L169.679293,71.0298505 Z M122.636203,65.284288 L122.636203,83.993665 L119.027077,83.993665 L119.027077,65.284288 L122.636203,65.284288 Z M16.8396246,80.3608338 C17.7887985,80.3608338 18.558256,81.1302913 18.558256,82.0794652 C18.558256,83.0286391 17.7887985,83.7980966 16.8396246,83.7980966 C15.8904507,83.7980966 15.1209932,83.0286391 15.1209932,82.0794652 C15.1209932,81.1302913 15.8904507,80.3608338 16.8396246,80.3608338 Z M37.4039382,79.0925999 C37.8817223,79.0918113 38.340122,79.2814632 38.6776887,79.6195859 C39.0152553,79.9577087 39.2041524,80.41642 39.2025847,80.8942021 C39.200939,81.8871744 38.394939,82.6909647 37.401966,82.6898757 C36.4089931,82.6887844 35.6047599,81.8832263 35.605304,80.8902529 C35.6058487,79.8972795 36.4109647,79.0925999 37.4039382,79.0925999 Z M10.1488147,72.4343872 C11.7853215,72.4343872 13.1119723,73.7610381 13.1119723,75.3975448 C13.1121606,75.7679649 13.0417648,76.1350283 12.9045513,76.4790973 C13.0981952,76.4292468 13.2972295,76.4033724 13.4971828,76.4020552 C14.1169681,76.4012687 14.7116379,76.6469263 15.1501705,77.0849031 C15.5448498,77.4790821 15.7839107,77.9999299 15.8277761,78.5519815 L15.8351141,78.7370234 L15.8262247,78.7459129 C15.8566629,79.6004903 15.4181151,80.4035071 14.6826861,80.8398251 C13.9472572,81.2761431 13.0322926,81.2761431 12.2968637,80.8398251 C11.5614347,80.4035071 11.1228869,79.6004903 11.1533252,78.7459129 C11.1541502,78.5457333 11.1810449,78.3465138 11.2333304,78.1532814 C10.8883153,78.290795 10.5202245,78.3611949 10.1488147,78.3607024 C8.51230799,78.3607024 7.18565715,77.0340516 7.18565715,75.3975448 C7.18565715,73.7610381 8.51230799,72.4343872 10.1488147,72.4343872 Z M179.970339,73.9692527 C177.940576,73.9692527 176.627897,75.6523764 176.627897,77.525092 C176.627897,79.5578181 178.100587,81.0542126 180.050344,81.0542126 C181.218705,81.062253 182.321386,80.5325178 183.045264,79.625577 L183.176476,79.4511444 L183.176476,75.5605185 C182.419438,74.5530546 181.230518,73.9629897 179.970339,73.9692527 Z M57.7400887,78.108834 C58.4732438,78.108834 59.0675833,78.7031736 59.0675833,79.4363286 C59.0675833,80.1694836 58.4732438,80.7638232 57.7400887,80.7638232 C57.0069337,80.7638232 56.4125941,80.1694836 56.4125941,79.4363286 C56.4125941,78.7031736 57.0069337,78.108834 57.7400887,78.108834 Z M79.6200444,78.8199858 C80.0209885,78.8199858 80.346024,79.1450213 80.346024,79.5459654 C80.3472162,79.8413287 80.1700572,80.1082203 79.8974047,80.2218051 C79.6247522,80.33539 79.3105062,80.2732138 79.1016511,80.0643587 C78.892796,79.8555036 78.8306198,79.5412576 78.9442047,79.2686051 C79.0577895,78.9959526 79.3246811,78.8187936 79.6200444,78.8199858 Z M33.3207071,74.6715712 C34.4957189,74.6715712 35.4482542,75.6241065 35.4482542,76.7991184 C35.4482542,77.6596308 34.929894,78.4354117 34.1348841,78.7647156 C33.3398742,79.0940195 32.4247783,78.9119956 31.8163041,78.3035214 C31.2078298,77.6950471 31.0258059,76.7799512 31.3551098,75.9849413 C31.6844137,75.1899314 32.4601946,74.6715712 33.3207071,74.6715712 Z M53.3368366,73.4151896 C54.2254597,73.4151896 54.9458339,74.1355638 54.9458339,75.024187 C54.9470295,75.6767007 54.5547285,76.265575 53.9521129,76.5158351 C53.3494973,76.7660952 52.6554476,76.6283713 52.1940499,76.1669736 C51.7326522,75.7055759 51.5949284,75.0115262 51.8451885,74.4089106 C52.0954486,73.806295 52.6843228,73.413994 53.3368366,73.4151896 Z M75.5279237,74.4759983 C75.7862048,74.4752154 76.0341773,74.5772656 76.2170882,74.7596206 C76.3999992,74.9419755 76.5028071,75.1896362 76.5028071,75.4479185 C76.5040019,75.8424876 76.2672422,76.1988722 75.9030515,76.350699 C75.5388608,76.5025258 75.119063,76.4198523 74.8396348,76.1412735 C74.5602067,75.8626947 74.4762557,75.4431505 74.6269731,75.0784993 C74.7776906,74.7138481 75.1333528,74.4759983 75.5279237,74.4759983 Z M233.218281,73.5840924 C231.77226,73.5840924 230.595887,74.6715712 230.438839,75.8568342 L230.438839,75.8568342 L235.781412,75.8568342 C235.624158,74.560375 234.524242,73.5850737 233.218281,73.5840924 Z M29.2345128,70.2623909 C29.8865191,70.2616062 30.5120902,70.5200636 30.9734065,70.980824 C31.4347227,71.4415845 31.6939336,72.0668436 31.6939336,72.7188504 C31.6939336,74.0751285 30.5947405,75.1747613 29.2384624,75.1753062 C27.8821844,75.1758507 26.7821094,74.0771011 26.7810183,72.7208234 C26.7799287,71.3645457 27.8782356,70.2640288 29.2345128,70.2623909 Z M71.4387663,70.1379365 C71.7627895,70.1371508 72.0737689,70.2655191 72.3028885,70.4946388 C72.5320082,70.7237584 72.6603765,71.0347378 72.6595908,71.358761 C72.6595908,72.0330018 72.1130071,72.5795819 71.4387663,72.5795819 C70.7645255,72.5795819 70.2179453,72.0330018 70.2179453,71.358761 C70.2179453,70.6845202 70.7645255,70.1379365 71.4387663,70.1379365 Z M48.9158055,68.7215484 C49.9592202,68.7231824 50.8046684,69.5686306 50.8063023,70.6120453 C50.8074984,71.3784154 50.346612,72.0699349 49.638807,72.3637659 C48.931002,72.6575969 48.115874,72.4957891 47.5739678,71.9538829 C47.0320617,71.4119768 46.8702539,70.5968488 47.1640849,69.8890438 C47.4579159,69.1812387 48.1494353,68.7203524 48.9158055,68.7215484 Z M4.71734688,43.7836165 C7.172107,43.7836165 9.16208326,45.7735928 9.16208326,48.2283529 C11.2844706,48.406999 12.9162089,50.1816915 12.9164039,52.311584 C12.9164039,52.4034419 12.9015881,52.5071524 12.9015881,52.6078998 C14.984183,52.6111692 16.6707272,54.3003652 16.6707246,56.3829626 C16.6690318,56.6044719 16.6492112,56.8254711 16.6114614,57.0437467 C16.7343953,57.0293721 16.858086,57.0224454 16.9818561,57.0230046 C18.8839569,57.0230039 20.4263729,58.5640937 20.4280084,60.4661937 C20.4265353,60.8336259 20.3675456,61.1985621 20.2531821,61.5477462 C20.5184938,61.4736836 20.792596,61.4358076 21.0680504,61.4351463 C22.2193521,61.4362441 23.2763124,62.0718351 23.8170714,63.0882388 C24.3578304,64.1046425 24.2943335,65.3363524 23.6519239,66.2917615 C24.5085074,65.7422815 25.5967396,65.7042845 26.4895619,66.1926818 C27.3265828,66.6505542 27.866652,67.5025876 27.9303216,68.4458418 L27.9366504,68.6356192 L27.9336866,68.6237666 C27.9336866,70.1620829 26.6866348,71.4091347 25.1483184,71.4091347 C23.6100021,71.4091347 22.3629503,70.1620829 22.3629503,68.6237666 C22.3623302,68.091844 22.5156691,67.5711093 22.8044608,67.1244088 C21.7251799,67.8487855 20.3095148,67.8266543 19.2534043,67.068895 C18.1972937,66.3111357 17.7228897,64.9771423 18.0634087,63.7227039 C17.0153379,64.0736426 15.8624193,63.8987141 14.965615,63.2526861 C14.0688106,62.606658 13.5377375,61.568495 13.538667,60.4632306 C13.5381078,60.3394604 13.5450345,60.2157697 13.5594091,60.0928359 C13.3411336,60.1305857 13.1201344,60.1504062 12.898625,60.152099 C10.8229049,60.1587082 9.13125068,58.4882328 9.11170958,56.4125941 C9.00799907,56.4274099 8.90725171,56.4274099 8.80057803,56.4274099 C6.67013305,56.4286324 4.89462671,54.7961458 4.71734688,52.6730893 C2.26258676,52.6730893 0.272610498,50.683113 0.272610498,48.2283529 C0.272610498,45.7735928 2.26258676,43.7836165 4.71734688,43.7836165 Z M92.7468325,70.3838729 C92.8743867,70.3830874 92.996947,70.4334068 93.0871432,70.523603 C93.1773394,70.6137992 93.2276588,70.7363594 93.2268733,70.8639137 C93.2268733,71.1290278 93.0119466,71.3439452 92.7468325,71.3439452 C92.4817184,71.3439452 92.266801,71.1290278 92.266801,70.8639137 C92.266801,70.5987996 92.4817184,70.3838729 92.7468325,70.3838729 Z M67.3466456,65.7969142 C68.158353,65.7969142 68.8163718,66.454933 68.8163718,67.2666404 C68.8163718,68.0783477 68.158353,68.7363666 67.3466456,68.7363666 C66.5349383,68.7363666 65.8769195,68.0783477 65.8769195,67.2666404 C65.8769195,66.454933 66.5349383,65.7969142 67.3466456,65.7969142 Z M146.157748,64.2145881 C146.754575,64.2018656 147.331488,64.4294684 147.758865,64.8462581 C148.186241,65.2630478 148.428241,65.8340715 148.430491,66.43103 C148.431765,67.6501364 147.449476,68.6420557 146.230415,68.652673 C145.011354,68.6632902 144.011937,67.6886304 143.991978,66.4696866 C143.97202,65.2507429 144.938993,64.2438864 146.157748,64.2145881 Z M167.942883,64.2145881 C168.53971,64.2018656 169.116623,64.4294684 169.543999,64.8462581 C169.971376,65.2630478 170.213375,65.8340715 170.215626,66.43103 C170.2169,67.6501364 169.23461,68.6420557 168.01555,68.652673 C166.796489,68.6632902 165.797071,67.6886304 165.777113,66.4696866 C165.757155,65.2507429 166.724128,64.2438864 167.942883,64.2145881 Z M206.700984,64.2145881 C207.297811,64.2018656 207.874724,64.4294684 208.302101,64.8462581 C208.729477,65.2630478 208.971477,65.8340715 208.973727,66.43103 C208.975001,67.6501364 207.992712,68.6420557 206.773651,68.652673 C205.55459,68.6632902 204.555173,67.6886304 204.535214,66.4696866 C204.515256,65.2507429 205.482229,64.2438864 206.700984,64.2145881 Z M45.3323351,64.1902229 C46.1454249,64.5266906 46.6756603,65.3199459 46.6756603,66.1999037 C46.6764449,66.7764657 46.4479577,67.3296825 46.0405444,67.7376516 C45.6331312,68.1456207 45.0802263,68.3748634 44.5036638,68.3748634 C43.6237069,68.3760602 42.8297294,67.8469095 42.4921535,67.0342792 C42.1545775,66.2216488 42.3399255,65.2856752 42.9617253,64.6630271 C43.5835251,64.040379 44.5192452,63.8537551 45.3323351,64.1902229 Z M88.3258014,65.6931979 C88.528285,65.6924158 88.7227456,65.7723004 88.866202,65.9152008 C89.0096584,66.0581011 89.090296,66.2522501 89.090296,66.4547352 C89.090296,66.874931 88.7499439,67.2157174 88.3297484,67.216261 C87.9095529,67.2168032 87.5683245,66.8768974 87.567233,66.456703 C87.5661466,66.0365086 87.9056087,65.6948387 88.3258014,65.6931979 Z M223.807293,45.7926374 L227.603097,53.570926 L231.10555,45.7926374 L234.768012,45.7926374 L225.837056,65.171688 L222.204224,65.171688 L225.786682,57.4467361 L219.984819,45.7926374 L223.807293,45.7926374 Z M64.4668076,61.9610869 C65.1368177,62.631097 65.1368177,63.717398 64.4668076,64.3874081 C63.7967975,65.0574183 62.7104964,65.0574183 62.0404863,64.3874081 C61.3704762,63.717398 61.3704762,62.631097 62.0404863,61.9610869 C62.7104964,61.2910767 63.7967975,61.2910767 64.4668076,61.9610869 Z M41.829548,60.0518345 C42.5318563,60.754991 42.7412883,61.8120429 42.3601415,62.7298627 C41.9789947,63.6476824 41.0823721,64.2454185 40.088559,64.2442215 C38.7337291,64.240956 37.6366929,63.1425949 37.6350645,61.787762 C37.6350645,60.7939481 38.2338831,59.8980477 39.1521622,59.518009 C40.0704413,59.1379703 41.1272397,59.348678 41.829548,60.0518345 Z M83.919586,61.002521 C84.4961154,61.0041585 84.9626175,61.4719882 84.9626175,62.0485199 C84.9626175,62.4718545 84.7074456,62.8534482 84.3162203,63.0151732 C83.924995,63.1768981 83.4748625,63.0868628 83.1759446,62.7870957 C82.8770267,62.4873286 82.7882688,62.0369425 82.9511029,61.6461776 C83.113937,61.2554127 83.4962531,61.001326 83.919586,61.002521 Z M59.1624044,57.1207888 C60.2474084,57.1207888 61.1269779,58.0003583 61.1269779,59.0853623 C61.1269779,60.1703663 60.2474084,61.0499358 59.1624044,61.0499358 C58.0774004,61.0499358 57.1978309,60.1703663 57.1978309,59.0853623 C57.1978309,58.0003583 58.0774004,57.1207888 59.1624044,57.1207888 Z M35.6764174,54.6376628 C37.1885496,54.6376628 38.414375,55.8634881 38.414375,57.3756204 C38.414375,58.8877526 37.1885496,60.113578 35.6764174,60.113578 C34.1642851,60.113578 32.9384597,58.8877526 32.9384597,57.3756204 C32.9384597,55.8634881 34.1642851,54.6376628 35.6764174,54.6376628 Z M157.518494,42.1864746 L157.518494,45.7926374 L161.788404,45.7926374 L161.788404,48.7350528 L157.503678,48.7350528 L157.503678,53.6775997 C157.503678,54.4806154 157.634057,54.9606469 157.930373,55.3102995 C158.291878,55.7103258 158.854878,55.9503416 159.708268,55.9503416 C160.06528,55.9468796 160.421602,55.9209242 160.775118,55.872674 L161.12762,55.8169995 L161.660988,58.7564518 C160.954408,58.9382395 160.227469,59.0288579 159.497883,59.0261603 C157.411821,59.0261603 155.894684,58.3386466 155.005737,57.1533835 C154.378244,56.322305 154.078853,55.2576189 154.045801,53.5961759 L154.04271,53.2775734 L154.04271,48.7350528 L150.433584,48.7350528 L150.433584,45.7926374 L154.04271,45.7926374 L154.04271,42.1864746 L157.518494,42.1864746 Z M210.040462,45.5259532 C211.327385,45.5103678 212.582035,45.9126338 213.617748,46.6683444 L213.836267,46.8356688 L213.836267,45.7926374 L217.178709,45.7926374 L217.178709,58.7564518 L213.836267,58.7564518 L213.845157,57.7134203 C212.843722,58.5766491 211.561011,59.0435685 210.238994,59.0260991 C208.369273,59.0305803 206.587634,58.2320257 205.346821,56.8333625 C204.26444,55.5668125 203.672482,53.95391 203.678517,52.2878788 C203.678517,48.4654055 206.511342,45.5259532 210.040462,45.5259532 Z M140.213654,45.5259532 C141.500838,45.5087483 142.756001,45.9110777 143.791091,46.6680548 L144.009459,46.8356688 L144.009459,45.7926374 L147.351901,45.7926374 L147.351901,58.7564518 L144.009459,58.7564518 L144.009459,57.7134203 C143.008307,58.5771308 141.725407,59.0441191 140.403296,59.0260991 C138.533575,59.0305803 136.751935,58.2320257 135.511123,56.8333625 C134.432791,55.5652623 133.84507,53.9524464 133.854601,52.2878788 C133.854601,48.4654055 136.687496,45.5259532 140.213654,45.5259532 Z M79.5133707,56.3118468 C80.2465257,56.3118468 80.8408653,56.9061864 80.8408653,57.6393414 C80.8408653,58.3724964 80.2465257,58.966836 79.5133707,58.966836 C78.7802157,58.966836 78.1858761,58.3724964 78.1858761,57.6393414 C78.1858761,56.9061864 78.7802157,56.3118468 79.5133707,56.3118468 Z M126.046797,40.0470748 C128.452881,40.0470748 129.869271,40.63378 130.912302,41.7301483 C131.881595,42.7863429 132.411477,44.172513 132.393881,45.6059584 C132.413897,47.0381956 131.887254,48.4242111 130.921192,49.4817686 C129.953855,50.4971888 128.592333,51.0833246 126.377888,51.1345117 L126.055687,51.1381736 L122.636203,51.1381736 L122.636203,58.7564518 L119.027077,58.7564518 L119.027077,40.0470748 L126.046797,40.0470748 Z M183.606134,45.7926374 L186.761896,53.3575787 L190.02137,45.7926374 L192.427454,45.7926374 L195.663222,53.3575787 L198.84269,45.7926374 L202.345142,45.7926374 L196.892932,58.7564518 L194.486848,58.7564518 L191.224412,51.2181789 L187.961975,58.7564518 L185.558854,58.7564518 L180.103681,45.7926374 L183.606134,45.7926374 Z M168.603667,39.7803906 L168.603667,46.7289952 C169.616025,45.948143 170.860218,45.5278498 172.138714,45.5348426 C173.86929,45.5272972 175.514281,46.2868576 176.630861,47.609053 C177.441581,48.5745979 177.918019,49.8022192 177.963636,51.8254299 L177.967245,52.1515735 L177.967245,58.7564518 L174.491461,58.7564518 L174.491461,51.8878525 C174.491461,50.6048053 174.198108,49.9351317 173.709187,49.4551001 C173.179686,48.9673015 172.478883,48.7084943 171.75943,48.7350528 C170.598299,48.769039 169.508398,49.287948 168.7507,50.1592099 L168.603667,50.3381211 L168.603667,58.7445992 L165.136772,58.7445992 L165.136772,39.7803906 L168.603667,39.7803906 Z M55.9155256,52.9507096 C56.7419025,53.2926811 57.2808013,54.0989021 57.2808013,54.9932417 C57.2815859,55.5792342 57.0493524,56.1414953 56.6352708,56.5561328 C56.2211891,56.9707703 55.65924,57.2037592 55.0732469,57.2037592 C54.1789082,57.2049561 53.371965,56.667142 53.0288854,55.8412246 C52.6858057,55.0153071 52.8741959,54.0640394 53.5061652,53.4312218 C54.1381345,52.7984042 55.0891487,52.6087382 55.9155256,52.9507096 Z M10.8803126,26.7949711 C12.4765083,27.4545714 13.5398639,28.9754603 13.6223872,30.6877817 L13.6275617,30.9027705 L13.6275617,31.1635283 C15.9186712,31.1635283 17.7759824,33.0208395 17.7759824,35.311949 C17.7746712,35.4994546 17.7598168,35.6866206 17.731535,35.8719858 C17.8233929,35.8542068 17.9241402,35.8542068 18.0278508,35.8542068 C19.2127458,35.8496354 20.3338173,36.3906312 21.0675107,37.3210564 C21.8012042,38.2514815 22.0658745,39.4677986 21.7851346,40.6189642 C21.9999233,40.5772875 22.2182347,40.5564487 22.4370293,40.5567379 C23.619182,40.5549622 24.7259765,41.1369661 25.3945181,42.1119227 C26.0630598,43.0868792 26.2071225,44.3290421 25.779471,45.4311321 C27.1435688,44.9630278 28.6536088,45.4355348 29.5075798,46.5976957 C30.3615509,47.7598566 30.3613659,49.3420967 29.5071233,50.5040579 C30.7887962,49.5863896 32.5601038,49.8053919 33.5796797,51.0075839 C34.5992556,52.209776 34.5260909,53.9930705 33.4114608,55.1077006 C32.2968306,56.2223308 30.5135361,56.2954955 29.3113441,55.2759196 C28.1091521,54.2563436 27.8901497,52.4850361 28.8078181,51.2033631 C27.8044559,51.9457683 26.4679481,52.0581326 25.3547141,51.4936759 C24.2414801,50.9292192 23.5422824,49.7846663 23.5482133,48.5365213 C23.5482858,48.172361 23.6093827,47.8107873 23.728966,47.4668214 C22.626542,47.89573 21.3834065,47.7522928 20.4076282,47.0835942 C19.4318499,46.4148956 18.849451,45.3072983 18.8516086,44.1243796 C18.8526671,43.9056504 18.8734939,43.6874645 18.9138349,43.472485 C18.6227551,43.5429324 18.3243707,43.5787385 18.0248876,43.5791586 C17.0006813,43.5830979 16.0170728,43.178992 15.2914555,42.4561548 C14.5658381,41.7333176 14.1579594,40.7512677 14.157967,39.7270538 C14.157967,39.6322327 14.1727827,39.5314854 14.1727827,39.430738 C13.9871861,39.4565571 13.8001212,39.4704137 13.612746,39.4722222 C11.3216365,39.4722222 9.46432533,37.614911 9.46432533,35.3238016 L9.33505758,35.3367654 L9.20356747,35.3386174 L9.19764115,35.3475069 C7.39857699,35.3535038 5.77332327,34.274389 5.08069192,32.6139885 C4.38806057,30.9535881 4.7646676,29.0394028 6.0346796,27.7651432 C7.30469159,26.4908837 9.21760882,26.1078875 10.8803126,26.7949711 Z M210.496789,48.7439173 C208.464063,48.7439173 207.154347,50.429979 207.154347,52.2997314 C207.154347,54.3324575 208.627036,55.8288521 210.576794,55.8288521 C211.745494,55.838325 212.848784,55.3083727 213.571877,54.400416 L213.702925,54.2257839 L213.702925,50.3470106 C212.949004,49.3343334 211.759283,48.7394731 210.496789,48.7439173 Z M140.66998,48.7320647 C138.637254,48.7320647 137.327538,50.4181264 137.327538,52.2878788 C137.327538,54.3206049 138.800228,55.8169995 140.749985,55.8169995 C141.919581,55.8317793 143.026048,55.3059692 143.753189,54.4000574 L143.885006,54.2257839 L143.876117,50.3351579 C143.122195,49.3224808 141.932475,48.7276204 140.66998,48.7320647 Z M75.1041922,51.6211656 C75.9928154,51.6211656 76.7131895,52.3415397 76.7131895,53.2301629 C76.7143852,53.8826767 76.3220842,54.4715509 75.7194686,54.721811 C75.116853,54.9720711 74.4228032,54.8343473 73.9614055,54.3729496 C73.5000078,53.9115519 73.362284,53.2175021 73.6125441,52.6148865 C73.8628042,52.0122709 74.4516784,51.61997 75.1041922,51.6211656 Z M97.1471215,53.0405208 C97.2744338,53.0405208 97.3965317,53.0910954 97.4865551,53.1811188 C97.5765784,53.2711422 97.627153,53.3932401 97.627153,53.5205523 C97.627153,53.7856664 97.4122356,54.0005839 97.1471215,54.0005839 C96.8820074,54.0005839 96.66709,53.7856664 96.66709,53.5205523 C96.66709,53.2554383 96.8820074,53.0405208 97.1471215,53.0405208 Z M50.9811263,48.4446634 C52.3377904,48.4446634 53.4375839,49.5444569 53.4375839,50.901121 C53.4375839,52.2577851 52.3377904,53.3575787 50.9811263,53.3575787 C49.6244622,53.3575787 48.5246687,52.2577851 48.5246687,50.901121 C48.5246687,49.5444569 49.6244622,48.4446634 50.9811263,48.4446634 Z M71.4298679,47.072227 C72.1376729,47.366058 72.5985593,48.0575774 72.5973632,48.8239476 C72.5973632,49.8680389 71.7509577,50.7144444 70.7068664,50.7144444 C69.9404962,50.7156405 69.2489768,50.2547541 68.9551458,49.5469491 C68.6613148,48.8391441 68.8231226,48.0240161 69.3650287,47.4821099 C69.9069349,46.9402038 70.7220629,46.778396 71.4298679,47.072227 Z M93.0816693,48.6313423 C93.5284356,48.6313423 93.8906113,48.993518 93.8906113,49.4402843 C93.8906113,49.7674709 93.6935189,50.0624405 93.391238,50.1876493 C93.0889571,50.3128582 92.7410167,50.2436485 92.5096609,50.0122927 C92.2783051,49.7809369 92.2090955,49.4329966 92.3343043,49.1307156 C92.4595132,48.8284347 92.7544828,48.6313423 93.0816693,48.6313423 Z M49.5596799,46.3754087 C49.7988159,47.8486204 48.7983998,49.2367525 47.3251881,49.4758885 C45.8519764,49.7150245 44.4638443,48.7146085 44.2247083,47.2413968 C43.9855723,45.7681851 44.9859883,44.380053 46.4592001,44.140917 C47.9324118,43.901781 49.3205439,44.902197 49.5596799,46.3754087 Z M125.895676,43.2621008 L122.636203,43.2621008 L122.636203,47.9320371 L125.895676,47.9320371 C127.125387,47.9320371 127.741724,47.6386845 128.168418,47.1823583 C128.568602,46.7592866 128.788564,46.1971631 128.781792,45.6148479 C128.790683,45.0215687 128.571066,44.447594 128.168418,44.0117796 C127.741724,43.5584165 127.125387,43.2621008 125.895676,43.2621008 Z M67.8307369,42.8778925 C68.4525366,43.5005406 68.6378847,44.4365142 68.3003087,45.2491446 C67.9627328,46.0617749 67.1687553,46.5909256 66.2887984,46.5897288 C65.0887598,46.5880918 64.1168039,45.6148088 64.1168039,44.4147691 C64.1168039,43.5348113 64.6470373,42.741556 65.4601271,42.4050883 C66.273217,42.0686205 67.2089371,42.2552444 67.8307369,42.8778925 Z M89.0191802,44.2369758 C89.6475988,44.2369758 90.1570366,44.7464135 90.1570366,45.3748321 C90.1582311,45.8367861 89.8807204,46.2538644 89.4541588,46.4312006 C89.0275972,46.6085367 88.5361943,46.5111218 88.2095424,46.18447 C87.8828905,45.8578181 87.7854757,45.3664151 87.9628118,44.9398535 C88.1401479,44.5132919 88.5572263,44.2357813 89.0191802,44.2369758 Z M18.1989663,13.7020811 C20.6377943,13.6917365 22.6294691,15.6484837 22.6622292,18.0871139 C24.7666297,18.2545626 26.4047901,19.9594865 26.5090596,22.046359 L26.5143341,22.2562766 L26.5143341,22.4103608 C28.654469,22.4570714 30.3653379,24.2047898 30.366439,26.3454341 L30.3617225,26.5501788 L30.3456969,26.7543499 L30.5205232,26.7543499 C31.6248204,26.7408701 32.6764264,27.2256123 33.383433,28.0740202 C34.0904396,28.9224281 34.3776013,30.0442072 34.165207,31.1279705 C35.3290557,30.9590361 36.4981977,31.3989711 37.2619718,32.2932484 C38.0257459,33.1875256 38.2773534,34.411098 37.9284171,35.5341858 C39.136075,35.2257935 40.4127069,35.6493981 41.1964523,36.6185661 C41.9801976,37.5877341 42.1273324,38.9247387 41.573101,40.0411485 C42.7705189,39.4902427 44.1878853,39.7965006 45.0510245,40.792642 C45.9141637,41.7887833 46.0155552,43.2353107 45.2998183,44.3421203 C44.5840814,45.4489299 43.2232973,45.949917 41.960736,45.5714387 C40.6981747,45.1929604 39.8373877,44.0260125 39.8485432,42.7079903 C39.8485724,42.28533 39.9405839,41.8677392 40.1181906,41.4842062 C39.0003015,42.0360398 37.6635147,41.8870863 36.694514,41.1027178 C35.7255133,40.3183493 35.3013834,39.041909 35.6082647,37.8335961 C35.2843779,37.9312736 34.9479752,37.981185 34.6096806,37.981754 C32.7080598,37.981754 31.1664915,36.4401857 31.1664915,34.5385648 C31.1676829,34.3828619 31.1795635,34.2274244 31.2020494,34.0733491 C30.9771583,34.1145439 30.7491456,34.1363538 30.5205232,34.1385386 C28.5572814,34.1306704 26.9560851,32.5913115 26.8489373,30.6533769 L26.8432446,30.4582968 L26.8432446,30.2834705 C26.707426,30.2979188 26.5709123,30.3048434 26.4343288,30.3042126 C24.3605797,30.303146 22.6555822,28.6975023 22.5085782,26.6514487 L22.4992556,26.4521078 L22.3422082,26.4521078 C20.2316962,26.4499055 18.4648589,24.8802658 18.1949989,22.8087844 L18.1730455,22.6000029 L18.1552665,22.5911134 C15.7166584,22.5567495 13.7612216,20.5637883 13.7731563,18.1249675 C13.7852008,15.6861468 15.7601382,13.7125079 18.1989663,13.7020811 Z M84.9507649,39.8426169 C85.7624722,39.8426169 86.420491,40.5006357 86.420491,41.3123431 C86.420491,42.1240504 85.7624722,42.7820692 84.9507649,42.7820692 C84.1390575,42.7820692 83.4810387,42.1240504 83.4810387,41.3123431 C83.4810387,40.5006357 84.1390575,39.8426169 84.9507649,39.8426169 Z M63.6195609,38.2715759 C64.3221029,38.9741179 64.532267,40.0306841 64.152054,40.9485994 C63.771841,41.8665147 62.8761274,42.4650114 61.8825831,42.4650114 C60.5265958,42.4633786 59.4277582,41.364541 59.4261254,40.0085537 C59.4261254,39.0150094 60.0246221,38.1192958 60.9425374,37.7390828 C61.8604527,37.3588698 62.9170189,37.5690339 63.6195609,38.2715759 Z M80.8942021,35.4482542 C81.879452,35.459617 82.6721622,36.2615755 82.6720967,37.2468909 C82.6720482,37.9762486 82.2315462,38.6333709 81.5568918,38.9105065 C80.8822373,39.1876421 80.1070116,39.0299183 79.5942774,38.5112022 C79.0815432,37.9924861 78.9328216,37.2154832 79.2177636,36.5440885 C79.5027056,35.8726938 80.1648929,35.4398432 80.8942021,35.4482542 Z M57.4763677,32.8614176 C58.9885,32.8614176 60.2143253,34.087243 60.2143253,35.5993753 C60.2143253,37.1115075 58.9885,38.3373329 57.4763677,38.3373329 C55.9642355,38.3373329 54.7384101,37.1115075 54.7384101,35.5993753 C54.7384101,34.087243 55.9642355,32.8614176 57.4763677,32.8614176 Z M76.8228236,31.0598178 C77.9978355,31.0598178 78.9503708,32.0123531 78.9503708,33.187365 C78.9487386,34.3617001 77.9971587,35.31328 76.8228236,35.3149121 C75.6478118,35.3149121 74.6952765,34.3623768 74.6952765,33.187365 C74.6952765,32.0123531 75.6478118,31.0598178 76.8228236,31.0598178 Z M31.0005547,4.69660478 C33.3851788,4.69660478 35.3311987,6.57449258 35.4404532,8.93210697 L35.4452911,9.14134116 L35.4452911,9.40209902 C37.7364005,9.40209902 39.5937117,11.2594102 39.5937117,13.5505196 C39.5920136,13.7359315 39.5781558,13.9210323 39.5522275,14.1046301 C39.6470485,14.0898143 39.7477959,14.0898143 39.8485432,14.0898143 C41.9846638,14.0914499 43.7154645,15.823577 43.7154639,17.9596981 C43.7151548,18.2591879 43.6793471,18.5575854 43.6087902,18.8486454 C44.8846136,18.6067626 46.1911753,19.0765947 47.0207894,20.0755806 C47.8504035,21.0745666 48.0722641,22.4451955 47.6001635,23.654887 C48.9622523,23.1878536 50.4698803,23.658493 51.3243708,24.8174805 C52.1788614,25.9764681 52.182655,27.5558442 51.333742,28.7189233 C52.6243274,27.8134534 54.3931421,28.0459742 55.4058664,29.2542274 C56.4185907,30.4624806 56.3384868,32.2447137 55.2214531,33.3572432 C54.1044194,34.4697727 52.3218772,34.542675 51.1177257,33.5250772 C49.9135742,32.5074793 49.6882019,30.7377396 50.598879,29.4508233 C49.5956816,30.1827515 48.2663841,30.2891096 47.1595703,29.7260047 C46.0527565,29.1628999 45.3560811,28.0258039 45.3570532,26.7839814 C45.3577858,26.4218108 45.4188736,26.0622945 45.5378058,25.7202079 C44.4387526,26.1366214 43.205305,25.9869772 42.2377109,25.3198341 C41.2701169,24.652691 40.6916724,23.5530599 40.69008,22.3777661 C40.6911201,22.1619794 40.7119494,21.9467428 40.7523063,21.7347609 C40.4608988,21.8030246 40.1626546,21.8378198 39.863359,21.8384714 C37.7995787,21.8384932 36.1117626,20.2226288 35.9993914,18.1848482 L35.9934752,17.9863666 L35.9934752,17.6900508 C35.8098774,17.7159791 35.6247766,17.7298369 35.4393647,17.731535 C33.2176829,17.731535 31.4039068,15.9850826 31.2960211,13.7901624 L31.2909441,13.5831144 L31.0331494,13.5831144 L31.0005547,13.5860775 C28.5457946,13.5860775 26.5558183,11.5961013 26.5558183,9.14134116 C26.5558183,6.68658104 28.5457946,4.69660478 31.0005547,4.69660478 Z M149.313511,20.28874 C150.599749,20.2721807 151.853837,20.6745188 152.888147,21.4309639 L153.106353,21.5984557 L153.106353,20.5583873 L156.454721,20.5583873 L156.454721,33.5222018 L153.106353,33.5222018 L153.100426,32.4791703 C152.098985,33.3420514 150.816036,33.8080034 149.494263,33.788886 C147.624543,33.7933671 145.842903,32.9948125 144.60209,31.5961494 C143.526333,30.3281168 142.940757,28.7164706 142.951611,27.0536288 C142.951611,23.2281923 145.78439,20.28874 149.313511,20.28874 Z M204.561584,16.9492614 L204.561584,20.5583873 L208.822605,20.5583873 L208.822605,23.4978397 L204.546768,23.4978397 L204.546768,28.4433497 C204.546768,29.2434022 204.677147,29.7263969 204.973463,30.0730864 C205.337931,30.4731126 205.897968,30.7131284 206.751358,30.7131284 C207.10837,30.7096664 207.464692,30.683711 207.818207,30.6354608 L208.17071,30.5797863 L208.704078,33.5222018 C207.997351,33.7028945 207.270426,33.7925154 206.540973,33.7889919 C204.45491,33.7889919 202.937774,33.1014334 202.048826,31.9161704 C201.421334,31.0878807 201.121943,30.0207338 201.088891,28.3589917 L201.0858,28.0403602 L201.0858,23.4978397 L197.476674,23.4978397 L197.476674,20.5583873 L201.0858,20.5583873 L201.0858,16.9492614 L204.561584,16.9492614 Z M182.417907,20.28874 C184.007477,20.28874 185.742415,20.8622848 186.651689,21.4876629 L186.803381,21.5984557 L185.170681,24.1112133 C184.45316,23.5662126 183.585002,23.2557867 182.684592,23.222266 C181.709713,23.222266 180.906697,23.5956239 180.906697,24.2623343 C180.906697,25.948371 187.188591,25.2786974 187.188591,29.7708443 C187.188591,32.2569335 184.755839,33.7799965 182.029734,33.7799965 C180.271821,33.7633202 178.560104,33.2313644 177.105063,32.2538901 L176.81754,32.0524756 L178.500613,29.5663864 C179.495889,30.4024363 180.756611,30.856296 182.056402,30.8464705 C182.989797,30.8464705 183.71577,30.3931074 183.727623,29.7530653 C183.727623,27.8003445 177.445729,28.4966865 177.445729,24.3245606 C177.445729,21.8414346 179.851813,20.28874 182.417907,20.28874 Z M226.560066,20.2798505 C230.492176,20.2798505 233.455334,23.3022713 233.455334,27.0447393 C233.455334,30.7872073 230.489213,33.7799965 226.560066,33.7799965 C222.630919,33.7799965 219.664798,30.7872073 219.664798,27.0447393 C219.664798,23.3022713 222.627956,20.2798505 226.560066,20.2798505 Z M243.936022,20.3005378 C245.665742,20.2931053 247.309801,21.0527365 248.425206,22.3748029 C249.238741,23.3403478 249.712646,24.5706435 249.768165,26.591581 L249.773443,26.9173235 L249.773443,33.5222018 L246.297659,33.5222018 L246.297659,26.6506393 C246.297659,25.3675921 246.004306,24.7008816 245.524275,24.217887 C244.993353,23.7304701 244.291814,23.4717843 243.571554,23.4978397 C242.406879,23.5270012 241.312536,24.0462949 240.554043,24.9212208 L240.406901,25.1009079 L240.406901,33.5222018 L236.931118,33.5222018 L236.931118,20.5583873 L240.273559,20.5583873 L240.273559,21.6103083 C241.304111,20.7596762 242.599761,20.2963452 243.936022,20.3005378 Z M131.054534,14.8098616 L131.054534,18.0189613 L126.109024,18.0189613 L126.109024,33.5222018 L122.502861,33.5222018 L122.502861,18.0189613 L117.557351,18.0189613 L117.557351,14.8098616 L131.054534,14.8098616 Z M140.035864,20.28874 C140.333846,20.2915257 140.631298,20.3122881 140.926601,20.3508817 L141.221127,20.3954137 L140.821101,23.6311818 C140.409953,23.5319152 139.987547,23.4870843 139.564722,23.4978397 C138.339003,23.5433009 137.213139,24.1691471 136.52654,25.1746585 L136.403033,25.3675921 L136.403033,33.5222018 L132.927249,33.5222018 L132.927249,20.5583873 L136.263765,20.5583873 L136.263765,21.868103 C137.040112,20.9050768 138.456501,20.28874 140.035864,20.28874 Z M194.406843,20.5583873 L194.406843,33.5222018 L190.931059,33.5222018 L190.931059,20.5583873 L194.406843,20.5583873 Z M167.996219,20.3005378 C169.725939,20.2931053 171.369998,21.0527365 172.485403,22.3748029 C173.298938,23.3403478 173.772843,24.5706435 173.8182,26.591581 L173.821787,26.9173235 L173.821787,33.5222018 L170.348967,33.5222018 L170.348967,26.6506393 C170.348967,25.3675921 170.052651,24.7008816 169.572619,24.217887 C169.039824,23.7277014 168.334409,23.4687649 167.611009,23.4978397 C166.449282,23.5294817 165.358458,24.0486941 164.602001,24.9216416 L164.455246,25.1009079 L164.455246,33.5222018 L160.994278,33.5222018 L160.994278,20.5583873 L164.333757,20.5583873 L164.333757,21.6103083 C165.364559,20.7601167 166.660044,20.2968445 167.996219,20.3005378 Z M216.189014,20.5583873 L216.189014,33.5222018 L212.716194,33.5222018 L212.716194,20.5583873 L216.189014,20.5583873 Z M72.7573714,26.6595288 C74.1140355,26.6595288 75.213829,27.7593224 75.213829,29.1159865 C75.213829,30.4726505 74.1140355,31.5724441 72.7573714,31.5724441 C71.4007073,31.5724441 70.3009138,30.4726505 70.3009138,29.1159865 C70.3009138,27.7593224 71.4007073,26.6595288 72.7573714,26.6595288 Z M149.766874,23.4978147 C147.734148,23.4978147 146.424432,25.1809132 146.424432,27.0536288 C146.424432,29.0982075 147.894158,30.5797863 149.846879,30.5797863 C151.015579,30.5892592 152.118869,30.0593069 152.841963,29.1513502 L152.97301,28.976718 L152.97301,25.1009079 C152.219089,24.0882308 151.029368,23.4933704 149.766874,23.4978147 Z M226.560066,23.4889502 C224.530303,23.4978397 223.140582,25.0949816 223.140582,27.0447393 C223.140582,28.994497 224.52734,30.5708968 226.560066,30.5708968 C228.592792,30.5708968 229.982513,28.9974602 229.982513,27.0447393 C229.982513,25.0920185 228.592792,23.4889502 226.560066,23.4889502 Z M48.3379897,0.25779471 C50.7927498,0.25779471 52.7827261,2.24777097 52.7827261,4.70253109 C54.8309392,4.8839183 56.4162337,6.55115623 56.5144419,8.58423911 L56.5192678,8.7887254 L56.5192678,9.08504116 C57.6300614,9.08417147 58.6840313,9.57600902 59.3968873,10.427889 C60.1097432,11.279769 60.4080565,12.4039425 60.2113622,13.4971828 C61.3691764,13.3789436 62.5084516,13.8530868 63.2405116,14.7578533 C63.9725717,15.6626197 64.1985043,16.875762 63.8412302,17.9834034 C64.0972112,17.9141278 64.361278,17.8792511 64.626467,17.8796929 C65.7676061,17.8777019 66.8182677,18.5005695 67.3641423,19.502679 C67.9100169,20.5047885 67.8635001,21.7253171 67.2429351,22.6829713 C68.3295415,22.0175662 69.7285243,22.1705695 70.6456165,23.0551142 C71.5627086,23.939659 71.7661422,25.3322026 71.1404184,26.4421338 C70.5146947,27.5520651 69.217947,28.0988815 67.9863987,27.7721302 C66.7548505,27.445379 65.8997392,26.3276367 65.9065511,25.0534974 C65.9060552,24.5406168 66.0486982,24.0377744 66.31843,23.6015502 C65.8150898,23.9293488 65.2271351,24.103367 64.626467,24.1023238 C63.6642678,24.0987555 62.7580749,23.6493561 62.1728943,22.8855474 C61.5877136,22.1217388 61.389656,21.1298122 61.636641,20.1998453 C60.5301868,20.5559455 59.3187531,20.3297702 58.4153256,19.5984242 C57.5118981,18.8670781 57.0384364,17.7292904 57.1563467,16.5729404 C56.0631064,16.7696347 54.9389329,16.4713214 54.0870529,15.7584655 C53.2351729,15.0456095 52.7433354,13.9916396 52.7442051,12.880846 C52.6434577,12.8956618 52.5456735,12.8956618 52.4478893,12.8956618 C50.3872631,12.9036938 48.6529231,11.383214 48.37295,9.36279081 L48.3498424,9.1591201 L48.3379897,9.14726747 C45.8832296,9.14726747 43.8932533,7.15729121 43.8932533,4.70253109 C43.8932533,2.24777097 45.8832296,0.25779471 48.3379897,0.25779471 Z M91.2089537,25.2638816 C91.4740678,25.2638816 91.6889852,25.478799 91.6889852,25.7439131 C91.6889852,26.0090272 91.4740678,26.2239446 91.2089537,26.2239446 C90.9438396,26.2239446 90.7289222,26.0090272 90.7289222,25.7439131 C90.7289222,25.478799 90.9438396,25.2638816 91.2089537,25.2638816 Z M87.9908921,21.1280268 C88.4016841,21.2981824 88.6695276,21.6990386 88.6695276,22.1436767 C88.6695276,22.7508207 88.1773402,23.2430081 87.5701962,23.2430081 C87.1255581,23.2430081 86.724702,22.9751646 86.5545463,22.5643726 C86.3843907,22.1535806 86.4784449,21.6807385 86.7928514,21.3663319 C87.107258,21.0519253 87.5801001,20.9578712 87.9908921,21.1280268 Z M83.9344018,16.8248088 C84.8835757,16.8248088 85.6530332,17.5942663 85.6530332,18.5434402 C85.6530332,19.4926141 84.8835757,20.2620716 83.9344018,20.2620716 C82.9852279,20.2620716 82.2157704,19.4926141 82.2157704,18.5434402 C82.2157704,17.5942663 82.9852279,16.8248088 83.9344018,16.8248088 Z M214.452604,13.7401617 C215.707805,13.7401617 216.725346,14.7338232 216.725346,15.9595668 C216.725346,17.1853103 215.707805,18.1789718 214.452604,18.1789718 C213.197403,18.1789718 212.179862,17.1853103 212.179862,15.9595668 C212.179862,14.7338232 213.197403,13.7401617 214.452604,13.7401617 Z M192.667469,13.7401617 C193.92267,13.7401617 194.940211,14.7338232 194.940211,15.9595668 C194.940211,17.1853103 193.92267,18.1789718 192.667469,18.1789718 C191.412269,18.1789718 190.394728,17.1853103 190.394728,15.9595668 C190.394728,14.7338232 191.412269,13.7401617 192.667469,13.7401617 Z M78.7999352,9.29619537 C79.7328564,10.2728153 79.887333,11.7567172 79.1755707,12.9045513 C79.519267,12.7108139 79.9070316,12.6087706 80.3015706,12.6082355 C81.5911995,12.6164093 82.6306445,13.6673295 82.6246849,14.9569704 C82.6186738,16.2466113 81.5695189,17.2878381 80.2798697,17.2840515 C78.9902204,17.2802441 77.9472149,16.2328575 77.9488235,14.9432037 C77.9481876,14.5582805 78.0439452,14.1793248 78.2273603,13.8409091 C77.8175964,14.1002569 77.3513764,14.2545029 76.8699496,14.2915379 L76.6628131,14.3001985 C75.3151788,14.3099981 74.1328524,13.4000902 73.7907519,12.0935315 C73.4486513,10.7869728 74.0333481,9.41439937 75.21254,8.75588962 C76.3917318,8.09737988 77.8670139,8.31957547 78.7999352,9.29619537 Z" id="Combined-Shape"></path>
            </g>
        </g>
    </g>
</svg>